<svg fill="none" xmlns="http://www.w3.org/2000/svg" viewBox="0 0 30 24"><path d="M29.314 2.966a11.922 11.922 0 0 1-3.432.94A5.992 5.992 0 0 0 28.51.601a11.963 11.963 0 0 1-3.795 1.45A5.97 5.97 0 0 0 20.352.163a5.977 5.977 0 0 0-5.82 7.338A16.963 16.963 0 0 1 2.215 1.257a5.95 5.95 0 0 0-.81 3.005 5.975 5.975 0 0 0 2.659 4.974 5.936 5.936 0 0 1-2.707-.749v.076a5.98 5.98 0 0 0 4.794 5.86 5.953 5.953 0 0 1-2.699.102 5.982 5.982 0 0 0 5.582 4.15 11.99 11.99 0 0 1-7.422 2.558c-.481 0-.958-.028-1.424-.083a16.903 16.903 0 0 0 9.159 2.685c10.991 0 17.002-9.106 17.002-17.003 0-.26-.006-.517-.017-.773a12.117 12.117 0 0 0 2.982-3.093z" fill="#F1F2F2"/></svg>