<svg fill="none" xmlns="http://www.w3.org/2000/svg" viewBox="0 0 34 20"><path fill-rule="evenodd" clip-rule="evenodd" d="M17.056 18.963h1.962s.593-.065.896-.39c.278-.3.27-.863.27-.863s-.039-2.633 1.183-3.02c1.204-.382 2.751 2.544 4.39 3.67 1.24.851 2.183.665 2.183.665l4.384-.062s2.293-.14 1.206-1.944c-.09-.147-.634-1.334-3.26-3.771-2.749-2.552-2.38-2.14.93-6.552 2.017-2.688 2.823-4.33 2.572-5.032-.24-.67-1.724-.492-1.724-.492l-4.936.03s-.366-.05-.637.113c-.265.159-.436.53-.436.53s-.781 2.08-1.823 3.848c-2.198 3.733-3.077 3.93-3.436 3.698-.836-.54-.627-2.17-.627-3.328 0-3.617.549-5.125-1.068-5.515-.537-.13-.932-.215-2.304-.23C15.02.3 13.53.325 12.685.739c-.561.275-.994.887-.73.923.326.043 1.064.199 1.456.732.506.688.488 2.234.488 2.234s.29 4.258-.679 4.787c-.665.362-1.578-.378-3.537-3.764C8.679 3.915 7.92 1.998 7.92 1.998s-.146-.358-.407-.55c-.316-.232-.759-.306-.759-.306l-4.69.03s-.704.02-.963.326c-.23.273-.018.836-.018.836s3.672 8.591 7.83 12.92c3.813 3.97 8.142 3.71 8.142 3.71z" fill="#fff"/></svg>