<svg width="646" height="1080" fill="none" xmlns="http://www.w3.org/2000/svg"><g clip-path="url(#clip0)"><path d="M141.089-425.939l11.194-6.484 11.193 6.484v12.964l-11.193 6.484-11.194-6.484v-12.964zM753.698-89.612l3.63-2.103 3.631 2.103v4.206l-3.631 2.103-3.63-2.103v-4.206zm-15.923-27.662l3.63-2.102 3.632 2.102v4.208l-3.632 2.102-3.63-2.102v-4.208zm15.923-27.662l3.63-2.103 3.631 2.103v4.207l-3.631 2.103-3.63-2.103v-4.207zm-15.923-27.663l3.63-2.102 3.632 2.102v4.208l-3.632 2.102-3.63-2.102v-4.208zM638.46 212.484l7.412-4.291 7.413 4.291v8.587l-7.413 4.295-7.412-4.295v-8.587zm0-55.324l7.412-4.293 7.413 4.293v8.588l-7.413 4.29-7.412-4.29v-8.588zm-15.921-27.661l7.411-4.295 7.412 4.295v8.585l-7.412 4.294-7.411-4.294v-8.585zm31.844 0l7.412-4.293 7.412 4.293v8.585l-7.412 4.292-7.412-4.292v-8.585zm-15.923-27.663l7.412-4.295 7.413 4.295v8.585l-7.413 4.296-7.412-4.296v-8.585zm-15.921-27.664l7.411-4.29 7.412 4.29v8.587l-7.412 4.295-7.411-4.295v-8.587zm31.844 0l7.412-4.29 7.412 4.29v8.587l-7.412 4.294-7.412-4.294v-8.587zm-47.766-27.661l7.411-4.293 7.412 4.293v8.587l-7.412 4.292-7.411-4.292v-8.587zm31.843 0l7.412-4.293 7.413 4.293v8.587l-7.413 4.292-7.412-4.292v-8.587zm31.845 0l7.411-4.293 7.412 4.293v8.587l-7.412 4.292-7.411-4.292v-8.587zm-47.766-27.664l7.411-4.292 7.412 4.293v8.586l-7.412 4.294-7.411-4.294v-8.587zm31.844 0l7.412-4.292 7.412 4.293v8.586l-7.412 4.293-7.412-4.293v-8.587zm-47.766-27.66l7.411-4.294 7.412 4.293v8.585l-7.412 4.293-7.411-4.293v-8.585zm31.843 0l7.412-4.294 7.413 4.293v8.585l-7.413 4.293-7.412-4.293v-8.585zm31.845 0l7.411-4.294 7.412 4.293v8.585l-7.412 4.293-7.411-4.293v-8.585zm-79.611-27.663l7.413-4.292 7.41 4.292v8.586l-7.41 4.292-7.413-4.292v-8.586zm31.845 0l7.411-4.292 7.412 4.292v8.586l-7.412 4.293-7.411-4.293v-8.586zm31.844 0l7.412-4.292 7.412 4.292v8.586l-7.412 4.292-7.412-4.292v-8.586zm31.845 0l7.412-4.292 7.41 4.292v8.586l-7.41 4.293-7.412-4.293v-8.586zm-79.611-27.663l7.411-4.294 7.412 4.294v8.588l-7.412 4.291-7.411-4.291v-8.588zm31.843 0l7.412-4.294 7.413 4.294v8.588l-7.413 4.291-7.412-4.291v-8.588zm31.845 0l7.411-4.294 7.412 4.294v8.588l-7.412 4.291-7.411-4.291v-8.588zm-47.766-27.662l7.411-4.293 7.412 4.293v8.586l-7.412 4.292-7.411-4.292V-91.8zm31.844 0l7.412-4.293 7.412 4.293v8.586l-7.412 4.292-7.412-4.292V-91.8zm-15.923-27.663l7.412-4.293 7.413 4.293v8.586l-7.413 4.295-7.412-4.295v-8.586zm66.211 56.785l4.89-2.833 4.892 2.833v5.668l-4.892 2.833-4.89-2.833v-5.668zm-15.923-27.663l4.892-2.832 4.89 2.832v5.667l-4.89 2.833-4.892-2.833v-5.667zm31.846 0l4.889-2.832 4.891 2.832v5.667l-4.891 2.833-4.889-2.833v-5.667zm-15.923-27.662l4.89-2.832 4.892 2.832v5.667l-4.892 2.833-4.89-2.833v-5.667zm15.923-27.662l4.889-2.834 4.891 2.834v5.667l-4.891 2.832-4.889-2.832v-5.667zM104.212 991.155l.306-.178.304.178v.353l-.304.177-.306-.177v-.353zm31.843 0l.305-.178.306.178v.353l-.306.177-.305-.177v-.353zm31.845 0l.305-.178.305.178v.353l-.305.177-.305-.177v-.353zm31.844 0l.308-.178.305.178v.353l-.305.177-.308-.177v-.353zm31.846 0l.305-.178.306.178v.353l-.306.177-.305-.177v-.353zm31.844 0l.306-.178.304.178v.353l-.304.177-.306-.177v-.353zm31.845 0l.305-.178.305.178v.353l-.305.177-.305-.177v-.353zm31.842 0l.307-.178.306.178v.353l-.306.177-.307-.177v-.353zm31.848 0l.305-.178.305.178v.353l-.305.177-.305-.177v-.353zm-206.992-27.662l.306-.177.305.177v.354l-.305.177-.306-.177v-.354zm31.846 0l.304-.177.308.177v.354l-.308.177-.304-.177v-.354zm31.845 0l.305-.177.306.177v.354l-.306.177-.305-.177v-.354zm31.844 0l.305-.177.305.177v.354l-.305.177-.305-.177v-.354zm31.843 0l.307-.177.305.177v.354l-.305.177-.307-.177v-.354zm31.845 0l.304-.177.307.177v.354l-.307.177-.304-.177v-.354zm31.845 0l.306-.177.305.177v.354l-.305.177-.306-.177v-.354zm31.845 0l.305-.177.306.177v.354l-.306.177-.305-.177v-.354zm31.844 0l.305-.177.305.177v.354l-.305.177-.305-.177v-.354zM231.59 935.819l.305-.177.306.177v.354l-.306.177-.305-.177v-.354zm31.844 0l.306-.177.304.177v.354l-.304.177-.306-.177v-.354zm31.845 0l.305-.177.305.177v.354l-.305.177-.305-.177v-.354zm31.842 0l.307-.177.306.177v.354l-.306.177-.307-.177v-.354zm31.848 0l.305-.177.305.177v.354l-.305.177-.305-.177v-.354zM311.2 908.157l.304-.176.307.176v.355l-.307.177-.304-.177v-.355zm78.663 27.119l1.254-.721 1.254.721v1.453l-1.254.721-1.254-.721v-1.453zm31.846 0l1.252-.721 1.254.721v1.453l-1.254.721-1.252-.721v-1.453zm31.844 0l1.251-.721 1.255.721v1.453l-1.255.721-1.251-.721v-1.453zm31.842 0l1.255-.721 1.254.721v1.453l-1.254.721-1.255-.721v-1.453zm-143.299-27.662l1.255-.733 1.253.733v1.453l-1.253.721-1.255-.721v-1.453zm31.846 0l1.253-.733 1.254.733v1.453l-1.254.721-1.253-.721v-1.453zm31.844 0l1.253-.733 1.253.733v1.453l-1.253.721-1.253-.721v-1.453zm31.844 0l1.253-.733 1.254.733v1.453l-1.254.721-1.253-.721v-1.453zm31.844 0l1.254-.733 1.253.733v1.453l-1.253.721-1.254-.721v-1.453zm31.845 0l1.253-.733 1.254.733v1.453l-1.254.721-1.253-.721v-1.453zM358.02 879.952l1.254-.732 1.252.732v1.454l-1.252.721-1.254-.721v-1.454zm31.843 0l1.254-.732 1.254.732v1.454l-1.254.721-1.254-.721v-1.454zm31.846 0l1.252-.732 1.254.732v1.454l-1.254.721-1.252-.721v-1.454zm31.844 0l1.251-.732 1.255.732v1.454l-1.255.721-1.251-.721v-1.454zm-47.767-27.66l1.253-.734 1.253.734v1.453l-1.253.72-1.253-.72v-1.453zm78.662 27.104l2.202-1.277 2.202 1.277v2.554l-2.202 1.277-2.202-1.277v-2.554zm31.846 0l2.2-1.277 2.203 1.277v2.554l-2.203 1.277-2.2-1.277v-2.554zm31.843 0l2.202-1.277 2.203 1.277v2.554l-2.203 1.277-2.202-1.277v-2.554zm-111.456-27.661l2.202-1.277 2.204 1.277v2.554l-2.204 1.276-2.202-1.276v-2.554zm31.844 0l2.203-1.277 2.202 1.277v2.554l-2.202 1.276-2.203-1.276v-2.554zm31.845 0l2.202-1.277 2.202 1.277v2.554l-2.202 1.276-2.202-1.276v-2.554zm31.845 0l2.203-1.277 2.201 1.277v2.554l-2.201 1.276-2.203-1.276v-2.554zm31.844 0l2.202-1.277 2.202 1.277v2.554l-2.202 1.276-2.202-1.276v-2.554zm-143.3-27.661l2.202-1.277 2.203 1.277v2.554l-2.203 1.276-2.202-1.276v-2.554zm31.846 0l2.199-1.277 2.204 1.277v2.554l-2.204 1.276-2.199-1.276v-2.554zm31.843 0l2.202-1.277 2.202 1.277v2.554l-2.202 1.276-2.202-1.276v-2.554zm31.846 0l2.2-1.277 2.203 1.277v2.554l-2.203 1.276-2.2-1.276v-2.554zm31.843 0l2.202-1.277 2.203 1.277v2.554l-2.203 1.276-2.202-1.276v-2.554zm31.844 0l2.202-1.277 2.202 1.277v2.554l-2.202 1.276-2.202-1.276v-2.554zm-143.3-27.662l2.202-1.277 2.204 1.277v2.554l-2.204 1.277-2.202-1.277v-2.554zm31.844 0l2.203-1.277 2.202 1.277v2.554l-2.202 1.277-2.203-1.277v-2.554zm31.845 0l2.202-1.277 2.202 1.277v2.554l-2.202 1.277-2.202-1.277v-2.554zm31.845 0l2.203-1.277 2.201 1.277v2.554l-2.201 1.277-2.203-1.277v-2.554zm31.844 0l2.202-1.277 2.202 1.277v2.554l-2.202 1.277-2.202-1.277v-2.554zm31.845 0l2.203-1.277 2.2 1.277v2.554l-2.2 1.277-2.203-1.277v-2.554zm-143.299-27.661l2.199-1.274 2.204 1.274v2.553l-2.204 1.275-2.199-1.275v-2.553zm31.843 0l2.202-1.274 2.202 1.274v2.553l-2.202 1.275-2.202-1.275v-2.553zm31.846 0l2.2-1.274 2.203 1.274v2.553l-2.203 1.275-2.2-1.275v-2.553zm31.843 0l2.202-1.274 2.203 1.274v2.553l-2.203 1.275-2.202-1.275v-2.553zm31.844 0l2.202-1.274 2.202 1.274v2.553l-2.202 1.275-2.202-1.275v-2.553zm31.845 0l2.202-1.274 2.203 1.274v2.553l-2.203 1.275-2.202-1.275v-2.553zm-143.301-27.662l2.203-1.275 2.202 1.275v2.551l-2.202 1.275-2.203-1.275v-2.551zm31.845 0l2.202-1.275 2.202 1.275v2.551l-2.202 1.275-2.202-1.275v-2.551zm31.845 0l2.203-1.275 2.201 1.275v2.551l-2.201 1.275-2.203-1.275v-2.551zm31.844 0l2.202-1.275 2.202 1.275v2.551l-2.202 1.275-2.202-1.275v-2.551zm31.845 0l2.203-1.275 2.2 1.275v2.551l-2.2 1.275-2.203-1.275v-2.551zm-111.456-27.662l2.202-1.276 2.202 1.276v2.551l-2.202 1.276-2.202-1.276v-2.551zm31.846 0l2.2-1.276 2.203 1.276v2.551l-2.203 1.276-2.2-1.276v-2.551zm31.843 0l2.202-1.276 2.203 1.276v2.551l-2.203 1.276-2.202-1.276v-2.551zm-79.612-27.662l2.203-1.276 2.202 1.276v2.551l-2.202 1.275-2.203-1.275v-2.551zm31.845 0l2.202-1.276 2.202 1.276v2.551l-2.202 1.275-2.202-1.275v-2.551zm76.299 25.742l5.514-3.195 5.515 3.195v6.391l-5.515 3.193-5.514-3.193v-6.391zm31.845 0l5.514-3.195 5.516 3.195v6.391l-5.516 3.194-5.514-3.194v-6.391zm-79.612-27.662l5.516-3.194 5.515 3.194v6.39l-5.515 3.193-5.516-3.193v-6.39zm31.844 0l5.515-3.194 5.515 3.194v6.39l-5.515 3.193-5.515-3.193v-6.39zm31.845 0l5.516-3.194 5.513 3.194v6.39l-5.513 3.193-5.516-3.193v-6.39zm31.844 0l5.515-3.194 5.514 3.194v6.39l-5.514 3.193-5.515-3.193v-6.39zm-143.3-27.662l5.515-3.195 5.515 3.195v6.391l-5.515 3.192-5.515-3.192v-6.391zm31.845 0l5.514-3.195 5.515 3.195v6.391l-5.515 3.192-5.514-3.192v-6.391zm31.845 0l5.514-3.195 5.515 3.195v6.391l-5.515 3.192-5.514-3.192v-6.391zm31.844 0l5.514-3.195 5.515 3.195v6.391l-5.515 3.192-5.514-3.192v-6.391zm31.845 0l5.514-3.195 5.516 3.195v6.391l-5.516 3.192-5.514-3.192v-6.391zm31.843 0l5.515-3.195 5.515 3.195v6.391l-5.515 3.192-5.515-3.192v-6.391zm-143.3-27.662l5.515-3.194 5.516 3.194v6.388l-5.516 3.194-5.515-3.194v-6.388zm31.845 0l5.516-3.194 5.515 3.194v6.388l-5.515 3.194-5.516-3.194v-6.388zm31.844 0l5.515-3.194 5.515 3.194v6.388l-5.515 3.194-5.515-3.194v-6.388zm31.845 0l5.516-3.194 5.513 3.194v6.388l-5.513 3.194-5.516-3.194v-6.388zm31.844 0l5.515-3.194 5.514 3.194v6.388l-5.514 3.194-5.515-3.194v-6.388zM512.98 600.856l5.514-3.192 5.515 3.192v6.393l-5.515 3.194-5.514-3.194v-6.393zm31.845 0l5.514-3.192 5.515 3.192v6.393l-5.515 3.194-5.514-3.194v-6.393zm31.844 0l5.514-3.192 5.515 3.192v6.393l-5.515 3.194-5.514-3.194v-6.393zm31.845 0l5.514-3.192 5.516 3.192v6.393l-5.516 3.194-5.514-3.194v-6.393zm-111.457-27.662l5.515-3.195 5.516 3.195v6.391l-5.516 3.194-5.515-3.194v-6.391zm141.092 26.384l7.723-4.473 7.723 4.473v8.95l-7.723 4.473-7.723-4.473v-8.95zm-111.455-27.664l7.724-4.472 7.723 4.472v8.95l-7.723 4.473-7.724-4.473v-8.95zm31.843 0l7.724-4.472 7.723 4.472v8.95l-7.723 4.473-7.724-4.473v-8.95zm31.845 0l7.725-4.472 7.723 4.472v8.95l-7.723 4.473-7.725-4.473v-8.95zm31.845 0l7.723-4.472 7.723 4.472v8.95l-7.723 4.473-7.723-4.473v-8.95zm-111.456-27.661l7.723-4.474 7.725 4.474v8.947l-7.725 4.475-7.723-4.475v-8.947zm31.843 0l7.725-4.474 7.724 4.474v8.947l-7.724 4.475-7.725-4.475v-8.947zm31.846 0l7.723-4.474 7.725 4.474v8.947l-7.725 4.475-7.723-4.475v-8.947zm31.844 0l7.724-4.474 7.723 4.474v8.947l-7.723 4.475-7.724-4.475v-8.947zm31.845 0l7.723-4.474 7.723 4.474v8.947l-7.723 4.475-7.723-4.475v-8.947zm-143.3-27.661l7.723-4.475 7.724 4.475v8.947l-7.724 4.473-7.723-4.473v-8.947zm31.845 0l7.724-4.475 7.723 4.475v8.947l-7.723 4.473-7.724-4.473v-8.947zm31.843 0l7.724-4.475 7.723 4.475v8.947l-7.723 4.473-7.724-4.473v-8.947zm31.845 0l7.725-4.475 7.723 4.475v8.947l-7.723 4.473-7.725-4.473v-8.947zm31.845 0l7.723-4.475 7.723 4.475v8.947l-7.723 4.473-7.723-4.473v-8.947zM510.771 488.93l7.723-4.475 7.725 4.475v8.947l-7.725 4.473-7.723-4.473v-8.947zm31.843 0l7.725-4.475 7.724 4.475v8.947l-7.724 4.473-7.725-4.473v-8.947zm31.846 0l7.723-4.475 7.725 4.475v8.947l-7.725 4.473-7.723-4.473v-8.947zm31.844 0l7.724-4.475 7.723 4.475v8.947l-7.723 4.473-7.724-4.473v-8.947zm31.845 0l7.723-4.475 7.723 4.475v8.947l-7.723 4.473-7.723-4.473v-8.947zm-143.3-27.664l7.723-4.473 7.724 4.473v8.95l-7.724 4.473-7.723-4.473v-8.95zm31.845 0l7.724-4.473 7.723 4.473v8.95l-7.723 4.473-7.724-4.473v-8.95zm31.843 0l7.724-4.473 7.723 4.473v8.95l-7.723 4.473-7.724-4.473v-8.95zm31.845 0l7.725-4.473 7.723 4.473v8.95l-7.723 4.473-7.725-4.473v-8.95zm-79.611-27.661l7.723-4.474 7.725 4.474v8.947l-7.725 4.473-7.723-4.473v-8.947zm31.843 0l7.725-4.474 7.724 4.474v8.947l-7.724 4.473-7.725-4.473v-8.947zm-47.765-27.663l7.723-4.474 7.724 4.474v8.947l-7.724 4.474-7.723-4.474v-8.947zm31.845 0l7.724-4.474 7.723 4.474v8.947l-7.723 4.474-7.724-4.474v-8.947zm93.324 54.045l9.932-5.752 9.933 5.752v11.507l-9.933 5.753-9.932-5.753v-11.507zm-47.767-27.66l9.932-5.756 9.934 5.756v11.503l-9.934 5.753-9.932-5.753v-11.503zm31.845 0l9.932-5.754 9.932 5.754v11.503l-9.932 5.753-9.932-5.753v-11.503zm31.844 0l9.932-5.754 9.933 5.754v11.503l-9.933 5.753-9.932-5.753v-11.503zm-79.612-27.665l9.933-5.752 9.933 5.752v11.506l-9.933 5.752-9.933-5.752v-11.506zm31.846 0l9.933-5.752 9.932 5.752v11.506l-9.932 5.752-9.933-5.752v-11.506zm31.844 0l9.932-5.752 9.933 5.752v11.506l-9.933 5.754-9.932-5.754v-11.506zM508.563 377l9.931-5.751 9.933 5.751v11.507l-9.933 5.75-9.931-5.75V377zm31.843 0l9.933-5.751L560.27 377v11.507l-9.931 5.75-9.933-5.75V377zm31.845 0l9.932-5.754 9.934 5.754v11.507l-9.934 5.75-9.932-5.75V377zm31.845 0l9.932-5.751L623.96 377v11.507l-9.932 5.75-9.932-5.75V377zm31.844 0l9.932-5.751 9.933 5.751v11.507l-9.933 5.75-9.932-5.75V377zm-111.455-27.662l9.933-5.752 9.931 5.752v11.504l-9.931 5.755-9.933-5.755v-11.504zm31.843 0l9.933-5.752 9.933 5.752v11.504l-9.933 5.754-9.933-5.754v-11.504zm31.846 0l9.933-5.752 9.932 5.752v11.504l-9.932 5.754-9.933-5.754v-11.504zm31.844 0l9.932-5.752 9.933 5.752v11.504l-9.933 5.755-9.932-5.755v-11.504zm-111.455-27.663l9.931-5.753 9.933 5.753v11.507l-9.933 5.753-9.931-5.753v-11.507zm31.843 0l9.933-5.753 9.931 5.753v11.507l-9.931 5.753-9.933-5.753v-11.507zm31.845 0l9.932-5.753 9.934 5.753v11.507l-9.934 5.753-9.932-5.753v-11.507zm31.845 0l9.932-5.753 9.932 5.753v11.507l-9.932 5.753-9.932-5.753v-11.507zm31.844 0l9.932-5.753 9.933 5.753v11.507l-9.933 5.753-9.932-5.753v-11.507zm-111.455-27.662l9.933-5.754 9.931 5.754v11.505l-9.931 5.753-9.933-5.753v-11.505zm31.843 0l9.933-5.752 9.933 5.752v11.505l-9.933 5.753-9.933-5.753v-11.505zm31.846 0l9.933-5.752 9.932 5.752v11.505l-9.932 5.753-9.933-5.753v-11.505zm31.844 0l9.932-5.754 9.933 5.754v11.505l-9.933 5.753-9.932-5.753v-11.505zm-79.612-27.662l9.933-5.753 9.931 5.753v11.503l-9.931 5.754-9.933-5.754v-11.503zm31.845 0l9.932-5.753 9.934 5.753v11.503l-9.934 5.756-9.932-5.756v-11.503zm31.845 0l9.932-5.753 9.932 5.753v11.503l-9.932 5.754-9.932-5.754v-11.503zm31.844 0l9.932-5.753 9.933 5.753v11.503l-9.933 5.754-9.932-5.754v-11.503zm-111.455-27.662l9.933-5.755 9.931 5.755v11.505l-9.931 5.753-9.933-5.753v-11.505zm31.843 0l9.933-5.753 9.933 5.753v11.505l-9.933 5.753-9.933-5.753v-11.505zm31.846 0l9.933-5.753 9.932 5.753v11.505l-9.932 5.753-9.933-5.753v-11.505zm31.844 0l9.932-5.755 9.933 5.755v11.505l-9.933 5.753-9.932-5.753v-11.505zm-79.612-27.663l9.933-5.753 9.931 5.753v11.504l-9.931 5.753-9.933-5.753v-11.504zm31.845 0l9.932-5.753 9.934 5.753v11.504l-9.934 5.754-9.932-5.754v-11.504zm31.845 0l9.932-5.753 9.932 5.753v11.504l-9.932 5.753-9.932-5.753v-11.504zm-47.768-27.665l9.933-5.75 9.933 5.75v11.509l-9.933 5.75-9.933-5.75v-11.509zm31.846 0l9.933-5.75 9.932 5.75v11.509l-9.932 5.75-9.933-5.75v-11.509zm31.844 0l9.932-5.75 9.933 5.75v11.509l-9.933 5.75-9.932-5.75v-11.509zm-79.612-27.66l9.933-5.753 9.931 5.753v11.505l-9.931 5.752-9.933-5.752v-11.505zm31.845 0l9.932-5.753 9.934 5.753v11.505l-9.934 5.752-9.932-5.752v-11.505zm31.845 0l9.932-5.753 9.932 5.753v11.505l-9.932 5.752-9.932-5.752v-11.505zm-47.768-27.662l9.933-5.753 9.933 5.753v11.503l-9.933 5.754-9.933-5.754v-11.503zm31.846 0l9.933-5.753 9.932 5.753v11.503l-9.932 5.754-9.933-5.754v-11.503zm-15.923-27.662l9.932-5.754 9.934 5.754v11.503l-9.934 5.755-9.932-5.755v-11.503zm31.845 0l9.932-5.753 9.932 5.753v11.503l-9.932 5.754-9.932-5.754v-11.503zm-47.768-27.663l9.933-5.752 9.933 5.752v11.504l-9.933 5.753-9.933-5.753V72.714zm31.846 0l9.933-5.752 9.932 5.752v11.504l-9.932 5.753-9.933-5.753V72.714zm-15.923-27.661l9.932-5.755 9.934 5.755v11.504l-9.934 5.752-9.932-5.752V45.053zm-15.923-27.665l9.933-5.754 9.933 5.754v11.506l-9.933 5.752-9.933-5.752V17.388zm31.846 0l9.933-5.754 9.932 5.754v11.506l-9.932 5.752-9.933-5.752V17.388zm-15.923-27.661l9.932-5.754 9.934 5.754V1.23l-9.934 5.753-9.932-5.753v-11.504zm-15.923-27.662l9.933-5.754 9.933 5.754v11.504l-9.933 5.754-9.933-5.754v-11.504zm198.63 281.002l2.37-1.373 2.37 1.373v2.749l-2.37 1.372-2.37-1.372v-2.749zm0-55.327l2.37-1.371 2.37 1.372v2.748l-2.37 1.373-2.37-1.372v-2.75zm0-55.323l2.37-1.373 2.37 1.373v2.748l-2.37 1.373-2.37-1.373v-2.748zm-15.922-27.662l2.369-1.373 2.371 1.373v2.747l-2.371 1.374-2.369-1.374v-2.747zm15.922-27.662l2.37-1.371 2.37 1.372v2.748l-2.37 1.371-2.37-1.371v-2.749zM739.036 49.43l2.369-1.372 2.371 1.372v2.748l-2.371 1.372-2.369-1.372V49.43zm15.922-27.662l2.37-1.373 2.37 1.373v2.748l-2.37 1.372-2.37-1.372v-2.748zM739.036-5.895l2.369-1.373 2.371 1.373v2.748l-2.371 1.372-2.369-1.372v-2.748zm15.922-27.66l2.37-1.374 2.37 1.373v2.746l-2.37 1.374-2.37-1.374v-2.746zM739.036-61.22l2.369-1.373 2.371 1.373v2.748l-2.371 1.373-2.369-1.373v-2.748zm12.141 468.073l6.151-3.563 6.151 3.563v7.126l-6.151 3.563-6.151-3.563v-7.126zM703.41 379.19l6.151-3.564 6.151 3.564v7.126l-6.151 3.562-6.151-3.562v-7.126zm31.845 0l6.15-3.564 6.152 3.564v7.126l-6.152 3.562-6.15-3.562v-7.126zm-47.767-27.662l6.152-3.562 6.151 3.562v7.125l-6.151 3.564-6.152-3.564v-7.125zm31.846 0l6.149-3.561 6.152 3.561v7.125l-6.152 3.564-6.149-3.564v-7.125zm31.843 0l6.151-3.561 6.151 3.561v7.125l-6.151 3.564-6.151-3.564v-7.125zm-79.612-27.664l6.151-3.561 6.153 3.561v7.129l-6.153 3.562-6.151-3.562v-7.129zm31.845 0l6.151-3.561 6.151 3.561v7.129l-6.151 3.562-6.151-3.562v-7.129zm31.845 0l6.15-3.561 6.152 3.561v7.129l-6.152 3.562-6.15-3.562v-7.129zm-79.611-27.661l6.151-3.563 6.151 3.563v7.126l-6.151 3.562-6.151-3.562v-7.126zm31.844 0l6.152-3.563 6.151 3.563v7.126l-6.151 3.562-6.152-3.562v-7.126zm31.846 0l6.149-3.563 6.152 3.563v7.126l-6.152 3.562-6.149-3.562v-7.126zm-47.769-27.663l6.151-3.562 6.153 3.562v7.127l-6.153 3.562-6.151-3.562v-7.127zm31.845 0l6.151-3.562 6.151 3.562v7.127l-6.151 3.562-6.151-3.562v-7.127zm-47.766-27.662l6.151-3.563 6.151 3.563v7.127l-6.151 3.561-6.151-3.561v-7.127zm31.844 0l6.152-3.563 6.151 3.563v7.127l-6.151 3.561-6.152-3.561v-7.127zm-15.922-27.662l6.15-3.563 6.153 3.563v7.125l-6.153 3.564-6.15-3.564v-7.125zm31.844 0l6.151-3.563 6.151 3.563v7.125l-6.151 3.564-6.151-3.564v-7.125zm-47.766-27.664l6.151-3.562 6.151 3.562v7.127l-6.151 3.562-6.151-3.562v-7.127zm31.844 0l6.152-3.562 6.151 3.562v7.127l-6.151 3.562-6.152-3.562v-7.127zm-15.922-27.661l6.15-3.564 6.153 3.564v7.124l-6.153 3.562-6.15-3.562v-7.124zm15.922-27.662l6.152-3.563 6.151 3.563v7.125l-6.151 3.563-6.152-3.563v-7.125zm-15.922-27.663l6.15-3.563 6.153 3.563v7.126l-6.153 3.563-6.15-3.563v-7.126zm15.922-27.663l6.152-3.562 6.151 3.563v7.126l-6.151 3.562-6.152-3.562v-7.127zm0-55.325l6.152-3.563 6.151 3.563v7.127l-6.151 3.564-6.152-3.564v-7.127zm66.21 278.084l3.63-2.103 3.631 2.103v4.206l-3.631 2.103-3.63-2.103v-4.206zm-15.923-27.66l3.63-2.104 3.632 2.104v4.205l-3.632 2.103-3.63-2.103v-4.205zm-15.922-27.664l3.63-2.103 3.631 2.103v4.207l-3.631 2.103-3.63-2.103v-4.207zm15.922-27.663l3.63-2.101 3.632 2.101v4.207l-3.632 2.103-3.63-2.103v-4.207zm-15.922-27.664l3.63-2.1 3.631 2.1v4.209l-3.631 2.101-3.63-2.101v-4.209zm-15.922-27.661l3.63-2.103 3.631 2.103v4.206l-3.631 2.101-3.63-2.103v-4.204zm31.844 0l3.63-2.103 3.632 2.103v4.206l-3.632 2.101-3.63-2.101v-4.206zm-15.922-27.663l3.63-2.102 3.631 2.102v4.208l-3.631 2.103-3.63-2.103v-4.208zm-15.922-27.662l3.63-2.103 3.631 2.103v4.208l-3.631 2.103-3.63-2.103v-4.208zm15.922-27.662l3.63-2.1 3.631 2.1v4.207l-3.631 2.104-3.63-2.104v-4.207zM705.931 48.7l3.63-2.101 3.631 2.101v4.208l-3.631 2.101-3.63-2.103V48.7zm15.922-27.662l3.63-2.103 3.631 2.103v4.208l-3.631 2.102-3.63-2.102v-4.208zM705.931-6.624l3.63-2.103 3.631 2.103v4.206l-3.631 2.102-3.63-2.102v-4.206zm15.922-27.662l3.63-2.102 3.631 2.102v4.206l-3.631 2.103-3.63-2.103v-4.206zM24.599 1018.82l.306-.18.304.18v.35l-.304.18-.306-.18v-.35zm31.847 0l.304-.18.305.18v.35l-.305.18-.304-.18v-.35zm31.844 0l.305-.18.305.18v.35l-.305.18-.305-.18v-.35zm31.844 0l.306-.18.305.18v.35l-.305.18-.306-.18v-.35zm31.843 0l.306-.18.305.18v.35l-.305.18-.306-.18v-.35zm31.846 0l.304-.18.308.18v.35l-.308.18-.304-.18v-.35zm31.845 0l.305-.18.306.18v.35l-.306.18-.305-.18v-.35zm31.844 0l.305-.18.305.18v.35l-.305.18-.305-.18v-.35zm31.843 0l.307-.18.305.18v.35l-.305.18-.307-.18v-.35zm31.845 0l.304-.18.307.18v.35l-.307.18-.304-.18v-.35zm31.845 0l.306-.18.305.18v.35l-.305.18-.306-.18v-.35zm31.845 0l.305-.18.306.18v.35l-.306.18-.305-.18v-.35zm31.844 0l.305-.18.305.18v.35l-.305.18-.305-.18v-.35zm31.845 0l.304-.18.305.18v.35l-.305.18-.304-.18v-.35zm31.844 0l.305-.18.305.18v.35l-.305.18-.305-.18v-.35zm31.844 0l.305-.18.305.18v.35l-.305.18-.305-.18v-.35zm-111.455-27.665l.305-.178.305.178v.353l-.305.177-.305-.177v-.353zm31.844 0l.305-.178.305.178v.353l-.305.177-.305-.177v-.353zm31.845 0l.303-.178.308.178v.353l-.308.177-.303-.177v-.353zm78.662 27.105l1.255-.72 1.252.72v1.45l-1.252.74-1.255-.74v-1.45zm31.845 0l1.253-.72 1.254.72v1.45l-1.254.74-1.253-.74v-1.45zm31.844 0l1.255-.72 1.252.72v1.45l-1.252.74-1.255-.74v-1.45zm31.844 0l1.254-.72 1.254.72v1.45l-1.254.74-1.254-.74v-1.45zm31.845 0l1.254-.72 1.253.72v1.45l-1.253.74-1.254-.74v-1.45zm31.844 0l1.255-.72 1.254.72v1.45l-1.254.74-1.255-.74v-1.45zm-206.99-27.662l1.255-.72 1.254.72v1.453l-1.254.721-1.255-.721v-1.453zm31.847 0l1.252-.72 1.254.72v1.453l-1.254.721-1.252-.721v-1.453zm31.843 0l1.254-.72 1.252.72v1.453l-1.252.721-1.254-.721v-1.453zm31.844 0l1.254-.72 1.254.72v1.453l-1.254.721-1.254-.721v-1.453zm31.844 0l1.255-.72 1.253.72v1.453l-1.253.721-1.255-.721v-1.453zm31.845 0l1.254-.72 1.254.72v1.453l-1.254.721-1.254-.721v-1.453zM437.63 962.937l1.253-.721 1.254.721v1.454l-1.254.72-1.253-.72v-1.454zm31.844 0l1.254-.721 1.253.721v1.454l-1.253.72-1.254-.72v-1.454zm31.845 0l1.253-.721 1.254.721v1.454l-1.254.72-1.253-.72v-1.454zm31.844 0l1.255-.721 1.252.721v1.454l-1.252.72-1.255-.72v-1.454zm31.845 0l1.253-.721 1.254.721v1.454l-1.254.72-1.253-.72v-1.454zm31.844 0l1.255-.721 1.252.721v1.454l-1.252.72-1.255-.72v-1.454zm-79.61-27.661l1.252-.721 1.254.721v1.453l-1.254.721-1.252-.721v-1.453zm31.843 0l1.254-.721 1.252.721v1.453l-1.252.721-1.254-.721v-1.453zm31.844 0l1.254-.721 1.254.721v1.453l-1.254.721-1.254-.721v-1.453zm143.612 83.174l.942-.56.941.56v1.09l-.941.54-.942-.54v-1.09zm-47.766-27.675l.941-.544.943.556v1.088l-.943.543-.941-.543v-1.1zm31.846.012l.94-.556.942.544v1.1l-.942.543-.94-.543v-1.088zm31.843-.012l.941-.544.943.556v1.088l-.943.543-.941-.543v-1.1zm-111.456-27.661l.942-.544.943.544v1.099l-.943.544-.942-.544v-1.099zm31.845 0l.942-.544.941.544v1.099l-.941.544-.942-.544v-1.099zm31.845 0l.942-.544.941.544v1.099l-.941.544-.942-.544v-1.099zm31.843 0l.942-.544.941.544v1.099l-.941.544-.942-.544v-1.099zm31.846 0l.941-.544.942.544v1.099l-.942.544-.941-.544v-1.099zm-143.301-27.662l.942-.543.943.543v1.1l-.943.544-.942-.544v-1.1zm31.845 0l.941-.543.941.543v1.1l-.941.544-.941-.544v-1.1zm31.844 0l.941-.543.943.543v1.1l-.943.544-.941-.544v-1.1zm31.846 0l.94-.543.942.543v1.1l-.942.544-.94-.544v-1.1zm31.843 0l.941-.543.943.543v1.1l-.943.544-.941-.544v-1.1zm-206.988-27.661l.942-.544.94.544v1.1l-.94.543-.942-.543v-1.1zm31.843 0l.942-.544.941.544v1.1l-.941.543-.942-.543v-1.1zm31.845 0l.943-.544.94.544v1.1l-.94.543-.943-.543v-1.1zm31.844 0l.942-.544.943.544v1.1l-.943.543-.942-.543v-1.1zm31.845 0l.942-.544.941.544v1.1l-.941.543-.942-.543v-1.1zm31.845 0l.942-.544.941.544v1.1l-.941.543-.942-.543v-1.1zm31.843 0l.942-.544.941.544v1.1l-.941.543-.942-.543v-1.1zm31.846 0l.941-.544.942.544v1.1l-.942.543-.941-.543v-1.1zM581.242 880.13l.941-.544.941.544v1.099l-.941.544-.941-.556v-1.087zm31.844 0l.942-.544.943.544v1.087l-.943.556-.942-.544v-1.099zm31.845 0l.941-.544.941.544v1.099l-.941.544-.941-.556v-1.087zm31.844 0l.941-.544.943.544v1.087l-.943.556-.941-.544v-1.099zm31.846 0l.94-.544.943.544v1.099l-.943.544-.94-.556v-1.087zm31.843 0l.941-.544.943.544v1.087l-.943.556-.941-.544v-1.099zm-143.3-27.662l.943-.543.94.543v1.088l-.94.543-.943-.543v-1.088zm31.844 0l.942-.543.943.543v1.088l-.943.543-.942-.543v-1.088zm31.845 0l.942-.543.941.543v1.088l-.941.543-.942-.543v-1.088zm31.845 0l.942-.543.941.543v1.088l-.941.543-.942-.543v-1.088zm31.843 0l.942-.543.941.543v1.088l-.941.543-.942-.543v-1.088zm31.846 0l.941-.543.942.543v1.088l-.942.543-.941-.543v-1.088zm-143.301-27.661l.942-.544.943.544v1.087l-.943.544-.942-.544v-1.087zm31.845 0l.941-.544.941.544v1.087l-.941.544-.941-.544v-1.087zm31.844 0l.941-.544.943.544v1.087l-.943.544-.941-.544v-1.087zm31.846 0l.94-.544.943.544v1.087l-.943.544-.94-.544v-1.087zm31.843 0l.941-.544.943.544v1.087l-.943.544-.941-.544v-1.087zm-111.456-27.661l.942-.544.943.544v1.087l-.943.543-.942-.543v-1.087zm31.845 0l.942-.544.941.544v1.087l-.941.543-.942-.543v-1.087zm28.532-1.922l4.255-2.465 4.254 2.465v4.931l-4.254 2.465-4.255-2.465v-4.931zm31.844 0l4.254-2.465 4.255 2.465v4.931l-4.255 2.465-4.254-2.465v-4.931zm31.844 0l4.255-2.465 4.254 2.465v4.931l-4.254 2.465-4.255-2.465v-4.931zm-111.456-27.661l4.255-2.463 4.255 2.463v4.93l-4.255 2.465-4.255-2.465v-4.93zm31.846 0l4.253-2.463 4.255 2.463v4.93l-4.255 2.465-4.253-2.465v-4.93zm31.843 0l4.255-2.463 4.255 2.463v4.93l-4.255 2.465-4.255-2.465v-4.93zm31.844 0l4.255-2.463 4.255 2.463v4.93l-4.255 2.465-4.255-2.465v-4.93zm-111.455-27.664l4.255-2.463 4.255 2.463v4.929l-4.255 2.465-4.255-2.465v-4.929zm31.845 0l4.255-2.463 4.254 2.463v4.929l-4.254 2.465-4.255-2.465v-4.929zm31.845 0l4.255-2.463 4.254 2.463v4.929l-4.254 2.465-4.255-2.465v-4.929zm31.844 0l4.254-2.463 4.255 2.463v4.929l-4.255 2.465-4.254-2.465v-4.929zm31.844 0l4.255-2.463 4.254 2.463v4.929l-4.254 2.465-4.255-2.465v-4.929zm-111.456-27.663l4.255-2.464 4.255 2.464v4.931l-4.255 2.465-4.255-2.465v-4.931zm31.846 0l4.253-2.464 4.255 2.464v4.931l-4.255 2.465-4.253-2.465v-4.931zm31.843 0l4.255-2.464 4.255 2.464v4.931l-4.255 2.465-4.255-2.465v-4.931zm31.844 0l4.255-2.464 4.255 2.464v4.931l-4.255 2.465-4.255-2.465v-4.931zm-79.61-27.662l4.255-2.463 4.254 2.463v4.931l-4.254 2.463-4.255-2.463v-4.931zm29.635-1.277l6.465-3.744 6.462 3.744v7.487l-6.462 3.741-6.465-3.741v-7.487zm31.845 0l6.463-3.744 6.464 3.744v7.487l-6.464 3.741-6.463-3.741v-7.487zm31.844 0l6.464-3.744 6.464 3.744v7.487l-6.464 3.741-6.464-3.741v-7.487zm-79.611-27.662l6.463-3.744 6.465 3.744v7.489l-6.465 3.74-6.463-3.74v-7.489zm31.845 0l6.463-3.744 6.463 3.744v7.489l-6.463 3.74-6.463-3.74v-7.489zm31.844 0l6.463-3.744 6.464 3.744v7.489l-6.464 3.74-6.463-3.74v-7.489zm-79.611-27.663l6.464-3.743 6.464 3.743v7.488l-6.464 3.742-6.464-3.742v-7.488zm31.844 0l6.465-3.743 6.462 3.743v7.488l-6.462 3.742-6.465-3.742v-7.488zm31.845 0l6.463-3.743 6.464 3.743v7.488l-6.464 3.742-6.463-3.742v-7.488zm31.844 0l6.464-3.743 6.464 3.743v7.488l-6.464 3.742-6.464-3.742v-7.488zm-79.611-27.664l6.463-3.742 6.465 3.742v7.49l-6.465 3.742-6.463-3.742v-7.49zm31.845 0l6.463-3.742 6.463 3.742v7.49l-6.463 3.742-6.463-3.742v-7.49zm31.844 0l6.463-3.742 6.464 3.742v7.49l-6.464 3.742-6.463-3.742v-7.49zm-79.611-27.664l6.464-3.743 6.464 3.743v7.491l-6.464 3.742-6.464-3.742v-7.491zm31.844 0l6.465-3.743 6.462 3.743v7.491l-6.462 3.742-6.465-3.742v-7.491zm31.845 0l6.463-3.743 6.464 3.743v7.491l-6.464 3.742-6.463-3.742v-7.491zm-47.767-27.661l6.463-3.744 6.465 3.744v7.487l-6.465 3.744-6.463-3.744v-7.487zm31.845 0l6.463-3.744 6.463 3.744v7.487l-6.463 3.744-6.463-3.744v-7.487zm-47.767-27.661l6.464-3.744 6.464 3.744v7.486l-6.464 3.744-6.464-3.744v-7.486zm31.844 0l6.465-3.744 6.462 3.744v7.486l-6.462 3.744-6.465-3.744v-7.486zm-15.922-27.662l6.463-3.743 6.465 3.743v7.485l-6.465 3.746-6.463-3.746v-7.485zm77.404 81.704l8.671-5.02 8.672 5.02v10.05l-8.672 5.02-8.671-5.02v-10.05zm-15.923-27.658l8.671-5.024 8.673 5.024v10.044l-8.673 5.022-8.671-5.022v-10.044zm-15.922-27.663l8.671-5.024 8.672 5.024v10.044l-8.672 5.023-8.671-5.023v-10.044zm31.845 0l8.671-5.024 8.672 5.024v10.044l-8.672 5.023-8.671-5.023v-10.044zm-47.768-27.663l8.672-5.02 8.672 5.02v10.045l-8.672 5.024-8.672-5.024V488.38zm31.845 0l8.671-5.02 8.673 5.02v10.045l-8.673 5.024-8.671-5.024V488.38zm-79.611-27.663l8.672-5.022 8.672 5.022v10.048l-8.672 5.021-8.672-5.021v-10.048zm31.844 0l8.673-5.022 8.669 5.022v10.048l-8.669 5.021-8.673-5.021v-10.048zm31.845 0l8.671-5.022 8.672 5.022v10.048l-8.672 5.021-8.671-5.021v-10.048zm31.845 0l8.671-5.022 8.672 5.022v10.048l-8.672 5.021-8.671-5.021v-10.048zm-79.612-27.662l8.671-5.024 8.672 5.024v10.046l-8.672 5.022-8.671-5.022v-10.046zm31.844 0l8.672-5.024 8.672 5.024v10.046l-8.672 5.022-8.672-5.022v-10.046zm31.845 0l8.671-5.024 8.673 5.024v10.046l-8.673 5.022-8.671-5.022v-10.046zm-79.611-27.664l8.672-5.02 8.672 5.02v10.046l-8.672 5.024-8.672-5.024v-10.046zm31.844 0l8.673-5.02 8.669 5.02v10.046l-8.669 5.024-8.673-5.024v-10.046zm31.845 0l8.671-5.02 8.672 5.02v10.046l-8.672 5.024-8.671-5.024v-10.046zm-47.767-27.661l8.671-5.022 8.672 5.022v10.047l-8.672 5.021-8.671-5.021V377.73zm-15.922-27.662l8.672-5.021 8.672 5.021v10.045l-8.672 5.023-8.672-5.023v-10.045zm51.548-523.398l4.89-2.831 4.892 2.831v5.668l-4.892 2.833-4.89-2.833v-5.668zm-15.923-27.662l4.892-2.832 4.89 2.832v5.667l-4.89 2.834-4.892-2.834v-5.667zm31.846 0l4.889-2.832 4.891 2.832v5.667l-4.891 2.834-4.889-2.834v-5.667zm31.843 0l4.891-2.832 4.891 2.832v5.667l-4.891 2.834-4.891-2.834v-5.667zm-79.611-27.662l4.89-2.832 4.892 2.832v5.665l-4.892 2.833-4.89-2.833v-5.665zm31.845 0l4.89-2.832 4.892 2.832v5.665l-4.892 2.833-4.89-2.833v-5.665zm31.844 0l4.89-2.832 4.891 2.832v5.665l-4.891 2.833-4.89-2.833v-5.665zm-47.767-27.662l4.892-2.833 4.89 2.833v5.668l-4.89 2.833-4.892-2.833v-5.668zm31.846 0l4.889-2.833 4.891 2.833v5.668l-4.891 2.833-4.889-2.833v-5.668zm31.843 0l4.891-2.833 4.891 2.833v5.668l-4.891 2.833-4.891-2.833v-5.668zm-47.766-27.663l4.89-2.832 4.892 2.832v5.667l-4.892 2.833-4.89-2.833v-5.667zm31.844 0l4.89-2.832 4.891 2.832v5.667l-4.891 2.833-4.89-2.833v-5.667zm-47.767-27.662l4.892-2.832 4.89 2.832v5.667l-4.89 2.833-4.892-2.833v-5.667zm31.846 0l4.889-2.832 4.891 2.832v5.667l-4.891 2.833-4.889-2.833v-5.667zm31.843 0l4.891-2.832 4.891 2.832v5.667l-4.891 2.833-4.891-2.833v-5.667zm-111.456-27.662l4.891-2.834 4.892 2.834v5.667l-4.892 2.832-4.891-2.832v-5.667zm31.845 0l4.89-2.834 4.892 2.834v5.667l-4.892 2.832-4.89-2.832v-5.667zm31.845 0l4.89-2.834 4.892 2.834v5.667l-4.892 2.832-4.89-2.832v-5.667zm31.844 0l4.89-2.834 4.891 2.834v5.667l-4.891 2.832-4.89-2.832v-5.667zm-111.456-27.663l4.891-2.832 4.891 2.832v5.666l-4.891 2.832-4.891-2.832v-5.666zm31.845 0l4.891-2.832 4.891 2.832v5.666l-4.891 2.832-4.891-2.832v-5.666zm31.844 0l4.892-2.832 4.89 2.832v5.666l-4.89 2.832-4.892-2.832v-5.666zm31.846 0l4.889-2.832 4.891 2.832v5.666l-4.891 2.832-4.889-2.832v-5.666zm31.843 0l4.891-2.832 4.891 2.832v5.666l-4.891 2.832-4.891-2.832v-5.666zm-111.456-27.662l4.891-2.833 4.892 2.833v5.666l-4.892 2.833-4.891-2.833v-5.666zm31.845 0l4.89-2.833 4.892 2.833v5.666l-4.892 2.833-4.89-2.833v-5.666zm31.845 0l4.89-2.833 4.892 2.833v5.666l-4.892 2.833-4.89-2.833v-5.666zm31.844 0l4.89-2.833 4.891 2.833v5.666l-4.891 2.833-4.89-2.833v-5.666zM561.369-422.29l4.892-2.834 4.891 2.834v5.667l-4.891 2.833-4.892-2.833v-5.667zm31.847 0l4.891-2.834 4.89 2.834v5.667l-4.89 2.833-4.891-2.833v-5.667zm31.843 0l4.891-2.834 4.891 2.834v5.667l-4.891 2.833-4.891-2.833v-5.667zm31.845 0l4.891-2.834 4.891 2.834v5.667l-4.891 2.833-4.891-2.833v-5.667zm31.844 0l4.892-2.834 4.89 2.834v5.667l-4.89 2.833-4.892-2.833v-5.667zm31.846 0l4.889-2.834 4.891 2.834v5.667l-4.891 2.833-4.889-2.833v-5.667zm31.843 0l4.891-2.834 4.891 2.834v5.667l-4.891 2.833-4.891-2.833v-5.667zm-461.743-27.663l4.89-2.833 4.89 2.833v5.667l-4.89 2.834-4.89-2.834v-5.667zm31.843 0l4.891-2.833 4.891 2.833v5.667l-4.891 2.834-4.891-2.834v-5.667zm159.222 0l4.891-2.833 4.89 2.833v5.667l-4.89 2.834-4.891-2.834v-5.667zm31.845 0l4.89-2.833 4.89 2.833v5.667l-4.89 2.834-4.89-2.834v-5.667zm31.844 0l4.891-2.833 4.89 2.833v5.667l-4.89 2.834-4.891-2.834v-5.667zm31.844 0l4.891-2.833 4.892 2.833v5.667l-4.892 2.834-4.891-2.834v-5.667zm31.846 0l4.89-2.833 4.891 2.833v5.667l-4.891 2.834-4.89-2.834v-5.667zm31.843 0l4.891-2.833 4.892 2.833v5.667l-4.892 2.834-4.891-2.834v-5.667zm31.845 0l4.89-2.833 4.892 2.833v5.667l-4.892 2.834-4.89-2.834v-5.667zm31.845 0l4.89-2.833 4.892 2.833v5.667l-4.892 2.834-4.89-2.834v-5.667zm31.844 0l4.89-2.833 4.891 2.833v5.667l-4.891 2.834-4.89-2.834v-5.667zM274.77-477.615l4.892-2.833 4.891 2.833v5.665l-4.891 2.834-4.892-2.834v-5.665zm31.844 0l4.89-2.833 4.892 2.833v5.665l-4.892 2.834-4.89-2.834v-5.665zm31.846 0l4.891-2.833 4.892 2.833v5.665l-4.892 2.834-4.891-2.834v-5.665zm31.845 0l4.89-2.833 4.891 2.833v5.665l-4.891 2.834-4.89-2.834v-5.665zm31.842 0l4.892-2.833 4.891 2.833v5.665l-4.891 2.834-4.892-2.834v-5.665zm31.845 0l4.891-2.833 4.891 2.833v5.665l-4.891 2.834-4.891-2.834v-5.665zm31.846 0l4.89-2.833 4.891 2.833v5.665l-4.891 2.834-4.89-2.834v-5.665zm31.843 0l4.891-2.833 4.891 2.833v5.665l-4.891 2.834-4.891-2.834v-5.665zm31.846 0l4.891-2.833 4.892 2.833v5.665l-4.892 2.834-4.891-2.834v-5.665zm31.842 0l4.892-2.833 4.891 2.833v5.665l-4.891 2.834-4.892-2.834v-5.665zm31.847 0l4.891-2.833 4.89 2.833v5.665l-4.89 2.834-4.891-2.834v-5.665zm31.843 0l4.891-2.833 4.891 2.833v5.665l-4.891 2.834-4.891-2.834v-5.665zm31.845 0l4.891-2.833 4.891 2.833v5.665l-4.891 2.834-4.891-2.834v-5.665zm31.844 0l4.892-2.833 4.89 2.833v5.665l-4.89 2.834-4.892-2.834v-5.665zm31.846 0l4.889-2.833 4.891 2.833v5.665l-4.891 2.834-4.889-2.834v-5.665zm31.843 0l4.891-2.833 4.891 2.833v5.665l-4.891 2.834-4.891-2.834v-5.665zm-622.541 26.751l6.464-3.743 6.465 3.743v7.488l-6.465 3.743-6.464-3.743v-7.488zM573.51-64.868l8.673-5.024 8.673 5.024v10.046l-8.673 5.023-8.673-5.023v-10.046zM557.589-92.53l8.672-5.025 8.672 5.026v10.044l-8.672 5.022-8.672-5.022v-10.044zm31.845 0l8.673-5.025 8.671 5.026v10.044l-8.671 5.022-8.673-5.022v-10.044zm-47.767-27.664l8.672-5.021 8.671 5.021v10.046l-8.671 5.024-8.672-5.024v-10.046zm31.843 0l8.673-5.021 8.673 5.021v10.046l-8.673 5.024-8.673-5.024v-10.046zm31.846 0l8.672-5.021 8.671 5.021v10.046l-8.671 5.024-8.672-5.024v-10.046zm-111.457-27.661l8.673-5.024 8.673 5.024v10.045l-8.673 5.022-8.673-5.022v-10.045zm31.847 0l8.672-5.024 8.671 5.024v10.045l-8.671 5.022-8.672-5.022v-10.045zm31.843 0l8.672-5.024 8.672 5.024v10.045l-8.672 5.022-8.672-5.022v-10.045zm31.845 0l8.673-5.024 8.671 5.024v10.045l-8.671 5.022-8.673-5.022v-10.045zm31.844 0l8.672-5.024 8.672 5.024v10.045l-8.672 5.022-8.672-5.022v-10.045zm31.845 0l8.672-5.024 8.672 5.024v10.045l-8.672 5.022-8.672-5.022v-10.045zm-175.146-27.664l8.673-5.022 8.672 5.022v10.045l-8.672 5.025-8.673-5.025v-10.045zm31.846 0l8.671-5.022 8.673 5.022v10.045l-8.673 5.025-8.671-5.025v-10.045zm31.844 0l8.672-5.022 8.671 5.022v10.045l-8.671 5.025-8.672-5.025v-10.045zm31.843 0l8.673-5.022 8.673 5.022v10.045l-8.673 5.025-8.673-5.025v-10.045zm31.846 0l8.672-5.022 8.671 5.022v10.045l-8.671 5.025-8.672-5.025v-10.045zm31.845 0l8.671-5.022 8.673 5.022v10.045l-8.673 5.025-8.671-5.025v-10.045zm-206.99-27.664l8.672-5.021 8.673 5.021v10.05l-8.673 5.02-8.672-5.02v-10.05zm31.844 0l8.673-5.021 8.672 5.021v10.05l-8.672 5.02-8.673-5.02v-10.05zm31.844 0l8.673-5.021 8.673 5.021v10.05l-8.673 5.02-8.673-5.02v-10.05zm31.847 0l8.672-5.021 8.671 5.021v10.05l-8.671 5.02-8.672-5.02v-10.05zm31.843 0l8.672-5.021 8.672 5.021v10.05l-8.672 5.02-8.672-5.02v-10.05zm31.845 0l8.673-5.021 8.671 5.021v10.05l-8.671 5.02-8.673-5.02v-10.05zm31.844 0l8.672-5.021 8.672 5.021v10.05l-8.672 5.02-8.672-5.02v-10.05zm-206.988-27.66l8.671-5.023 8.673 5.023v10.046l-8.673 5.02-8.671-5.02v-10.046zm31.843 0l8.671-5.023 8.674 5.023v10.046l-8.674 5.02-8.671-5.02v-10.046zm31.844 0l8.673-5.023 8.672 5.023v10.046l-8.672 5.02-8.673-5.02v-10.046zm31.846 0l8.671-5.023 8.673 5.023v10.046l-8.673 5.02-8.671-5.02v-10.046zm31.844 0l8.672-5.023 8.671 5.023v10.046l-8.671 5.02-8.672-5.02v-10.046zm31.843 0l8.673-5.023 8.673 5.023v10.046l-8.673 5.02-8.673-5.02v-10.046zm31.846 0l8.672-5.023 8.671 5.023v10.046l-8.671 5.02-8.672-5.02v-10.046zm-206.99-27.664l8.673-5.022 8.672 5.022v10.047l-8.672 5.024-8.673-5.024v-10.047zm31.845 0l8.672-5.022 8.673 5.022v10.047l-8.673 5.024-8.672-5.024v-10.047zm31.844 0l8.673-5.022 8.672 5.022v10.047l-8.672 5.024-8.673-5.024v-10.047zm31.844 0l8.673-5.022 8.673 5.022v10.047l-8.673 5.024-8.673-5.024v-10.047zm31.847 0l8.672-5.022 8.671 5.022v10.047l-8.671 5.024-8.672-5.024v-10.047zm31.843 0l8.672-5.022 8.672 5.022v10.047l-8.672 5.024-8.672-5.024v-10.047zm31.845 0l8.673-5.022 8.671 5.022v10.047l-8.671 5.024-8.673-5.024v-10.047zm-206.99-27.659l8.673-5.025 8.672 5.025v10.043l-8.672 5.023-8.673-5.023v-10.043zm31.846 0l8.671-5.025 8.673 5.025v10.043l-8.673 5.023-8.671-5.023v-10.043zm31.843 0l8.671-5.025 8.674 5.025v10.043l-8.674 5.023-8.671-5.023v-10.043zm31.844 0l8.673-5.025 8.672 5.025v10.043l-8.672 5.023-8.673-5.023v-10.043zm31.846 0l8.671-5.025 8.673 5.025v10.043l-8.673 5.023-8.671-5.023v-10.043zm31.844 0l8.672-5.025 8.671 5.025v10.043l-8.671 5.023-8.672-5.023v-10.043zm31.843 0l8.673-5.025 8.673 5.025v10.043l-8.673 5.023-8.673-5.023v-10.043zm-238.831-27.665l8.672-5.021 8.673 5.021v10.046l-8.673 5.024-8.672-5.024v-10.046zm31.845 0l8.671-5.021 8.672 5.021v10.046l-8.672 5.024-8.671-5.024v-10.046zm31.842 0l8.673-5.021 8.672 5.021v10.046l-8.672 5.024-8.673-5.024v-10.046zm31.845 0l8.672-5.021 8.673 5.021v10.046l-8.673 5.024-8.672-5.024v-10.046zm31.844 0l8.673-5.021 8.672 5.021v10.046l-8.672 5.024-8.673-5.024v-10.046zm31.844 0l8.673-5.021 8.673 5.021v10.046l-8.673 5.024-8.673-5.024v-10.046zm31.847 0l8.672-5.021 8.671 5.021v10.046l-8.671 5.024-8.672-5.024v-10.046zm31.843 0l8.672-5.021 8.672 5.021v10.046l-8.672 5.024-8.672-5.024v-10.046zm-270.677-27.663l8.672-5.022 8.671 5.022v10.047l-8.671 5.022-8.672-5.022v-10.047zm31.843 0l8.673-5.022 8.673 5.022v10.047l-8.673 5.022-8.673-5.022v-10.047zm31.846 0l8.673-5.022 8.671 5.022v10.047l-8.671 5.022-8.673-5.022v-10.047zm31.843 0l8.673-5.022 8.672 5.022v10.047l-8.672 5.022-8.673-5.022v-10.047zm31.846 0l8.671-5.022 8.673 5.022v10.047l-8.673 5.022-8.671-5.022v-10.047zm31.843 0l8.671-5.022 8.674 5.022v10.047l-8.674 5.022-8.671-5.022v-10.047zm31.844 0l8.673-5.022 8.672 5.022v10.047l-8.672 5.022-8.673-5.022v-10.047zm31.846 0l8.671-5.022 8.673 5.022v10.047l-8.673 5.022-8.671-5.022v-10.047zm31.844 0l8.672-5.022 8.671 5.022v10.047l-8.671 5.022-8.672-5.022v-10.047zm-270.678-27.662l8.673-5.023 8.671 5.023v10.045l-8.671 5.022-8.673-5.022v-10.045zm31.844 0l8.671-5.023 8.673 5.023v10.045l-8.673 5.022-8.671-5.022v-10.045zm31.846 0l8.672-5.023 8.673 5.023v10.045l-8.673 5.022-8.672-5.022v-10.045zm31.845 0l8.671-5.023 8.672 5.023v10.045l-8.672 5.022-8.671-5.022v-10.045zm31.842 0l8.673-5.023 8.672 5.023v10.045l-8.672 5.022-8.673-5.022v-10.045zm31.845 0l8.672-5.023 8.673 5.023v10.045l-8.673 5.022-8.672-5.022v-10.045zm-175.144-27.661l8.673-5.024 8.672 5.024v10.044l-8.672 5.023-8.673-5.023v-10.044zm31.845 0l8.672-5.024 8.671 5.024v10.044l-8.671 5.023-8.672-5.023v-10.044zm31.843 0l8.673-5.024 8.673 5.024v10.044l-8.673 5.023-8.673-5.023v-10.044zm31.846 0l8.673-5.024 8.671 5.024v10.044l-8.671 5.023-8.673-5.023v-10.044zm31.843 0l8.673-5.024 8.672 5.024v10.044l-8.672 5.023-8.673-5.023v-10.044zM175.457-424.48l8.67-5.023 8.672 5.023v10.046l-8.672 5.023-8.67-5.023v-10.046zm31.844 0l8.672-5.023 8.672 5.023v10.046l-8.672 5.023-8.672-5.023v-10.046zm31.843 0l8.673-5.023 8.673 5.023v10.046l-8.673 5.023-8.673-5.023v-10.046zm31.845 0l8.673-5.023 8.671 5.023v10.046l-8.671 5.023-8.673-5.023v-10.046zm-111.454-27.663l8.67-5.023 8.672 5.023v10.046l-8.672 5.023-8.67-5.023v-10.046zm31.844 0l8.673-5.023 8.669 5.023v10.046l-8.669 5.023-8.673-5.023v-10.046zm31.843 0l8.673-5.023 8.673 5.023v10.046l-8.673 5.023-8.673-5.023v-10.046zm-79.612-27.664l8.673-5.021 8.672 5.021v10.047l-8.672 5.023-8.673-5.023v-10.047zm31.847 0l8.67-5.021 8.672 5.021v10.047l-8.672 5.023-8.67-5.023v-10.047zm31.844 0l8.672-5.021 8.672 5.021v10.047l-8.672 5.023-8.672-5.023v-10.047zm464.265 361.073l6.15-3.561 6.153 3.561v7.127l-6.153 3.562-6.15-3.562v-7.127zm15.922-27.662l6.152-3.562 6.151 3.562v7.126l-6.151 3.561-6.152-3.561v-7.126zm-15.922-27.663l6.15-3.561 6.153 3.561v7.126l-6.153 3.564-6.15-3.564v-7.126zm-15.922-27.662l6.151-3.563 6.151 3.563v7.126l-6.151 3.563-6.151-3.563v-7.126zm-15.923-27.661l6.151-3.563 6.152 3.563v7.123l-6.152 3.563-6.151-3.563v-7.123zm-15.922-27.663l6.151-3.563 6.152 3.563v7.126l-6.152 3.563-6.151-3.563v-7.126zm31.845 0l6.151-3.563 6.151 3.563v7.126l-6.151 3.563-6.151-3.563v-7.126zm-47.767-27.663l6.151-3.563 6.151 3.563v7.125l-6.151 3.563-6.151-3.563v-7.125zm31.844 0l6.151-3.563 6.152 3.563v7.125l-6.152 3.563-6.151-3.563v-7.125zm31.845 0l6.15-3.563 6.153 3.563v7.125l-6.153 3.563-6.15-3.563v-7.125zm-79.611-27.662l6.152-3.562 6.15 3.562v7.126l-6.15 3.562-6.152-3.562v-7.126zm31.844 0l6.151-3.562 6.152 3.562v7.126l-6.152 3.562-6.151-3.562v-7.126zm31.845 0l6.151-3.562 6.151 3.562v7.126l-6.151 3.562-6.151-3.562v-7.126zm-79.612-27.663l6.151-3.562 6.152 3.562v7.126l-6.152 3.561-6.151-3.561v-7.126zm31.845 0l6.151-3.562 6.151 3.562v7.126l-6.151 3.561-6.151-3.561v-7.126zm-143.299-27.662l6.15-3.564 6.152 3.564v7.124l-6.152 3.563-6.15-3.563v-7.124zm31.843 0l6.151-3.564 6.152 3.564v7.124l-6.152 3.563-6.151-3.563v-7.124zm31.845 0l6.152-3.564 6.152 3.564v7.124l-6.152 3.563-6.152-3.563v-7.124zm31.843 0l6.152-3.564 6.152 3.564v7.124l-6.152 3.563-6.152-3.563v-7.124zm31.846 0l6.152-3.564 6.15 3.564v7.124l-6.15 3.563-6.152-3.563v-7.124zM416.81-395.358l6.151-3.562 6.152 3.562v7.125l-6.152 3.564-6.151-3.564v-7.125zm31.845 0l6.149-3.562 6.152 3.562v7.125l-6.152 3.564-6.149-3.564v-7.125zm31.844 0l6.151-3.562 6.15 3.562v7.125l-6.15 3.564-6.151-3.564v-7.125zm31.845 0l6.15-3.562 6.153 3.562v7.125l-6.153 3.564-6.15-3.564v-7.125zm31.844 0l6.151-3.562 6.151 3.562v7.125l-6.151 3.564-6.151-3.564v-7.125zm31.844 0l6.151-3.562 6.152 3.562v7.125l-6.152 3.564-6.151-3.564v-7.125zm31.845 0l6.151-3.562 6.151 3.562v7.125l-6.151 3.564-6.151-3.564v-7.125zM305.354-423.02l6.15-3.563 6.152 3.563v7.126l-6.152 3.563-6.15-3.563v-7.126zm31.846 0l6.151-3.563 6.152 3.563v7.126l-6.152 3.563-6.151-3.563v-7.126zm31.844 0l6.151-3.563 6.151 3.563v7.126l-6.151 3.563-6.151-3.563v-7.126zm31.844 0l6.151-3.563 6.152 3.563v7.126l-6.152 3.563-6.151-3.563v-7.126zm31.843 0l6.152-3.563 6.151 3.563v7.126l-6.151 3.563-6.152-3.563v-7.126zm31.847 0l6.15-3.563 6.152 3.563v7.126l-6.152 3.563-6.15-3.563v-7.126zm31.843 0l6.151-3.563 6.152 3.563v7.126l-6.152 3.563-6.151-3.563v-7.126zm31.845 0l6.152-3.563 6.152 3.563v7.126l-6.152 3.563-6.152-3.563v-7.126zm-270.679-27.662l6.153-3.563 6.151 3.563v7.126l-6.151 3.562-6.153-3.562v-7.126zm95.535 0l6.152-3.563 6.149 3.563v7.126l-6.149 3.562-6.152-3.562v-7.126zm31.843 0l6.152-3.563 6.152 3.563v7.126l-6.152 3.562-6.152-3.562v-7.126zm31.845 0l6.151-3.563 6.152 3.563v7.126l-6.152 3.562-6.151-3.562v-7.126zm31.845 0l6.149-3.563 6.152 3.563v7.126l-6.152 3.562-6.149-3.562v-7.126zm-206.99-27.664l6.152-3.562 6.152 3.562v7.127l-6.152 3.563-6.152-3.563v-7.127zM8.678 991.155l.305-.178.305.178v.353l-.305.177-.305-.177v-.353zm31.843 0l.305-.178.31.178v.353l-.31.177-.305-.177v-.353zm31.847 0l.305-.178.305.178v.353l-.305.177-.305-.177v-.353zm-47.77-27.662l.307-.177.304.177v.354l-.304.177-.306-.177v-.354zm31.848 0l.304-.177.305.177v.354l-.305.177-.304-.177v-.354zm31.844 0l.305-.177.305.177v.354l-.305.177-.305-.177v-.354zm31.844 0l.306-.177.305.177v.354l-.305.177-.306-.177v-.354zM8.678 935.819l.305-.177.305.177v.354l-.305.177-.305-.177v-.354zm31.843 0l.305-.177.31.177v.354l-.31.177-.305-.177v-.354zm31.847 0l.305-.177.305.177v.354l-.305.177-.305-.177v-.354zm31.844 0l.306-.177.304.177v.354l-.304.177-.306-.177v-.354zm31.843 0l.305-.177.306.177v.354l-.306.177-.305-.177v-.354zm31.845 0l.305-.177.305.177v.354l-.305.177-.305-.177v-.354zm31.844 0l.308-.177.305.177v.354l-.305.177-.308-.177v-.354zM24.599 908.157l.306-.176.304.176v.355l-.304.177-.306-.177v-.355zm31.847 0l.304-.176.305.176v.355l-.305.177-.304-.177v-.355zm31.844 0l.305-.176.305.176v.355l-.305.177-.305-.177v-.355zm31.844 0l.306-.176.305.176v.355l-.305.177-.306-.177v-.355zm31.843 0l.306-.176.305.176v.355l-.305.177-.306-.177v-.355zm31.846 0l.304-.176.308.176v.355l-.308.177-.304-.177v-.355zm31.845 0l.305-.176.306.176v.355l-.306.177-.305-.177v-.355zm31.844 0l.305-.176.305.176v.355l-.305.177-.305-.177v-.355zm31.843 0l.307-.176.305.176v.355l-.305.177-.307-.177v-.355zM8.678 880.496l.305-.177.305.177v.355l-.305.176-.305-.176v-.355zm31.843 0l.305-.177.31.177v.355l-.31.176-.305-.176v-.355zm31.847 0l.305-.177.305.177v.355l-.305.176-.305-.176v-.355zm31.844 0l.306-.177.304.177v.355l-.304.176-.306-.176v-.355zm31.843 0l.305-.177.306.177v.355l-.306.176-.305-.176v-.355zm31.845 0l.305-.177.305.177v.355l-.305.176-.305-.176v-.355zm31.844 0l.308-.177.305.177v.355l-.305.176-.308-.176v-.355zm31.846 0l.305-.177.306.177v.355l-.306.176-.305-.176v-.355zm31.844 0l.306-.177.304.177v.355l-.304.176-.306-.176v-.355zM24.599 852.835l.306-.177.304.177v.353l-.304.178-.306-.178v-.353zm31.847 0l.304-.177.305.177v.353l-.305.178-.304-.178v-.353zm31.844 0l.305-.177.305.177v.353l-.305.178-.305-.178v-.353zm31.844 0l.306-.177.305.177v.353l-.305.178-.306-.178v-.353zm31.843 0l.306-.177.305.177v.353l-.305.178-.306-.178v-.353zM8.678 825.174l.305-.177.305.177v.354l-.305.177-.305-.177v-.354zm31.843 0l.305-.177.31.177v.354l-.31.177-.305-.177v-.354zm31.847 0l.305-.177.305.177v.354l-.305.177-.305-.177v-.354zm31.844 0l.306-.177.304.177v.354l-.304.177-.306-.177v-.354zm31.843 0l.305-.177.306.177v.354l-.306.177-.305-.177v-.354zM24.599 797.512l.306-.176.304.176v.355l-.302.177-.308-.177v-.355zm31.847 0l.304-.176.305.176v.355l-.305.177-.304-.177v-.355zm31.844 0l.305-.176.305.176v.355l-.305.177-.305-.177v-.355zm31.844 0l.306-.176.305.176v.355l-.305.177-.306-.177v-.355zM8.678 769.85l.305-.177.305.177v.354l-.305.175-.305-.175v-.354zm31.843 0l.305-.177.31.177v.354l-.31.175-.305-.175v-.354zm31.847 0l.305-.177.305.177v.354l-.305.175-.305-.175v-.354zm-47.77-27.662l.307-.177.304.177v.353l-.304.177-.306-.177v-.353zm31.848 0l.304-.177.305.177v.353l-.305.177-.304-.177v-.353zM8.678 714.526l.305-.177.305.177v.353l-.305.176-.305-.176v-.353zM294.33 879.952l1.254-.732 1.254.732v1.454l-1.254.721-1.254-.721v-1.454zm31.843 0l1.255-.732 1.254.732v1.454l-1.254.721-1.255-.721v-1.454zm-143.299-27.66l1.253-.734 1.255.734v1.453l-1.255.72-1.253-.72v-1.453zm31.843 0l1.256-.734 1.254.734v1.453l-1.254.72-1.256-.72v-1.453zm31.848 0l1.252-.734 1.253.734v1.453l-1.253.72-1.252-.72v-1.453zm31.842 0l1.255-.734 1.252.734v1.453l-1.252.72-1.255-.72v-1.453zm31.844 0l1.253-.734 1.256.734v1.453l-1.256.72-1.253-.72v-1.453zm31.845 0l1.255-.734 1.253.734v1.453l-1.253.72-1.255-.72v-1.453zm31.846 0l1.253-.734 1.254.734v1.453l-1.254.72-1.253-.72v-1.453zm-206.99-27.662l1.253-.733 1.255.733v1.454l-1.255.72-1.253-.72v-1.454zm31.844 0l1.256-.733 1.252.733v1.454l-1.252.72-1.256-.72v-1.454zm31.846 0l1.253-.733 1.253.733v1.454l-1.253.72-1.253-.72v-1.454zm31.844 0l1.254-.733 1.252.733v1.454l-1.252.72-1.254-.72v-1.454zm31.844 0l1.254-.733 1.254.733v1.454l-1.254.72-1.254-.72v-1.454zm31.843 0l1.255-.733 1.254.733v1.454l-1.254.72-1.255-.72v-1.454zm31.847 0l1.254-.733 1.252.733v1.454l-1.252.72-1.254-.72v-1.454zm31.843 0l1.254-.733 1.254.733v1.454l-1.254.72-1.254-.72v-1.454zM151.03 796.968l1.253-.733 1.252.733v1.442l-1.252.733-1.253-.733v-1.442zm31.844 0l1.253-.733 1.255.733v1.442l-1.255.733-1.253-.72v-1.455zm31.843 0l1.256-.733 1.254.733v1.442l-1.254.733-1.256-.733v-1.442zm31.848 0l1.252-.733 1.253.733v1.442l-1.253.733-1.252-.733v-1.442zm31.842 0l1.255-.733 1.252.733v1.442l-1.252.733-1.255-.733v-1.442zm31.844 0l1.253-.733 1.256.733v1.442l-1.256.733-1.253-.72v-1.455zm31.845 0l1.255-.733 1.253.733v1.442l-1.253.733-1.255-.733v-1.442zm31.846 0l1.253-.733 1.254.733v1.442l-1.254.733-1.253-.72v-1.455zm-270.678-27.667l1.254-.726 1.252.726v1.451l-1.252.728-1.254-.728v-1.451zm31.844 0l1.252-.726 1.253.726v1.451l-1.253.728-1.252-.728v-1.451zm31.844 0l1.253-.726 1.255.726v1.451l-1.255.728-1.253-.728v-1.451zm31.844 0l1.256-.726 1.252.726v1.451l-1.252.728-1.256-.728v-1.451zm31.846 0l1.253-.726 1.253.726v1.451l-1.253.728-1.253-.728v-1.451zm31.844 0l1.254-.726 1.252.726v1.451l-1.252.728-1.254-.728v-1.451zm31.844 0l1.254-.726 1.254.726v1.451l-1.254.728-1.254-.728v-1.451zm31.843 0l1.255-.726 1.254.726v1.451l-1.254.728-1.255-.728v-1.451zm31.847 0l1.254-.726 1.252.726v1.451l-1.252.728-1.254-.728v-1.451zM87.34 741.638l1.255-.725 1.253.725v1.452l-1.253.726-1.255-.726v-1.452zm31.846 0l1.254-.725 1.252.725v1.452l-1.252.726-1.254-.726v-1.452zm31.844 0l1.253-.725 1.252.725v1.452l-1.252.726-1.253-.726v-1.452zm31.844 0l1.253-.725 1.255.725v1.452l-1.255.726-1.253-.726v-1.452zm31.843 0l1.256-.725 1.254.725v1.452l-1.254.726-1.256-.726v-1.452zm31.848 0l1.252-.725 1.253.725v1.452l-1.253.726-1.252-.726v-1.452zm31.842 0l1.255-.725 1.252.725v1.452l-1.252.726-1.255-.726v-1.452zm31.844 0l1.253-.725 1.256.725v1.452l-1.256.726-1.253-.726v-1.452zM39.574 713.976l1.252-.725 1.256.725v1.452l-1.256.726-1.252-.726v-1.452zm31.843 0l1.256-.725 1.252.725v1.452l-1.252.726-1.256-.726v-1.452zm31.847 0l1.254-.725 1.252.725v1.452l-1.252.726-1.254-.726v-1.452zm31.844 0l1.252-.725 1.253.725v1.452l-1.253.726-1.252-.726v-1.452zm31.844 0l1.253-.725 1.255.725v1.452l-1.255.726-1.253-.726v-1.452zm31.844 0l1.256-.725 1.252.725v1.452l-1.252.726-1.256-.726v-1.452zm31.846 0l1.253-.725 1.253.725v1.452l-1.253.726-1.253-.726v-1.452zm31.844 0l1.254-.725 1.252.725v1.452l-1.252.726-1.254-.726v-1.452zm31.844 0l1.254-.725 1.254.725v1.452l-1.254.726-1.254-.726v-1.452zM23.652 686.313l1.253-.726 1.255.726v1.453l-1.255.727-1.253-.727v-1.453zm31.843 0l1.255-.726 1.253.726v1.453l-1.253.727-1.255-.727v-1.453zm31.845 0l1.255-.726 1.253.726v1.453l-1.253.727-1.255-.727v-1.453zm31.846 0l1.254-.726 1.252.726v1.453l-1.252.727-1.254-.727v-1.453zm31.844 0l1.253-.726 1.252.726v1.453l-1.252.727-1.253-.727v-1.453zm31.844 0l1.253-.726 1.255.726v1.453l-1.255.727-1.253-.727v-1.453zM7.73 658.651l1.253-.726 1.252.726v1.453l-1.252.725-1.253-.725v-1.453zm31.844 0l1.252-.726 1.256.726v1.453l-1.256.725-1.252-.725v-1.453zm31.843 0l1.256-.726 1.252.726v1.453l-1.252.725-1.256-.725v-1.453zm31.847 0l1.254-.726 1.252.726v1.453l-1.252.725-1.254-.725v-1.453zm31.844 0l1.252-.726 1.253.726v1.454l-1.253.724-1.252-.725v-1.453zM23.652 630.989l1.253-.726 1.255.726v1.453l-1.255.726-1.253-.726v-1.453zm31.843 0l1.255-.726 1.253.726v1.453l-1.253.726-1.255-.726v-1.453zm31.845 0l1.255-.726 1.253.726v1.453l-1.253.726-1.255-.726v-1.453zm31.846 0l1.254-.726 1.252.726v1.453l-1.252.726-1.254-.726v-1.453zM7.73 603.327l1.253-.726 1.252.726v1.451l-1.252.726-1.253-.726v-1.451zm31.844 0l1.252-.726 1.256.726v1.451l-1.256.726-1.252-.726v-1.451zm31.843 0l1.256-.726 1.252.726v1.451l-1.252.726-1.256-.726v-1.451zm31.847 0l1.254-.726 1.252.726v1.451l-1.252.726-1.254-.726v-1.451zm-79.612-27.663l1.253-.725 1.255.725v1.452l-1.255.726-1.253-.726v-1.452zm31.843 0l1.255-.725 1.253.725v1.452l-1.253.726-1.255-.726v-1.452zm31.845 0l1.255-.725 1.253.725v1.452l-1.253.726-1.255-.726v-1.452zM7.73 548l1.253-.726 1.252.726v1.454l-1.252.726-1.253-.726V548zm31.844 0l1.252-.726 1.256.726v1.454l-1.256.726-1.252-.726V548zm31.843 0l1.256-.726 1.252.726v1.454l-1.252.726-1.256-.726V548zm-47.765-27.661l1.253-.726 1.255.726v1.453l-1.255.726-1.253-.726v-1.453zm31.843 0l1.255-.726 1.253.726v1.453l-1.253.726-1.255-.726v-1.453zm31.845 0l1.255-.726 1.253.726v1.453l-1.253.726-1.255-.726v-1.453zM7.73 492.676l1.253-.725 1.252.725v1.455l-1.252.725-1.253-.725v-1.455zm31.844 0l1.252-.725 1.256.725v1.455l-1.256.725-1.252-.725v-1.455zm31.843 0l1.256-.725 1.252.725v1.455l-1.252.725-1.256-.725v-1.455zm-47.765-27.661l1.253-.727 1.255.727v1.452l-1.255.725-1.253-.725v-1.452zm31.843 0l1.255-.727 1.253.727v1.452l-1.253.725-1.255-.725v-1.452zM7.73 437.353l1.253-.727 1.252.727v1.451l-1.252.725-1.253-.725v-1.451zm31.844 0l1.252-.727 1.256.727v1.451l-1.256.725-1.252-.725v-1.451zm-15.922-27.665l1.253-.725 1.255.725v1.453l-1.255.726-1.253-.726v-1.453zM7.73 382.027l1.253-.727 1.252.727v1.452l-1.252.727-1.253-.727v-1.452zm31.844 0l1.252-.727 1.256.727v1.452l-1.256.727-1.252-.727v-1.452zm-15.922-27.662l1.253-.726 1.255.726v1.452l-1.255.726-1.253-.726v-1.452zM7.73 326.702l1.253-.725 1.252.725v1.452l-1.252.726-1.253-.726v-1.452zm31.844 0l1.252-.725 1.256.725v1.452l-1.256.726-1.252-.726v-1.452zm-15.922-27.663l1.253-.725 1.255.725v1.455l-1.255.725-1.253-.725v-1.455zM7.73 271.376l1.253-.725 1.252.725v1.454l-1.252.726-1.253-.726v-1.454zm31.844 0l1.252-.725 1.256.725v1.454l-1.256.726-1.252-.726v-1.454zm-15.922-27.662l1.253-.725 1.255.725v1.453l-1.255.725-1.253-.725v-1.453zM7.73 216.052l1.253-.726 1.252.726v1.452l-1.252.726-1.253-.726v-1.452zm746.136 800.928l3.462-2.01 3.463 2.01v4.01l-3.463 2.01-3.462-2.01v-4.01zM403.577 795.679l3.462-1.997 3.462 1.997v4.021l-3.462 1.997-3.462-1.997v-4.021zm-15.923-27.657l3.463-2.006 3.462 2.006v4.011l-3.462 2.003-3.463-2.003v-4.011zm31.845 0l3.462-2.006 3.464 2.006v4.011l-3.464 2.003-3.462-2.003v-4.011zm-79.611-27.663l3.463-2.007 3.462 2.007v4.01l-3.462 2.006-3.463-2.006v-4.01zm31.845 0l3.462-2.005 3.462 2.005v4.01l-3.462 2.005-3.462-2.005v-4.01zm31.844 0l3.462-2.005 3.462 2.005v4.01l-3.462 2.005-3.462-2.005v-4.01zm31.845 0l3.461-2.007 3.464 2.007v4.01l-3.464 2.006-3.461-2.006v-4.01zm-111.456-27.662l3.462-2.005 3.462 2.005v4.011l-3.462 2.005-3.462-2.005v-4.011zm31.843 0l3.465-2.005 3.46 2.005v4.011l-3.46 2.005-3.465-2.005v-4.011zm31.845 0l3.463-2.005 3.462 2.005v4.011l-3.462 2.005-3.463-2.005v-4.011zm31.845 0l3.462-2.005 3.464 2.005v4.011l-3.464 2.006-3.462-2.006v-4.011zm31.846 0l3.459-2.005 3.463 2.005v4.011l-3.463 2.005-3.459-2.005v-4.011zm-238.836-27.662l3.464-2.006 3.462 2.006v4.012l-3.462 2.003-3.464-2.003v-4.012zm31.844 0l3.464-2.006 3.461 2.006v4.012l-3.461 2.003-3.464-2.003v-4.012zm31.845 0l3.464-2.006 3.463 2.006v4.012l-3.463 2.003-3.464-2.003v-4.012zm31.845 0l3.461-2.006 3.464 2.006v4.012l-3.464 2.003-3.461-2.003v-4.012zm31.845 0l3.463-2.006 3.462 2.006v4.012l-3.462 2.003-3.463-2.003v-4.012zm31.845 0l3.462-2.006 3.462 2.006v4.012l-3.462 2.003-3.462-2.003v-4.012zm31.844 0l3.462-2.006 3.462 2.006v4.012l-3.462 2.003-3.462-2.003v-4.012zm31.845 0l3.461-2.006 3.464 2.006v4.012l-3.464 2.003-3.461-2.003v-4.012zm-270.678-27.663l3.461-2.005 3.463 2.005v4.012l-3.463 2.005-3.461-2.005v-4.012zm31.844 0l3.464-2.005 3.461 2.005v4.012l-3.461 2.005-3.464-2.005v-4.012zm31.843 0l3.464-2.006 3.461 2.006v4.012l-3.461 2.005-3.464-2.005v-4.012zm31.847 0l3.462-2.005 3.46 2.005v4.012l-3.46 2.005-3.462-2.005v-4.012zm31.844 0l3.462-2.005 3.461 2.005v4.012l-3.461 2.005-3.462-2.005v-4.012zm31.844 0l3.462-2.005 3.462 2.005v4.012l-3.462 2.005-3.462-2.005v-4.012zm31.843 0l3.465-2.005 3.46 2.005v4.012l-3.46 2.005-3.465-2.005v-4.012zm31.845 0l3.463-2.005 3.462 2.005v4.012l-3.462 2.005-3.463-2.005v-4.012zm31.845 0l3.462-2.006 3.464 2.006v4.012l-3.464 2.005-3.462-2.005v-4.012zm31.846 0l3.459-2.005 3.463 2.005v4.012l-3.463 2.005-3.459-2.005v-4.012zM148.821 629.71l3.462-2.005 3.463 2.005v4.011l-3.463 2.006-3.462-2.006v-4.011zm31.845 0l3.461-2.005 3.463 2.005v4.011l-3.463 2.006-3.461-2.006v-4.011zm31.843 0l3.464-2.005 3.462 2.005v4.011l-3.462 2.006-3.464-2.006v-4.011zm31.844 0l3.464-2.005 3.461 2.005v4.011l-3.461 2.006-3.464-2.006v-4.011zm31.845 0l3.464-2.005 3.463 2.005v4.011l-3.463 2.006-3.464-2.006v-4.011zm31.845 0l3.461-2.005 3.464 2.005v4.011l-3.464 2.006-3.461-2.006v-4.011zm31.845 0l3.463-2.005 3.462 2.005v4.011l-3.462 2.006-3.463-2.006v-4.011zm31.845 0l3.462-2.005 3.462 2.005v4.011l-3.462 2.006-3.462-2.006v-4.011zm31.844 0l3.462-2.005 3.462 2.005v4.011l-3.462 2.006-3.462-2.006v-4.011zm31.845 0l3.461-2.005 3.464 2.005v4.011l-3.464 2.006-3.461-2.006v-4.011zm-302.523-27.663l3.461-2.005 3.466 2.005v4.01l-3.466 2.006-3.461-2.006v-4.01zm31.845 0l3.461-2.005 3.463 2.005v4.01l-3.463 2.006-3.461-2.006v-4.01zm31.844 0l3.464-2.005 3.461 2.005v4.01l-3.461 2.006-3.464-2.006v-4.01zm31.843 0l3.464-2.006 3.461 2.006v4.01l-3.461 2.007-3.464-2.007v-4.01zm31.847 0l3.462-2.005 3.46 2.005v4.01l-3.46 2.006-3.462-2.006v-4.01zm31.844 0l3.462-2.005 3.461 2.005v4.01l-3.461 2.006-3.462-2.006v-4.01zm31.844 0l3.462-2.005 3.462 2.005v4.01l-3.462 2.006-3.462-2.006v-4.01zm31.843 0l3.465-2.005 3.46 2.005v4.01l-3.46 2.006-3.465-2.006v-4.01zm31.845 0l3.463-2.005 3.462 2.005v4.01l-3.462 2.006-3.463-2.006v-4.01zm-270.676-27.663l3.462-2.004 3.463 2.004v4.013l-3.463 2.004-3.462-2.004v-4.013zm31.843 0l3.462-2.006 3.463 2.006v4.013l-3.463 2.006-3.462-2.006v-4.013zm31.845 0l3.461-2.004 3.463 2.004v4.013l-3.463 2.004-3.461-2.004v-4.013zm31.843 0l3.464-2.004 3.462 2.004v4.013l-3.462 2.004-3.464-2.004v-4.013zm31.844 0l3.464-2.004 3.461 2.004v4.013l-3.461 2.004-3.464-2.004v-4.013zm31.845 0l3.464-2.006 3.463 2.006v4.013l-3.463 2.006-3.464-2.006v-4.013zM101.054 546.72l3.464-2.004 3.46 2.004v4.015l-3.46 2.003-3.464-2.003v-4.015zm31.845 0l3.461-2.004 3.466 2.004v4.015l-3.466 2.003-3.461-2.003v-4.015zm31.845 0l3.461-2.004 3.463 2.004v4.015l-3.463 2.003-3.461-2.003v-4.015zm31.844 0l3.464-2.004 3.461 2.004v4.015l-3.461 2.003-3.464-2.003v-4.015zm31.843 0l3.464-2.004 3.461 2.004v4.015l-3.461 2.003-3.464-2.003v-4.015zm31.847 0l3.462-2.004 3.46 2.004v4.015l-3.46 2.003-3.462-2.003v-4.015zm-143.3-27.661l3.462-2.004 3.463 2.004v4.012l-3.463 2.003-3.462-2.003v-4.012zm31.843 0l3.462-2.004 3.463 2.004v4.012l-3.463 2.003-3.462-2.003v-4.012zm31.845 0l3.461-2.004 3.463 2.004v4.012l-3.463 2.003-3.461-2.003v-4.012zm31.843 0l3.464-2.004 3.462 2.004v4.012l-3.462 2.003-3.464-2.003v-4.012zm31.844 0l3.464-2.004 3.461 2.004v4.012l-3.461 2.003-3.464-2.003v-4.012zm-143.299-27.662l3.464-2.005 3.46 2.005v4.012l-3.46 2.005-3.464-2.005v-4.012zm31.845 0l3.461-2.005 3.466 2.005v4.012l-3.466 2.005-3.461-2.005v-4.012zm31.845 0l3.461-2.005 3.463 2.005v4.012l-3.463 2.005-3.461-2.005v-4.012zm31.844 0l3.464-2.005 3.461 2.005v4.012l-3.461 2.005-3.464-2.005v-4.012zm31.843 0l3.464-2.005 3.461 2.005v4.012l-3.461 2.005-3.464-2.005v-4.012zm-143.3-27.663l3.464-2.005 3.461 2.005v4.012l-3.461 2.006-3.464-2.006v-4.012zm31.847 0l3.462-2.004 3.463 2.004v4.012l-3.463 2.004-3.462-2.004v-4.012zm31.843 0l3.462-2.005 3.463 2.005v4.012l-3.463 2.006-3.462-2.006v-4.012zm31.845 0l3.461-2.004 3.463 2.004v4.012l-3.463 2.004-3.461-2.004v-4.012zm31.843 0l3.464-2.004 3.462 2.004v4.012l-3.462 2.004-3.464-2.004v-4.012zm-143.3-27.661l3.464-2.005 3.46 2.005v4.01l-3.46 2.007-3.464-2.007v-4.01zm31.845 0l3.464-2.005 3.46 2.005v4.01l-3.46 2.007-3.464-2.007v-4.01zm31.845 0l3.461-2.005 3.466 2.005v4.01l-3.466 2.007-3.461-2.007v-4.01zm31.845 0l3.461-2.005 3.463 2.005v4.01l-3.463 2.007-3.461-2.007v-4.01zm31.844 0l3.464-2.005 3.461 2.005v4.01l-3.461 2.007-3.464-2.007v-4.01zm-143.3-27.664l3.462-2.003 3.462 2.003v4.011l-3.462 2.006-3.463-2.006v-4.011zm31.843 0l3.464-2.003 3.461 2.003v4.011l-3.461 2.006-3.464-2.006v-4.011zm31.847 0l3.462-2.003 3.463 2.003v4.011l-3.463 2.006-3.462-2.006v-4.011zm31.843 0l3.462-2.003 3.463 2.003v4.011l-3.463 2.006-3.462-2.006v-4.011zm31.845 0l3.461-2.003 3.463 2.003v4.011l-3.463 2.006-3.461-2.006v-4.011zm31.843 0l3.464-2.003 3.462 2.003v4.011l-3.462 2.006-3.464-2.006v-4.011zm-143.3-27.662l3.464-2.004 3.46 2.004v4.012l-3.46 2.005-3.464-2.005v-4.012zm31.845 0l3.464-2.004 3.46 2.004v4.012l-3.46 2.005-3.464-2.005v-4.012zm31.845 0l3.461-2.004 3.466 2.004v4.012l-3.466 2.005-3.461-2.005v-4.012zm31.845 0l3.461-2.004 3.463 2.004v4.012l-3.463 2.005-3.461-2.005v-4.012zm31.844 0l3.464-2.004 3.461 2.004v4.012l-3.461 2.005-3.464-2.005v-4.012zm-143.3-27.664l3.462-2.004 3.462 2.004v4.013L56.75 359.1l-3.463-2.004v-4.013zm31.843 0l3.464-2.004 3.461 2.004v4.013l-3.461 2.006-3.464-2.006v-4.013zm31.847 0l3.462-2.004 3.463 2.004v4.013l-3.463 2.004-3.462-2.004v-4.013zm31.843 0l3.462-2.004 3.463 2.004v4.013l-3.463 2.006-3.462-2.006v-4.013zm31.845 0l3.461-2.004 3.463 2.004v4.013l-3.463 2.004-3.461-2.004v-4.013zm31.843 0l3.464-2.004 3.462 2.004v4.013l-3.462 2.004-3.464-2.004v-4.013zm-143.3-27.66l3.464-2.005 3.46 2.005v4.01l-3.46 2.005-3.464-2.005v-4.01zm31.845 0l3.464-2.005 3.46 2.005v4.01l-3.46 2.005-3.464-2.005v-4.01zm31.845 0l3.461-2.005 3.466 2.005v4.01l-3.466 2.005-3.461-2.005v-4.01zm31.845 0l3.461-2.005 3.463 2.005v4.01l-3.463 2.005-3.461-2.005v-4.01zm31.844 0l3.464-2.005 3.461 2.005v4.01l-3.461 2.005-3.464-2.005v-4.01zm-143.3-27.663l3.462-2.004 3.462 2.004v4.011l-3.462 2.006-3.463-2.006v-4.011zm31.843 0l3.464-2.006 3.461 2.006v4.011l-3.461 2.006-3.464-2.006v-4.011zm31.847 0l3.462-2.004 3.463 2.004v4.011l-3.463 2.006-3.462-2.006v-4.011zm31.843 0l3.462-2.006 3.463 2.006v4.011l-3.463 2.006-3.462-2.006v-4.011zm31.845 0l3.461-2.004 3.463 2.004v4.011l-3.463 2.006-3.461-2.006v-4.011zM69.209 270.098l3.464-2.004 3.46 2.004v4.011l-3.46 2.005-3.464-2.005v-4.011zm31.845 0l3.464-2.004 3.46 2.004v4.011l-3.46 2.005-3.464-2.005v-4.011zm31.845 0l3.461-2.004 3.466 2.004v4.011l-3.466 2.005-3.461-2.005v-4.011zm31.845 0l3.461-2.004 3.463 2.004v4.011l-3.463 2.005-3.461-2.005v-4.011zM53.287 242.436l3.463-2.005 3.462 2.005v4.012l-3.462 2.003-3.463-2.003v-4.012zm31.844 0l3.464-2.005 3.461 2.005v4.012l-3.461 2.003-3.464-2.003v-4.012zm31.847 0l3.462-2.005 3.463 2.005v4.012l-3.463 2.003-3.462-2.003v-4.012zm31.843 0l3.462-2.005 3.463 2.005v4.012l-3.463 2.003-3.462-2.003v-4.012zm31.845 0l3.461-2.005 3.463 2.005v4.012l-3.463 2.003-3.461-2.003v-4.012zm-143.3-27.664l3.46-2.005 3.464 2.005v4.012l-3.464 2.006-3.46-2.006v-4.012zm31.843 0l3.464-2.005 3.46 2.005v4.012l-3.46 2.005-3.464-2.005v-4.012zm31.845 0l3.464-2.005 3.46 2.005v4.012l-3.46 2.005-3.464-2.005v-4.012zm31.845 0l3.461-2.005 3.466 2.005v4.012l-3.466 2.005-3.461-2.005v-4.012zm31.845 0l3.461-2.005 3.463 2.005v4.012l-3.463 2.005-3.461-2.005v-4.012zm-143.3-27.661l3.461-2.006 3.463 2.006v4.011l-3.463 2.006-3.46-2.006v-4.011zm31.843 0l3.463-2.005 3.462 2.005v4.011l-3.462 2.004-3.463-2.004v-4.011zm31.844 0l3.464-2.006 3.461 2.006v4.011l-3.461 2.006-3.464-2.006v-4.011zm31.847 0l3.462-2.005 3.463 2.005v4.011l-3.463 2.004-3.462-2.004v-4.011zm31.843 0l3.462-2.006 3.463 2.006v4.011l-3.463 2.006-3.462-2.006v-4.011zM5.522 159.448l3.46-2.006 3.464 2.006v4.01l-3.463 2.006-3.46-2.006v-4.01zm31.843 0l3.461-2.006 3.464 2.006v4.01l-3.464 2.007-3.46-2.007v-4.01zm31.844 0l3.464-2.006 3.46 2.006v4.01l-3.46 2.006-3.464-2.006v-4.01zm31.845 0l3.464-2.006 3.46 2.006v4.01l-3.46 2.006-3.464-2.006v-4.01zm31.845 0l3.461-2.006 3.466 2.006v4.01l-3.466 2.006-3.461-2.006v-4.01zM21.444 131.785l3.461-2.004 3.463 2.004v4.012l-3.463 2.004-3.46-2.004v-4.012zm31.843 0l3.463-2.004 3.462 2.004v4.012l-3.462 2.004-3.463-2.004v-4.012zm31.844 0l3.464-2.004 3.461 2.004v4.012l-3.461 2.004-3.464-2.004v-4.012zm31.847-.002l3.462-2.002 3.463 2.004v4.012l-3.463 2.004-3.462-2.004v-4.014zM5.522 104.125l3.46-2.006 3.464 2.006v4.01l-3.463 2.005-3.46-2.005v-4.01zm31.843 0l3.462-2.007 3.464 2.007v4.01l-3.464 2.005-3.462-2.005v-4.01zm31.844 0l3.464-2.006 3.46 2.006v4.01l-3.46 2.005-3.464-2.005v-4.01zm31.845-.001l3.464-2.005 3.46 2.005v4.011l-3.46 2.005-3.464-2.005v-4.011zm-79.61-27.662l3.461-2.007 3.463 2.007v4.01l-3.463 2.005-3.46-2.005v-4.01zm31.843 0l3.463-2.005 3.462 2.005v4.01l-3.462 2.004-3.463-2.004v-4.01zm31.844 0l3.464-2.007 3.461 2.007v4.01l-3.461 2.005-3.464-2.006v-4.01zM5.522 48.799l3.46-2.004 3.464 2.004v4.012l-3.463 2.005-3.46-2.005v-4.012zm31.843 0l3.462-2.006 3.464 2.006v4.012l-3.464 2.005-3.462-2.005v-4.012zm31.844 0l3.464-2.004 3.46 2.004v4.012l-3.46 2.004-3.464-2.004v-4.012zm31.845 0l3.464-2.004 3.46 2.004v4.012l-3.46 2.004-3.464-2.004v-4.012zm-79.61-27.663l3.461-2.005 3.463 2.005v4.011l-3.463 2.006-3.46-2.006v-4.011zm31.843 0l3.463-2.005 3.462 2.005v4.011l-3.462 2.006-3.463-2.006v-4.011zm31.844 0l3.464-2.005 3.461 2.005v4.011l-3.461 2.006-3.464-2.006v-4.011zM5.522-6.53l3.46-2.002 3.464 2.004v4.013L8.983-.511l-3.46-2.003V-6.53zm31.843.002l3.461-2.004 3.464 2.004v4.013L40.826-.511l-3.46-2.003v-4.013zm31.844-.002l3.464-2.002 3.46 2.004v4.013l-3.46 2.003-3.464-2.003V-6.53zM21.444-34.19l3.461-2.005 3.463 2.004v4.012l-3.463 2.006-3.46-2.006v-4.012zm31.843 0l3.463-2.005 3.462 2.004v4.012l-3.462 2.005-3.463-2.005v-4.012zM5.522-61.852l3.46-2.005 3.464 2.005v4.01l-3.463 2.006-3.46-2.006v-4.01zm31.843 0l3.461-2.007 3.464 2.007v4.01l-3.464 2.006-3.46-2.006v-4.01zm-15.92-27.663l3.46-2.005 3.463 2.005v4.01l-3.463 2.007-3.46-2.006v-4.01zM5.521-117.176l3.46-2.005 3.464 2.005v4.01l-3.463 2.005-3.46-2.005v-4.01zm458.43 744.967l6.776-3.922 6.776 3.922v7.848l-6.776 3.924-6.776-3.924v-7.848zm-47.766-27.664l6.775-3.923 6.776 3.923v7.851l-6.776 3.924-6.775-3.924v-7.851zm31.843 0l6.775-3.923 6.777 3.923v7.851l-6.777 3.924-6.775-3.924v-7.851zm31.845 0l6.776-3.923 6.776 3.923v7.851l-6.776 3.924-6.776-3.924v-7.851zM304.73 572.464l6.774-3.924 6.777 3.924v7.85l-6.777 3.924-6.774-3.924v-7.85zm31.844 0l6.777-3.924 6.775 3.924v7.85l-6.775 3.924-6.777-3.924v-7.85zm31.845 0l6.776-3.924 6.774 3.924v7.85l-6.774 3.924-6.776-3.924v-7.85zm31.844 0l6.776-3.924 6.776 3.924v7.85l-6.776 3.924-6.776-3.924v-7.85zm31.844 0l6.776-3.924 6.776 3.924v7.85l-6.776 3.924-6.776-3.924v-7.85zm31.845 0l6.776-3.924 6.776 3.924v7.85l-6.776 3.924-6.776-3.924v-7.85zm-175.145-27.661l6.777-3.925 6.775 3.925v7.849l-6.775 3.923-6.777-3.923v-7.849zm31.845 0l6.776-3.925 6.776 3.925v7.849l-6.776 3.923-6.776-3.923v-7.849zm31.845 0l6.777-3.925 6.774 3.925v7.849l-6.774 3.923-6.777-3.923v-7.849zm31.844 0l6.776-3.925 6.775 3.925v7.849l-6.775 3.923-6.776-3.923v-7.849zm31.845 0l6.775-3.925 6.776 3.925v7.849l-6.776 3.923-6.775-3.923v-7.849zm31.843 0l6.775-3.925 6.777 3.925v7.849l-6.777 3.923-6.775-3.923v-7.849zm-175.142-27.661l6.775-3.925 6.775 3.925v7.847l-6.775 3.924-6.775-3.924v-7.847zm31.843 0l6.774-3.925 6.777 3.925v7.847l-6.777 3.924-6.774-3.924v-7.847zm31.844 0l6.777-3.925 6.775 3.925v7.847l-6.775 3.924-6.777-3.924v-7.847zm31.845 0l6.776-3.925 6.774 3.925v7.847l-6.774 3.924-6.776-3.924v-7.847zm31.844 0l6.776-3.925 6.776 3.925v7.847l-6.776 3.924-6.776-3.924v-7.847zm-143.298-27.663l6.775-3.925 6.774 3.925v7.848l-6.774 3.926-6.775-3.926v-7.848zm31.842 0l6.777-3.925 6.775 3.925v7.848l-6.775 3.926-6.777-3.926v-7.848zm31.845 0l6.776-3.925 6.776 3.925v7.848l-6.776 3.926-6.776-3.926v-7.848zm31.845 0l6.777-3.925 6.774 3.925v7.848l-6.774 3.926-6.777-3.926v-7.848zm31.844 0l6.776-3.925 6.775 3.925v7.848l-6.775 3.926-6.776-3.926v-7.848zM241.04 461.815l6.777-3.925 6.774 3.925v7.851l-6.774 3.924-6.777-3.924v-7.851zm31.847 0l6.775-3.925 6.775 3.925v7.851l-6.775 3.924-6.775-3.924v-7.851zm31.843 0l6.774-3.925 6.777 3.925v7.851l-6.777 3.924-6.774-3.924v-7.851zm31.844 0l6.777-3.925 6.775 3.925v7.851l-6.775 3.924-6.777-3.924v-7.851zm31.845 0l6.776-3.925 6.774 3.925v7.851l-6.774 3.924-6.776-3.924v-7.851zm-143.302-27.661l6.778-3.924 6.774 3.924v7.848l-6.774 3.925-6.778-3.925v-7.848zm31.848 0l6.775-3.924 6.774 3.924v7.848l-6.774 3.925-6.775-3.925v-7.848zm31.842 0l6.777-3.924 6.775 3.924v7.848l-6.775 3.925-6.777-3.925v-7.848zm31.845 0l6.776-3.924 6.776 3.924v7.848l-6.776 3.925-6.776-3.925v-7.848zm31.845 0l6.777-3.924 6.774 3.924v7.848l-6.774 3.925-6.777-3.925v-7.848zM241.04 406.49l6.777-3.922 6.774 3.922v7.848l-6.774 3.926-6.777-3.926v-7.848zm31.847 0l6.775-3.922 6.775 3.922v7.848l-6.775 3.926-6.775-3.926v-7.848zm31.843 0l6.774-3.922 6.777 3.922v7.848l-6.777 3.926-6.774-3.926v-7.848zm31.844 0l6.777-3.922 6.775 3.922v7.848l-6.775 3.926-6.777-3.926v-7.848zm-111.457-27.66l6.778-3.924 6.774 3.924v7.847l-6.774 3.924-6.778-3.924v-7.847zm31.848 0l6.775-3.924 6.774 3.924v7.847l-6.774 3.924-6.775-3.924v-7.847zm31.842 0l6.777-3.924 6.775 3.924v7.847l-6.775 3.924-6.777-3.924v-7.847zm31.845 0l6.776-3.924 6.776 3.924v7.847l-6.776 3.924-6.776-3.924v-7.847zm-79.612-27.664l6.777-3.924 6.774 3.924v7.849l-6.774 3.923-6.777-3.923v-7.849zm31.847 0l6.775-3.924 6.775 3.924v7.849l-6.775 3.923-6.775-3.923v-7.849zm31.843 0l6.774-3.924 6.777 3.924v7.849l-6.777 3.923-6.774-3.923v-7.849zm-79.613-27.663l6.778-3.925 6.774 3.925v7.85l-6.774 3.925-6.778-3.925v-7.85zm31.848 0l6.775-3.925 6.774 3.925v7.85l-6.774 3.925-6.775-3.925v-7.85zm31.842 0l6.777-3.925 6.775 3.925v7.85l-6.775 3.925-6.777-3.925v-7.85zm-79.611-27.661l6.777-3.925 6.773 3.925v7.848l-6.773 3.924-6.777-3.924v-7.848zm31.844 0l6.777-3.925 6.774 3.925v7.848l-6.774 3.924-6.777-3.924v-7.848zm31.847 0l6.775-3.925 6.775 3.925v7.848l-6.775 3.924-6.775-3.924v-7.848zm-79.612-27.663l6.777-3.926 6.774 3.926v7.848l-6.774 3.925-6.777-3.925v-7.848zm31.842 0l6.778-3.926 6.774 3.926v7.848l-6.774 3.925-6.778-3.925v-7.848zm31.848 0l6.775-3.926 6.774 3.926v7.848l-6.774 3.925-6.775-3.925v-7.848zm31.842 0l6.777-3.926 6.775 3.926v7.848l-6.775 3.925-6.777-3.925v-7.848zm-79.611-27.662l6.777-3.923 6.773 3.923v7.849l-6.773 3.923-6.777-3.923v-7.849zm31.844 0l6.777-3.923 6.774 3.923v7.849l-6.774 3.923-6.777-3.923v-7.849zm31.847 0l6.775-3.923 6.775 3.923v7.849l-6.775 3.923-6.775-3.923v-7.849zm-79.612-27.664l6.777-3.922 6.774 3.922v7.849l-6.774 3.925-6.777-3.925v-7.849zm31.842 0l6.778-3.922 6.774 3.922v7.849l-6.774 3.925-6.778-3.925v-7.849zm31.848 0l6.775-3.922 6.774 3.922v7.849l-6.774 3.925-6.775-3.925v-7.849zm-79.613-27.664l6.775-3.922 6.777 3.922v7.852l-6.777 3.923-6.775-3.923v-7.852zm31.844 0l6.777-3.922 6.774 3.922v7.852l-6.774 3.923-6.777-3.923v-7.852zm31.844 0l6.777-3.922 6.774 3.922v7.852l-6.774 3.923-6.777-3.923v-7.852zm31.847 0l6.775-3.922 6.775 3.922v7.852l-6.775 3.923-6.775-3.923v-7.852zm-111.457-27.66l6.775-3.924 6.777 3.924v7.849l-6.777 3.924-6.775-3.924v-7.849zm31.845 0l6.777-3.924 6.774 3.924v7.849l-6.774 3.924-6.777-3.924v-7.849zm31.842 0l6.778-3.924 6.774 3.924v7.849l-6.774 3.924-6.778-3.924v-7.849zm31.848 0l6.775-3.924 6.774 3.924v7.849l-6.774 3.924-6.775-3.924v-7.849zm-111.457-27.661l6.775-3.925 6.776 3.925v7.847l-6.776 3.923-6.775-3.923v-7.847zm31.844 0l6.775-3.925 6.777 3.925v7.847l-6.777 3.923-6.775-3.923v-7.847zm31.844 0l6.777-3.925 6.774 3.925v7.847l-6.774 3.923-6.777-3.923v-7.847zm31.844 0l6.777-3.925 6.774 3.925v7.847l-6.774 3.923-6.777-3.923v-7.847zm-111.454-27.662l6.774-3.926 6.775 3.926v7.848l-6.775 3.924-6.774-3.924v-7.848zm31.844 0l6.775-3.926 6.777 3.926v7.848l-6.777 3.924-6.775-3.924v-7.848zm31.845 0l6.777-3.926 6.774 3.926v7.848l-6.774 3.924-6.777-3.924v-7.848zm31.842 0l6.778-3.926 6.774 3.926v7.848l-6.774 3.924-6.778-3.924v-7.848zm31.848 0l6.775-3.926 6.774 3.926v7.848l-6.774 3.924-6.775-3.924v-7.848zM113.664 74.541l6.776-3.924 6.774 3.924v7.852l-6.774 3.922-6.776-3.922V74.54zm31.844 0l6.775-3.924 6.776 3.924v7.852l-6.776 3.922-6.775-3.922V74.54zm31.844 0l6.775-3.924 6.777 3.924v7.852l-6.777 3.922-6.775-3.922V74.54zm31.844 0l6.777-3.924 6.774 3.924v7.852l-6.774 3.922-6.777-3.922V74.54zm31.844 0l6.777-3.924 6.774 3.924v7.852l-6.774 3.922-6.777-3.922V74.54zM129.586 46.88l6.774-3.924 6.775 3.924v7.849l-6.775 3.924-6.774-3.924v-7.85zm31.844 0l6.775-3.924 6.777 3.924v7.849l-6.777 3.924-6.775-3.924v-7.85zm31.845 0l6.777-3.924 6.774 3.924v7.849l-6.774 3.924-6.777-3.924v-7.85zm31.842 0l6.778-3.924 6.774 3.924v7.849l-6.774 3.924-6.778-3.924v-7.85zM113.664 19.216l6.776-3.923 6.774 3.923v7.849l-6.774 3.924-6.776-3.924v-7.849zm31.844 0l6.775-3.923 6.776 3.923v7.849l-6.776 3.924-6.775-3.924v-7.849zm31.844 0l6.775-3.923 6.777 3.923v7.849l-6.777 3.924-6.775-3.924v-7.849zm31.844 0l6.777-3.923 6.774 3.923v7.849l-6.774 3.924-6.777-3.924v-7.849zm31.844 0l6.777-3.923 6.774 3.923v7.849l-6.774 3.924-6.777-3.924v-7.849zM97.743-8.444l6.775-3.925 6.774 3.924v7.847l-6.774 3.926-6.775-3.926v-7.847zm31.843 0l6.774-3.925 6.775 3.924v7.847l-6.775 3.926-6.774-3.926v-7.847zm31.844 0l6.775-3.925 6.777 3.924v7.847l-6.777 3.926-6.775-3.926v-7.847zm31.845 0l6.777-3.925 6.774 3.924v7.847l-6.774 3.926-6.777-3.926v-7.847zm31.842 0l6.778-3.925 6.774 3.924v7.847l-6.774 3.926-6.778-3.926v-7.847zM81.82-36.108l6.775-3.925 6.774 3.925v7.848l-6.774 3.924-6.775-3.924v-7.848zm31.844 0l6.776-3.925 6.774 3.925v7.848l-6.774 3.924-6.776-3.924v-7.848zm31.844 0l6.775-3.925 6.776 3.925v7.848l-6.776 3.924-6.775-3.924v-7.848zm31.844 0l6.775-3.925 6.777 3.925v7.848l-6.777 3.924-6.775-3.924v-7.848zm31.844 0l6.777-3.925 6.774 3.925v7.848l-6.774 3.924-6.777-3.924v-7.848zM65.896-63.77l6.777-3.926 6.774 3.926v7.85l-6.774 3.924-6.777-3.925v-7.849zm31.847 0l6.775-3.926 6.774 3.926v7.85l-6.774 3.924-6.775-3.925v-7.849zm31.843 0l6.774-3.926 6.775 3.926v7.85l-6.775 3.924-6.774-3.925v-7.849zm31.844 0l6.775-3.926 6.777 3.926v7.85l-6.777 3.924-6.775-3.925v-7.849zm31.845 0l6.777-3.926 6.774 3.926v7.85l-6.774 3.924-6.777-3.925v-7.849zM49.973-91.432l6.777-3.923 6.775 3.923v7.849L56.75-79.66l-6.777-3.924v-7.849zm31.847 0l6.775-3.923 6.774 3.923v7.849l-6.774 3.924-6.775-3.924v-7.849zm31.844 0l6.776-3.923 6.774 3.923v7.849l-6.774 3.924-6.776-3.924v-7.849zm31.844 0l6.775-3.923 6.776 3.923v7.849l-6.776 3.924-6.775-3.924v-7.849zM34.052-119.095l6.774-3.925 6.777 3.925v7.848l-6.777 3.924-6.774-3.924v-7.848zm31.844 0l6.777-3.925 6.774 3.925v7.848l-6.774 3.924-6.777-3.924v-7.848zm31.847 0l6.775-3.925 6.774 3.925v7.848l-6.774 3.924-6.775-3.924v-7.848zm31.843 0l6.774-3.925 6.775 3.925v7.848l-6.775 3.924-6.774-3.924v-7.848zM18.13-146.757l6.775-3.924 6.777 3.924v7.849l-6.777 3.924-6.774-3.924v-7.849zm31.843 0l6.777-3.924 6.775 3.924v7.849l-6.775 3.924-6.777-3.924v-7.849zm31.847 0l6.775-3.924 6.774 3.924v7.849l-6.774 3.924-6.775-3.924v-7.849zm31.844 0l6.776-3.924 6.774 3.924v7.849l-6.774 3.924-6.776-3.924v-7.849zM2.208-174.419l6.775-3.924 6.777 3.924v7.847l-6.777 3.925-6.775-3.925v-7.847zm31.844 0l6.774-3.924 6.777 3.924v7.847l-6.777 3.925-6.774-3.925v-7.847zm31.844 0l6.777-3.924 6.774 3.924v7.847l-6.774 3.925-6.777-3.925v-7.847zm31.847 0l6.775-3.924 6.774 3.924v7.847l-6.774 3.925-6.775-3.925v-7.847zM18.13-202.082l6.774-3.925 6.777 3.925v7.849l-6.777 3.924-6.774-3.924v-7.849zm31.842 0l6.777-3.925 6.775 3.925v7.849l-6.775 3.924-6.777-3.924v-7.849zm31.847 0l6.775-3.925 6.774 3.925v7.849l-6.774 3.924-6.775-3.924v-7.849zM2.208-229.746l6.775-3.924 6.777 3.924v7.85l-6.777 3.924-6.775-3.924v-7.85zm31.844 0l6.774-3.924 6.777 3.924v7.85l-6.777 3.924-6.774-3.924v-7.85zm31.844 0l6.777-3.924 6.774 3.924v7.85l-6.774 3.924-6.777-3.924v-7.85zM18.13-257.407l6.775-3.926 6.777 3.926v7.848l-6.777 3.924-6.774-3.924v-7.848zM2.208-285.068l6.775-3.924 6.777 3.924v7.847l-6.777 3.926-6.775-3.926v-7.847zm31.844 0l6.774-3.924 6.777 3.924v7.847l-6.777 3.926-6.774-3.926v-7.847zM18.13-312.732l6.774-3.924 6.777 3.924v7.848l-6.777 3.924-6.774-3.924v-7.848zM2.208-340.396l6.775-3.923 6.777 3.923v7.851l-6.777 3.924-6.775-3.924v-7.851zm475.457 883.92l8.985-5.204 8.985 5.204v10.407l-8.985 5.202-8.985-5.202v-10.407zM429.9 515.862l8.983-5.203 8.984 5.203v10.406l-8.984 5.204-8.983-5.204v-10.406zm31.844 0l8.984-5.203 8.983 5.203v10.406l-8.983 5.204-8.984-5.204v-10.406zM413.978 488.2l8.983-5.204 8.985 5.204v10.405l-8.985 5.205-8.983-5.205V488.2zm31.844 0l8.982-5.204 8.986 5.204v10.405l-8.986 5.204-8.982-5.204V488.2zm31.843 0l8.985-5.204 8.985 5.204v10.405l-8.985 5.205-8.985-5.205V488.2zm-79.609-27.664l8.983-5.203 8.985 5.203v10.41l-8.985 5.202-8.983-5.202v-10.41zm31.844 0l8.983-5.203 8.984 5.203v10.41l-8.984 5.202-8.983-5.202v-10.41zm31.844 0l8.984-5.203 8.983 5.203v10.41l-8.983 5.202-8.984-5.202v-10.41zm-79.612-27.661l8.985-5.204 8.983 5.204v10.407l-8.983 5.203-8.985-5.203v-10.407zm31.846 0l8.983-5.205 8.985 5.205v10.407l-8.985 5.203-8.983-5.203v-10.407zm31.844 0l8.982-5.204 8.986 5.204v10.407l-8.986 5.203-8.982-5.203v-10.407zm31.843 0l8.985-5.205 8.985 5.205v10.407l-8.985 5.203-8.985-5.203v-10.407zm-111.454-27.663l8.984-5.202 8.985 5.202v10.406l-8.985 5.203-8.984-5.203v-10.406zm31.845 0l8.983-5.202 8.985 5.202v10.406l-8.985 5.203-8.983-5.203v-10.406zm31.844 0l8.983-5.202 8.984 5.202v10.406l-8.984 5.203-8.983-5.203v-10.406zm31.844 0l8.984-5.202 8.983 5.202v10.406l-8.983 5.203-8.984-5.203v-10.406zm-111.456-27.661l8.986-5.204 8.984 5.204v10.405l-8.984 5.203-8.986-5.203v-10.405zm31.844 0l8.985-5.204 8.983 5.204v10.405l-8.983 5.203-8.985-5.203v-10.405zm31.846 0l8.983-5.204 8.985 5.204v10.405l-8.985 5.203-8.983-5.203v-10.405zm31.844 0l8.982-5.204 8.986 5.204v10.405l-8.986 5.203-8.982-5.203v-10.405zm31.843 0l8.985-5.204 8.985 5.204v10.405l-8.985 5.203-8.985-5.203v-10.405zm-143.298-27.664l8.984-5.203 8.983 5.203v10.407l-8.983 5.202-8.984-5.202v-10.407zm31.844 0l8.984-5.203 8.985 5.203v10.407l-8.985 5.202-8.984-5.202v-10.407zm31.845 0l8.983-5.203 8.985 5.203v10.407l-8.985 5.202-8.983-5.202v-10.407zm31.844 0l8.983-5.203 8.984 5.203v10.407l-8.984 5.202-8.983-5.202v-10.407zm-111.456-27.663l8.984-5.203 8.984 5.203v10.407l-8.984 5.206-8.984-5.206v-10.407zm31.844 0l8.986-5.203 8.984 5.203v10.407l-8.984 5.206-8.986-5.206v-10.407zm31.844 0l8.985-5.203 8.983 5.203v10.407l-8.983 5.206-8.985-5.206v-10.407zm31.846 0l8.983-5.203 8.985 5.203v10.407l-8.985 5.206-8.983-5.206v-10.407zm-111.456-27.661l8.982-5.204 8.985 5.204v10.406l-8.985 5.203-8.982-5.203v-10.406zm31.845 0l8.984-5.204 8.983 5.204v10.406l-8.983 5.203-8.984-5.203v-10.406zm31.844 0l8.984-5.204 8.985 5.204v10.406l-8.985 5.203-8.984-5.203v-10.406zm31.845 0l8.983-5.204 8.985 5.204v10.406l-8.985 5.203-8.983-5.203v-10.406zM318.444 266.9l8.984-5.203 8.984 5.203v10.406l-8.984 5.204-8.984-5.204V266.9zm31.844 0l8.986-5.203 8.984 5.203v10.406l-8.984 5.205-8.986-5.205V266.9zm31.844 0l8.985-5.203 8.983 5.203v10.406l-8.983 5.204-8.985-5.204V266.9zm-79.61-27.662l8.982-5.203 8.985 5.203v10.407l-8.985 5.204-8.982-5.204v-10.407zm31.845 0l8.984-5.203 8.983 5.203v10.407l-8.983 5.204-8.984-5.204v-10.407zm31.844 0l8.984-5.203 8.985 5.203v10.407l-8.985 5.204-8.984-5.204v-10.407zM286.6 211.576l8.984-5.203 8.983 5.203v10.405l-8.983 5.205-8.984-5.205v-10.405zm31.844 0l8.984-5.203 8.984 5.203v10.405l-8.984 5.203-8.984-5.203v-10.405zm31.844 0l8.986-5.203 8.984 5.203v10.405l-8.984 5.205-8.986-5.205v-10.405zm-47.766-27.664l8.982-5.203 8.985 5.203v10.407l-8.985 5.203-8.982-5.203v-10.407zm31.845 0l8.984-5.203 8.983 5.203v10.407l-8.983 5.203-8.984-5.203v-10.407zM286.6 156.25l8.984-5.204 8.983 5.204v10.406l-8.983 5.204-8.984-5.204V156.25zm31.844 0l8.984-5.204 8.984 5.204v10.406l-8.984 5.204-8.984-5.204V156.25zm31.844 0l8.986-5.204 8.984 5.204v10.406l-8.984 5.204-8.986-5.204V156.25zm-79.612-27.662l8.986-5.204 8.984 5.204v10.406l-8.984 5.205-8.986-5.205v-10.406zm31.846 0l8.982-5.203 8.985 5.203v10.406l-8.985 5.204-8.982-5.204v-10.406zm31.845 0l8.984-5.203 8.983 5.203v10.406l-8.983 5.204-8.984-5.204v-10.406zM286.6 100.926l8.984-5.203 8.983 5.203v10.406l-8.983 5.205-8.984-5.205v-10.406zm31.844 0l8.984-5.203 8.984 5.203v10.406l-8.984 5.204-8.984-5.204v-10.406zm-47.768-27.662l8.986-5.204 8.984 5.204V83.67l-8.984 5.204-8.986-5.204V73.264zm31.846 0l8.982-5.204 8.985 5.204V83.67l-8.985 5.203-8.982-5.203V73.264zm31.845 0l8.984-5.204 8.983 5.204V83.67l-8.983 5.203-8.984-5.203V73.264zM254.754 45.6l8.986-5.203 8.984 5.203v10.407l-8.984 5.202-8.986-5.202V45.601zm31.846 0l8.984-5.205 8.983 5.205v10.407l-8.983 5.202-8.984-5.202V45.601zm31.844 0l8.984-5.203 8.984 5.203v10.407l-8.984 5.202-8.984-5.202V45.601zm-47.768-27.663l8.986-5.204 8.984 5.204v10.406l-8.984 5.202-8.986-5.202V17.938zm31.846 0l8.982-5.204 8.985 5.204v10.406l-8.985 5.202-8.982-5.202V17.938zm31.845 0l8.984-5.204 8.983 5.204v10.406l-8.983 5.202-8.984-5.202V17.938zm-79.613-27.66l8.986-5.205 8.984 5.205V.68l-8.984 5.204L254.754.68V-9.723zm31.846 0l8.984-5.205 8.983 5.205V.68l-8.983 5.204L286.6.681V-9.723zm31.844 0l8.984-5.205 8.984 5.205V.68l-8.984 5.204L318.444.68V-9.723zm-79.612-27.664l8.985-5.202 8.983 5.202v10.406l-8.983 5.205-8.985-5.205v-10.406zm31.844 0l8.986-5.202 8.984 5.202v10.406l-8.984 5.205-8.986-5.205v-10.406zm31.846 0l8.982-5.202 8.985 5.202v10.406l-8.985 5.205-8.982-5.205v-10.406zm31.845 0l8.984-5.202 8.983 5.202v10.406l-8.983 5.205-8.984-5.205v-10.406zM222.91-65.05l8.985-5.203 8.983 5.203v10.409l-8.983 5.204-8.985-5.204V-65.05zm31.844 0l8.986-5.203 8.984 5.203v10.409l-8.984 5.204-8.986-5.204V-65.05zm31.846 0l8.984-5.203 8.983 5.203v10.409l-8.983 5.204-8.984-5.204V-65.05zm31.844 0l8.984-5.203 8.984 5.203v10.409l-8.984 5.204-8.984-5.204V-65.05zm-143.3-27.66l8.983-5.204 8.985 5.204v10.405l-8.985 5.203-8.983-5.203V-92.71zm31.843 0l8.986-5.204 8.982 5.204v10.405l-8.982 5.203-8.986-5.203V-92.71zm31.845 0l8.985-5.204 8.983 5.204v10.405l-8.983 5.203-8.985-5.203V-92.71zm31.844 0l8.986-5.205 8.984 5.205v10.405l-8.984 5.203-8.986-5.203V-92.71zm31.846 0l8.982-5.204 8.985 5.204v10.405l-8.985 5.203-8.982-5.203V-92.71zm-143.3-27.664l8.983-5.203 8.984 5.203v10.407l-8.984 5.202-8.983-5.202v-10.407zm31.844 0l8.986-5.203 8.981 5.203v10.407l-8.981 5.202-8.986-5.202v-10.407zm31.844 0l8.985-5.203 8.983 5.203v10.407l-8.983 5.202-8.985-5.202v-10.407zm31.844 0l8.986-5.203 8.984 5.203v10.407l-8.984 5.202-8.986-5.202v-10.407zm31.846 0l8.984-5.203 8.983 5.203v10.407l-8.983 5.202-8.984-5.202v-10.407zm-143.3-27.662l8.983-5.204 8.985 5.204v10.407l-8.985 5.202-8.983-5.202v-10.407zm31.844 0l8.983-5.204 8.985 5.204v10.407l-8.985 5.202-8.983-5.202v-10.407zm31.843 0l8.986-5.204 8.982 5.204v10.407l-8.982 5.202-8.986-5.202v-10.407zm31.845 0l8.985-5.204 8.983 5.204v10.407l-8.983 5.202-8.985-5.202v-10.407zm-111.456-27.663l8.984-5.203 8.985 5.203v10.406l-8.985 5.204-8.984-5.204v-10.406zm31.846 0l8.983-5.203 8.984 5.203v10.406l-8.984 5.204-8.983-5.204v-10.406zm31.844 0l8.986-5.203 8.981 5.203v10.406l-8.981 5.204-8.986-5.204v-10.406zm31.844 0l8.985-5.203 8.983 5.203v10.406l-8.983 5.204-8.985-5.204v-10.406zm-111.456-27.663l8.986-5.203 8.984 5.203v10.408l-8.984 5.203-8.986-5.203v-10.408zm31.846 0l8.983-5.203 8.985 5.203v10.408l-8.985 5.203-8.983-5.203v-10.408zm31.844 0l8.983-5.203 8.985 5.203v10.408l-8.985 5.203-8.983-5.203v-10.408zm-79.612-27.663l8.986-5.203 8.981 5.203v10.408l-8.981 5.204-8.986-5.204v-10.408zm31.844 0l8.984-5.203 8.985 5.203v10.408l-8.985 5.204-8.984-5.204v-10.408zm31.846 0l8.983-5.203 8.984 5.203v10.408l-8.984 5.204-8.983-5.204v-10.408zM47.765-258.686l8.985-5.205 8.983 5.205v10.406l-8.983 5.204-8.985-5.204v-10.406zm31.845 0l8.985-5.205 8.982 5.205v10.406l-8.982 5.204-8.985-5.204v-10.406zm31.844 0l8.986-5.205 8.984 5.205v10.406l-8.984 5.204-8.986-5.204v-10.406zm31.846 0l8.983-5.205 8.985 5.205v10.406l-8.985 5.204-8.983-5.204v-10.406zm-79.613-27.661l8.986-5.204 8.983 5.204v10.405l-8.983 5.204-8.986-5.204v-10.405zm31.845 0l8.986-5.204 8.981 5.204v10.405l-8.981 5.204-8.986-5.204v-10.405zm31.844 0l8.984-5.204 8.985 5.204v10.405l-8.985 5.204-8.984-5.204v-10.405zm-79.61-27.664l8.984-5.203 8.983 5.203v10.406l-8.983 5.204-8.985-5.204v-10.406zm31.844 0l8.985-5.203 8.982 5.203v10.406l-8.982 5.204-8.985-5.204v-10.406zm31.844 0l8.986-5.203 8.984 5.203v10.406l-8.984 5.204-8.986-5.204v-10.406zm-79.61-27.663l8.982-5.204 8.986 5.204v10.409l-8.986 5.202-8.982-5.202v-10.409zm31.843 0l8.986-5.204 8.983 5.204v10.409l-8.983 5.202-8.986-5.202v-10.409zm31.845 0l8.986-5.204 8.981 5.204v10.409l-8.981 5.202-8.986-5.202v-10.409zm31.844 0l8.984-5.204 8.985 5.204v10.409l-8.985 5.202-8.984-5.202v-10.409zM15.922-369.336l8.983-5.204 8.985 5.204v10.407l-8.985 5.202-8.983-5.202v-10.407zm31.843 0l8.985-5.204 8.983 5.204v10.407l-8.983 5.202-8.985-5.202v-10.407zm31.845 0l8.985-5.204 8.982 5.204v10.407l-8.982 5.202-8.985-5.202v-10.407zm31.844 0l8.986-5.204 8.984 5.204v10.407l-8.984 5.202-8.986-5.202v-10.407zM0-396.997l8.983-5.204 8.985 5.204v10.405l-8.985 5.204L0-386.592v-10.405zm31.844 0l8.982-5.205 8.986 5.205v10.405l-8.986 5.204-8.982-5.204v-10.405zm31.843 0l8.986-5.204 8.983 5.204v10.405l-8.983 5.204-8.986-5.204v-10.405zm31.845 0l8.986-5.204 8.981 5.204v10.405l-8.981 5.204-8.986-5.204v-10.405zm31.844 0l8.984-5.204 8.985 5.204v10.405l-8.985 5.204-8.984-5.204v-10.405zM15.922-424.661l8.983-5.204 8.985 5.204v10.407l-8.985 5.204-8.983-5.204v-10.407zm31.843 0l8.985-5.204 8.983 5.204v10.407l-8.983 5.204-8.985-5.204v-10.407zm31.845 0l8.985-5.204 8.982 5.204v10.407l-8.982 5.204-8.985-5.204v-10.407zm31.844 0l8.986-5.204 8.984 5.204v10.407l-8.984 5.204-8.986-5.204v-10.407zM0-452.324l8.983-5.203 8.985 5.203v10.408l-8.985 5.204L0-441.916v-10.408zm31.844 0l8.982-5.203 8.986 5.203v10.408l-8.986 5.205-8.982-5.205v-10.408zm31.843 0l8.986-5.203 8.983 5.203v10.408l-8.983 5.204-8.986-5.204v-10.408zm31.845 0l8.986-5.203 8.981 5.203v10.408l-8.981 5.204-8.986-5.204v-10.408zm-79.61-27.662l8.983-5.203 8.985 5.203v10.407l-8.985 5.204-8.983-5.204v-10.407zm31.843 0l8.985-5.203 8.983 5.203v10.407l-8.983 5.204-8.985-5.204v-10.407zm31.845 0l8.985-5.203 8.982 5.203v10.407l-8.982 5.204-8.985-5.204v-10.407zm31.844 0l8.986-5.203 8.984 5.203v10.407l-8.984 5.204-8.986-5.204v-10.407zm348.08 828.595l11.194-6.483 11.193 6.483v12.963l-11.193 6.484-11.194-6.484v-12.963zm31.845 0l11.193-6.483 11.193 6.483v12.963l-11.193 6.484-11.193-6.484v-12.963zm-47.765-27.663l11.19-6.482 11.193 6.482v12.965l-11.193 6.483-11.19-6.483v-12.965zm31.843 0l11.193-6.482 11.192 6.482v12.965l-11.192 6.483-11.193-6.483v-12.965zm-47.767-27.662l11.193-6.484 11.194 6.484v12.964l-11.194 6.482-11.193-6.482v-12.964zm31.844 0l11.194-6.484 11.193 6.484v12.964l-11.193 6.482-11.194-6.482v-12.964zm31.845 0l11.193-6.484 11.193 6.484v12.964l-11.193 6.482-11.193-6.482v-12.964zm-79.61-27.662l11.192-6.483 11.194 6.483v12.964l-11.194 6.482-11.192-6.482v-12.964zm31.845 0l11.19-6.483 11.193 6.483v12.964l-11.193 6.482-11.19-6.482v-12.964zm31.843 0l11.193-6.483 11.192 6.483v12.964l-11.192 6.482-11.193-6.482v-12.964zm31.845 0l11.192-6.483 11.194 6.483v12.964l-11.194 6.482-11.192-6.482v-12.964zm-111.457-27.663l11.194-6.484 11.193 6.484v12.966l-11.193 6.482-11.194-6.482v-12.966zm31.845 0l11.193-6.484 11.194 6.484v12.966l-11.194 6.482-11.193-6.482v-12.966zm31.844 0l11.194-6.484 11.193 6.484v12.966l-11.193 6.482-11.194-6.482v-12.966zm31.845 0l11.193-6.484 11.193 6.484v12.966l-11.193 6.482-11.193-6.482v-12.966zm-111.454-27.664l11.192-6.481 11.193 6.481v12.965l-11.193 6.485-11.192-6.485v-12.965zm31.844 0l11.192-6.481 11.194 6.481v12.965l-11.194 6.485-11.192-6.485v-12.965zm31.845 0l11.19-6.481 11.193 6.481v12.965l-11.193 6.485-11.19-6.485v-12.965zm31.843 0l11.193-6.481 11.192 6.481v12.965l-11.192 6.485-11.193-6.485v-12.965zm31.845 0l11.192-6.481 11.194 6.481v12.965l-11.194 6.485-11.192-6.485v-12.965zm-143.3-27.663l11.193-6.481 11.193 6.481v12.967l-11.193 6.482-11.193-6.482v-12.967zm31.843 0l11.194-6.481 11.193 6.481v12.967l-11.193 6.482-11.194-6.482v-12.967zm31.845 0l11.193-6.481 11.194 6.481v12.967l-11.194 6.482-11.193-6.482v-12.967zm31.844 0l11.194-6.481 11.193 6.481v12.967l-11.193 6.482-11.194-6.482v-12.967zm31.845 0l11.193-6.481 11.193 6.481v12.967l-11.193 6.482-11.193-6.482v-12.967zm31.845 0l11.194-6.481 11.192 6.481v12.967l-11.192 6.482-11.194-6.482v-12.967zm-143.299-27.661l11.192-6.483 11.193 6.483v12.964l-11.193 6.481-11.192-6.481v-12.964zm31.844 0l11.192-6.483 11.194 6.483v12.964l-11.194 6.481-11.192-6.481v-12.964zm31.845 0l11.19-6.483 11.193 6.483v12.964l-11.193 6.481-11.19-6.481v-12.964zm31.843 0l11.193-6.483 11.192 6.483v12.964l-11.192 6.481-11.193-6.481v-12.964zm31.845 0l11.192-6.483 11.194 6.483v12.964l-11.194 6.481-11.192-6.481v-12.964zm-143.3-27.662l11.193-6.483 11.193 6.483v12.964l-11.193 6.484-11.193-6.484v-12.964zm31.843 0l11.194-6.483 11.193 6.483v12.964l-11.193 6.484-11.194-6.484v-12.964zm31.845 0l11.193-6.483 11.194 6.483v12.964l-11.194 6.484-11.193-6.484v-12.964zm31.844 0l11.194-6.483 11.193 6.483v12.964l-11.193 6.484-11.194-6.484v-12.964zm31.845 0l11.193-6.483 11.193 6.483v12.964l-11.193 6.484-11.193-6.484v-12.964zm31.845 0l11.194-6.483 11.192 6.483v12.964l-11.192 6.484-11.194-6.484v-12.964zM348.08 99.647l11.194-6.483 11.192 6.483v12.963l-11.192 6.484-11.194-6.484V99.647zm31.845 0l11.192-6.483 11.193 6.483v12.963l-11.193 6.484-11.192-6.484V99.647zm31.844 0l11.192-6.483 11.194 6.483v12.963l-11.194 6.484-11.192-6.484V99.647zm31.845 0l11.19-6.483 11.193 6.483v12.963l-11.193 6.484-11.19-6.484V99.647zm31.843 0l11.193-6.483 11.192 6.483v12.963l-11.192 6.484-11.193-6.484V99.647zm31.845 0l11.192-6.483 11.194 6.483v12.963l-11.194 6.484-11.192-6.484V99.647zm31.844 0l11.193-6.483 11.192 6.483v12.963l-11.192 6.484-11.193-6.484V99.647zM364.002 71.983l11.193-6.48 11.193 6.48v12.965l-11.193 6.483-11.193-6.483V71.983zm31.843 0l11.194-6.48 11.193 6.48v12.965l-11.193 6.483-11.194-6.483V71.983zm31.845 0l11.193-6.48 11.194 6.48v12.965l-11.194 6.483-11.193-6.483V71.983zm31.844 0l11.194-6.48 11.193 6.48v12.965l-11.193 6.483-11.194-6.483V71.983zm31.845 0l11.193-6.48 11.193 6.48v12.965l-11.193 6.483-11.193-6.483V71.983zm31.845 0l11.194-6.48 11.192 6.48v12.965l-11.192 6.483-11.194-6.483V71.983zM348.08 44.323l11.194-6.484 11.192 6.484v12.965l-11.192 6.48-11.194-6.48V44.323zm31.845 0l11.192-6.484 11.193 6.484v12.965l-11.193 6.48-11.192-6.48V44.323zm31.844 0l11.192-6.484 11.194 6.484v12.965l-11.194 6.48-11.192-6.48V44.323zm31.845 0l11.19-6.484 11.193 6.484v12.965l-11.193 6.48-11.19-6.48V44.323zm31.843 0l11.193-6.484 11.192 6.484v12.965l-11.192 6.48-11.193-6.48V44.323zm31.845 0l11.192-6.484 11.194 6.484v12.965l-11.194 6.48-11.192-6.48V44.323zm31.844 0l11.193-6.484 11.192 6.484v12.965l-11.192 6.48-11.193-6.48V44.323zM364.002 16.659l11.193-6.482 11.193 6.482v12.965l-11.193 6.484-11.193-6.484V16.659zm31.843 0l11.194-6.482 11.193 6.482v12.965l-11.193 6.484-11.194-6.484V16.659zm31.845 0l11.193-6.482 11.194 6.482v12.965l-11.194 6.484-11.193-6.484V16.659zm31.844 0l11.194-6.482 11.193 6.482v12.965l-11.193 6.484-11.194-6.484V16.659zm31.845 0l11.193-6.482 11.193 6.482v12.965l-11.193 6.484-11.193-6.484V16.659zm31.845 0l11.194-6.482 11.192 6.482v12.965l-11.192 6.484-11.194-6.484V16.659zM348.08-11.002l11.194-6.485 11.192 6.485V1.96l-11.192 6.482L348.08 1.96v-12.963zm31.845 0l11.192-6.485 11.193 6.485V1.96l-11.193 6.482-11.192-6.482v-12.963zm31.844 0l11.192-6.485 11.194 6.485V1.96l-11.194 6.482-11.192-6.482v-12.963zm31.845 0l11.19-6.485 11.193 6.485V1.96l-11.193 6.482-11.19-6.482v-12.963zm31.843 0l11.193-6.485 11.192 6.485V1.96L486.65 8.443l-11.193-6.482v-12.963zm31.845 0l11.192-6.485 11.194 6.485V1.96l-11.194 6.482-11.192-6.482v-12.963zm31.844 0l11.193-6.485 11.192 6.485V1.96l-11.192 6.482-11.193-6.482v-12.963zM364.002-38.665l11.193-6.483 11.193 6.483V-25.7l-11.193 6.483-11.193-6.483v-12.964zm31.843 0l11.194-6.483 11.193 6.483V-25.7l-11.193 6.483-11.194-6.483v-12.964zm31.845 0l11.193-6.483 11.194 6.483V-25.7l-11.194 6.483L427.69-25.7v-12.964zm31.844 0l11.194-6.483 11.193 6.483V-25.7l-11.193 6.483-11.194-6.483v-12.964zm31.845 0l11.193-6.483 11.193 6.483V-25.7l-11.193 6.483-11.193-6.483v-12.964zm31.845 0l11.194-6.483 11.192 6.483V-25.7l-11.192 6.483-11.194-6.483v-12.964zM348.08-66.329l11.194-6.483 11.192 6.483v12.966l-11.192 6.483-11.194-6.483v-12.966zm31.845 0l11.192-6.483 11.193 6.483v12.966l-11.193 6.483-11.192-6.483v-12.966zm31.844 0l11.192-6.483 11.194 6.483v12.966l-11.194 6.483-11.192-6.483v-12.966zm31.845 0l11.19-6.483 11.193 6.483v12.966l-11.193 6.483-11.19-6.483v-12.966zm31.843 0l11.193-6.483 11.192 6.483v12.966L486.65-46.88l-11.193-6.483v-12.966zm31.845 0l11.192-6.483 11.194 6.483v12.966l-11.194 6.483-11.192-6.483v-12.966zm31.844 0l11.193-6.483 11.192 6.483v12.966l-11.192 6.483-11.193-6.483v-12.966zM332.158-93.99l11.193-6.484 11.194 6.484v12.964l-11.194 6.483-11.193-6.483V-93.99zm31.844 0l11.193-6.484 11.193 6.484v12.964l-11.193 6.483-11.193-6.483V-93.99zm31.843 0l11.194-6.484 11.193 6.484v12.964l-11.193 6.483-11.194-6.483V-93.99zm31.845 0l11.193-6.484 11.194 6.484v12.964l-11.194 6.483-11.193-6.483V-93.99zm31.844 0l11.194-6.484 11.193 6.484v12.964l-11.193 6.483-11.194-6.483V-93.99zm31.845 0l11.193-6.484 11.193 6.484v12.964l-11.193 6.483-11.193-6.483V-93.99zm31.845 0l11.194-6.484 11.192 6.484v12.964l-11.192 6.483-11.194-6.483V-93.99zm-206.99-27.662l11.194-6.481 11.193 6.481v12.963l-11.193 6.485-11.194-6.485v-12.963zm31.846 0l11.194-6.481 11.192 6.481v12.963l-11.192 6.485-11.194-6.485v-12.963zm31.845 0l11.192-6.481 11.193 6.481v12.963l-11.193 6.485-11.192-6.485v-12.963zm31.844 0l11.192-6.481 11.194 6.481v12.963l-11.194 6.485-11.192-6.485v-12.963zm31.845 0l11.19-6.481 11.193 6.481v12.963l-11.193 6.485-11.19-6.485v-12.963zm31.843 0l11.193-6.481 11.192 6.481v12.963l-11.192 6.485-11.193-6.485v-12.963zm31.845 0l11.192-6.481 11.194 6.481v12.963l-11.194 6.485-11.192-6.485v-12.963zm-238.834-27.661l11.194-6.485 11.192 6.485v12.965l-11.192 6.479-11.194-6.479v-12.965zm31.846 0l11.19-6.485 11.194 6.485v12.965l-11.194 6.479-11.19-6.479v-12.965zm31.844 0l11.193-6.485 11.194 6.485v12.965l-11.194 6.479-11.193-6.479v-12.965zm31.844 0l11.193-6.485 11.193 6.485v12.965l-11.193 6.479-11.193-6.479v-12.965zm31.843 0l11.194-6.485 11.193 6.485v12.965l-11.193 6.479-11.194-6.479v-12.965zm31.845 0l11.193-6.485 11.194 6.485v12.965l-11.194 6.479-11.193-6.479v-12.965zm31.844 0l11.194-6.485 11.193 6.485v12.965l-11.193 6.479-11.194-6.479v-12.965zm-206.988-27.664l11.194-6.481 11.193 6.481v12.965l-11.193 6.484-11.194-6.484v-12.965zm31.846 0l11.192-6.481 11.191 6.481v12.965l-11.191 6.484-11.192-6.484v-12.965zm31.842 0l11.194-6.481 11.193 6.481v12.965l-11.193 6.484-11.194-6.484v-12.965zm31.846 0l11.194-6.481 11.192 6.481v12.965l-11.192 6.484-11.194-6.484v-12.965zm31.845 0l11.192-6.481 11.193 6.481v12.965l-11.193 6.484-11.192-6.484v-12.965zm31.844 0l11.192-6.481 11.194 6.481v12.965l-11.194 6.484-11.192-6.484v-12.965zm31.845 0l11.19-6.481 11.193 6.481v12.965l-11.193 6.484-11.19-6.484v-12.965zM204.781-204.64l11.192-6.483 11.193 6.483v12.966l-11.193 6.482-11.192-6.482v-12.966zm31.842 0l11.194-6.483 11.194 6.483v12.966l-11.194 6.482-11.194-6.482v-12.966zm31.845 0l11.194-6.483 11.192 6.483v12.966l-11.192 6.482-11.194-6.482v-12.966zm31.846 0l11.19-6.483 11.194 6.483v12.966l-11.194 6.482-11.19-6.482v-12.966zm31.844 0l11.193-6.483 11.194 6.483v12.966l-11.194 6.482-11.193-6.482v-12.966zm31.844 0l11.193-6.483 11.193 6.483v12.966l-11.193 6.482-11.193-6.482v-12.966zm31.843 0l11.194-6.483 11.193 6.483v12.966l-11.193 6.482-11.194-6.482v-12.966zm-206.987-27.661l11.194-6.484 11.189 6.484v12.963l-11.189 6.482-11.194-6.482v-12.963zm31.843 0l11.194-6.484 11.193 6.484v12.963l-11.193 6.482-11.194-6.482v-12.963zm31.845 0l11.194-6.484 11.193 6.484v12.963l-11.193 6.482-11.194-6.482v-12.963zm31.846 0l11.192-6.484 11.191 6.484v12.963l-11.191 6.482-11.192-6.482v-12.963zm31.842 0l11.194-6.484 11.193 6.484v12.963l-11.193 6.482-11.194-6.482v-12.963zm31.846 0l11.194-6.484 11.192 6.484v12.963l-11.192 6.482-11.194-6.482v-12.963zm31.845 0l11.192-6.484 11.193 6.484v12.963l-11.193 6.482-11.192-6.482v-12.963zm-206.989-27.664l11.191-6.483 11.193 6.483V-247l-11.193 6.484L172.936-247v-12.965zm31.845 0l11.192-6.483 11.193 6.483V-247l-11.193 6.484L204.781-247v-12.965zm31.842 0l11.194-6.483 11.194 6.483V-247l-11.194 6.484L236.623-247v-12.965zm31.845 0l11.194-6.483 11.192 6.483V-247l-11.192 6.484L268.468-247v-12.965zm31.846 0l11.19-6.483 11.194 6.483V-247l-11.194 6.484-11.19-6.484v-12.965zm31.844 0l11.193-6.483 11.194 6.483V-247l-11.194 6.484L332.158-247v-12.965zm31.844 0l11.193-6.483 11.193 6.483V-247l-11.193 6.484L364.002-247v-12.965zm-206.987-27.661l11.19-6.484 11.193 6.484v12.963l-11.193 6.483-11.19-6.483v-12.963zm31.843 0l11.194-6.484 11.189 6.484v12.963l-11.189 6.483-11.194-6.483v-12.963zm31.843 0l11.194-6.484 11.193 6.484v12.963l-11.193 6.483-11.194-6.483v-12.963zm31.845 0l11.194-6.484 11.193 6.484v12.963l-11.193 6.483-11.194-6.483v-12.963zm31.846 0l11.192-6.484 11.191 6.484v12.963l-11.191 6.483-11.192-6.483v-12.963zm31.842 0l11.194-6.484 11.193 6.484v12.963l-11.193 6.483-11.194-6.483v-12.963zm31.846 0l11.194-6.484 11.192 6.484v12.963l-11.192 6.483-11.194-6.483v-12.963zM141.089-315.29l11.194-6.481 11.193 6.481v12.964l-11.193 6.484-11.194-6.484v-12.964zm31.847 0l11.191-6.481 11.193 6.481v12.964l-11.193 6.484-11.191-6.484v-12.964zm31.845 0l11.192-6.481 11.193 6.481v12.964l-11.193 6.484-11.192-6.484v-12.964zm31.842 0l11.194-6.481 11.194 6.481v12.964l-11.194 6.484-11.194-6.484v-12.964zm31.845 0l11.194-6.481 11.192 6.481v12.964l-11.192 6.484-11.194-6.484v-12.964zm31.846 0l11.19-6.481 11.194 6.481v12.964l-11.194 6.484-11.19-6.484v-12.964zm-143.299-27.664l11.19-6.481 11.193 6.481v12.968l-11.193 6.481-11.19-6.481v-12.968zm31.843 0l11.194-6.481 11.189 6.481v12.968l-11.189 6.481-11.194-6.481v-12.968zm31.843 0l11.194-6.481 11.193 6.481v12.968l-11.193 6.481-11.194-6.481v-12.968zm31.845 0l11.194-6.481 11.193 6.481v12.968l-11.193 6.481-11.194-6.481v-12.968zm-111.457-27.661l11.194-6.483 11.193 6.484v12.963l-11.193 6.483-11.194-6.483v-12.964zm31.847.001l11.191-6.484 11.193 6.484v12.963l-11.193 6.483-11.191-6.483v-12.963zm31.845 0l11.192-6.484 11.193 6.484v12.963l-11.193 6.483-11.192-6.483v-12.963zm31.842 0l11.194-6.484 11.194 6.484v12.963l-11.194 6.483-11.194-6.483v-12.963zm-79.608-27.662l11.19-6.484 11.193 6.484v12.963l-11.193 6.483-11.19-6.483v-12.963zm31.843 0l11.194-6.484 11.189 6.484v12.963l-11.189 6.483-11.194-6.483v-12.963zm31.843 0l11.194-6.484 11.193 6.484v12.963l-11.193 6.483-11.194-6.483v-12.963z" fill="url(#paint0_linear)"/></g><defs><linearGradient id="paint0_linear" x1="-8.51" y1="332.084" x2="774.631" y2="206.478" gradientUnits="userSpaceOnUse"><stop stop-color="#E63E24"/><stop offset="1" stop-color="#FFED00"/></linearGradient><clipPath id="clip0"><path fill="#fff" d="M0 0h646v1080H0z"/></clipPath></defs></svg>