<svg width="690" height="920" fill="none" xmlns="http://www.w3.org/2000/svg"><g clip-path="url(#clip0)"><g clip-path="url(#clip1)"><path d="M185.089-545.939l11.194-6.484 11.193 6.484v12.964l-11.193 6.484-11.194-6.484v-12.964zm612.609 336.327l3.63-2.102 3.631 2.102v4.206l-3.631 2.103-3.63-2.103v-4.206zm-15.923-27.662l3.63-2.102 3.632 2.102v4.208l-3.632 2.102-3.63-2.102v-4.208zm15.923-27.662l3.63-2.103 3.631 2.103v4.207l-3.631 2.103-3.63-2.103v-4.207zm-15.923-27.663l3.63-2.102 3.632 2.102v4.208l-3.632 2.102-3.63-2.102v-4.208zM682.46 92.484l7.412-4.29 7.413 4.29v8.587l-7.413 4.295-7.412-4.295v-8.587zm0-55.324l7.412-4.293 7.413 4.293v8.588l-7.413 4.29-7.412-4.29V37.16zM666.539 9.5l7.411-4.295 7.412 4.295v8.585l-7.412 4.294-7.411-4.294V9.5zm31.844 0l7.412-4.293 7.412 4.293v8.585l-7.412 4.292-7.412-4.292V9.5zM682.46-18.164l7.412-4.295 7.413 4.295v8.585l-7.413 4.296-7.412-4.296v-8.585zm-15.921-27.664l7.411-4.29 7.412 4.29v8.587l-7.412 4.295-7.411-4.295v-8.587zm31.844 0l7.412-4.29 7.412 4.29v8.587l-7.412 4.294-7.412-4.294v-8.587zm-47.766-27.661l7.411-4.293 7.412 4.293v8.587l-7.412 4.292-7.411-4.292v-8.587zm31.843 0l7.412-4.293 7.413 4.293v8.587l-7.413 4.292-7.412-4.292v-8.587zm31.845 0l7.411-4.293 7.412 4.293v8.587l-7.412 4.292-7.411-4.292v-8.587zm-47.766-27.663l7.411-4.293 7.412 4.293v8.586l-7.412 4.294-7.411-4.294v-8.586zm31.844 0l7.412-4.293 7.412 4.293v8.586l-7.412 4.294-7.412-4.294v-8.586zm-47.766-27.662l7.411-4.293 7.412 4.293v8.585l-7.412 4.293-7.411-4.293v-8.585zm31.843 0l7.412-4.293 7.413 4.293v8.585l-7.413 4.293-7.412-4.293v-8.585zm31.845 0l7.411-4.293 7.412 4.293v8.585l-7.412 4.293-7.411-4.293v-8.585zm-79.611-27.662l7.413-4.292 7.41 4.292v8.586l-7.41 4.292-7.413-4.292v-8.586zm31.845 0l7.411-4.292 7.412 4.292v8.586l-7.412 4.293-7.411-4.293v-8.586zm31.844 0l7.412-4.292 7.412 4.292v8.586l-7.412 4.292-7.412-4.292v-8.586zm31.845 0l7.412-4.292 7.41 4.292v8.586l-7.41 4.293-7.412-4.293v-8.586zm-79.611-27.663l7.411-4.294 7.412 4.294v8.588l-7.412 4.291-7.411-4.291v-8.588zm31.843 0l7.412-4.294 7.413 4.294v8.588l-7.413 4.291-7.412-4.291v-8.588zm31.845 0l7.411-4.294 7.412 4.294v8.588l-7.412 4.291-7.411-4.291v-8.588zm-47.766-27.662l7.411-4.293 7.412 4.293v8.586l-7.412 4.292-7.411-4.292v-8.586zm31.844 0l7.412-4.293 7.412 4.293v8.586l-7.412 4.292-7.412-4.292v-8.586zm-15.923-27.663l7.412-4.293 7.413 4.293v8.586l-7.413 4.295-7.412-4.295v-8.586zm66.211 56.785l4.89-2.833 4.892 2.833v5.668l-4.892 2.833-4.89-2.833v-5.668zm-15.923-27.663l4.892-2.832 4.89 2.832v5.667l-4.89 2.833-4.892-2.833v-5.667zm31.846 0l4.889-2.832 4.891 2.832v5.667l-4.891 2.833-4.889-2.833v-5.667zm-15.923-27.662l4.89-2.832 4.892 2.832v5.667l-4.892 2.833-4.89-2.833v-5.667zm15.923-27.662l4.889-2.834 4.891 2.834v5.667l-4.891 2.832-4.889-2.832v-5.667zM148.212 871.155l.306-.178.304.178v.353l-.304.177-.306-.177v-.353zm31.843 0l.305-.178.306.178v.353l-.306.177-.305-.177v-.353zm31.845 0l.305-.178.305.178v.353l-.305.177-.305-.177v-.353zm31.844 0l.308-.178.305.178v.353l-.305.177-.308-.177v-.353zm31.846 0l.305-.178.306.178v.353l-.306.177-.305-.177v-.353zm31.844 0l.306-.178.304.178v.353l-.304.177-.306-.177v-.353zm31.845 0l.305-.178.305.178v.353l-.305.177-.305-.177v-.353zm31.842 0l.307-.178.306.178v.353l-.306.177-.307-.177v-.353zm31.848 0l.305-.178.305.178v.353l-.305.177-.305-.177v-.353zm-206.992-27.662l.306-.177.305.177v.354l-.305.177-.306-.177v-.354zm31.846 0l.304-.177.308.177v.354l-.308.177-.304-.177v-.354zm31.845 0l.305-.177.306.177v.354l-.306.177-.305-.177v-.354zm31.844 0l.305-.177.305.177v.354l-.305.177-.305-.177v-.354zm31.843 0l.307-.177.305.177v.354l-.305.177-.307-.177v-.354zm31.845 0l.304-.177.307.177v.354l-.307.177-.304-.177v-.354zm31.845 0l.306-.177.305.177v.354l-.305.177-.306-.177v-.354zm31.845 0l.305-.177.306.177v.354l-.306.177-.305-.177v-.354zm31.844 0l.305-.177.305.177v.354l-.305.177-.305-.177v-.354zM275.59 815.819l.305-.177.306.177v.354l-.306.177-.305-.177v-.354zm31.844 0l.306-.177.304.177v.354l-.304.177-.306-.177v-.354zm31.845 0l.305-.177.305.177v.354l-.305.177-.305-.177v-.354zm31.842 0l.307-.177.306.177v.354l-.306.177-.307-.177v-.354zm31.848 0l.305-.177.305.177v.354l-.305.177-.305-.177v-.354zM355.2 788.157l.304-.176.307.176v.355l-.307.177-.304-.177v-.355zm78.663 27.119l1.254-.721 1.254.721v1.453l-1.254.721-1.254-.721v-1.453zm31.846 0l1.252-.721 1.254.721v1.453l-1.254.721-1.252-.721v-1.453zm31.844 0l1.251-.721 1.255.721v1.453l-1.255.721-1.251-.721v-1.453zm31.842 0l1.255-.721 1.254.721v1.453l-1.254.721-1.255-.721v-1.453zm-143.299-27.662l1.255-.733 1.253.733v1.453l-1.253.721-1.255-.721v-1.453zm31.846 0l1.253-.733 1.254.733v1.453l-1.254.721-1.253-.721v-1.453zm31.844 0l1.253-.733 1.253.733v1.453l-1.253.721-1.253-.721v-1.453zm31.844 0l1.253-.733 1.254.733v1.453l-1.254.721-1.253-.721v-1.453zm31.844 0l1.254-.733 1.253.733v1.453l-1.253.721-1.254-.721v-1.453zm31.845 0l1.253-.733 1.254.733v1.453l-1.254.721-1.253-.721v-1.453zM402.02 759.952l1.254-.732 1.252.732v1.454l-1.252.721-1.254-.721v-1.454zm31.843 0l1.254-.732 1.254.732v1.454l-1.254.721-1.254-.721v-1.454zm31.846 0l1.252-.732 1.254.732v1.454l-1.254.721-1.252-.721v-1.454zm31.844 0l1.251-.732 1.255.732v1.454l-1.255.721-1.251-.721v-1.454zm-47.767-27.66l1.253-.734 1.253.734v1.453l-1.253.72-1.253-.72v-1.453zm78.662 27.104l2.202-1.277 2.202 1.277v2.554l-2.202 1.277-2.202-1.277v-2.554zm31.846 0l2.2-1.277 2.203 1.277v2.554l-2.203 1.277-2.2-1.277v-2.554zm31.843 0l2.202-1.277 2.203 1.277v2.554l-2.203 1.277-2.202-1.277v-2.554zm-111.456-27.661l2.202-1.277 2.204 1.277v2.554l-2.204 1.276-2.202-1.276v-2.554zm31.844 0l2.203-1.277 2.202 1.277v2.554l-2.202 1.276-2.203-1.276v-2.554zm31.845 0l2.202-1.277 2.202 1.277v2.554l-2.202 1.276-2.202-1.276v-2.554zm31.845 0l2.203-1.277 2.201 1.277v2.554l-2.201 1.276-2.203-1.276v-2.554zm31.844 0l2.202-1.277 2.202 1.277v2.554l-2.202 1.276-2.202-1.276v-2.554zm-143.3-27.661l2.202-1.277 2.203 1.277v2.554l-2.203 1.276-2.202-1.276v-2.554zm31.846 0l2.199-1.277 2.204 1.277v2.554l-2.204 1.276-2.199-1.276v-2.554zm31.843 0l2.202-1.277 2.202 1.277v2.554l-2.202 1.276-2.202-1.276v-2.554zm31.846 0l2.2-1.277 2.203 1.277v2.554l-2.203 1.276-2.2-1.276v-2.554zm31.843 0l2.202-1.277 2.203 1.277v2.554l-2.203 1.276-2.202-1.276v-2.554zm31.844 0l2.202-1.277 2.202 1.277v2.554l-2.202 1.276-2.202-1.276v-2.554zm-143.3-27.662l2.202-1.277 2.204 1.277v2.554l-2.204 1.277-2.202-1.277v-2.554zm31.844 0l2.203-1.277 2.202 1.277v2.554l-2.202 1.277-2.203-1.277v-2.554zm31.845 0l2.202-1.277 2.202 1.277v2.554l-2.202 1.277-2.202-1.277v-2.554zm31.845 0l2.203-1.277 2.201 1.277v2.554l-2.201 1.277-2.203-1.277v-2.554zm31.844 0l2.202-1.277 2.202 1.277v2.554l-2.202 1.277-2.202-1.277v-2.554zm31.845 0l2.203-1.277 2.2 1.277v2.554l-2.2 1.277-2.203-1.277v-2.554zm-143.299-27.661l2.199-1.274 2.204 1.274v2.553l-2.204 1.275-2.199-1.275v-2.553zm31.843 0l2.202-1.274 2.202 1.274v2.553l-2.202 1.275-2.202-1.275v-2.553zm31.846 0l2.2-1.274 2.203 1.274v2.553l-2.203 1.275-2.2-1.275v-2.553zm31.843 0l2.202-1.274 2.203 1.274v2.553l-2.203 1.275-2.202-1.275v-2.553zm31.844 0l2.202-1.274 2.202 1.274v2.553l-2.202 1.275-2.202-1.275v-2.553zm31.845 0l2.202-1.274 2.203 1.274v2.553l-2.203 1.275-2.202-1.275v-2.553zm-143.301-27.662l2.203-1.275 2.202 1.275v2.551l-2.202 1.275-2.203-1.275v-2.551zm31.845 0l2.202-1.275 2.202 1.275v2.551l-2.202 1.275-2.202-1.275v-2.551zm31.845 0l2.203-1.275 2.201 1.275v2.551l-2.201 1.275-2.203-1.275v-2.551zm31.844 0l2.202-1.275 2.202 1.275v2.551l-2.202 1.275-2.202-1.275v-2.551zm31.845 0l2.203-1.275 2.2 1.275v2.551l-2.2 1.275-2.203-1.275v-2.551zm-111.456-27.662l2.202-1.276 2.202 1.276v2.551l-2.202 1.276-2.202-1.276v-2.551zm31.846 0l2.2-1.276 2.203 1.276v2.551l-2.203 1.276-2.2-1.276v-2.551zm31.843 0l2.202-1.276 2.203 1.276v2.551l-2.203 1.276-2.202-1.276v-2.551zm-79.612-27.662l2.203-1.276 2.202 1.276v2.551l-2.202 1.275-2.203-1.275v-2.551zm31.845 0l2.202-1.276 2.202 1.276v2.551l-2.202 1.275-2.202-1.275v-2.551zm76.299 25.742l5.514-3.195 5.515 3.195v6.391l-5.515 3.193-5.514-3.193v-6.391zm31.845 0l5.514-3.195 5.516 3.195v6.391l-5.516 3.194-5.514-3.194v-6.391zm-79.612-27.662l5.516-3.194 5.515 3.194v6.39l-5.515 3.193-5.516-3.193v-6.39zm31.844 0l5.515-3.194 5.515 3.194v6.39l-5.515 3.193-5.515-3.193v-6.39zm31.845 0l5.516-3.194 5.513 3.194v6.39l-5.513 3.193-5.516-3.193v-6.39zm31.844 0l5.515-3.194 5.514 3.194v6.39l-5.514 3.193-5.515-3.193v-6.39zm-143.3-27.662l5.515-3.195 5.515 3.195v6.391l-5.515 3.192-5.515-3.192v-6.391zm31.845 0l5.514-3.195 5.515 3.195v6.391l-5.515 3.192-5.514-3.192v-6.391zm31.845 0l5.514-3.195 5.515 3.195v6.391l-5.515 3.192-5.514-3.192v-6.391zm31.844 0l5.514-3.195 5.515 3.195v6.391l-5.515 3.192-5.514-3.192v-6.391zm31.845 0l5.514-3.195 5.516 3.195v6.391l-5.516 3.192-5.514-3.192v-6.391zm31.843 0l5.515-3.195 5.515 3.195v6.391l-5.515 3.192-5.515-3.192v-6.391zm-143.3-27.662l5.515-3.194 5.516 3.194v6.388l-5.516 3.194-5.515-3.194v-6.388zm31.845 0l5.516-3.194 5.515 3.194v6.388l-5.515 3.194-5.516-3.194v-6.388zm31.844 0l5.515-3.194 5.515 3.194v6.388l-5.515 3.194-5.515-3.194v-6.388zm31.845 0l5.516-3.194 5.513 3.194v6.388l-5.513 3.194-5.516-3.194v-6.388zm31.844 0l5.515-3.194 5.514 3.194v6.388l-5.514 3.194-5.515-3.194v-6.388zM556.98 480.856l5.514-3.192 5.515 3.192v6.393l-5.515 3.194-5.514-3.194v-6.393zm31.845 0l5.514-3.192 5.515 3.192v6.393l-5.515 3.194-5.514-3.194v-6.393zm31.844 0l5.514-3.192 5.515 3.192v6.393l-5.515 3.194-5.514-3.194v-6.393zm31.845 0l5.514-3.192 5.516 3.192v6.393l-5.516 3.194-5.514-3.194v-6.393zm-111.457-27.662l5.515-3.195 5.516 3.195v6.391l-5.516 3.194-5.515-3.194v-6.391zm141.092 26.384l7.723-4.473 7.723 4.473v8.95l-7.723 4.473-7.723-4.473v-8.95zm-111.455-27.664l7.724-4.472 7.723 4.472v8.95l-7.723 4.473-7.724-4.473v-8.95zm31.843 0l7.724-4.472 7.723 4.472v8.95l-7.723 4.473-7.724-4.473v-8.95zm31.845 0l7.725-4.472 7.723 4.472v8.95l-7.723 4.473-7.725-4.473v-8.95zm31.845 0l7.723-4.472 7.723 4.472v8.95l-7.723 4.473-7.723-4.473v-8.95zm-111.456-27.661l7.723-4.474 7.725 4.474v8.947l-7.725 4.475-7.723-4.475v-8.947zm31.843 0l7.725-4.474 7.724 4.474v8.947l-7.724 4.475-7.725-4.475v-8.947zm31.846 0l7.723-4.474 7.725 4.474v8.947l-7.725 4.475-7.723-4.475v-8.947zm31.844 0l7.724-4.474 7.723 4.474v8.947l-7.723 4.475-7.724-4.475v-8.947zm31.845 0l7.723-4.474 7.723 4.474v8.947l-7.723 4.475-7.723-4.475v-8.947zm-143.3-27.661l7.723-4.475 7.724 4.475v8.947l-7.724 4.473-7.723-4.473v-8.947zm31.845 0l7.724-4.475 7.723 4.475v8.947l-7.723 4.473-7.724-4.473v-8.947zm31.843 0l7.724-4.475 7.723 4.475v8.947l-7.723 4.473-7.724-4.473v-8.947zm31.845 0l7.725-4.475 7.723 4.475v8.947l-7.723 4.473-7.725-4.473v-8.947zm31.845 0l7.723-4.475 7.723 4.475v8.947l-7.723 4.473-7.723-4.473v-8.947zM554.771 368.93l7.723-4.475 7.725 4.475v8.947l-7.725 4.473-7.723-4.473v-8.947zm31.843 0l7.725-4.475 7.724 4.475v8.947l-7.724 4.473-7.725-4.473v-8.947zm31.846 0l7.723-4.475 7.725 4.475v8.947l-7.725 4.473-7.723-4.473v-8.947zm31.844 0l7.724-4.475 7.723 4.475v8.947l-7.723 4.473-7.724-4.473v-8.947zm31.845 0l7.723-4.475 7.723 4.475v8.947l-7.723 4.473-7.723-4.473v-8.947zm-143.3-27.664l7.723-4.473 7.724 4.473v8.95l-7.724 4.473-7.723-4.473v-8.95zm31.845 0l7.724-4.473 7.723 4.473v8.95l-7.723 4.473-7.724-4.473v-8.95zm31.843 0l7.724-4.473 7.723 4.473v8.95l-7.723 4.473-7.724-4.473v-8.95zm31.845 0l7.725-4.473 7.723 4.473v8.95l-7.723 4.473-7.725-4.473v-8.95zm-79.611-27.661l7.723-4.474 7.725 4.474v8.947l-7.725 4.473-7.723-4.473v-8.947zm31.843 0l7.725-4.474 7.724 4.474v8.947l-7.724 4.473-7.725-4.473v-8.947zm-47.765-27.663l7.723-4.474 7.724 4.474v8.947l-7.724 4.474-7.723-4.474v-8.947zm31.845 0l7.724-4.474 7.723 4.474v8.947l-7.723 4.474-7.724-4.474v-8.947zm93.324 54.045l9.932-5.752 9.933 5.752v11.507l-9.933 5.753-9.932-5.753v-11.507zm-47.767-27.66l9.932-5.756 9.934 5.756v11.503l-9.934 5.753-9.932-5.753v-11.503zm31.845 0l9.932-5.754 9.932 5.754v11.503l-9.932 5.753-9.932-5.753v-11.503zm31.844 0l9.932-5.754 9.933 5.754v11.503l-9.933 5.753-9.932-5.753v-11.503zm-79.612-27.665l9.933-5.752 9.933 5.752v11.506l-9.933 5.752-9.933-5.752v-11.506zm31.846 0l9.933-5.752 9.932 5.752v11.506l-9.932 5.752-9.933-5.752v-11.506zm31.844 0l9.932-5.752 9.933 5.752v11.506l-9.933 5.754-9.932-5.754v-11.506zM552.563 257l9.931-5.751 9.933 5.751v11.507l-9.933 5.75-9.931-5.75V257zm31.843 0l9.933-5.751L604.27 257v11.507l-9.931 5.75-9.933-5.75V257zm31.845 0l9.932-5.754 9.934 5.754v11.507l-9.934 5.75-9.932-5.75V257zm31.845 0l9.932-5.751L667.96 257v11.507l-9.932 5.75-9.932-5.75V257zm31.844 0l9.932-5.751 9.933 5.751v11.507l-9.933 5.75-9.932-5.75V257zm-111.455-27.662l9.933-5.752 9.931 5.752v11.504l-9.931 5.755-9.933-5.755v-11.504zm31.843 0l9.933-5.752 9.933 5.752v11.504l-9.933 5.754-9.933-5.754v-11.504zm31.846 0l9.933-5.752 9.932 5.752v11.504l-9.932 5.754-9.933-5.754v-11.504zm31.844 0l9.932-5.752 9.933 5.752v11.504l-9.933 5.755-9.932-5.755v-11.504zm-111.455-27.663l9.931-5.753 9.933 5.753v11.507l-9.933 5.753-9.931-5.753v-11.507zm31.843 0l9.933-5.753 9.931 5.753v11.507l-9.931 5.753-9.933-5.753v-11.507zm31.845 0l9.932-5.753 9.934 5.753v11.507l-9.934 5.753-9.932-5.753v-11.507zm31.845 0l9.932-5.753 9.932 5.753v11.507l-9.932 5.753-9.932-5.753v-11.507zm31.844 0l9.932-5.753 9.933 5.753v11.507l-9.933 5.753-9.932-5.753v-11.507zm-111.455-27.662l9.933-5.754 9.931 5.754v11.505l-9.931 5.753-9.933-5.753v-11.505zm31.843 0l9.933-5.752 9.933 5.752v11.505l-9.933 5.753-9.933-5.753v-11.505zm31.846 0l9.933-5.752 9.932 5.752v11.505l-9.932 5.753-9.933-5.753v-11.505zm31.844 0l9.932-5.754 9.933 5.754v11.505l-9.933 5.753-9.932-5.753v-11.505zm-79.612-27.662l9.933-5.753 9.931 5.753v11.503l-9.931 5.754-9.933-5.754v-11.503zm31.845 0l9.932-5.753 9.934 5.753v11.503l-9.934 5.756-9.932-5.756v-11.503zm31.845 0l9.932-5.753 9.932 5.753v11.503l-9.932 5.754-9.932-5.754v-11.503zm31.844 0l9.932-5.753 9.933 5.753v11.503l-9.933 5.754-9.932-5.754v-11.503zm-111.455-27.662l9.933-5.755 9.931 5.755v11.505l-9.931 5.753-9.933-5.753v-11.505zm31.843 0l9.933-5.753 9.933 5.753v11.505l-9.933 5.753-9.933-5.753v-11.505zm31.846 0l9.933-5.753 9.932 5.753v11.505l-9.932 5.753-9.933-5.753v-11.505zm31.844 0l9.932-5.755 9.933 5.755v11.505l-9.933 5.753-9.932-5.753v-11.505zm-79.612-27.663l9.933-5.753 9.931 5.753v11.504l-9.931 5.753-9.933-5.753V91.026zm31.845 0l9.932-5.753 9.934 5.753v11.504l-9.934 5.754-9.932-5.754V91.026zm31.845 0l9.932-5.753 9.932 5.753v11.504l-9.932 5.753-9.932-5.753V91.026zM600.328 63.36l9.933-5.75 9.933 5.75v11.51l-9.933 5.75-9.933-5.75V63.36zm31.846 0l9.933-5.75 9.932 5.75v11.51l-9.932 5.75-9.933-5.75V63.36zm31.844 0l9.932-5.75 9.933 5.75v11.51l-9.933 5.75-9.932-5.75V63.36zM584.406 35.7l9.933-5.753 9.931 5.753v11.505l-9.931 5.752-9.933-5.752V35.7zm31.845 0l9.932-5.753 9.934 5.753v11.505l-9.934 5.752-9.932-5.752V35.7zm31.845 0l9.932-5.753 9.932 5.753v11.505l-9.932 5.752-9.932-5.752V35.7zM600.328 8.039l9.933-5.753 9.933 5.753v11.504l-9.933 5.753-9.933-5.753V8.039zm31.846 0l9.933-5.753 9.932 5.753v11.504l-9.932 5.753-9.933-5.753V8.039zm-15.923-27.662l9.932-5.754 9.934 5.754V-8.12l-9.934 5.755-9.932-5.755v-11.503zm31.845 0l9.932-5.753 9.932 5.753V-8.12l-9.932 5.754-9.932-5.754v-11.503zm-47.768-27.663l9.933-5.752 9.933 5.752v11.504l-9.933 5.753-9.933-5.753v-11.504zm31.846 0l9.933-5.752 9.932 5.752v11.504l-9.932 5.753-9.933-5.753v-11.504zm-15.923-27.661l9.932-5.755 9.934 5.755v11.504l-9.934 5.752-9.932-5.752v-11.504zm-15.923-27.665l9.933-5.754 9.933 5.754v11.506l-9.933 5.752-9.933-5.752v-11.506zm31.846 0l9.933-5.754 9.932 5.754v11.506l-9.932 5.752-9.933-5.752v-11.506zm-15.923-27.661l9.932-5.754 9.934 5.754v11.504l-9.934 5.753-9.932-5.753v-11.504zm-15.923-27.663l9.933-5.753 9.933 5.753v11.505l-9.933 5.754-9.933-5.754v-11.505zm198.63 281.003l2.37-1.373 2.37 1.373v2.749l-2.37 1.372-2.37-1.372v-2.749zm0-55.327l2.37-1.37 2.37 1.371v2.748l-2.37 1.373-2.37-1.372v-2.75zm0-55.323l2.37-1.373 2.37 1.373v2.748l-2.37 1.373-2.37-1.373v-2.748zm-15.922-27.662l2.369-1.373 2.371 1.373v2.747l-2.371 1.374-2.369-1.374v-2.747zm15.922-27.662l2.37-1.371 2.37 1.372v2.748l-2.37 1.371-2.37-1.371v-2.749zM783.036-70.57l2.369-1.372 2.371 1.372v2.748l-2.371 1.372-2.369-1.372v-2.748zm15.922-27.662l2.37-1.373 2.37 1.373v2.748l-2.37 1.372-2.37-1.372v-2.748zm-15.922-27.663l2.369-1.373 2.371 1.373v2.748l-2.371 1.372-2.369-1.372v-2.748zm15.922-27.661l2.37-1.373 2.37 1.373v2.746l-2.37 1.374-2.37-1.374v-2.746zm-15.922-27.664l2.369-1.373 2.371 1.373v2.748l-2.371 1.373-2.369-1.373v-2.748zm12.141 468.073l6.151-3.563 6.151 3.563v7.126l-6.151 3.563-6.151-3.563v-7.126zM747.41 259.19l6.151-3.564 6.151 3.564v7.126l-6.151 3.562-6.151-3.562v-7.126zm31.845 0l6.15-3.564 6.152 3.564v7.126l-6.152 3.562-6.15-3.562v-7.126zm-47.767-27.662l6.152-3.562 6.151 3.562v7.125l-6.151 3.564-6.152-3.564v-7.125zm31.846 0l6.149-3.561 6.152 3.561v7.125l-6.152 3.564-6.149-3.564v-7.125zm31.843 0l6.151-3.561 6.151 3.561v7.125l-6.151 3.564-6.151-3.564v-7.125zm-79.612-27.664l6.151-3.561 6.153 3.561v7.129l-6.153 3.562-6.151-3.562v-7.129zm31.845 0l6.151-3.561 6.151 3.561v7.129l-6.151 3.562-6.151-3.562v-7.129zm31.845 0l6.15-3.561 6.152 3.561v7.129l-6.152 3.562-6.15-3.562v-7.129zm-79.611-27.661l6.151-3.563 6.151 3.563v7.126l-6.151 3.562-6.151-3.562v-7.126zm31.844 0l6.152-3.563 6.151 3.563v7.126l-6.151 3.562-6.152-3.562v-7.126zm31.846 0l6.149-3.563 6.152 3.563v7.126l-6.152 3.562-6.149-3.562v-7.126zm-47.769-27.663l6.151-3.562 6.153 3.562v7.127l-6.153 3.562-6.151-3.562v-7.127zm31.845 0l6.151-3.562 6.151 3.562v7.127l-6.151 3.562-6.151-3.562v-7.127zm-47.766-27.662l6.151-3.563 6.151 3.563v7.127l-6.151 3.561-6.151-3.561v-7.127zm31.844 0l6.152-3.563 6.151 3.563v7.127l-6.151 3.561-6.152-3.561v-7.127zm-15.922-27.662l6.15-3.563 6.153 3.563v7.125l-6.153 3.564-6.15-3.564v-7.125zm31.844 0l6.151-3.563 6.151 3.563v7.125l-6.151 3.564-6.151-3.564v-7.125zm-47.766-27.664l6.151-3.562 6.151 3.562v7.127l-6.151 3.562-6.151-3.562v-7.127zm31.844 0l6.152-3.562 6.151 3.562v7.127l-6.151 3.562-6.152-3.562v-7.127zm-15.922-27.66l6.15-3.565 6.153 3.564v7.124l-6.153 3.562-6.15-3.562V37.89zm15.922-27.663l6.152-3.563 6.151 3.563v7.125l-6.151 3.563-6.152-3.563V10.23zm-15.922-27.663l6.15-3.563 6.153 3.563v7.126l-6.153 3.563-6.15-3.563v-7.126zm15.922-27.662l6.152-3.563 6.151 3.563v7.126l-6.151 3.562-6.152-3.562v-7.127zm0-55.326l6.152-3.563 6.151 3.563v7.127l-6.151 3.564-6.152-3.564v-7.127zm66.21 278.084l3.63-2.103 3.631 2.103v4.206l-3.631 2.103-3.63-2.103v-4.206zm-15.923-27.66l3.63-2.104 3.632 2.104v4.205l-3.632 2.103-3.63-2.103v-4.205zm-15.922-27.664l3.63-2.103 3.631 2.103v4.207l-3.631 2.103-3.63-2.103v-4.207zm15.922-27.663l3.63-2.101 3.632 2.101v4.207l-3.632 2.103-3.63-2.103v-4.207zm-15.922-27.664l3.63-2.1 3.631 2.1v4.209l-3.631 2.1-3.63-2.1v-4.21zM749.931 39.35l3.63-2.103 3.631 2.103v4.206l-3.631 2.101-3.63-2.103V39.35zm31.844 0l3.63-2.103 3.632 2.103v4.206l-3.632 2.101-3.63-2.101V39.35zm-15.922-27.663l3.63-2.102 3.631 2.102v4.208l-3.631 2.103-3.63-2.104v-4.207zm-15.922-27.662l3.63-2.103 3.631 2.103v4.208l-3.631 2.103-3.63-2.103v-4.208zm15.922-27.662l3.63-2.1 3.631 2.1v4.207l-3.631 2.104-3.63-2.104v-4.207zM749.931-71.3l3.63-2.101 3.631 2.101v4.208l-3.631 2.101-3.63-2.103V-71.3zm15.922-27.662l3.63-2.103 3.631 2.103v4.208l-3.631 2.102-3.63-2.102v-4.208zm-15.922-27.662l3.63-2.103 3.631 2.103v4.206l-3.631 2.102-3.63-2.102v-4.206zm15.922-27.662l3.63-2.102 3.631 2.102v4.206l-3.631 2.103-3.63-2.103v-4.206zM68.599 898.816l.306-.177.305.177v.353l-.305.177-.306-.177v-.353zm31.847 0l.304-.177.305.177v.353l-.305.177-.304-.177v-.353zm31.844 0l.305-.177.305.177v.353l-.305.177-.305-.177v-.353zm31.844 0l.306-.177.305.177v.353l-.305.177-.306-.177v-.353zm31.843 0l.306-.177.305.177v.353l-.305.177-.306-.177v-.353zm31.846 0l.304-.177.308.177v.353l-.308.177-.304-.177v-.353zm31.845 0l.305-.177.306.177v.353l-.306.177-.305-.177v-.353zm31.844 0l.305-.177.305.177v.353l-.305.177-.305-.177v-.353zm31.843 0l.307-.177.305.177v.353l-.305.177-.307-.177v-.353zm31.845 0l.304-.177.307.177v.353l-.307.177-.304-.177v-.353zm31.845 0l.306-.177.305.177v.353l-.305.177-.306-.177v-.353zm31.845 0l.305-.177.306.177v.353l-.306.177-.305-.177v-.353zm31.844 0l.305-.177.305.177v.353l-.305.177-.305-.177v-.353zm31.845 0l.304-.177.305.177v.353l-.305.177-.304-.177v-.353zm31.844 0l.305-.177.305.177v.353l-.305.177-.305-.177v-.353zm31.844 0l.305-.177.305.177v.353l-.305.177-.305-.177v-.353zm-111.455-27.661l.305-.178.305.178v.353l-.305.177-.305-.177v-.353zm31.844 0l.305-.178.305.178v.353l-.305.177-.305-.177v-.353zm31.845 0l.303-.178.308.178v.353l-.308.177-.303-.177v-.353zm78.662 27.104l1.255-.72 1.252.72v1.454l-1.252.733-1.255-.733v-1.454zm31.845 0l1.253-.72 1.254.72v1.454l-1.254.733-1.253-.733v-1.454zm31.844 0l1.255-.72 1.252.72v1.454l-1.252.733-1.255-.733v-1.454zm31.844 0l1.254-.72 1.254.72v1.454l-1.254.733-1.254-.733v-1.454zm31.845 0l1.254-.72 1.253.72v1.454l-1.253.733-1.254-.733v-1.454zm31.844 0l1.255-.72 1.254.72v1.454l-1.254.733-1.255-.733v-1.454zm-206.99-27.661l1.255-.72 1.254.72v1.453l-1.254.721-1.255-.721v-1.453zm31.847 0l1.252-.72 1.254.72v1.453l-1.254.721-1.252-.721v-1.453zm31.843 0l1.254-.72 1.252.72v1.453l-1.252.721-1.254-.721v-1.453zm31.844 0l1.254-.72 1.254.72v1.453l-1.254.721-1.254-.721v-1.453zm31.844 0l1.255-.72 1.253.72v1.453l-1.253.721-1.255-.721v-1.453zm31.845 0l1.254-.72 1.254.72v1.453l-1.254.721-1.254-.721v-1.453zM481.63 842.937l1.253-.721 1.254.721v1.454l-1.254.72-1.253-.72v-1.454zm31.844 0l1.254-.721 1.253.721v1.454l-1.253.72-1.254-.72v-1.454zm31.845 0l1.253-.721 1.254.721v1.454l-1.254.72-1.253-.72v-1.454zm31.844 0l1.255-.721 1.252.721v1.454l-1.252.72-1.255-.72v-1.454zm31.845 0l1.253-.721 1.254.721v1.454l-1.254.72-1.253-.72v-1.454zm31.844 0l1.255-.721 1.252.721v1.454l-1.252.72-1.255-.72v-1.454zm-79.61-27.661l1.252-.721 1.254.721v1.453l-1.254.721-1.252-.721v-1.453zm31.843 0l1.254-.721 1.252.721v1.453l-1.252.721-1.254-.721v-1.453zm31.844 0l1.254-.721 1.254.721v1.453l-1.254.721-1.254-.721v-1.453zm143.612 83.173l.942-.556.941.556v1.087l-.941.544-.942-.544v-1.087zm-47.766-27.674l.941-.544.943.556v1.088l-.943.543-.941-.543v-1.1zm31.846.012l.94-.556.942.544v1.1l-.942.543-.94-.543v-1.088zm31.843-.012l.941-.544.943.556v1.088l-.943.543-.941-.543v-1.1zm-111.456-27.661l.942-.544.943.544v1.099l-.943.544-.942-.544v-1.099zm31.845 0l.942-.544.941.544v1.099l-.941.544-.942-.544v-1.099zm31.845 0l.942-.544.941.544v1.099l-.941.544-.942-.544v-1.099zm31.843 0l.942-.544.941.544v1.099l-.941.544-.942-.544v-1.099zm31.846 0l.941-.544.942.544v1.099l-.942.544-.941-.544v-1.099zm-143.301-27.662l.942-.543.943.543v1.1l-.943.544-.942-.544v-1.1zm31.845 0l.941-.543.941.543v1.1l-.941.544-.941-.544v-1.1zm31.844 0l.941-.543.943.543v1.1l-.943.544-.941-.544v-1.1zm31.846 0l.94-.543.942.543v1.1l-.942.544-.94-.544v-1.1zm31.843 0l.941-.543.943.543v1.1l-.943.544-.941-.544v-1.1zm-206.988-27.661l.942-.544.94.544v1.1l-.94.543-.942-.543v-1.1zm31.843 0l.942-.544.941.544v1.1l-.941.543-.942-.543v-1.1zm31.845 0l.943-.544.94.544v1.1l-.94.543-.943-.543v-1.1zm31.844 0l.942-.544.943.544v1.1l-.943.543-.942-.543v-1.1zm31.845 0l.942-.544.941.544v1.1l-.941.543-.942-.543v-1.1zm31.845 0l.942-.544.941.544v1.1l-.941.543-.942-.543v-1.1zm31.843 0l.942-.544.941.544v1.1l-.941.543-.942-.543v-1.1zm31.846 0l.941-.544.942.544v1.1l-.942.543-.941-.543v-1.1zM625.242 760.13l.941-.544.941.544v1.099l-.941.544-.941-.556v-1.087zm31.844 0l.942-.544.943.544v1.087l-.943.556-.942-.544v-1.099zm31.845 0l.941-.544.941.544v1.099l-.941.544-.941-.556v-1.087zm31.844 0l.941-.544.943.544v1.087l-.943.556-.941-.544v-1.099zm31.846 0l.94-.544.943.544v1.099l-.943.544-.94-.556v-1.087zm31.843 0l.941-.544.943.544v1.087l-.943.556-.941-.544v-1.099zm-143.3-27.662l.943-.543.94.543v1.088l-.94.543-.943-.543v-1.088zm31.844 0l.942-.543.943.543v1.088l-.943.543-.942-.543v-1.088zm31.845 0l.942-.543.941.543v1.088l-.941.543-.942-.543v-1.088zm31.845 0l.942-.543.941.543v1.088l-.941.543-.942-.543v-1.088zm31.843 0l.942-.543.941.543v1.088l-.941.543-.942-.543v-1.088zm31.846 0l.941-.543.942.543v1.088l-.942.543-.941-.543v-1.088zm-143.301-27.661l.942-.544.943.544v1.087l-.943.544-.942-.544v-1.087zm31.845 0l.941-.544.941.544v1.087l-.941.544-.941-.544v-1.087zm31.844 0l.941-.544.943.544v1.087l-.943.544-.941-.544v-1.087zm31.846 0l.94-.544.943.544v1.087l-.943.544-.94-.544v-1.087zm31.843 0l.941-.544.943.544v1.087l-.943.544-.941-.544v-1.087zm-111.456-27.661l.942-.544.943.544v1.087l-.943.543-.942-.543v-1.087zm31.845 0l.942-.544.941.544v1.087l-.941.543-.942-.543v-1.087zm28.532-1.922l4.255-2.465 4.254 2.465v4.931l-4.254 2.465-4.255-2.465v-4.931zm31.844 0l4.254-2.465 4.255 2.465v4.931l-4.255 2.465-4.254-2.465v-4.931zm31.844 0l4.255-2.465 4.254 2.465v4.931l-4.254 2.465-4.255-2.465v-4.931zm-111.456-27.661l4.255-2.463 4.255 2.463v4.93l-4.255 2.465-4.255-2.465v-4.93zm31.846 0l4.253-2.463 4.255 2.463v4.93l-4.255 2.465-4.253-2.465v-4.93zm31.843 0l4.255-2.463 4.255 2.463v4.93l-4.255 2.465-4.255-2.465v-4.93zm31.844 0l4.255-2.463 4.255 2.463v4.93l-4.255 2.465-4.255-2.465v-4.93zm-111.455-27.664l4.255-2.463 4.255 2.463v4.929l-4.255 2.465-4.255-2.465v-4.929zm31.845 0l4.255-2.463 4.254 2.463v4.929l-4.254 2.465-4.255-2.465v-4.929zm31.845 0l4.255-2.463 4.254 2.463v4.929l-4.254 2.465-4.255-2.465v-4.929zm31.844 0l4.254-2.463 4.255 2.463v4.929l-4.255 2.465-4.254-2.465v-4.929zm31.844 0l4.255-2.463 4.254 2.463v4.929l-4.254 2.465-4.255-2.465v-4.929zm-111.456-27.663l4.255-2.464 4.255 2.464v4.931l-4.255 2.465-4.255-2.465v-4.931zm31.846 0l4.253-2.464 4.255 2.464v4.931l-4.255 2.465-4.253-2.465v-4.931zm31.843 0l4.255-2.464 4.255 2.464v4.931l-4.255 2.465-4.255-2.465v-4.931zm31.844 0l4.255-2.464 4.255 2.464v4.931l-4.255 2.465-4.255-2.465v-4.931zm-79.61-27.662l4.255-2.463 4.254 2.463v4.931l-4.254 2.463-4.255-2.463v-4.931zm29.635-1.277l6.465-3.744 6.462 3.744v7.487l-6.462 3.741-6.465-3.741v-7.487zm31.845 0l6.463-3.744 6.464 3.744v7.487l-6.464 3.741-6.463-3.741v-7.487zm31.844 0l6.464-3.744 6.464 3.744v7.487l-6.464 3.741-6.464-3.741v-7.487zm-79.611-27.662l6.463-3.744 6.465 3.744v7.489l-6.465 3.74-6.463-3.74v-7.489zm31.845 0l6.463-3.744 6.463 3.744v7.489l-6.463 3.74-6.463-3.74v-7.489zm31.844 0l6.463-3.744 6.464 3.744v7.489l-6.464 3.74-6.463-3.74v-7.489zm-79.611-27.663l6.464-3.743 6.464 3.743v7.488l-6.464 3.742-6.464-3.742v-7.488zm31.844 0l6.465-3.743 6.462 3.743v7.488l-6.462 3.742-6.465-3.742v-7.488zm31.845 0l6.463-3.743 6.464 3.743v7.488l-6.464 3.742-6.463-3.742v-7.488zm31.844 0l6.464-3.743 6.464 3.743v7.488l-6.464 3.742-6.464-3.742v-7.488zm-79.611-27.664l6.463-3.742 6.465 3.742v7.49l-6.465 3.742-6.463-3.742v-7.49zm31.845 0l6.463-3.742 6.463 3.742v7.49l-6.463 3.742-6.463-3.742v-7.49zm31.844 0l6.463-3.742 6.464 3.742v7.49l-6.464 3.742-6.463-3.742v-7.49zm-79.611-27.664l6.464-3.743 6.464 3.743v7.491l-6.464 3.742-6.464-3.742v-7.491zm31.844 0l6.465-3.743 6.462 3.743v7.491l-6.462 3.742-6.465-3.742v-7.491zm31.845 0l6.463-3.743 6.464 3.743v7.491l-6.464 3.742-6.463-3.742v-7.491zm-47.767-27.661l6.463-3.744 6.465 3.744v7.487l-6.465 3.744-6.463-3.744v-7.487zm31.845 0l6.463-3.744 6.463 3.744v7.487l-6.463 3.744-6.463-3.744v-7.487zm-47.767-27.661l6.464-3.744 6.464 3.744v7.486l-6.464 3.744-6.464-3.744v-7.486zm31.844 0l6.465-3.744 6.462 3.744v7.486l-6.462 3.744-6.465-3.744v-7.486zm-15.922-27.662l6.463-3.743 6.465 3.743v7.485l-6.465 3.746-6.463-3.746v-7.485zm77.404 81.704l8.671-5.02 8.672 5.02v10.05l-8.672 5.02-8.671-5.02v-10.05zm-15.923-27.658l8.671-5.024 8.673 5.024v10.044l-8.673 5.022-8.671-5.022v-10.044zm-15.922-27.663l8.671-5.024 8.672 5.024v10.044l-8.672 5.023-8.671-5.023v-10.044zm31.845 0l8.671-5.024 8.672 5.024v10.044l-8.672 5.023-8.671-5.023v-10.044zm-47.768-27.663l8.672-5.02 8.672 5.02v10.045l-8.672 5.024-8.672-5.024V368.38zm31.845 0l8.671-5.02 8.673 5.02v10.045l-8.673 5.024-8.671-5.024V368.38zm-79.611-27.663l8.672-5.022 8.672 5.022v10.048l-8.672 5.021-8.672-5.021v-10.048zm31.844 0l8.673-5.022 8.669 5.022v10.048l-8.669 5.021-8.673-5.021v-10.048zm31.845 0l8.671-5.022 8.672 5.022v10.048l-8.672 5.021-8.671-5.021v-10.048zm31.845 0l8.671-5.022 8.672 5.022v10.048l-8.672 5.021-8.671-5.021v-10.048zm-79.612-27.662l8.671-5.024 8.672 5.024v10.046l-8.672 5.022-8.671-5.022v-10.046zm31.844 0l8.672-5.024 8.672 5.024v10.046l-8.672 5.022-8.672-5.022v-10.046zm31.845 0l8.671-5.024 8.673 5.024v10.046l-8.673 5.022-8.671-5.022v-10.046zm-79.611-27.664l8.672-5.02 8.672 5.02v10.046l-8.672 5.024-8.672-5.024v-10.046zm31.844 0l8.673-5.02 8.669 5.02v10.046l-8.669 5.024-8.673-5.024v-10.046zm31.845 0l8.671-5.02 8.672 5.02v10.046l-8.672 5.024-8.671-5.024v-10.046zm-47.767-27.661l8.671-5.022 8.672 5.022v10.047l-8.672 5.021-8.671-5.021V257.73zm-15.922-27.662l8.672-5.021 8.672 5.021v10.045l-8.672 5.023-8.672-5.023v-10.045zm51.548-523.398l4.89-2.831 4.892 2.831v5.668l-4.892 2.833-4.89-2.833v-5.668zm-15.923-27.662l4.892-2.832 4.89 2.832v5.667l-4.89 2.834-4.892-2.834v-5.667zm31.846 0l4.889-2.832 4.891 2.832v5.667l-4.891 2.834-4.889-2.834v-5.667zm31.843 0l4.891-2.832 4.891 2.832v5.667l-4.891 2.834-4.891-2.834v-5.667zm-79.611-27.662l4.89-2.832 4.892 2.832v5.665l-4.892 2.833-4.89-2.833v-5.665zm31.845 0l4.89-2.832 4.892 2.832v5.665l-4.892 2.833-4.89-2.833v-5.665zm31.844 0l4.89-2.832 4.891 2.832v5.665l-4.891 2.833-4.89-2.833v-5.665zm-47.767-27.662l4.892-2.833 4.89 2.833v5.668l-4.89 2.833-4.892-2.833v-5.668zm31.846 0l4.889-2.833 4.891 2.833v5.668l-4.891 2.833-4.889-2.833v-5.668zm31.843 0l4.891-2.833 4.891 2.833v5.668l-4.891 2.833-4.891-2.833v-5.668zm-47.766-27.663l4.89-2.832 4.892 2.832v5.667l-4.892 2.833-4.89-2.833v-5.667zm31.844 0l4.89-2.832 4.891 2.832v5.667l-4.891 2.833-4.89-2.833v-5.667zm-47.767-27.662l4.892-2.832 4.89 2.832v5.667l-4.89 2.833-4.892-2.833v-5.667zm31.846 0l4.889-2.832 4.891 2.832v5.667l-4.891 2.833-4.889-2.833v-5.667zm31.843 0l4.891-2.832 4.891 2.832v5.667l-4.891 2.833-4.891-2.833v-5.667zm-111.456-27.662l4.891-2.834 4.892 2.834v5.667l-4.892 2.832-4.891-2.832v-5.667zm31.845 0l4.89-2.834 4.892 2.834v5.667l-4.892 2.832-4.89-2.832v-5.667zm31.845 0l4.89-2.834 4.892 2.834v5.667l-4.892 2.832-4.89-2.832v-5.667zm31.844 0l4.89-2.834 4.891 2.834v5.667l-4.891 2.832-4.89-2.832v-5.667zm-111.456-27.663l4.891-2.832 4.891 2.832v5.666l-4.891 2.832-4.891-2.832v-5.666zm31.845 0l4.891-2.832 4.891 2.832v5.666l-4.891 2.832-4.891-2.832v-5.666zm31.844 0l4.892-2.832 4.89 2.832v5.666l-4.89 2.832-4.892-2.832v-5.666zm31.846 0l4.889-2.832 4.891 2.832v5.666l-4.891 2.832-4.889-2.832v-5.666zm31.843 0l4.891-2.832 4.891 2.832v5.666l-4.891 2.832-4.891-2.832v-5.666zm-111.456-27.662l4.891-2.833 4.892 2.833v5.666l-4.892 2.833-4.891-2.833v-5.666zm31.845 0l4.89-2.833 4.892 2.833v5.666l-4.892 2.833-4.89-2.833v-5.666zm31.845 0l4.89-2.833 4.892 2.833v5.666l-4.892 2.833-4.89-2.833v-5.666zm31.844 0l4.89-2.833 4.891 2.833v5.666l-4.891 2.833-4.89-2.833v-5.666zM605.369-542.29l4.892-2.834 4.891 2.834v5.667l-4.891 2.833-4.892-2.833v-5.667zm31.847 0l4.891-2.834 4.89 2.834v5.667l-4.89 2.833-4.891-2.833v-5.667zm31.843 0l4.891-2.834 4.891 2.834v5.667l-4.891 2.833-4.891-2.833v-5.667zm31.845 0l4.891-2.834 4.891 2.834v5.667l-4.891 2.833-4.891-2.833v-5.667zm31.844 0l4.892-2.834 4.89 2.834v5.667l-4.89 2.833-4.892-2.833v-5.667zm31.846 0l4.889-2.834 4.891 2.834v5.667l-4.891 2.833-4.889-2.833v-5.667zm31.843 0l4.891-2.834 4.891 2.834v5.667l-4.891 2.833-4.891-2.833v-5.667zm-461.743-27.663l4.89-2.833 4.89 2.833v5.667l-4.89 2.834-4.89-2.834v-5.667zm31.843 0l4.891-2.833 4.891 2.833v5.667l-4.891 2.834-4.891-2.834v-5.667zm159.222 0l4.891-2.833 4.89 2.833v5.667l-4.89 2.834-4.891-2.834v-5.667zm31.845 0l4.89-2.833 4.89 2.833v5.667l-4.89 2.834-4.89-2.834v-5.667zm31.844 0l4.891-2.833 4.89 2.833v5.667l-4.89 2.834-4.891-2.834v-5.667zm31.844 0l4.891-2.833 4.892 2.833v5.667l-4.892 2.834-4.891-2.834v-5.667zm31.846 0l4.89-2.833 4.891 2.833v5.667l-4.891 2.834-4.89-2.834v-5.667zm31.843 0l4.891-2.833 4.892 2.833v5.667l-4.892 2.834-4.891-2.834v-5.667zm31.845 0l4.89-2.833 4.892 2.833v5.667l-4.892 2.834-4.89-2.834v-5.667zm31.845 0l4.89-2.833 4.892 2.833v5.667l-4.892 2.834-4.89-2.834v-5.667zm31.844 0l4.89-2.833 4.891 2.833v5.667l-4.891 2.834-4.89-2.834v-5.667zM318.77-597.615l4.892-2.833 4.891 2.833v5.665l-4.891 2.834-4.892-2.834v-5.665zm31.844 0l4.89-2.833 4.892 2.833v5.665l-4.892 2.834-4.89-2.834v-5.665zm31.846 0l4.891-2.833 4.892 2.833v5.665l-4.892 2.834-4.891-2.834v-5.665zm31.845 0l4.89-2.833 4.891 2.833v5.665l-4.891 2.834-4.89-2.834v-5.665zm31.842 0l4.892-2.833 4.891 2.833v5.665l-4.891 2.834-4.892-2.834v-5.665zm31.845 0l4.891-2.833 4.891 2.833v5.665l-4.891 2.834-4.891-2.834v-5.665zm31.846 0l4.89-2.833 4.891 2.833v5.665l-4.891 2.834-4.89-2.834v-5.665zm31.843 0l4.891-2.833 4.891 2.833v5.665l-4.891 2.834-4.891-2.834v-5.665zm31.846 0l4.891-2.833 4.892 2.833v5.665l-4.892 2.834-4.891-2.834v-5.665zm31.842 0l4.892-2.833 4.891 2.833v5.665l-4.891 2.834-4.892-2.834v-5.665zm31.847 0l4.891-2.833 4.89 2.833v5.665l-4.89 2.834-4.891-2.834v-5.665zm31.843 0l4.891-2.833 4.891 2.833v5.665l-4.891 2.834-4.891-2.834v-5.665zm31.845 0l4.891-2.833 4.891 2.833v5.665l-4.891 2.834-4.891-2.834v-5.665zm31.844 0l4.892-2.833 4.89 2.833v5.665l-4.89 2.834-4.892-2.834v-5.665zm31.846 0l4.889-2.833 4.891 2.833v5.665l-4.891 2.834-4.889-2.834v-5.665zm31.843 0l4.891-2.833 4.891 2.833v5.665l-4.891 2.834-4.891-2.834v-5.665zm-622.541 26.751l6.464-3.743 6.465 3.743v7.488l-6.465 3.743-6.464-3.743v-7.488zM617.51-184.868l8.673-5.024 8.673 5.024v10.046l-8.673 5.023-8.673-5.023v-10.046zm-15.921-27.662l8.672-5.025 8.672 5.025v10.045l-8.672 5.022-8.672-5.022v-10.045zm31.845 0l8.673-5.025 8.671 5.025v10.045l-8.671 5.022-8.673-5.022v-10.045zm-47.767-27.664l8.672-5.021 8.671 5.021v10.046l-8.671 5.024-8.672-5.024v-10.046zm31.843 0l8.673-5.021 8.673 5.021v10.046l-8.673 5.024-8.673-5.024v-10.046zm31.846 0l8.672-5.021 8.671 5.021v10.046l-8.671 5.024-8.672-5.024v-10.046zm-111.457-27.661l8.673-5.024 8.673 5.024v10.045l-8.673 5.022-8.673-5.022v-10.045zm31.847 0l8.672-5.024 8.671 5.024v10.045l-8.671 5.022-8.672-5.022v-10.045zm31.843 0l8.672-5.024 8.672 5.024v10.045l-8.672 5.022-8.672-5.022v-10.045zm31.845 0l8.673-5.024 8.671 5.024v10.045l-8.671 5.022-8.673-5.022v-10.045zm31.844 0l8.672-5.024 8.672 5.024v10.045l-8.672 5.022-8.672-5.022v-10.045zm31.845 0l8.672-5.024 8.672 5.024v10.045l-8.672 5.022-8.672-5.022v-10.045zm-175.146-27.664l8.673-5.022 8.672 5.022v10.045l-8.672 5.025-8.673-5.025v-10.045zm31.846 0l8.671-5.022 8.673 5.022v10.045l-8.673 5.025-8.671-5.025v-10.045zm31.844 0l8.672-5.022 8.671 5.022v10.045l-8.671 5.025-8.672-5.025v-10.045zm31.843 0l8.673-5.022 8.673 5.022v10.045l-8.673 5.025-8.673-5.025v-10.045zm31.846 0l8.672-5.022 8.671 5.022v10.045l-8.671 5.025-8.672-5.025v-10.045zm31.845 0l8.671-5.022 8.673 5.022v10.045l-8.673 5.025-8.671-5.025v-10.045zm-206.99-27.664l8.672-5.021 8.673 5.021v10.05l-8.673 5.02-8.672-5.02v-10.05zm31.844 0l8.673-5.021 8.672 5.021v10.05l-8.672 5.02-8.673-5.02v-10.05zm31.844 0l8.673-5.021 8.673 5.021v10.05l-8.673 5.02-8.673-5.02v-10.05zm31.847 0l8.672-5.021 8.671 5.021v10.05l-8.671 5.02-8.672-5.02v-10.05zm31.843 0l8.672-5.021 8.672 5.021v10.05l-8.672 5.02-8.672-5.02v-10.05zm31.845 0l8.673-5.021 8.671 5.021v10.05l-8.671 5.02-8.673-5.02v-10.05zm31.844 0l8.672-5.021 8.672 5.021v10.05l-8.672 5.02-8.672-5.02v-10.05zm-206.988-27.66l8.671-5.023 8.673 5.023v10.046l-8.673 5.02-8.671-5.02v-10.046zm31.843 0l8.671-5.023 8.674 5.023v10.046l-8.674 5.02-8.671-5.02v-10.046zm31.844 0l8.673-5.023 8.672 5.023v10.046l-8.672 5.02-8.673-5.02v-10.046zm31.846 0l8.671-5.023 8.673 5.023v10.046l-8.673 5.02-8.671-5.02v-10.046zm31.844 0l8.672-5.023 8.671 5.023v10.046l-8.671 5.02-8.672-5.02v-10.046zm31.843 0l8.673-5.023 8.673 5.023v10.046l-8.673 5.02-8.673-5.02v-10.046zm31.846 0l8.672-5.023 8.671 5.023v10.046l-8.671 5.02-8.672-5.02v-10.046zm-206.99-27.664l8.673-5.022 8.672 5.022v10.047l-8.672 5.024-8.673-5.024v-10.047zm31.845 0l8.672-5.022 8.673 5.022v10.047l-8.673 5.024-8.672-5.024v-10.047zm31.844 0l8.673-5.022 8.672 5.022v10.047l-8.672 5.024-8.673-5.024v-10.047zm31.844 0l8.673-5.022 8.673 5.022v10.047l-8.673 5.024-8.673-5.024v-10.047zm31.847 0l8.672-5.022 8.671 5.022v10.047l-8.671 5.024-8.672-5.024v-10.047zm31.843 0l8.672-5.022 8.672 5.022v10.047l-8.672 5.024-8.672-5.024v-10.047zm31.845 0l8.673-5.022 8.671 5.022v10.047l-8.671 5.024-8.673-5.024v-10.047zm-206.99-27.659l8.673-5.025 8.672 5.025v10.043l-8.672 5.023-8.673-5.023v-10.043zm31.846 0l8.671-5.025 8.673 5.025v10.043l-8.673 5.023-8.671-5.023v-10.043zm31.843 0l8.671-5.025 8.674 5.025v10.043l-8.674 5.023-8.671-5.023v-10.043zm31.844 0l8.673-5.025 8.672 5.025v10.043l-8.672 5.023-8.673-5.023v-10.043zm31.846 0l8.671-5.025 8.673 5.025v10.043l-8.673 5.023-8.671-5.023v-10.043zm31.844 0l8.672-5.025 8.671 5.025v10.043l-8.671 5.023-8.672-5.023v-10.043zm31.843 0l8.673-5.025 8.673 5.025v10.043l-8.673 5.023-8.673-5.023v-10.043zm-238.831-27.665l8.672-5.021 8.673 5.021v10.046l-8.673 5.024-8.672-5.024v-10.046zm31.845 0l8.671-5.021 8.672 5.021v10.046l-8.672 5.024-8.671-5.024v-10.046zm31.842 0l8.673-5.021 8.672 5.021v10.046l-8.672 5.024-8.673-5.024v-10.046zm31.845 0l8.672-5.021 8.673 5.021v10.046l-8.673 5.024-8.672-5.024v-10.046zm31.844 0l8.673-5.021 8.672 5.021v10.046l-8.672 5.024-8.673-5.024v-10.046zm31.844 0l8.673-5.021 8.673 5.021v10.046l-8.673 5.024-8.673-5.024v-10.046zm31.847 0l8.672-5.021 8.671 5.021v10.046l-8.671 5.024-8.672-5.024v-10.046zm31.843 0l8.672-5.021 8.672 5.021v10.046l-8.672 5.024-8.672-5.024v-10.046zm-270.677-27.663l8.672-5.022 8.671 5.022v10.047l-8.671 5.022-8.672-5.022v-10.047zm31.843 0l8.673-5.022 8.673 5.022v10.047l-8.673 5.022-8.673-5.022v-10.047zm31.846 0l8.673-5.022 8.671 5.022v10.047l-8.671 5.022-8.673-5.022v-10.047zm31.843 0l8.673-5.022 8.672 5.022v10.047l-8.672 5.022-8.673-5.022v-10.047zm31.846 0l8.671-5.022 8.673 5.022v10.047l-8.673 5.022-8.671-5.022v-10.047zm31.843 0l8.671-5.022 8.674 5.022v10.047l-8.674 5.022-8.671-5.022v-10.047zm31.844 0l8.673-5.022 8.672 5.022v10.047l-8.672 5.022-8.673-5.022v-10.047zm31.846 0l8.671-5.022 8.673 5.022v10.047l-8.673 5.022-8.671-5.022v-10.047zm31.844 0l8.672-5.022 8.671 5.022v10.047l-8.671 5.022-8.672-5.022v-10.047zm-270.678-27.662l8.673-5.023 8.671 5.023v10.045l-8.671 5.022-8.673-5.022v-10.045zm31.844 0l8.671-5.023 8.673 5.023v10.045l-8.673 5.022-8.671-5.022v-10.045zm31.846 0l8.672-5.023 8.673 5.023v10.045l-8.673 5.022-8.672-5.022v-10.045zm31.845 0l8.671-5.023 8.672 5.023v10.045l-8.672 5.022-8.671-5.022v-10.045zm31.842 0l8.673-5.023 8.672 5.023v10.045l-8.672 5.022-8.673-5.022v-10.045zm31.845 0l8.672-5.023 8.673 5.023v10.045l-8.673 5.022-8.672-5.022v-10.045zm-175.144-27.661l8.673-5.024 8.672 5.024v10.044l-8.672 5.023-8.673-5.023v-10.044zm31.845 0l8.672-5.024 8.671 5.024v10.044l-8.671 5.023-8.672-5.023v-10.044zm31.843 0l8.673-5.024 8.673 5.024v10.044l-8.673 5.023-8.673-5.023v-10.044zm31.846 0l8.673-5.024 8.671 5.024v10.044l-8.671 5.023-8.673-5.023v-10.044zm31.843 0l8.673-5.024 8.672 5.024v10.044l-8.672 5.023-8.673-5.023v-10.044zM219.457-544.48l8.67-5.023 8.672 5.023v10.046l-8.672 5.023-8.67-5.023v-10.046zm31.844 0l8.672-5.023 8.672 5.023v10.046l-8.672 5.023-8.672-5.023v-10.046zm31.843 0l8.673-5.023 8.673 5.023v10.046l-8.673 5.023-8.673-5.023v-10.046zm31.845 0l8.673-5.023 8.671 5.023v10.046l-8.671 5.023-8.673-5.023v-10.046zm-111.454-27.663l8.67-5.023 8.672 5.023v10.046l-8.672 5.023-8.67-5.023v-10.046zm31.844 0l8.673-5.023 8.669 5.023v10.046l-8.669 5.023-8.673-5.023v-10.046zm31.843 0l8.673-5.023 8.673 5.023v10.046l-8.673 5.023-8.673-5.023v-10.046zm-79.612-27.664l8.673-5.021 8.672 5.021v10.047l-8.672 5.023-8.673-5.023v-10.047zm31.847 0l8.67-5.021 8.672 5.021v10.047l-8.672 5.023-8.67-5.023v-10.047zm31.844 0l8.672-5.021 8.672 5.021v10.047l-8.672 5.023-8.672-5.023v-10.047zm464.265 361.073l6.15-3.561 6.153 3.561v7.127l-6.153 3.562-6.15-3.562v-7.127zm15.922-27.662l6.152-3.562 6.151 3.562v7.126l-6.151 3.561-6.152-3.561v-7.126zm-15.922-27.663l6.15-3.561 6.153 3.561v7.126l-6.153 3.564-6.15-3.564v-7.126zm-15.922-27.662l6.151-3.563 6.151 3.563v7.126l-6.151 3.563-6.151-3.563v-7.126zm-15.923-27.661l6.151-3.563 6.152 3.563v7.123l-6.152 3.563-6.151-3.563v-7.123zm-15.922-27.663l6.151-3.563 6.152 3.563v7.126l-6.152 3.563-6.151-3.563v-7.126zm31.845 0l6.151-3.563 6.151 3.563v7.126l-6.151 3.563-6.151-3.563v-7.126zm-47.767-27.663l6.151-3.563 6.151 3.563v7.125l-6.151 3.563-6.151-3.563v-7.125zm31.844 0l6.151-3.563 6.152 3.563v7.125l-6.152 3.563-6.151-3.563v-7.125zm31.845 0l6.15-3.563 6.153 3.563v7.125l-6.153 3.563-6.15-3.563v-7.125zm-79.611-27.662l6.152-3.562 6.15 3.562v7.126l-6.15 3.562-6.152-3.562v-7.126zm31.844 0l6.151-3.562 6.152 3.562v7.126l-6.152 3.562-6.151-3.562v-7.126zm31.845 0l6.151-3.562 6.151 3.562v7.126l-6.151 3.562-6.151-3.562v-7.126zm-79.612-27.663l6.151-3.562 6.152 3.562v7.126l-6.152 3.561-6.151-3.561v-7.126zm31.845 0l6.151-3.562 6.151 3.562v7.126l-6.151 3.561-6.151-3.561v-7.126zm-143.299-27.662l6.15-3.564 6.152 3.564v7.124l-6.152 3.563-6.15-3.563v-7.124zm31.843 0l6.151-3.564 6.152 3.564v7.124l-6.152 3.563-6.151-3.563v-7.124zm31.845 0l6.152-3.564 6.152 3.564v7.124l-6.152 3.563-6.152-3.563v-7.124zm31.843 0l6.152-3.564 6.152 3.564v7.124l-6.152 3.563-6.152-3.563v-7.124zm31.846 0l6.152-3.564 6.15 3.564v7.124l-6.15 3.563-6.152-3.563v-7.124zM460.81-515.358l6.151-3.562 6.152 3.562v7.125l-6.152 3.564-6.151-3.564v-7.125zm31.845 0l6.149-3.562 6.152 3.562v7.125l-6.152 3.564-6.149-3.564v-7.125zm31.844 0l6.151-3.562 6.15 3.562v7.125l-6.15 3.564-6.151-3.564v-7.125zm31.845 0l6.15-3.562 6.153 3.562v7.125l-6.153 3.564-6.15-3.564v-7.125zm31.844 0l6.151-3.562 6.151 3.562v7.125l-6.151 3.564-6.151-3.564v-7.125zm31.844 0l6.151-3.562 6.152 3.562v7.125l-6.152 3.564-6.151-3.564v-7.125zm31.845 0l6.151-3.562 6.151 3.562v7.125l-6.151 3.564-6.151-3.564v-7.125zM349.354-543.02l6.15-3.563 6.152 3.563v7.126l-6.152 3.563-6.15-3.563v-7.126zm31.846 0l6.151-3.563 6.152 3.563v7.126l-6.152 3.563-6.151-3.563v-7.126zm31.844 0l6.151-3.563 6.151 3.563v7.126l-6.151 3.563-6.151-3.563v-7.126zm31.844 0l6.151-3.563 6.152 3.563v7.126l-6.152 3.563-6.151-3.563v-7.126zm31.843 0l6.152-3.563 6.151 3.563v7.126l-6.151 3.563-6.152-3.563v-7.126zm31.847 0l6.15-3.563 6.152 3.563v7.126l-6.152 3.563-6.15-3.563v-7.126zm31.843 0l6.151-3.563 6.152 3.563v7.126l-6.152 3.563-6.151-3.563v-7.126zm31.845 0l6.152-3.563 6.152 3.563v7.126l-6.152 3.563-6.152-3.563v-7.126zm-270.679-27.662l6.153-3.563 6.151 3.563v7.126l-6.151 3.562-6.153-3.562v-7.126zm95.535 0l6.152-3.563 6.149 3.563v7.126l-6.149 3.562-6.152-3.562v-7.126zm31.843 0l6.152-3.563 6.152 3.563v7.126l-6.152 3.562-6.152-3.562v-7.126zm31.845 0l6.151-3.563 6.152 3.563v7.126l-6.152 3.562-6.151-3.562v-7.126zm31.845 0l6.149-3.563 6.152 3.563v7.126l-6.152 3.562-6.149-3.562v-7.126zm-206.99-27.664l6.152-3.562 6.152 3.562v7.127l-6.152 3.563-6.152-3.563v-7.127zM52.678 871.155l.305-.178.305.178v.353l-.305.177-.305-.177v-.353zm31.843 0l.305-.178.31.178v.353l-.31.177-.305-.177v-.353zm31.847 0l.305-.178.304.178v.353l-.304.177-.305-.177v-.353zm-47.77-27.662l.307-.177.305.177v.354l-.305.177-.306-.177v-.354zm31.848 0l.304-.177.305.177v.354l-.305.177-.304-.177v-.354zm31.844 0l.305-.177.305.177v.354l-.305.177-.305-.177v-.354zm31.844 0l.306-.177.305.177v.354l-.305.177-.306-.177v-.354zM52.678 815.819l.305-.177.305.177v.354l-.305.177-.305-.177v-.354zm31.843 0l.305-.177.31.177v.354l-.31.177-.305-.177v-.354zm31.847 0l.305-.177.304.177v.354l-.304.177-.305-.177v-.354zm31.844 0l.306-.177.304.177v.354l-.304.177-.306-.177v-.354zm31.843 0l.305-.177.306.177v.354l-.306.177-.305-.177v-.354zm31.845 0l.305-.177.305.177v.354l-.305.177-.305-.177v-.354zm31.844 0l.308-.177.305.177v.354l-.305.177-.308-.177v-.354zM68.599 788.157l.306-.176.305.176v.355l-.305.177-.306-.177v-.355zm31.847 0l.304-.176.305.176v.355l-.305.177-.304-.177v-.355zm31.844 0l.305-.176.305.176v.355l-.305.177-.305-.177v-.355zm31.844 0l.306-.176.305.176v.355l-.305.177-.306-.177v-.355zm31.843 0l.306-.176.305.176v.355l-.305.177-.306-.177v-.355zm31.846 0l.304-.176.308.176v.355l-.308.177-.304-.177v-.355zm31.845 0l.305-.176.306.176v.355l-.306.177-.305-.177v-.355zm31.844 0l.305-.176.305.176v.355l-.305.177-.305-.177v-.355zm31.843 0l.307-.176.305.176v.355l-.305.177-.307-.177v-.355zM52.678 760.496l.305-.177.305.177v.355l-.305.176-.305-.176v-.355zm31.843 0l.305-.177.31.177v.355l-.31.176-.305-.176v-.355zm31.847 0l.305-.177.304.177v.355l-.304.176-.305-.176v-.355zm31.844 0l.306-.177.304.177v.355l-.304.176-.306-.176v-.355zm31.843 0l.305-.177.306.177v.355l-.306.176-.305-.176v-.355zm31.845 0l.305-.177.305.177v.355l-.305.176-.305-.176v-.355zm31.844 0l.308-.177.305.177v.355l-.305.176-.308-.176v-.355zm31.846 0l.305-.177.306.177v.355l-.306.176-.305-.176v-.355zm31.844 0l.306-.177.304.177v.355l-.304.176-.306-.176v-.355zM68.599 732.835l.306-.177.305.177v.353l-.305.178-.306-.178v-.353zm31.847 0l.304-.177.305.177v.353l-.305.178-.304-.178v-.353zm31.844 0l.305-.177.305.177v.353l-.305.178-.305-.178v-.353zm31.844 0l.306-.177.305.177v.353l-.305.178-.306-.178v-.353zm31.843 0l.306-.177.305.177v.353l-.305.178-.306-.178v-.353zM52.678 705.174l.305-.177.305.177v.354l-.305.177-.305-.177v-.354zm31.843 0l.305-.177.31.177v.354l-.31.177-.305-.177v-.354zm31.847 0l.305-.177.304.177v.354l-.304.177-.305-.177v-.354zm31.844 0l.306-.177.304.177v.354l-.304.177-.306-.177v-.354zm31.843 0l.305-.177.306.177v.354l-.306.177-.305-.177v-.354zM68.599 677.512l.306-.176.305.176v.355l-.303.177-.308-.177v-.355zm31.847 0l.304-.176.305.176v.355l-.305.177-.304-.177v-.355zm31.844 0l.305-.176.305.176v.355l-.305.177-.305-.177v-.355zm31.844 0l.306-.176.305.176v.355l-.305.177-.306-.177v-.355zM52.678 649.85l.305-.177.305.177v.354l-.305.175-.305-.175v-.354zm31.843 0l.305-.177.31.177v.354l-.31.175-.305-.175v-.354zm31.847 0l.305-.177.304.177v.354l-.304.175-.305-.175v-.354zm-47.77-27.662l.307-.177.305.177v.353l-.305.177-.306-.177v-.353zm31.848 0l.304-.177.305.177v.353l-.305.177-.304-.177v-.353zm-47.768-27.662l.305-.177.305.177v.353l-.305.176-.305-.176v-.353zM338.33 759.952l1.254-.732 1.254.732v1.454l-1.254.721-1.254-.721v-1.454zm31.843 0l1.255-.732 1.254.732v1.454l-1.254.721-1.255-.721v-1.454zm-143.299-27.66l1.253-.734 1.255.734v1.453l-1.255.72-1.253-.72v-1.453zm31.843 0l1.256-.734 1.254.734v1.453l-1.254.72-1.256-.72v-1.453zm31.848 0l1.252-.734 1.253.734v1.453l-1.253.72-1.252-.72v-1.453zm31.842 0l1.255-.734 1.252.734v1.453l-1.252.72-1.255-.72v-1.453zm31.844 0l1.253-.734 1.256.734v1.453l-1.256.72-1.253-.72v-1.453zm31.845 0l1.255-.734 1.253.734v1.453l-1.253.72-1.255-.72v-1.453zm31.846 0l1.253-.734 1.254.734v1.453l-1.254.72-1.253-.72v-1.453zm-206.99-27.662l1.253-.733 1.255.733v1.454l-1.255.72-1.253-.72v-1.454zm31.844 0l1.256-.733 1.252.733v1.454l-1.252.72-1.256-.72v-1.454zm31.846 0l1.253-.733 1.253.733v1.454l-1.253.72-1.253-.72v-1.454zm31.844 0l1.254-.733 1.252.733v1.454l-1.252.72-1.254-.72v-1.454zm31.844 0l1.254-.733 1.254.733v1.454l-1.254.72-1.254-.72v-1.454zm31.843 0l1.255-.733 1.254.733v1.454l-1.254.72-1.255-.72v-1.454zm31.847 0l1.254-.733 1.252.733v1.454l-1.252.72-1.254-.72v-1.454zm31.843 0l1.254-.733 1.254.733v1.454l-1.254.72-1.254-.72v-1.454zM195.03 676.968l1.253-.733 1.252.733v1.442l-1.252.733-1.253-.733v-1.442zm31.844 0l1.253-.733 1.255.733v1.442l-1.255.733-1.253-.72v-1.455zm31.843 0l1.256-.733 1.254.733v1.442l-1.254.733-1.256-.733v-1.442zm31.848 0l1.252-.733 1.253.733v1.442l-1.253.733-1.252-.733v-1.442zm31.842 0l1.255-.733 1.252.733v1.442l-1.252.733-1.255-.733v-1.442zm31.844 0l1.253-.733 1.256.733v1.442l-1.256.733-1.253-.72v-1.455zm31.845 0l1.255-.733 1.253.733v1.442l-1.253.733-1.255-.733v-1.442zm31.846 0l1.253-.733 1.254.733v1.442l-1.254.733-1.253-.72v-1.455zm-270.678-27.667l1.254-.726 1.252.726v1.451l-1.252.728-1.254-.728v-1.451zm31.844 0l1.252-.726 1.253.726v1.451l-1.253.728-1.252-.728v-1.451zm31.844 0l1.253-.726 1.255.726v1.451l-1.255.728-1.253-.728v-1.451zm31.844 0l1.256-.726 1.252.726v1.451l-1.252.728-1.256-.728v-1.451zm31.846 0l1.253-.726 1.253.726v1.451l-1.253.728-1.253-.728v-1.451zm31.844 0l1.254-.726 1.252.726v1.451l-1.252.728-1.254-.728v-1.451zm31.844 0l1.254-.726 1.254.726v1.451l-1.254.728-1.254-.728v-1.451zm31.843 0l1.255-.726 1.254.726v1.451l-1.254.728-1.255-.728v-1.451zm31.847 0l1.254-.726 1.252.726v1.451l-1.252.728-1.254-.728v-1.451zm-270.68-27.663l1.255-.725 1.253.725v1.452l-1.253.726-1.255-.726v-1.452zm31.846 0l1.254-.725 1.252.725v1.452l-1.252.726-1.254-.726v-1.452zm31.844 0l1.253-.725 1.252.725v1.452l-1.252.726-1.253-.726v-1.452zm31.844 0l1.253-.725 1.255.725v1.452l-1.255.726-1.253-.726v-1.452zm31.843 0l1.256-.725 1.254.725v1.452l-1.254.726-1.256-.726v-1.452zm31.848 0l1.252-.725 1.253.725v1.452l-1.253.726-1.252-.726v-1.452zm31.842 0l1.255-.725 1.252.725v1.452l-1.252.726-1.255-.726v-1.452zm31.844 0l1.253-.725 1.256.725v1.452l-1.256.726-1.253-.726v-1.452zM83.574 593.976l1.252-.725 1.256.725v1.452l-1.256.726-1.252-.726v-1.452zm31.843 0l1.256-.725 1.253.725v1.452l-1.253.726-1.256-.726v-1.452zm31.847 0l1.254-.725 1.252.725v1.452l-1.252.726-1.254-.726v-1.452zm31.844 0l1.252-.725 1.253.725v1.452l-1.253.726-1.252-.726v-1.452zm31.844 0l1.253-.725 1.255.725v1.452l-1.255.726-1.253-.726v-1.452zm31.844 0l1.256-.725 1.252.725v1.452l-1.252.726-1.256-.726v-1.452zm31.846 0l1.253-.725 1.253.725v1.452l-1.253.726-1.253-.726v-1.452zm31.844 0l1.254-.725 1.252.725v1.452l-1.252.726-1.254-.726v-1.452zm31.844 0l1.254-.725 1.254.725v1.452l-1.254.726-1.254-.726v-1.452zM67.652 566.313l1.253-.726 1.255.726v1.453l-1.255.727-1.253-.727v-1.453zm31.843 0l1.255-.726 1.253.726v1.453l-1.253.727-1.255-.727v-1.453zm31.845 0l1.255-.726 1.253.726v1.453l-1.253.727-1.255-.727v-1.453zm31.846 0l1.254-.726 1.252.726v1.453l-1.252.727-1.254-.727v-1.453zm31.844 0l1.253-.726 1.252.726v1.453l-1.252.727-1.253-.727v-1.453zm31.844 0l1.253-.726 1.255.726v1.453l-1.255.727-1.253-.727v-1.453zM51.73 538.651l1.253-.726 1.252.726v1.453l-1.252.725-1.253-.725v-1.453zm31.844 0l1.252-.726 1.256.726v1.453l-1.256.725-1.252-.725v-1.453zm31.843 0l1.256-.726 1.253.726v1.453l-1.253.725-1.256-.725v-1.453zm31.847 0l1.254-.726 1.252.726v1.453l-1.252.725-1.254-.725v-1.453zm31.844 0l1.252-.726 1.253.726v1.454l-1.253.724-1.252-.725v-1.453zM67.652 510.989l1.253-.726 1.255.726v1.453l-1.255.726-1.253-.726v-1.453zm31.843 0l1.255-.726 1.253.726v1.453l-1.253.726-1.255-.726v-1.453zm31.845 0l1.255-.726 1.253.726v1.453l-1.253.726-1.255-.726v-1.453zm31.846 0l1.254-.726 1.252.726v1.453l-1.252.726-1.254-.726v-1.453zM51.73 483.327l1.253-.726 1.252.726v1.451l-1.252.726-1.253-.726v-1.451zm31.844 0l1.252-.726 1.256.726v1.451l-1.256.726-1.252-.726v-1.451zm31.843 0l1.256-.726 1.253.726v1.451l-1.253.726-1.256-.726v-1.451zm31.847 0l1.254-.726 1.252.726v1.451l-1.252.726-1.254-.726v-1.451zm-79.612-27.663l1.253-.725 1.255.725v1.452l-1.255.726-1.253-.726v-1.452zm31.843 0l1.255-.725 1.253.725v1.452l-1.253.726-1.255-.726v-1.452zm31.845 0l1.255-.725 1.253.725v1.452l-1.253.726-1.255-.726v-1.452zM51.73 428l1.253-.726 1.252.726v1.454l-1.252.726-1.253-.726V428zm31.844 0l1.252-.726 1.256.726v1.454l-1.256.726-1.252-.726V428zm31.843 0l1.256-.726 1.253.726v1.454l-1.253.726-1.256-.726V428zm-47.765-27.661l1.253-.726 1.255.726v1.453l-1.255.726-1.253-.726v-1.453zm31.843 0l1.255-.726 1.253.726v1.453l-1.253.726-1.255-.726v-1.453zm31.845 0l1.255-.726 1.253.726v1.453l-1.253.726-1.255-.726v-1.453zm-79.61-27.663l1.253-.725 1.252.725v1.455l-1.252.725-1.253-.725v-1.455zm31.844 0l1.252-.725 1.256.725v1.455l-1.256.725-1.252-.725v-1.455zm31.843 0l1.256-.725 1.253.725v1.455l-1.253.725-1.256-.725v-1.455zm-47.765-27.661l1.253-.727 1.255.727v1.452l-1.255.725-1.253-.725v-1.452zm31.843 0l1.255-.727 1.253.727v1.452l-1.253.725-1.255-.725v-1.452zM51.73 317.353l1.253-.727 1.252.727v1.451l-1.252.725-1.253-.725v-1.451zm31.844 0l1.252-.727 1.256.727v1.451l-1.256.725-1.252-.725v-1.451zm-15.922-27.665l1.253-.725 1.255.725v1.453l-1.255.726-1.253-.726v-1.453zM51.73 262.027l1.253-.727 1.252.727v1.452l-1.252.727-1.253-.727v-1.452zm31.844 0l1.252-.727 1.256.727v1.452l-1.256.727-1.252-.727v-1.452zm-15.922-27.662l1.253-.726 1.255.726v1.452l-1.255.726-1.253-.726v-1.452zM51.73 206.702l1.253-.725 1.252.725v1.452l-1.252.726-1.253-.726v-1.452zm31.844 0l1.252-.725 1.256.725v1.452l-1.256.726-1.252-.726v-1.452zm-15.922-27.663l1.253-.725 1.255.725v1.455l-1.255.725-1.253-.725v-1.455zM51.73 151.376l1.253-.725 1.252.725v1.454l-1.252.726-1.253-.726v-1.454zm31.844 0l1.252-.725 1.256.725v1.454l-1.256.726-1.252-.726v-1.454zm-15.922-27.662l1.253-.725 1.255.725v1.453l-1.255.725-1.253-.725v-1.453zM51.73 96.052l1.253-.726 1.252.726v1.452l-1.252.726-1.253-.726v-1.452zm746.136 800.93l3.462-2.01 3.463 2.01v4.008l-3.463 2.01-3.462-2.01v-4.008zM447.577 675.679l3.462-1.997 3.462 1.997v4.021l-3.462 1.997-3.462-1.997v-4.021zm-15.923-27.657l3.463-2.006 3.462 2.006v4.011l-3.462 2.003-3.463-2.003v-4.011zm31.845 0l3.462-2.006 3.464 2.006v4.011l-3.464 2.003-3.462-2.003v-4.011zm-79.611-27.663l3.463-2.007 3.462 2.007v4.01l-3.462 2.006-3.463-2.006v-4.01zm31.845 0l3.462-2.005 3.462 2.005v4.01l-3.462 2.005-3.462-2.005v-4.01zm31.844 0l3.462-2.005 3.462 2.005v4.01l-3.462 2.005-3.462-2.005v-4.01zm31.845 0l3.461-2.007 3.464 2.007v4.01l-3.464 2.006-3.461-2.006v-4.01zm-111.456-27.662l3.462-2.005 3.462 2.005v4.011l-3.462 2.005-3.462-2.005v-4.011zm31.843 0l3.465-2.005 3.46 2.005v4.011l-3.46 2.005-3.465-2.005v-4.011zm31.845 0l3.463-2.005 3.462 2.005v4.011l-3.462 2.005-3.463-2.005v-4.011zm31.845 0l3.462-2.005 3.464 2.005v4.011l-3.464 2.006-3.462-2.006v-4.011zm31.846 0l3.459-2.005 3.463 2.005v4.011l-3.463 2.005-3.459-2.005v-4.011zm-238.836-27.662l3.464-2.006 3.462 2.006v4.012l-3.462 2.003-3.464-2.003v-4.012zm31.844 0l3.464-2.006 3.461 2.006v4.012l-3.461 2.003-3.464-2.003v-4.012zm31.845 0l3.464-2.006 3.463 2.006v4.012l-3.463 2.003-3.464-2.003v-4.012zm31.845 0l3.461-2.006 3.464 2.006v4.012l-3.464 2.003-3.461-2.003v-4.012zm31.845 0l3.463-2.006 3.462 2.006v4.012l-3.462 2.003-3.463-2.003v-4.012zm31.845 0l3.462-2.006 3.462 2.006v4.012l-3.462 2.003-3.462-2.003v-4.012zm31.844 0l3.462-2.006 3.462 2.006v4.012l-3.462 2.003-3.462-2.003v-4.012zm31.845 0l3.461-2.006 3.464 2.006v4.012l-3.464 2.003-3.461-2.003v-4.012zm-270.678-27.663l3.461-2.005 3.463 2.005v4.012l-3.463 2.005-3.461-2.005v-4.012zm31.844 0l3.464-2.005 3.461 2.005v4.012l-3.461 2.005-3.464-2.005v-4.012zm31.843 0l3.464-2.006 3.461 2.006v4.012l-3.461 2.005-3.464-2.005v-4.012zm31.847 0l3.462-2.005 3.46 2.005v4.012l-3.46 2.005-3.462-2.005v-4.012zm31.844 0l3.462-2.005 3.461 2.005v4.012l-3.461 2.005-3.462-2.005v-4.012zm31.844 0l3.462-2.005 3.462 2.005v4.012l-3.462 2.005-3.462-2.005v-4.012zm31.843 0l3.465-2.005 3.46 2.005v4.012l-3.46 2.005-3.465-2.005v-4.012zm31.845 0l3.463-2.005 3.462 2.005v4.012l-3.462 2.005-3.463-2.005v-4.012zm31.845 0l3.462-2.006 3.464 2.006v4.012l-3.464 2.005-3.462-2.005v-4.012zm31.846 0l3.459-2.005 3.463 2.005v4.012l-3.463 2.005-3.459-2.005v-4.012zM192.821 509.71l3.462-2.005 3.463 2.005v4.011l-3.463 2.006-3.462-2.006v-4.011zm31.845 0l3.461-2.005 3.463 2.005v4.011l-3.463 2.006-3.461-2.006v-4.011zm31.843 0l3.464-2.005 3.462 2.005v4.011l-3.462 2.006-3.464-2.006v-4.011zm31.844 0l3.464-2.005 3.461 2.005v4.011l-3.461 2.006-3.464-2.006v-4.011zm31.845 0l3.464-2.005 3.463 2.005v4.011l-3.463 2.006-3.464-2.006v-4.011zm31.845 0l3.461-2.005 3.464 2.005v4.011l-3.464 2.006-3.461-2.006v-4.011zm31.845 0l3.463-2.005 3.462 2.005v4.011l-3.462 2.006-3.463-2.006v-4.011zm31.845 0l3.462-2.005 3.462 2.005v4.011l-3.462 2.006-3.462-2.006v-4.011zm31.844 0l3.462-2.005 3.462 2.005v4.011l-3.462 2.006-3.462-2.006v-4.011zm31.845 0l3.461-2.005 3.464 2.005v4.011l-3.464 2.006-3.461-2.006v-4.011zm-302.523-27.663l3.461-2.005 3.466 2.005v4.01l-3.466 2.006-3.461-2.006v-4.01zm31.845 0l3.461-2.005 3.463 2.005v4.01l-3.463 2.006-3.461-2.006v-4.01zm31.844 0l3.464-2.005 3.461 2.005v4.01l-3.461 2.006-3.464-2.006v-4.01zm31.843 0l3.464-2.006 3.461 2.006v4.01l-3.461 2.007-3.464-2.007v-4.01zm31.847 0l3.462-2.005 3.46 2.005v4.01l-3.46 2.006-3.462-2.006v-4.01zm31.844 0l3.462-2.005 3.461 2.005v4.01l-3.461 2.006-3.462-2.006v-4.01zm31.844 0l3.462-2.005 3.462 2.005v4.01l-3.462 2.006-3.462-2.006v-4.01zm31.843 0l3.465-2.005 3.46 2.005v4.01l-3.46 2.006-3.465-2.006v-4.01zm31.845 0l3.463-2.005 3.462 2.005v4.01l-3.462 2.006-3.463-2.006v-4.01zm-270.676-27.663l3.462-2.004 3.463 2.004v4.013l-3.463 2.004-3.462-2.004v-4.013zm31.843 0l3.462-2.006 3.463 2.006v4.013l-3.463 2.006-3.462-2.006v-4.013zm31.845 0l3.461-2.004 3.463 2.004v4.013l-3.463 2.004-3.461-2.004v-4.013zm31.843 0l3.464-2.004 3.462 2.004v4.013l-3.462 2.004-3.464-2.004v-4.013zm31.844 0l3.464-2.004 3.461 2.004v4.013l-3.461 2.004-3.464-2.004v-4.013zm31.845 0l3.464-2.006 3.463 2.006v4.013l-3.463 2.006-3.464-2.006v-4.013zM145.054 426.72l3.464-2.004 3.46 2.004v4.015l-3.46 2.003-3.464-2.003v-4.015zm31.845 0l3.461-2.004 3.466 2.004v4.015l-3.466 2.003-3.461-2.003v-4.015zm31.845 0l3.461-2.004 3.463 2.004v4.015l-3.463 2.003-3.461-2.003v-4.015zm31.844 0l3.464-2.004 3.461 2.004v4.015l-3.461 2.003-3.464-2.003v-4.015zm31.843 0l3.464-2.004 3.461 2.004v4.015l-3.461 2.003-3.464-2.003v-4.015zm31.847 0l3.462-2.004 3.46 2.004v4.015l-3.46 2.003-3.462-2.003v-4.015zm-143.3-27.661l3.462-2.004 3.463 2.004v4.012l-3.463 2.003-3.462-2.003v-4.012zm31.843 0l3.462-2.004 3.463 2.004v4.012l-3.463 2.003-3.462-2.003v-4.012zm31.845 0l3.461-2.004 3.463 2.004v4.012l-3.463 2.003-3.461-2.003v-4.012zm31.843 0l3.464-2.004 3.462 2.004v4.012l-3.462 2.003-3.464-2.003v-4.012zm31.844 0l3.464-2.004 3.461 2.004v4.012l-3.461 2.003-3.464-2.003v-4.012zm-143.299-27.662l3.464-2.005 3.46 2.005v4.012l-3.46 2.005-3.464-2.005v-4.012zm31.845 0l3.461-2.005 3.466 2.005v4.012l-3.466 2.005-3.461-2.005v-4.012zm31.845 0l3.461-2.005 3.463 2.005v4.012l-3.463 2.005-3.461-2.005v-4.012zm31.844 0l3.464-2.005 3.461 2.005v4.012l-3.461 2.005-3.464-2.005v-4.012zm31.843 0l3.464-2.005 3.461 2.005v4.012l-3.461 2.005-3.464-2.005v-4.012zm-143.3-27.663l3.464-2.005 3.461 2.005v4.012l-3.461 2.006-3.464-2.006v-4.012zm31.847 0l3.462-2.004 3.463 2.004v4.012l-3.463 2.004-3.462-2.004v-4.012zm31.843 0l3.462-2.005 3.463 2.005v4.012l-3.463 2.006-3.462-2.006v-4.012zm31.845 0l3.461-2.004 3.463 2.004v4.012l-3.463 2.004-3.461-2.004v-4.012zm31.843 0l3.464-2.004 3.462 2.004v4.012l-3.462 2.004-3.464-2.004v-4.012zm-143.3-27.661l3.464-2.005 3.46 2.005v4.01l-3.46 2.007-3.464-2.007v-4.01zm31.845 0l3.464-2.005 3.46 2.005v4.01l-3.46 2.007-3.464-2.007v-4.01zm31.845 0l3.461-2.005 3.466 2.005v4.01l-3.466 2.007-3.461-2.007v-4.01zm31.845 0l3.461-2.005 3.463 2.005v4.01l-3.463 2.007-3.461-2.007v-4.01zm31.844 0l3.464-2.005 3.461 2.005v4.01l-3.461 2.007-3.464-2.007v-4.01zm-143.3-27.664l3.462-2.003 3.462 2.003v4.011l-3.462 2.006-3.463-2.006v-4.011zm31.843 0l3.464-2.003 3.461 2.003v4.011l-3.461 2.006-3.464-2.006v-4.011zm31.847 0l3.462-2.003 3.463 2.003v4.011l-3.463 2.006-3.462-2.006v-4.011zm31.843 0l3.462-2.003 3.463 2.003v4.011l-3.463 2.006-3.462-2.006v-4.011zm31.845 0l3.461-2.003 3.463 2.003v4.011l-3.463 2.006-3.461-2.006v-4.011zm31.843 0l3.464-2.003 3.462 2.003v4.011l-3.462 2.006-3.464-2.006v-4.011zm-143.3-27.662l3.464-2.004 3.46 2.004v4.012l-3.46 2.005-3.464-2.005v-4.012zm31.845 0l3.464-2.004 3.46 2.004v4.012l-3.46 2.005-3.464-2.005v-4.012zm31.845 0l3.461-2.004 3.466 2.004v4.012l-3.466 2.005-3.461-2.005v-4.012zm31.845 0l3.461-2.004 3.463 2.004v4.012l-3.463 2.005-3.461-2.005v-4.012zm31.844 0l3.464-2.004 3.461 2.004v4.012l-3.461 2.005-3.464-2.005v-4.012zm-143.3-27.664l3.462-2.004 3.462 2.004v4.013l-3.462 2.004-3.463-2.004v-4.013zm31.843 0l3.464-2.004 3.461 2.004v4.013l-3.461 2.006-3.464-2.006v-4.013zm31.847 0l3.462-2.004 3.463 2.004v4.013l-3.463 2.004-3.462-2.004v-4.013zm31.843 0l3.462-2.004 3.463 2.004v4.013l-3.463 2.006-3.462-2.006v-4.013zm31.845 0l3.461-2.004 3.463 2.004v4.013l-3.463 2.004-3.461-2.004v-4.013zm31.843 0l3.464-2.004 3.462 2.004v4.013l-3.462 2.004-3.464-2.004v-4.013zm-143.3-27.66l3.464-2.005 3.46 2.005v4.01l-3.46 2.005-3.464-2.005v-4.01zm31.845 0l3.464-2.005 3.46 2.005v4.01l-3.46 2.005-3.464-2.005v-4.01zm31.845 0l3.461-2.005 3.466 2.005v4.01l-3.466 2.005-3.461-2.005v-4.01zm31.845 0l3.461-2.005 3.463 2.005v4.01l-3.463 2.005-3.461-2.005v-4.01zm31.844 0l3.464-2.005 3.461 2.005v4.01l-3.461 2.005-3.464-2.005v-4.01zm-143.3-27.663l3.462-2.004 3.462 2.004v4.011l-3.462 2.006-3.463-2.006v-4.011zm31.843 0l3.464-2.006 3.461 2.006v4.011l-3.461 2.006-3.464-2.006v-4.011zm31.847 0l3.462-2.004 3.463 2.004v4.011l-3.463 2.006-3.462-2.006v-4.011zm31.843 0l3.462-2.006 3.463 2.006v4.011l-3.463 2.006-3.462-2.006v-4.011zm31.845 0l3.461-2.004 3.463 2.004v4.011l-3.463 2.006-3.461-2.006v-4.011zm-111.457-27.662l3.464-2.004 3.46 2.004v4.011l-3.46 2.005-3.464-2.005v-4.011zm31.845 0l3.464-2.004 3.46 2.004v4.011l-3.46 2.005-3.464-2.005v-4.011zm31.845 0l3.461-2.004 3.466 2.004v4.011l-3.466 2.005-3.461-2.005v-4.011zm31.845 0l3.461-2.004 3.463 2.004v4.011l-3.463 2.005-3.461-2.005v-4.011zM97.287 122.436l3.463-2.005 3.462 2.005v4.012l-3.462 2.003-3.463-2.003v-4.012zm31.844 0l3.464-2.005 3.461 2.005v4.012l-3.461 2.003-3.464-2.003v-4.012zm31.847 0l3.462-2.005 3.463 2.005v4.012l-3.463 2.003-3.462-2.003v-4.012zm31.843 0l3.462-2.005 3.463 2.005v4.012l-3.463 2.003-3.462-2.003v-4.012zm31.845 0l3.461-2.005 3.463 2.005v4.012l-3.463 2.003-3.461-2.003v-4.012zm-143.3-27.664l3.46-2.005 3.464 2.005v4.012l-3.464 2.006-3.46-2.006v-4.012zm31.843 0l3.464-2.005 3.46 2.005v4.012l-3.46 2.005-3.464-2.005v-4.012zm31.845 0l3.464-2.005 3.46 2.005v4.012l-3.46 2.005-3.464-2.005v-4.012zm31.845 0l3.461-2.005 3.466 2.005v4.012l-3.466 2.005-3.461-2.005v-4.012zm31.845 0l3.461-2.005 3.463 2.005v4.012l-3.463 2.005-3.461-2.005v-4.012zm-143.3-27.661l3.461-2.006 3.463 2.006v4.01l-3.463 2.007-3.46-2.006V67.11zm31.843 0l3.463-2.005 3.462 2.005v4.01l-3.462 2.005-3.463-2.004V67.11zm31.844 0l3.464-2.006 3.461 2.006v4.01l-3.461 2.007-3.464-2.006V67.11zm31.847 0l3.462-2.005 3.463 2.005v4.01l-3.463 2.005-3.462-2.004V67.11zm31.843 0l3.462-2.006 3.463 2.006v4.01l-3.463 2.007-3.462-2.006V67.11zM49.522 39.447l3.46-2.005 3.464 2.005v4.011l-3.463 2.006-3.46-2.006v-4.01zm31.843 0l3.461-2.005 3.464 2.005v4.011l-3.464 2.007-3.46-2.007v-4.01zm31.844 0l3.464-2.005 3.46 2.005v4.011l-3.46 2.006-3.464-2.006v-4.01zm31.845 0l3.464-2.005 3.46 2.005v4.011l-3.46 2.006-3.464-2.006v-4.01zm31.845 0l3.461-2.005 3.466 2.005v4.011l-3.466 2.006-3.461-2.006v-4.01zM65.444 11.785l3.461-2.004 3.463 2.004v4.012l-3.463 2.004-3.46-2.004v-4.012zm31.843 0l3.463-2.004 3.462 2.004v4.012l-3.462 2.004-3.463-2.004v-4.012zm31.844 0l3.464-2.004 3.461 2.004v4.012l-3.461 2.004-3.464-2.004v-4.012zm31.847-.002l3.462-2.002 3.463 2.004v4.012l-3.463 2.004-3.462-2.004v-4.014zM49.522-15.875l3.46-2.006 3.464 2.006v4.01L52.983-9.86l-3.46-2.005v-4.01zm31.843 0l3.462-2.007 3.464 2.007v4.01L84.827-9.86l-3.462-2.005v-4.01zm31.844 0l3.464-2.006 3.46 2.006v4.01l-3.46 2.005-3.464-2.005v-4.01zm31.845-.001l3.464-2.005 3.46 2.005v4.01l-3.46 2.006-3.464-2.005v-4.011zM65.444-43.54l3.461-2.006 3.463 2.007v4.01l-3.463 2.005-3.46-2.005v-4.01zm31.843 0l3.463-2.004 3.462 2.005v4.01l-3.462 2.004-3.463-2.004v-4.01zm31.844 0l3.464-2.006 3.461 2.007v4.01l-3.461 2.005-3.464-2.006v-4.01zM49.522-71.2l3.46-2.004 3.464 2.004v4.012l-3.463 2.005-3.46-2.005V-71.2zm31.843 0l3.462-2.006 3.464 2.006v4.012l-3.464 2.005-3.462-2.005V-71.2zm31.844 0l3.464-2.004 3.46 2.004v4.012l-3.46 2.004-3.464-2.004V-71.2zm31.845 0l3.464-2.004 3.46 2.004v4.012l-3.46 2.004-3.464-2.004V-71.2zm-79.61-27.663l3.461-2.005 3.463 2.005v4.011l-3.463 2.006-3.46-2.006v-4.011zm31.843 0l3.463-2.005 3.462 2.005v4.011l-3.462 2.006-3.463-2.006v-4.011zm31.844 0l3.464-2.005 3.461 2.005v4.011l-3.461 2.006-3.464-2.006v-4.011zM49.522-126.53l3.46-2.002 3.464 2.004v4.013l-3.463 2.003-3.46-2.003v-4.015zm31.843.002l3.461-2.004 3.464 2.004v4.013l-3.464 2.003-3.46-2.003v-4.013zm31.844-.002l3.464-2.002 3.46 2.004v4.013l-3.46 2.003-3.464-2.003v-4.015zm-47.765-27.66l3.461-2.004 3.463 2.004v4.012l-3.463 2.006-3.46-2.006v-4.012zm31.843 0l3.463-2.004 3.462 2.004v4.012l-3.462 2.005-3.463-2.005v-4.012zm-47.765-27.661l3.46-2.005 3.464 2.005v4.01l-3.463 2.006-3.46-2.006v-4.01zm31.843 0l3.461-2.007 3.464 2.007v4.01l-3.464 2.006-3.46-2.006v-4.01zm-15.92-27.663l3.46-2.005 3.463 2.005v4.011l-3.463 2.006-3.46-2.006v-4.011zm-15.923-27.662l3.46-2.005 3.464 2.005v4.01l-3.463 2.005-3.46-2.005v-4.01zm458.43 744.967l6.776-3.922 6.776 3.922v7.848l-6.776 3.924-6.776-3.924v-7.848zm-47.766-27.664l6.775-3.923 6.776 3.923v7.851l-6.776 3.924-6.775-3.924v-7.851zm31.843 0l6.775-3.923 6.777 3.923v7.851l-6.777 3.924-6.775-3.924v-7.851zm31.845 0l6.776-3.923 6.776 3.923v7.851l-6.776 3.924-6.776-3.924v-7.851zM348.73 452.464l6.774-3.924 6.777 3.924v7.85l-6.777 3.924-6.774-3.924v-7.85zm31.844 0l6.777-3.924 6.775 3.924v7.85l-6.775 3.924-6.777-3.924v-7.85zm31.845 0l6.776-3.924 6.774 3.924v7.85l-6.774 3.924-6.776-3.924v-7.85zm31.844 0l6.776-3.924 6.776 3.924v7.85l-6.776 3.924-6.776-3.924v-7.85zm31.844 0l6.776-3.924 6.776 3.924v7.85l-6.776 3.924-6.776-3.924v-7.85zm31.845 0l6.776-3.924 6.776 3.924v7.85l-6.776 3.924-6.776-3.924v-7.85zm-175.145-27.661l6.777-3.925 6.775 3.925v7.849l-6.775 3.923-6.777-3.923v-7.849zm31.845 0l6.776-3.925 6.776 3.925v7.849l-6.776 3.923-6.776-3.923v-7.849zm31.845 0l6.777-3.925 6.774 3.925v7.849l-6.774 3.923-6.777-3.923v-7.849zm31.844 0l6.776-3.925 6.775 3.925v7.849l-6.775 3.923-6.776-3.923v-7.849zm31.845 0l6.775-3.925 6.776 3.925v7.849l-6.776 3.923-6.775-3.923v-7.849zm31.843 0l6.775-3.925 6.777 3.925v7.849l-6.777 3.923-6.775-3.923v-7.849zm-175.142-27.661l6.775-3.925 6.775 3.925v7.847l-6.775 3.924-6.775-3.924v-7.847zm31.843 0l6.774-3.925 6.777 3.925v7.847l-6.777 3.924-6.774-3.924v-7.847zm31.844 0l6.777-3.925 6.775 3.925v7.847l-6.775 3.924-6.777-3.924v-7.847zm31.845 0l6.776-3.925 6.774 3.925v7.847l-6.774 3.924-6.776-3.924v-7.847zm31.844 0l6.776-3.925 6.776 3.925v7.847l-6.776 3.924-6.776-3.924v-7.847zm-143.298-27.663l6.775-3.925 6.774 3.925v7.848l-6.774 3.926-6.775-3.926v-7.848zm31.842 0l6.777-3.925 6.775 3.925v7.848l-6.775 3.926-6.777-3.926v-7.848zm31.845 0l6.776-3.925 6.776 3.925v7.848l-6.776 3.926-6.776-3.926v-7.848zm31.845 0l6.777-3.925 6.774 3.925v7.848l-6.774 3.926-6.777-3.926v-7.848zm31.844 0l6.776-3.925 6.775 3.925v7.848l-6.775 3.926-6.776-3.926v-7.848zM285.04 341.815l6.777-3.925 6.774 3.925v7.851l-6.774 3.924-6.777-3.924v-7.851zm31.847 0l6.775-3.925 6.775 3.925v7.851l-6.775 3.924-6.775-3.924v-7.851zm31.843 0l6.774-3.925 6.777 3.925v7.851l-6.777 3.924-6.774-3.924v-7.851zm31.844 0l6.777-3.925 6.775 3.925v7.851l-6.775 3.924-6.777-3.924v-7.851zm31.845 0l6.776-3.925 6.774 3.925v7.851l-6.774 3.924-6.776-3.924v-7.851zm-143.302-27.661l6.778-3.924 6.774 3.924v7.848l-6.774 3.925-6.778-3.925v-7.848zm31.848 0l6.775-3.924 6.774 3.924v7.848l-6.774 3.925-6.775-3.925v-7.848zm31.842 0l6.777-3.924 6.775 3.924v7.848l-6.775 3.925-6.777-3.925v-7.848zm31.845 0l6.776-3.924 6.776 3.924v7.848l-6.776 3.925-6.776-3.925v-7.848zm31.845 0l6.777-3.924 6.774 3.924v7.848l-6.774 3.925-6.777-3.925v-7.848zM285.04 286.49l6.777-3.922 6.774 3.922v7.848l-6.774 3.926-6.777-3.926v-7.848zm31.847 0l6.775-3.922 6.775 3.922v7.848l-6.775 3.926-6.775-3.926v-7.848zm31.843 0l6.774-3.922 6.777 3.922v7.848l-6.777 3.926-6.774-3.926v-7.848zm31.844 0l6.777-3.922 6.775 3.922v7.848l-6.775 3.926-6.777-3.926v-7.848zm-111.457-27.66l6.778-3.924 6.774 3.924v7.847l-6.774 3.924-6.778-3.924v-7.847zm31.848 0l6.775-3.924 6.774 3.924v7.847l-6.774 3.924-6.775-3.924v-7.847zm31.842 0l6.777-3.924 6.775 3.924v7.847l-6.775 3.924-6.777-3.924v-7.847zm31.845 0l6.776-3.924 6.776 3.924v7.847l-6.776 3.924-6.776-3.924v-7.847zm-79.612-27.664l6.777-3.924 6.774 3.924v7.849l-6.774 3.923-6.777-3.923v-7.849zm31.847 0l6.775-3.924 6.775 3.924v7.849l-6.775 3.923-6.775-3.923v-7.849zm31.843 0l6.774-3.924 6.777 3.924v7.849l-6.777 3.923-6.774-3.923v-7.849zm-79.613-27.663l6.778-3.925 6.774 3.925v7.85l-6.774 3.925-6.778-3.925v-7.85zm31.848 0l6.775-3.925 6.774 3.925v7.85l-6.774 3.925-6.775-3.925v-7.85zm31.842 0l6.777-3.925 6.775 3.925v7.85l-6.775 3.925-6.777-3.925v-7.85zm-79.611-27.661l6.777-3.925 6.773 3.925v7.848l-6.773 3.924-6.777-3.924v-7.848zm31.844 0l6.777-3.925 6.774 3.925v7.848l-6.774 3.924-6.777-3.924v-7.848zm31.847 0l6.775-3.925 6.775 3.925v7.848l-6.775 3.924-6.775-3.924v-7.848zm-79.612-27.663l6.777-3.926 6.774 3.926v7.848l-6.774 3.925-6.777-3.925v-7.848zm31.842 0l6.778-3.926 6.774 3.926v7.848l-6.774 3.925-6.778-3.925v-7.848zm31.848 0l6.775-3.926 6.774 3.926v7.848l-6.774 3.925-6.775-3.925v-7.848zm31.842 0l6.777-3.926 6.775 3.926v7.848l-6.775 3.925-6.777-3.925v-7.848zm-79.611-27.662l6.777-3.923 6.773 3.923v7.849l-6.773 3.923-6.777-3.923v-7.849zm31.844 0l6.777-3.923 6.774 3.923v7.849l-6.774 3.923-6.777-3.923v-7.849zm31.847 0l6.775-3.923 6.775 3.923v7.849l-6.775 3.923-6.775-3.923v-7.849zm-79.612-27.664l6.777-3.922 6.774 3.922v7.849l-6.774 3.925-6.777-3.925v-7.849zm31.842 0l6.778-3.922 6.774 3.922v7.849l-6.774 3.925-6.778-3.925v-7.849zm31.848 0l6.775-3.922 6.774 3.922v7.849l-6.774 3.925-6.775-3.925v-7.849zm-79.613-27.664l6.775-3.922 6.777 3.922v7.852l-6.777 3.923-6.775-3.923V65.19zm31.844 0l6.777-3.922 6.774 3.922v7.852l-6.774 3.923-6.777-3.923V65.19zm31.844 0l6.777-3.922 6.774 3.922v7.852l-6.774 3.923-6.777-3.923V65.19zm31.847 0l6.775-3.922 6.775 3.922v7.852l-6.775 3.923-6.775-3.923V65.19zM205.43 37.529l6.775-3.924 6.777 3.924v7.85l-6.777 3.923-6.775-3.924V37.53zm31.845 0l6.777-3.924 6.774 3.924v7.85l-6.774 3.923-6.777-3.924V37.53zm31.842 0l6.778-3.924 6.774 3.924v7.85l-6.774 3.923-6.778-3.924V37.53zm31.848 0l6.775-3.924 6.774 3.924v7.85l-6.774 3.923-6.775-3.924V37.53zM189.508 9.868l6.775-3.925 6.776 3.925v7.847l-6.776 3.923-6.775-3.923V9.868zm31.844 0l6.775-3.925 6.777 3.925v7.847l-6.777 3.923-6.775-3.923V9.868zm31.844 0l6.777-3.925 6.774 3.925v7.847l-6.774 3.923-6.777-3.923V9.868zm31.844 0l6.777-3.925 6.774 3.925v7.847l-6.774 3.923-6.777-3.923V9.868zM173.586-17.794l6.774-3.926 6.775 3.926v7.848l-6.775 3.924-6.774-3.924v-7.848zm31.844 0l6.775-3.926 6.777 3.926v7.848l-6.777 3.924-6.775-3.924v-7.848zm31.845 0l6.777-3.926 6.774 3.926v7.848l-6.774 3.924-6.777-3.924v-7.848zm31.842 0l6.778-3.926 6.774 3.926v7.848l-6.774 3.924-6.778-3.924v-7.848zm31.848 0l6.775-3.926 6.774 3.926v7.848l-6.774 3.924-6.775-3.924v-7.848zM157.664-45.46l6.776-3.924 6.774 3.924v7.852l-6.774 3.922-6.776-3.922v-7.852zm31.844 0l6.775-3.924 6.776 3.924v7.852l-6.776 3.922-6.775-3.922v-7.852zm31.844 0l6.775-3.924 6.777 3.924v7.852l-6.777 3.922-6.775-3.922v-7.852zm31.844 0l6.777-3.924 6.774 3.924v7.852l-6.774 3.922-6.777-3.922v-7.852zm31.844 0l6.777-3.924 6.774 3.924v7.852l-6.774 3.922-6.777-3.922v-7.852zM173.586-73.12l6.774-3.923 6.775 3.923v7.849l-6.775 3.924-6.774-3.924v-7.85zm31.844 0l6.775-3.923 6.777 3.923v7.849l-6.777 3.924-6.775-3.924v-7.85zm31.845 0l6.777-3.923 6.774 3.923v7.849l-6.774 3.924-6.777-3.924v-7.85zm31.842 0l6.778-3.923 6.774 3.923v7.849l-6.774 3.924-6.778-3.924v-7.85zm-111.453-27.664l6.776-3.923 6.774 3.923v7.849l-6.774 3.924-6.776-3.924v-7.849zm31.844 0l6.775-3.923 6.776 3.923v7.849l-6.776 3.924-6.775-3.924v-7.849zm31.844 0l6.775-3.923 6.777 3.923v7.849l-6.777 3.924-6.775-3.924v-7.849zm31.844 0l6.777-3.923 6.774 3.923v7.849l-6.774 3.924-6.777-3.924v-7.849zm31.844 0l6.777-3.923 6.774 3.923v7.849l-6.774 3.924-6.777-3.924v-7.849zm-143.297-27.661l6.775-3.924 6.774 3.924v7.847l-6.774 3.926-6.775-3.926v-7.847zm31.843 0l6.774-3.924 6.775 3.924v7.847l-6.775 3.926-6.774-3.926v-7.847zm31.844 0l6.775-3.924 6.777 3.924v7.847l-6.777 3.926-6.775-3.926v-7.847zm31.845 0l6.777-3.924 6.774 3.924v7.847l-6.774 3.926-6.777-3.926v-7.847zm31.842 0l6.778-3.924 6.774 3.924v7.847l-6.774 3.926-6.778-3.926v-7.847zM125.82-156.107l6.775-3.925 6.774 3.925v7.848l-6.774 3.924-6.775-3.924v-7.848zm31.844 0l6.776-3.925 6.774 3.925v7.848l-6.774 3.924-6.776-3.924v-7.848zm31.844 0l6.775-3.925 6.776 3.925v7.848l-6.776 3.924-6.775-3.924v-7.848zm31.844 0l6.775-3.925 6.777 3.925v7.848l-6.777 3.924-6.775-3.924v-7.848zm31.844 0l6.777-3.925 6.774 3.925v7.848l-6.774 3.924-6.777-3.924v-7.848zm-143.3-27.663l6.777-3.926 6.774 3.926v7.849l-6.774 3.925-6.777-3.925v-7.849zm31.847 0l6.775-3.926 6.774 3.926v7.849l-6.774 3.925-6.775-3.925v-7.849zm31.843 0l6.774-3.926 6.775 3.926v7.849l-6.775 3.925-6.774-3.925v-7.849zm31.844 0l6.775-3.926 6.777 3.926v7.849l-6.777 3.925-6.775-3.925v-7.849zm31.845 0l6.777-3.926 6.774 3.926v7.849l-6.774 3.925-6.777-3.925v-7.849zM93.973-211.432l6.777-3.923 6.775 3.923v7.849l-6.775 3.924-6.777-3.924v-7.849zm31.847 0l6.775-3.923 6.774 3.923v7.849l-6.774 3.924-6.775-3.924v-7.849zm31.844 0l6.776-3.923 6.774 3.923v7.849l-6.774 3.924-6.776-3.924v-7.849zm31.844 0l6.775-3.923 6.776 3.923v7.849l-6.776 3.924-6.775-3.924v-7.849zM78.052-239.095l6.774-3.925 6.777 3.925v7.848l-6.777 3.924-6.774-3.924v-7.848zm31.844 0l6.777-3.925 6.774 3.925v7.848l-6.774 3.924-6.777-3.924v-7.848zm31.847 0l6.775-3.925 6.774 3.925v7.848l-6.774 3.924-6.775-3.924v-7.848zm31.843 0l6.774-3.925 6.775 3.925v7.848l-6.775 3.924-6.774-3.924v-7.848zM62.13-266.757l6.775-3.924 6.777 3.924v7.849l-6.777 3.924-6.775-3.924v-7.849zm31.843 0l6.777-3.924 6.775 3.924v7.849l-6.775 3.924-6.777-3.924v-7.849zm31.847 0l6.775-3.924 6.774 3.924v7.849l-6.774 3.924-6.775-3.924v-7.849zm31.844 0l6.776-3.924 6.774 3.924v7.849l-6.774 3.924-6.776-3.924v-7.849zM46.208-294.419l6.775-3.924 6.777 3.924v7.847l-6.777 3.925-6.775-3.925v-7.847zm31.844 0l6.774-3.924 6.777 3.924v7.847l-6.777 3.925-6.774-3.925v-7.847zm31.844 0l6.777-3.924 6.774 3.924v7.847l-6.774 3.925-6.777-3.925v-7.847zm31.847 0l6.775-3.924 6.774 3.924v7.847l-6.774 3.925-6.775-3.925v-7.847zm-79.612-27.663l6.774-3.925 6.777 3.925v7.849l-6.777 3.924-6.775-3.924v-7.849zm31.842 0l6.777-3.925 6.775 3.925v7.849l-6.775 3.924-6.777-3.924v-7.849zm31.847 0l6.775-3.925 6.774 3.925v7.849l-6.774 3.924-6.775-3.924v-7.849zm-79.612-27.664l6.775-3.924 6.777 3.924v7.85l-6.777 3.924-6.775-3.924v-7.85zm31.844 0l6.774-3.924 6.777 3.924v7.85l-6.777 3.924-6.774-3.924v-7.85zm31.844 0l6.777-3.924 6.774 3.924v7.85l-6.774 3.924-6.777-3.924v-7.85zM62.13-377.407l6.775-3.926 6.777 3.926v7.848l-6.777 3.924-6.775-3.924v-7.848zm-15.922-27.661l6.775-3.924 6.777 3.924v7.847l-6.777 3.926-6.775-3.926v-7.847zm31.844 0l6.774-3.924 6.777 3.924v7.847l-6.777 3.926-6.774-3.926v-7.847zM62.13-432.732l6.775-3.924 6.777 3.924v7.848l-6.777 3.924-6.775-3.924v-7.848zm-15.922-27.664l6.775-3.923 6.777 3.923v7.851l-6.777 3.924-6.775-3.924v-7.851zm475.457 883.92l8.985-5.204 8.985 5.204v10.407l-8.985 5.202-8.985-5.202v-10.407zM473.9 395.862l8.983-5.203 8.984 5.203v10.406l-8.984 5.204-8.983-5.204v-10.406zm31.844 0l8.984-5.203 8.983 5.203v10.406l-8.983 5.204-8.984-5.204v-10.406zM457.978 368.2l8.983-5.204 8.985 5.204v10.405l-8.985 5.205-8.983-5.205V368.2zm31.844 0l8.982-5.204 8.986 5.204v10.405l-8.986 5.204-8.982-5.204V368.2zm31.843 0l8.985-5.204 8.985 5.204v10.405l-8.985 5.205-8.985-5.205V368.2zm-79.609-27.664l8.983-5.203 8.985 5.203v10.41l-8.985 5.202-8.983-5.202v-10.41zm31.844 0l8.983-5.203 8.984 5.203v10.41l-8.984 5.202-8.983-5.202v-10.41zm31.844 0l8.984-5.203 8.983 5.203v10.41l-8.983 5.202-8.984-5.202v-10.41zm-79.612-27.661l8.985-5.204 8.983 5.204v10.407l-8.983 5.203-8.985-5.203v-10.407zm31.846 0l8.983-5.205 8.985 5.205v10.407l-8.985 5.203-8.983-5.203v-10.407zm31.844 0l8.982-5.204 8.986 5.204v10.407l-8.986 5.203-8.982-5.203v-10.407zm31.843 0l8.985-5.205 8.985 5.205v10.407l-8.985 5.203-8.985-5.203v-10.407zm-111.454-27.663l8.984-5.202 8.985 5.202v10.406l-8.985 5.203-8.984-5.203v-10.406zm31.845 0l8.983-5.202 8.985 5.202v10.406l-8.985 5.203-8.983-5.203v-10.406zm31.844 0l8.983-5.202 8.984 5.202v10.406l-8.984 5.203-8.983-5.203v-10.406zm31.844 0l8.984-5.202 8.983 5.202v10.406l-8.983 5.203-8.984-5.203v-10.406zm-111.456-27.661l8.986-5.204 8.984 5.204v10.405l-8.984 5.203-8.986-5.203v-10.405zm31.844 0l8.985-5.204 8.983 5.204v10.405l-8.983 5.203-8.985-5.203v-10.405zm31.846 0l8.983-5.204 8.985 5.204v10.405l-8.985 5.203-8.983-5.203v-10.405zm31.844 0l8.982-5.204 8.986 5.204v10.405l-8.986 5.203-8.982-5.203v-10.405zm31.843 0l8.985-5.204 8.985 5.204v10.405l-8.985 5.203-8.985-5.203v-10.405zm-143.298-27.664l8.984-5.203 8.983 5.203v10.407l-8.983 5.202-8.984-5.202v-10.407zm31.844 0l8.984-5.203 8.985 5.203v10.407l-8.985 5.202-8.984-5.202v-10.407zm31.845 0l8.983-5.203 8.985 5.203v10.407l-8.985 5.202-8.983-5.202v-10.407zm31.844 0l8.983-5.203 8.984 5.203v10.407l-8.984 5.202-8.983-5.202v-10.407zm-111.456-27.663l8.984-5.203 8.984 5.203v10.407l-8.984 5.206-8.984-5.206v-10.407zm31.844 0l8.986-5.203 8.984 5.203v10.407l-8.984 5.206-8.986-5.206v-10.407zm31.844 0l8.985-5.203 8.983 5.203v10.407l-8.983 5.206-8.985-5.206v-10.407zm31.846 0l8.983-5.203 8.985 5.203v10.407l-8.985 5.206-8.983-5.206v-10.407zm-111.456-27.661l8.982-5.204 8.985 5.204v10.406l-8.985 5.203-8.982-5.203v-10.406zm31.845 0l8.984-5.204 8.983 5.204v10.406l-8.983 5.203-8.984-5.203v-10.406zm31.844 0l8.984-5.204 8.985 5.204v10.406l-8.985 5.203-8.984-5.203v-10.406zm31.845 0l8.983-5.204 8.985 5.204v10.406l-8.985 5.203-8.983-5.203v-10.406zM362.444 146.9l8.984-5.203 8.984 5.203v10.406l-8.984 5.204-8.984-5.204V146.9zm31.844 0l8.986-5.203 8.984 5.203v10.406l-8.984 5.205-8.986-5.205V146.9zm31.844 0l8.985-5.203 8.983 5.203v10.406l-8.983 5.204-8.985-5.204V146.9zm-79.61-27.662l8.982-5.203 8.985 5.203v10.407l-8.985 5.204-8.982-5.204v-10.407zm31.845 0l8.984-5.203 8.983 5.203v10.407l-8.983 5.204-8.984-5.204v-10.407zm31.844 0l8.984-5.203 8.985 5.203v10.407l-8.985 5.204-8.984-5.204v-10.407zM330.6 91.576l8.984-5.203 8.983 5.203v10.405l-8.983 5.205-8.984-5.205V91.576zm31.844 0l8.984-5.203 8.984 5.203v10.405l-8.984 5.203-8.984-5.203V91.576zm31.844 0l8.986-5.203 8.984 5.203v10.405l-8.984 5.205-8.986-5.205V91.576zm-47.766-27.664l8.982-5.203 8.985 5.203v10.407l-8.985 5.203-8.982-5.203V63.912zm31.845 0l8.984-5.203 8.983 5.203v10.407l-8.983 5.203-8.984-5.203V63.912zM330.6 36.25l8.984-5.204 8.983 5.204v10.406l-8.983 5.204-8.984-5.204V36.25zm31.844 0l8.984-5.204 8.984 5.204v10.406l-8.984 5.204-8.984-5.204V36.25zm31.844 0l8.986-5.204 8.984 5.204v10.406l-8.984 5.204-8.986-5.204V36.25zM314.676 8.588l8.986-5.204 8.984 5.204v10.406l-8.984 5.205-8.986-5.205V8.588zm31.846 0l8.982-5.203 8.985 5.203v10.406l-8.985 5.204-8.982-5.204V8.588zm31.845 0l8.984-5.203 8.983 5.203v10.406l-8.983 5.204-8.984-5.204V8.588zM330.6-19.074l8.984-5.203 8.983 5.203v10.406l-8.983 5.205-8.984-5.205v-10.406zm31.844 0l8.984-5.203 8.984 5.203v10.406l-8.984 5.204-8.984-5.204v-10.406zm-47.768-27.662l8.986-5.204 8.984 5.204v10.406l-8.984 5.204-8.986-5.204v-10.406zm31.846 0l8.982-5.204 8.985 5.204v10.406l-8.985 5.203-8.982-5.203v-10.406zm31.845 0l8.984-5.204 8.983 5.204v10.406l-8.983 5.203-8.984-5.203v-10.406zM298.754-74.4l8.986-5.204 8.984 5.204v10.407l-8.984 5.202-8.986-5.202V-74.4zm31.846 0l8.984-5.205 8.983 5.205v10.407l-8.983 5.202-8.984-5.202V-74.4zm31.844 0l8.984-5.204 8.984 5.204v10.407l-8.984 5.202-8.984-5.202V-74.4zm-47.768-27.663l8.986-5.204 8.984 5.204v10.406l-8.984 5.202-8.986-5.202v-10.406zm31.846 0l8.982-5.204 8.985 5.204v10.406l-8.985 5.202-8.982-5.202v-10.406zm31.845 0l8.984-5.204 8.983 5.204v10.406l-8.983 5.202-8.984-5.202v-10.406zm-79.613-27.661l8.986-5.205 8.984 5.205v10.404l-8.984 5.204-8.986-5.204v-10.404zm31.846 0l8.984-5.205 8.983 5.205v10.404l-8.983 5.204-8.984-5.204v-10.404zm31.844 0l8.984-5.205 8.984 5.205v10.404l-8.984 5.204-8.984-5.204v-10.404zm-79.612-27.664l8.985-5.202 8.983 5.202v10.406l-8.983 5.205-8.985-5.205v-10.406zm31.844 0l8.986-5.202 8.984 5.202v10.406l-8.984 5.205-8.986-5.205v-10.406zm31.846 0l8.982-5.202 8.985 5.202v10.406l-8.985 5.205-8.982-5.205v-10.406zm31.845 0l8.984-5.202 8.983 5.202v10.406l-8.983 5.205-8.984-5.205v-10.406zM266.91-185.05l8.985-5.203 8.983 5.203v10.409l-8.983 5.204-8.985-5.204v-10.409zm31.844 0l8.986-5.203 8.984 5.203v10.409l-8.984 5.204-8.986-5.204v-10.409zm31.846 0l8.984-5.203 8.983 5.203v10.409l-8.983 5.204-8.984-5.204v-10.409zm31.844 0l8.984-5.203 8.984 5.203v10.409l-8.984 5.204-8.984-5.204v-10.409zm-143.3-27.66l8.983-5.204 8.985 5.204v10.405l-8.985 5.203-8.983-5.203v-10.405zm31.843 0l8.986-5.204 8.982 5.204v10.405l-8.982 5.203-8.986-5.203v-10.405zm31.845 0l8.985-5.204 8.983 5.204v10.405l-8.983 5.203-8.985-5.203v-10.405zm31.844 0l8.986-5.205 8.984 5.205v10.405l-8.984 5.203-8.986-5.203v-10.405zm31.846 0l8.982-5.204 8.985 5.204v10.405l-8.985 5.203-8.982-5.203v-10.405zm-143.3-27.664l8.983-5.203 8.984 5.203v10.407l-8.984 5.202-8.983-5.202v-10.407zm31.844 0l8.986-5.203 8.981 5.203v10.407l-8.981 5.202-8.986-5.202v-10.407zm31.844 0l8.985-5.203 8.983 5.203v10.407l-8.983 5.202-8.985-5.202v-10.407zm31.844 0l8.986-5.203 8.984 5.203v10.407l-8.984 5.202-8.986-5.202v-10.407zm31.846 0l8.984-5.203 8.983 5.203v10.407l-8.983 5.202-8.984-5.202v-10.407zm-143.3-27.662l8.983-5.204 8.985 5.204v10.407l-8.985 5.202-8.983-5.202v-10.407zm31.844 0l8.983-5.204 8.985 5.204v10.407l-8.985 5.202-8.983-5.202v-10.407zm31.843 0l8.986-5.204 8.982 5.204v10.407l-8.982 5.202-8.986-5.202v-10.407zm31.845 0l8.985-5.204 8.983 5.204v10.407l-8.983 5.202-8.985-5.202v-10.407zm-111.456-27.663l8.984-5.203 8.985 5.203v10.406l-8.985 5.204-8.984-5.204v-10.406zm31.846 0l8.983-5.203 8.984 5.203v10.406l-8.984 5.204-8.983-5.204v-10.406zm31.844 0l8.986-5.203 8.981 5.203v10.406l-8.981 5.204-8.986-5.204v-10.406zm31.844 0l8.985-5.203 8.983 5.203v10.406l-8.983 5.204-8.985-5.204v-10.406zm-111.456-27.663l8.986-5.203 8.984 5.203v10.408l-8.984 5.203-8.986-5.203v-10.408zm31.846 0l8.983-5.203 8.985 5.203v10.408l-8.985 5.203-8.983-5.203v-10.408zm31.844 0l8.983-5.203 8.985 5.203v10.408l-8.985 5.203-8.983-5.203v-10.408zm-79.612-27.663l8.986-5.203 8.981 5.203v10.408l-8.981 5.204-8.986-5.204v-10.408zm31.844 0l8.984-5.203 8.985 5.203v10.408l-8.985 5.204-8.984-5.204v-10.408zm31.846 0l8.983-5.203 8.984 5.203v10.408l-8.984 5.204-8.983-5.204v-10.408zM91.765-378.686l8.985-5.205 8.983 5.205v10.406l-8.983 5.204-8.985-5.204v-10.406zm31.845 0l8.985-5.205 8.982 5.205v10.406l-8.982 5.204-8.985-5.204v-10.406zm31.844 0l8.986-5.205 8.984 5.205v10.406l-8.984 5.204-8.986-5.204v-10.406zm31.846 0l8.983-5.205 8.985 5.205v10.406l-8.985 5.204-8.983-5.204v-10.406zm-79.613-27.661l8.986-5.204 8.983 5.204v10.405l-8.983 5.204-8.986-5.204v-10.405zm31.845 0l8.986-5.204 8.981 5.204v10.405l-8.981 5.204-8.986-5.204v-10.405zm31.844 0l8.984-5.204 8.985 5.204v10.405l-8.985 5.204-8.984-5.204v-10.405zm-79.61-27.664l8.984-5.203 8.983 5.203v10.406l-8.983 5.204-8.985-5.204v-10.406zm31.844 0l8.985-5.203 8.982 5.203v10.406l-8.982 5.204-8.985-5.204v-10.406zm31.844 0l8.986-5.203 8.984 5.203v10.406l-8.984 5.204-8.986-5.204v-10.406zm-79.61-27.663l8.982-5.204 8.986 5.204v10.409l-8.986 5.202-8.982-5.202v-10.409zm31.843 0l8.986-5.204 8.983 5.204v10.409l-8.983 5.202-8.986-5.202v-10.409zm31.845 0l8.986-5.204 8.981 5.204v10.409l-8.981 5.202-8.986-5.202v-10.409zm31.844 0l8.984-5.204 8.985 5.204v10.409l-8.985 5.202-8.984-5.202v-10.409zM59.922-489.336l8.983-5.204 8.985 5.204v10.407l-8.985 5.202-8.983-5.202v-10.407zm31.843 0l8.985-5.204 8.983 5.204v10.407l-8.983 5.202-8.985-5.202v-10.407zm31.845 0l8.985-5.204 8.982 5.204v10.407l-8.982 5.202-8.985-5.202v-10.407zm31.844 0l8.986-5.204 8.984 5.204v10.407l-8.984 5.202-8.986-5.202v-10.407zM44-516.997l8.983-5.204 8.985 5.204v10.405l-8.985 5.204L44-506.592v-10.405zm31.844 0l8.982-5.205 8.986 5.205v10.405l-8.986 5.204-8.982-5.204v-10.405zm31.843 0l8.986-5.204 8.983 5.204v10.405l-8.983 5.204-8.986-5.204v-10.405zm31.845 0l8.986-5.204 8.981 5.204v10.405l-8.981 5.204-8.986-5.204v-10.405zm31.844 0l8.984-5.204 8.985 5.204v10.405l-8.985 5.204-8.984-5.204v-10.405zM59.922-544.661l8.983-5.204 8.985 5.204v10.407l-8.985 5.204-8.983-5.204v-10.407zm31.843 0l8.985-5.204 8.983 5.204v10.407l-8.983 5.204-8.985-5.204v-10.407zm31.845 0l8.985-5.204 8.982 5.204v10.407l-8.982 5.204-8.985-5.204v-10.407zm31.844 0l8.986-5.204 8.984 5.204v10.407l-8.984 5.204-8.986-5.204v-10.407zM44-572.324l8.983-5.203 8.985 5.203v10.408l-8.985 5.204L44-561.916v-10.408zm31.844 0l8.982-5.203 8.986 5.203v10.408l-8.986 5.205-8.982-5.205v-10.408zm31.843 0l8.986-5.203 8.983 5.203v10.408l-8.983 5.204-8.986-5.204v-10.408zm31.845 0l8.986-5.203 8.981 5.203v10.408l-8.981 5.204-8.986-5.204v-10.408zm-79.61-27.662l8.983-5.203 8.985 5.203v10.407l-8.985 5.204-8.983-5.204v-10.407zm31.843 0l8.985-5.203 8.983 5.203v10.407l-8.983 5.204-8.985-5.204v-10.407zm31.845 0l8.985-5.203 8.982 5.203v10.407l-8.982 5.204-8.985-5.204v-10.407zm31.844 0l8.986-5.203 8.984 5.203v10.407l-8.984 5.204-8.986-5.204v-10.407zm348.08 828.595l11.194-6.483 11.193 6.483v12.963l-11.193 6.484-11.194-6.484v-12.963zm31.845 0l11.193-6.483 11.193 6.483v12.963l-11.193 6.484-11.193-6.484v-12.963zm-47.765-27.663l11.19-6.482 11.193 6.482v12.965l-11.193 6.483-11.19-6.483v-12.965zm31.843 0l11.193-6.482 11.192 6.482v12.965l-11.192 6.483-11.193-6.483v-12.965zm-47.767-27.662l11.193-6.484 11.194 6.484v12.964l-11.194 6.482-11.193-6.482v-12.964zm31.844 0l11.194-6.484 11.193 6.484v12.964l-11.193 6.482-11.194-6.482v-12.964zm31.845 0l11.193-6.484 11.193 6.484v12.964l-11.193 6.482-11.193-6.482v-12.964zm-79.61-27.662l11.192-6.483 11.194 6.483v12.964l-11.194 6.482-11.192-6.482v-12.964zm31.845 0l11.19-6.483 11.193 6.483v12.964l-11.193 6.482-11.19-6.482v-12.964zm31.843 0l11.193-6.483 11.192 6.483v12.964l-11.192 6.482-11.193-6.482v-12.964zm31.845 0l11.192-6.483 11.194 6.483v12.964l-11.194 6.482-11.192-6.482v-12.964zm-111.457-27.663l11.194-6.484 11.193 6.484v12.966l-11.193 6.482-11.194-6.482v-12.966zm31.845 0l11.193-6.484 11.194 6.484v12.966l-11.194 6.482-11.193-6.482v-12.966zm31.844 0l11.194-6.484 11.193 6.484v12.966l-11.193 6.482-11.194-6.482v-12.966zm31.845 0l11.193-6.484 11.193 6.484v12.966l-11.193 6.482-11.193-6.482v-12.966zM423.925 90.295l11.192-6.48 11.193 6.48v12.965l-11.193 6.485-11.192-6.485V90.295zm31.844 0l11.192-6.48 11.194 6.48v12.965l-11.194 6.485-11.192-6.485V90.295zm31.845 0l11.19-6.48 11.193 6.48v12.965l-11.193 6.485-11.19-6.485V90.295zm31.843 0l11.193-6.48 11.192 6.48v12.965l-11.192 6.485-11.193-6.485V90.295zm31.845 0l11.192-6.48 11.194 6.48v12.965l-11.194 6.485-11.192-6.485V90.295zm-143.3-27.663l11.193-6.481 11.193 6.48V75.6l-11.193 6.482-11.193-6.482V62.632zm31.843 0l11.194-6.481 11.193 6.48V75.6l-11.193 6.482-11.194-6.482V62.632zm31.845 0l11.193-6.481 11.194 6.48V75.6l-11.194 6.482L471.69 75.6V62.632zm31.844 0l11.194-6.481 11.193 6.48V75.6l-11.193 6.482-11.194-6.482V62.632zm31.845 0l11.193-6.481 11.193 6.48V75.6l-11.193 6.482-11.193-6.482V62.632zm31.845 0l11.194-6.481 11.192 6.48V75.6l-11.192 6.482-11.194-6.482V62.632zm-143.299-27.66l11.192-6.484 11.193 6.483v12.965l-11.193 6.48-11.192-6.48V34.97zm31.844 0l11.192-6.484 11.194 6.483v12.965l-11.194 6.48-11.192-6.48V34.97zm31.845 0l11.19-6.484 11.193 6.483v12.965l-11.193 6.48-11.19-6.48V34.97zm31.843 0l11.193-6.484 11.192 6.483v12.965l-11.192 6.48-11.193-6.48V34.97zm31.845 0l11.192-6.484 11.194 6.483v12.965l-11.194 6.48-11.192-6.48V34.97zm-143.3-27.663L419.195.826l11.193 6.483v12.964l-11.193 6.484-11.193-6.484V7.31zm31.843 0L451.039.826l11.193 6.483v12.964l-11.193 6.484-11.194-6.484V7.31zm31.845 0L482.883.826l11.194 6.483v12.964l-11.194 6.484-11.193-6.484V7.31zm31.844 0L514.728.826l11.193 6.483v12.964l-11.193 6.484-11.194-6.484V7.31zm31.845 0L546.572.826l11.193 6.483v12.964l-11.193 6.484-11.193-6.484V7.31zm31.845 0L578.418.826l11.192 6.483v12.964l-11.192 6.484-11.194-6.484V7.31zM392.08-20.353l11.194-6.483 11.192 6.483V-7.39L403.274-.906 392.08-7.39v-12.963zm31.845 0l11.192-6.483 11.193 6.483V-7.39L435.117-.906 423.925-7.39v-12.963zm31.844 0l11.192-6.483 11.194 6.483V-7.39L466.961-.906 455.769-7.39v-12.963zm31.845 0l11.19-6.483 11.193 6.483V-7.39L498.804-.906l-11.19-6.484v-12.963zm31.843 0l11.193-6.483 11.192 6.483V-7.39L530.65-.906 519.457-7.39v-12.963zm31.845 0l11.192-6.483 11.194 6.483V-7.39L562.494-.906 551.302-7.39v-12.963zm31.844 0l11.193-6.483 11.192 6.483V-7.39L594.339-.906 583.146-7.39v-12.963zM408.002-48.017l11.193-6.48 11.193 6.48v12.965l-11.193 6.483-11.193-6.484v-12.964zm31.843 0l11.194-6.48 11.193 6.48v12.965l-11.193 6.483-11.194-6.484v-12.964zm31.845 0l11.193-6.48 11.194 6.48v12.965l-11.194 6.483-11.193-6.484v-12.964zm31.844 0l11.194-6.48 11.193 6.48v12.965l-11.193 6.483-11.194-6.484v-12.964zm31.845 0l11.193-6.48 11.193 6.48v12.965l-11.193 6.483-11.193-6.484v-12.964zm31.845 0l11.194-6.48 11.192 6.48v12.965l-11.192 6.483-11.194-6.484v-12.964zM392.08-75.677l11.194-6.484 11.192 6.484v12.965l-11.192 6.48-11.194-6.48v-12.965zm31.845 0l11.192-6.484 11.193 6.484v12.965l-11.193 6.48-11.192-6.48v-12.965zm31.844 0l11.192-6.484 11.194 6.484v12.965l-11.194 6.48-11.192-6.48v-12.965zm31.845 0l11.19-6.484 11.193 6.484v12.965l-11.193 6.48-11.19-6.48v-12.965zm31.843 0l11.193-6.484 11.192 6.484v12.965l-11.192 6.48-11.193-6.48v-12.965zm31.845 0l11.192-6.484 11.194 6.484v12.965l-11.194 6.48-11.192-6.48v-12.965zm31.844 0l11.193-6.484 11.192 6.484v12.965l-11.192 6.48-11.193-6.48v-12.965zm-175.144-27.664l11.193-6.482 11.193 6.482v12.965l-11.193 6.484-11.193-6.484v-12.965zm31.843 0l11.194-6.482 11.193 6.482v12.965l-11.193 6.484-11.194-6.484v-12.965zm31.845 0l11.193-6.482 11.194 6.482v12.965l-11.194 6.484-11.193-6.484v-12.965zm31.844 0l11.194-6.482 11.193 6.482v12.965l-11.193 6.484-11.194-6.484v-12.965zm31.845 0l11.193-6.482 11.193 6.482v12.965l-11.193 6.484-11.193-6.484v-12.965zm31.845 0l11.194-6.482 11.192 6.482v12.965l-11.192 6.484-11.194-6.484v-12.965zM392.08-131.002l11.194-6.485 11.192 6.485v12.963l-11.192 6.482-11.194-6.482v-12.963zm31.845 0l11.192-6.485 11.193 6.485v12.963l-11.193 6.482-11.192-6.482v-12.963zm31.844 0l11.192-6.485 11.194 6.485v12.963l-11.194 6.482-11.192-6.482v-12.963zm31.845 0l11.19-6.485 11.193 6.485v12.963l-11.193 6.482-11.19-6.482v-12.963zm31.843 0l11.193-6.485 11.192 6.485v12.963l-11.192 6.482-11.193-6.482v-12.963zm31.845 0l11.192-6.485 11.194 6.485v12.963l-11.194 6.482-11.192-6.482v-12.963zm31.844 0l11.193-6.485 11.192 6.485v12.963l-11.192 6.482-11.193-6.482v-12.963zm-175.144-27.663l11.193-6.483 11.193 6.483v12.964l-11.193 6.483-11.193-6.483v-12.964zm31.843 0l11.194-6.483 11.193 6.483v12.964l-11.193 6.483-11.194-6.483v-12.964zm31.845 0l11.193-6.483 11.194 6.483v12.964l-11.194 6.483-11.193-6.483v-12.964zm31.844 0l11.194-6.483 11.193 6.483v12.964l-11.193 6.483-11.194-6.483v-12.964zm31.845 0l11.193-6.483 11.193 6.483v12.964l-11.193 6.483-11.193-6.483v-12.964zm31.845 0l11.194-6.483 11.192 6.483v12.964l-11.192 6.483-11.194-6.483v-12.964zM392.08-186.329l11.194-6.483 11.192 6.483v12.966l-11.192 6.483-11.194-6.483v-12.966zm31.845 0l11.192-6.483 11.193 6.483v12.966l-11.193 6.483-11.192-6.483v-12.966zm31.844 0l11.192-6.483 11.194 6.483v12.966l-11.194 6.483-11.192-6.483v-12.966zm31.845 0l11.19-6.483 11.193 6.483v12.966l-11.193 6.483-11.19-6.483v-12.966zm31.843 0l11.193-6.483 11.192 6.483v12.966l-11.192 6.483-11.193-6.483v-12.966zm31.845 0l11.192-6.483 11.194 6.483v12.966l-11.194 6.483-11.192-6.483v-12.966zm31.844 0l11.193-6.483 11.192 6.483v12.966l-11.192 6.483-11.193-6.483v-12.966zM376.158-213.99l11.193-6.485 11.194 6.485v12.963l-11.194 6.483-11.193-6.483v-12.963zm31.844 0l11.193-6.485 11.193 6.485v12.963l-11.193 6.483-11.193-6.483v-12.963zm31.843 0l11.194-6.485 11.193 6.485v12.963l-11.193 6.483-11.194-6.483v-12.963zm31.845 0l11.193-6.485 11.194 6.485v12.963l-11.194 6.483-11.193-6.483v-12.963zm31.844 0l11.194-6.485 11.193 6.485v12.963l-11.193 6.483-11.194-6.483v-12.963zm31.845 0l11.193-6.485 11.193 6.485v12.963l-11.193 6.483-11.193-6.483v-12.963zm31.845 0l11.194-6.485 11.192 6.485v12.963l-11.192 6.483-11.194-6.483v-12.963zm-206.99-27.663l11.194-6.481 11.193 6.481v12.963l-11.193 6.485-11.194-6.485v-12.963zm31.846 0l11.194-6.481 11.192 6.481v12.963l-11.192 6.485-11.194-6.485v-12.963zm31.845 0l11.192-6.481 11.193 6.481v12.963l-11.193 6.485-11.192-6.485v-12.963zm31.844 0l11.192-6.481 11.194 6.481v12.963l-11.194 6.485-11.192-6.485v-12.963zm31.845 0l11.19-6.481 11.193 6.481v12.963l-11.193 6.485-11.19-6.485v-12.963zm31.843 0l11.193-6.481 11.192 6.481v12.963l-11.192 6.485-11.193-6.485v-12.963zm31.845 0l11.192-6.481 11.194 6.481v12.963l-11.194 6.485-11.192-6.485v-12.963zm-238.834-27.661l11.194-6.485 11.192 6.485v12.965l-11.192 6.479-11.194-6.479v-12.965zm31.846 0l11.19-6.485 11.194 6.485v12.965l-11.194 6.479-11.19-6.479v-12.965zm31.844 0l11.193-6.485 11.194 6.485v12.965l-11.194 6.479-11.193-6.479v-12.965zm31.844 0l11.193-6.485 11.193 6.485v12.965l-11.193 6.479-11.193-6.479v-12.965zm31.843 0l11.194-6.485 11.193 6.485v12.965l-11.193 6.479-11.194-6.479v-12.965zm31.845 0l11.193-6.485 11.194 6.485v12.965l-11.194 6.479-11.193-6.479v-12.965zm31.844 0l11.194-6.485 11.193 6.485v12.965l-11.193 6.479-11.194-6.479v-12.965zm-206.988-27.664l11.194-6.481 11.193 6.481v12.965l-11.193 6.484-11.194-6.484v-12.965zm31.846 0l11.192-6.481 11.191 6.481v12.965l-11.191 6.484-11.192-6.484v-12.965zm31.842 0l11.194-6.481 11.193 6.481v12.965l-11.193 6.484-11.194-6.484v-12.965zm31.846 0l11.194-6.481 11.192 6.481v12.965l-11.192 6.484-11.194-6.484v-12.965zm31.845 0l11.192-6.481 11.193 6.481v12.965l-11.193 6.484-11.192-6.484v-12.965zm31.844 0l11.192-6.481 11.194 6.481v12.965l-11.194 6.484-11.192-6.484v-12.965zm31.845 0l11.19-6.481 11.193 6.481v12.965l-11.193 6.484-11.19-6.484v-12.965zm-238.833-27.663l11.192-6.483 11.193 6.483v12.966l-11.193 6.482-11.192-6.482v-12.966zm31.842 0l11.194-6.483 11.194 6.483v12.966l-11.194 6.482-11.194-6.482v-12.966zm31.845 0l11.194-6.483 11.192 6.483v12.966l-11.192 6.482-11.194-6.482v-12.966zm31.846 0l11.19-6.483 11.194 6.483v12.966l-11.194 6.482-11.19-6.482v-12.966zm31.844 0l11.193-6.483 11.194 6.483v12.966l-11.194 6.482-11.193-6.482v-12.966zm31.844 0l11.193-6.483 11.193 6.483v12.966l-11.193 6.482-11.193-6.482v-12.966zm31.843 0l11.194-6.483 11.193 6.483v12.966l-11.193 6.482-11.194-6.482v-12.966zm-206.987-27.661l11.194-6.484 11.189 6.484v12.963l-11.189 6.482-11.194-6.482v-12.963zm31.843 0l11.194-6.484 11.193 6.484v12.963l-11.193 6.482-11.194-6.482v-12.963zm31.845 0l11.194-6.484 11.193 6.484v12.963l-11.193 6.482-11.194-6.482v-12.963zm31.846 0l11.192-6.484 11.191 6.484v12.963l-11.191 6.482-11.192-6.482v-12.963zm31.842 0l11.194-6.484 11.193 6.484v12.963l-11.193 6.482-11.194-6.482v-12.963zm31.846 0l11.194-6.484 11.192 6.484v12.963l-11.192 6.482-11.194-6.482v-12.963zm31.845 0l11.192-6.484 11.193 6.484v12.963l-11.193 6.482-11.192-6.482v-12.963zm-206.989-27.664l11.191-6.483 11.193 6.483v12.965l-11.193 6.484-11.191-6.484v-12.965zm31.845 0l11.192-6.483 11.193 6.483v12.965l-11.193 6.484-11.192-6.484v-12.965zm31.842 0l11.194-6.483 11.194 6.483v12.965l-11.194 6.484-11.194-6.484v-12.965zm31.845 0l11.194-6.483 11.192 6.483v12.965l-11.192 6.484-11.194-6.484v-12.965zm31.846 0l11.19-6.483 11.194 6.483v12.965l-11.194 6.484-11.19-6.484v-12.965zm31.844 0l11.193-6.483 11.194 6.483v12.965l-11.194 6.484-11.193-6.484v-12.965zm31.844 0l11.193-6.483 11.193 6.483v12.965l-11.193 6.484-11.193-6.484v-12.965zm-206.987-27.661l11.19-6.484 11.193 6.484v12.963l-11.193 6.483-11.19-6.483v-12.963zm31.843 0l11.194-6.484 11.189 6.484v12.963l-11.189 6.483-11.194-6.483v-12.963zm31.843 0l11.194-6.484 11.193 6.484v12.963l-11.193 6.483-11.194-6.483v-12.963zm31.845 0l11.194-6.484 11.193 6.484v12.963l-11.193 6.483-11.194-6.483v-12.963zm31.846 0l11.192-6.484 11.191 6.484v12.963l-11.191 6.483-11.192-6.483v-12.963zm31.842 0l11.194-6.484 11.193 6.484v12.963l-11.193 6.483-11.194-6.483v-12.963zm31.846 0l11.194-6.484 11.192 6.484v12.963l-11.192 6.483-11.194-6.483v-12.963zM185.089-435.29l11.194-6.481 11.193 6.481v12.964l-11.193 6.484-11.194-6.484v-12.964zm31.847 0l11.191-6.481 11.193 6.481v12.964l-11.193 6.484-11.191-6.484v-12.964zm31.845 0l11.192-6.481 11.193 6.481v12.964l-11.193 6.484-11.192-6.484v-12.964zm31.842 0l11.194-6.481 11.194 6.481v12.964l-11.194 6.484-11.194-6.484v-12.964zm31.845 0l11.194-6.481 11.192 6.481v12.964l-11.192 6.484-11.194-6.484v-12.964zm31.846 0l11.19-6.481 11.194 6.481v12.964l-11.194 6.484-11.19-6.484v-12.964zm-143.299-27.664l11.19-6.481 11.193 6.481v12.968l-11.193 6.481-11.19-6.481v-12.968zm31.843 0l11.194-6.481 11.189 6.481v12.968l-11.189 6.481-11.194-6.481v-12.968zm31.843 0l11.194-6.481 11.193 6.481v12.968l-11.193 6.481-11.194-6.481v-12.968zm31.845 0l11.194-6.481 11.193 6.481v12.968l-11.193 6.481-11.194-6.481v-12.968zm-111.457-27.661l11.194-6.483 11.193 6.484v12.963l-11.193 6.483-11.194-6.483v-12.964zm31.847.001l11.191-6.484 11.193 6.484v12.963l-11.193 6.483-11.191-6.483v-12.963zm31.845 0l11.192-6.484 11.193 6.484v12.963l-11.193 6.483-11.192-6.483v-12.963zm31.842 0l11.194-6.484 11.194 6.484v12.963l-11.194 6.483-11.194-6.483v-12.963zm-79.608-27.662l11.19-6.484 11.193 6.484v12.963l-11.193 6.483-11.19-6.483v-12.963zm31.843 0l11.194-6.484 11.189 6.484v12.963l-11.189 6.483-11.194-6.483v-12.963zm31.843 0l11.194-6.484 11.193 6.484v12.963l-11.193 6.483-11.194-6.483v-12.963z" fill="url(#paint0_linear)"/></g></g><defs><linearGradient id="paint0_linear" x1="35.49" y1="212.084" x2="818.631" y2="86.478" gradientUnits="userSpaceOnUse"><stop stop-color="#E63E24"/><stop offset="1" stop-color="#FFED00"/></linearGradient><clipPath id="clip0"><path fill="#fff" d="M0 0h690v920H0z"/></clipPath><clipPath id="clip1"><path fill="#fff" transform="translate(44 -120)" d="M0 0h646v1080H0z"/></clipPath></defs></svg>