<svg width="541" height="460" fill="none" xmlns="http://www.w3.org/2000/svg"><g clip-path="url(#clip0)"><path d="M399.911-988.939l-11.194-6.484-11.193 6.484v12.964l11.193 6.484 11.194-6.484v-12.964zm-612.609 336.327l-3.63-2.102-3.631 2.102v4.206l3.631 2.103 3.63-2.103v-4.206zm15.923-27.662l-3.63-2.102-3.632 2.102v4.208l3.632 2.102 3.63-2.102v-4.208zm-15.923-27.662l-3.63-2.103-3.631 2.103v4.207l3.631 2.103 3.63-2.103v-4.207zm15.923-27.663l-3.63-2.102-3.632 2.102v4.208l3.632 2.102 3.63-2.102v-4.208zm99.315 385.083l-7.412-4.291-7.413 4.291v8.587l7.413 4.295 7.412-4.295v-8.587zm0-55.324l-7.412-4.293-7.413 4.293v8.588l7.413 4.29 7.412-4.29v-8.588zm15.921-27.661l-7.41-4.295-7.413 4.295v8.585l7.412 4.294 7.411-4.294v-8.585zm-31.844 0l-7.412-4.293-7.412 4.293v8.585l7.412 4.292 7.412-4.292v-8.585zm15.923-27.663l-7.412-4.295-7.413 4.295v8.585l7.413 4.296 7.412-4.296v-8.585zm15.921-27.664l-7.41-4.29-7.413 4.29v8.587l7.412 4.295 7.411-4.295v-8.587zm-31.844 0l-7.412-4.29-7.412 4.29v8.587l7.412 4.294 7.412-4.294v-8.587zm47.766-27.661l-7.41-4.293-7.413 4.293v8.587l7.412 4.292 7.41-4.292v-8.587zm-31.843 0l-7.412-4.293-7.413 4.293v8.587l7.413 4.292 7.412-4.292v-8.587zm-31.845 0l-7.411-4.293-7.412 4.293v8.587l7.412 4.292 7.411-4.292v-8.587zm47.766-27.663l-7.41-4.293-7.413 4.293v8.586l7.412 4.295 7.411-4.295v-8.586zm-31.844 0l-7.412-4.293-7.412 4.293v8.586l7.412 4.294 7.412-4.294v-8.586zm47.766-27.662l-7.41-4.293-7.413 4.293v8.585l7.412 4.293 7.41-4.293v-8.585zm-31.843 0l-7.412-4.293-7.413 4.293v8.585l7.413 4.293 7.412-4.293v-8.585zm-31.845 0l-7.411-4.293-7.412 4.293v8.585l7.412 4.293 7.411-4.293v-8.585zm79.61-27.662l-7.412-4.292-7.41 4.292v8.586l7.41 4.292 7.413-4.292v-8.586zm-31.844 0l-7.41-4.292-7.413 4.292v8.586l7.412 4.293 7.411-4.293v-8.586zm-31.844 0l-7.412-4.292-7.412 4.292v8.586l7.412 4.292 7.412-4.292v-8.586zm-31.845 0l-7.412-4.292-7.41 4.292v8.586l7.41 4.293 7.412-4.293v-8.586zm79.61-27.663l-7.41-4.294-7.412 4.294v8.588l7.412 4.291 7.41-4.291v-8.588zm-31.842 0l-7.412-4.294-7.413 4.294v8.588l7.413 4.291 7.412-4.291v-8.588zm-31.845 0l-7.411-4.294-7.412 4.294v8.588l7.412 4.291 7.411-4.291v-8.588zm47.766-27.662l-7.41-4.293-7.413 4.293v8.586l7.412 4.292 7.411-4.292v-8.586zm-31.844 0l-7.412-4.293-7.412 4.293v8.586l7.412 4.292 7.412-4.292v-8.586zm15.923-27.663l-7.412-4.293-7.413 4.293v8.586l7.413 4.295 7.412-4.295v-8.586zm-66.211 56.785l-4.89-2.833-4.892 2.833v5.668l4.892 2.833 4.89-2.833v-5.668zm15.923-27.663l-4.892-2.832-4.89 2.832v5.667l4.89 2.833 4.892-2.833v-5.667zm-31.846 0l-4.889-2.832-4.891 2.832v5.667l4.891 2.833 4.889-2.833v-5.667zm15.923-27.662l-4.89-2.832-4.892 2.832v5.667l4.892 2.833 4.89-2.833v-5.667zm-15.923-27.662l-4.889-2.834-4.891 2.834v5.667l4.891 2.832 4.889-2.832v-5.667zM436.788 428.155l-.306-.178-.304.178v.353l.304.177.306-.177v-.353zm-31.843 0l-.305-.178-.306.178v.353l.306.177.305-.177v-.353zm-31.845 0l-.305-.178-.305.178v.353l.305.177.305-.177v-.353zm-31.844 0l-.308-.178-.305.178v.353l.305.177.308-.177v-.353zm-31.846 0l-.305-.178-.306.178v.353l.306.177.305-.177v-.353zm-31.844 0l-.306-.178-.304.178v.353l.304.177.306-.177v-.353zm-31.845 0l-.305-.178-.305.178v.353l.305.177.305-.177v-.353zm-31.842 0l-.307-.178-.306.178v.353l.306.177.307-.177v-.353zm-31.848 0l-.305-.178-.305.178v.353l.305.177.305-.177v-.353zm206.992-27.662l-.306-.177-.305.177v.354l.305.177.306-.177v-.354zm-31.846 0l-.304-.177-.308.177v.354l.308.177.304-.177v-.354zm-31.845 0l-.305-.177-.306.177v.354l.306.177.305-.177v-.354zm-31.844 0l-.305-.177-.305.177v.354l.305.177.305-.177v-.354zm-31.843 0l-.307-.177-.305.177v.354l.305.177.307-.177v-.354zm-31.845 0l-.304-.177-.307.177v.354l.307.177.304-.177v-.354zm-31.845 0l-.306-.177-.305.177v.354l.305.177.306-.177v-.354zm-31.845 0l-.305-.177-.306.177v.354l.306.177.305-.177v-.354zm-31.844 0l-.305-.177-.305.177v.354l.305.177.305-.177v-.354zm175.144-27.674l-.305-.177-.306.177v.354l.306.177.305-.177v-.354zm-31.844 0l-.306-.177-.304.177v.354l.304.177.306-.177v-.354zm-31.845 0l-.305-.177-.305.177v.354l.305.177.305-.177v-.354zm-31.842 0l-.307-.177-.306.177v.354l.306.177.307-.177v-.354zm-31.848 0l-.305-.177-.305.177v.354l.305.177.305-.177v-.354zm47.769-27.662l-.304-.176-.307.176v.355l.307.177.304-.177v-.355zm-78.663 27.119l-1.254-.721-1.254.721v1.453l1.254.721 1.254-.721v-1.453zm-31.846 0l-1.252-.721-1.254.721v1.453l1.254.721 1.252-.721v-1.453zm-31.844 0l-1.25-.721-1.257.721v1.453l1.256.721 1.251-.721v-1.453zm-31.842 0l-1.255-.721-1.254.721v1.453l1.254.721 1.255-.721v-1.453zm143.299-27.662l-1.255-.733-1.253.733v1.453l1.253.721 1.255-.721v-1.453zm-31.846 0l-1.253-.733-1.254.733v1.453l1.254.721 1.253-.721v-1.453zm-31.844 0l-1.253-.733-1.253.733v1.453l1.253.721 1.253-.721v-1.453zm-31.844 0l-1.253-.733-1.254.733v1.453l1.254.721 1.253-.721v-1.453zm-31.844 0l-1.254-.733-1.253.733v1.453l1.253.721 1.254-.721v-1.453zm-31.845 0l-1.253-.733-1.254.733v1.453l1.254.721 1.253-.721v-1.453zm143.299-27.662l-1.254-.732-1.252.732v1.454l1.252.721 1.254-.721v-1.454zm-31.843 0l-1.254-.732-1.254.732v1.454l1.254.721 1.254-.721v-1.454zm-31.846 0l-1.252-.732-1.254.732v1.454l1.254.721 1.252-.721v-1.454zm-31.844 0l-1.25-.732-1.257.732v1.454l1.256.721 1.251-.721v-1.454zm47.767-27.66l-1.253-.734-1.253.734v1.453l1.253.72 1.253-.72v-1.453zm-78.662 27.104l-2.202-1.277-2.202 1.277v2.554l2.202 1.277 2.202-1.277v-2.554zm-31.846 0l-2.2-1.277-2.203 1.277v2.554l2.203 1.277 2.2-1.277v-2.554zm-31.843 0l-2.202-1.277-2.203 1.277v2.554l2.203 1.277 2.202-1.277v-2.554zm111.456-27.661l-2.202-1.277-2.204 1.277v2.554l2.204 1.276 2.202-1.276v-2.554zm-31.844 0l-2.203-1.277-2.202 1.277v2.554l2.202 1.276 2.203-1.276v-2.554zm-31.845 0l-2.202-1.277-2.203 1.277v2.554l2.203 1.276 2.202-1.276v-2.554zm-31.845 0l-2.203-1.277-2.201 1.277v2.554l2.201 1.276 2.203-1.276v-2.554zm-31.844 0l-2.202-1.277-2.202 1.277v2.554l2.202 1.276 2.202-1.276v-2.554zm143.3-27.661l-2.202-1.277-2.203 1.277v2.554l2.203 1.276 2.202-1.276v-2.554zm-31.846 0l-2.199-1.277-2.203 1.277v2.554l2.203 1.276 2.2-1.276v-2.554zm-31.843 0l-2.202-1.277-2.202 1.277v2.554l2.202 1.276 2.202-1.276v-2.554zm-31.846 0l-2.2-1.277-2.203 1.277v2.554l2.203 1.276 2.2-1.276v-2.554zm-31.843 0l-2.202-1.277-2.203 1.277v2.554l2.203 1.276 2.202-1.276v-2.554zm-31.844 0l-2.202-1.277-2.202 1.277v2.554l2.202 1.276 2.202-1.276v-2.554zm143.3-27.662l-2.202-1.277-2.204 1.277v2.554l2.204 1.277 2.202-1.277v-2.554zm-31.844 0l-2.203-1.277-2.202 1.277v2.554l2.202 1.277 2.203-1.277v-2.554zm-31.845 0l-2.202-1.277-2.203 1.277v2.554l2.203 1.277 2.202-1.277v-2.554zm-31.845 0l-2.203-1.277-2.201 1.277v2.554l2.201 1.277 2.203-1.277v-2.554zm-31.844 0l-2.202-1.277-2.202 1.277v2.554l2.202 1.277 2.202-1.277v-2.554zm-31.845 0l-2.203-1.277-2.2 1.277v2.554l2.2 1.277 2.203-1.277v-2.554zm143.3-27.661l-2.2-1.274-2.203 1.274v2.553l2.203 1.275 2.2-1.275v-2.553zm-31.844 0l-2.202-1.274-2.202 1.274v2.553l2.202 1.275 2.202-1.275v-2.553zm-31.846 0l-2.2-1.274-2.203 1.274v2.553l2.203 1.275 2.2-1.275v-2.553zm-31.843 0l-2.202-1.274-2.203 1.274v2.553l2.203 1.275 2.202-1.275v-2.553zm-31.844 0l-2.202-1.274-2.202 1.274v2.553l2.202 1.275 2.202-1.275v-2.553zm-31.845 0l-2.202-1.274-2.203 1.274v2.553l2.203 1.275 2.203-1.275v-2.553zm143.301-27.662l-2.203-1.275-2.202 1.275v2.551l2.202 1.275 2.203-1.275v-2.551zm-31.845 0l-2.202-1.275-2.203 1.275v2.551l2.203 1.275 2.202-1.275v-2.551zm-31.845 0l-2.203-1.275-2.201 1.275v2.551l2.201 1.275 2.203-1.275v-2.551zm-31.844 0l-2.202-1.275-2.202 1.275v2.551l2.202 1.275 2.202-1.275v-2.551zm-31.845 0l-2.203-1.275-2.2 1.275v2.551l2.2 1.275 2.203-1.275v-2.551zm111.456-27.662l-2.202-1.276-2.202 1.276v2.551l2.202 1.276 2.202-1.276v-2.551zm-31.846 0l-2.2-1.276-2.203 1.276v2.551l2.203 1.276 2.2-1.276v-2.551zm-31.843 0l-2.202-1.276-2.203 1.276v2.551l2.203 1.276 2.202-1.276v-2.551zm79.612-27.662l-2.203-1.276-2.202 1.276v2.551l2.202 1.275 2.203-1.275v-2.551zm-31.845 0l-2.202-1.276-2.203 1.276v2.551l2.203 1.275 2.202-1.275v-2.551zm-76.3 25.742l-5.513-3.195-5.516 3.195v6.391l5.516 3.193 5.514-3.193v-6.391zm-31.844 0l-5.514-3.195-5.516 3.195v6.391l5.516 3.194 5.514-3.194v-6.391zm79.611-27.662l-5.515-3.194-5.515 3.194v6.39l5.515 3.193 5.516-3.193v-6.39zm-31.843 0l-5.515-3.194-5.515 3.194v6.39l5.515 3.193 5.515-3.193v-6.39zm-31.845 0l-5.516-3.194-5.513 3.194v6.39l5.513 3.193 5.516-3.193v-6.39zm-31.844 0l-5.515-3.194-5.514 3.194v6.39l5.514 3.193 5.515-3.193v-6.39zm143.3-27.662l-5.515-3.195-5.515 3.195v6.39l5.515 3.193 5.515-3.192v-6.391zm-31.845 0l-5.514-3.195-5.515 3.195v6.39l5.515 3.193 5.514-3.192v-6.391zm-31.845 0l-5.514-3.195-5.515 3.195v6.39l5.515 3.193 5.514-3.192v-6.391zm-31.844 0l-5.514-3.195-5.516 3.195v6.39l5.516 3.193 5.514-3.192v-6.391zm-31.845 0l-5.514-3.195-5.516 3.195v6.39l5.516 3.193 5.514-3.192v-6.391zm-31.843 0l-5.515-3.195-5.515 3.195v6.39l5.515 3.193 5.515-3.192v-6.391zm143.3-27.663l-5.515-3.193-5.516 3.194v6.388l5.516 3.194 5.515-3.194V65.52zm-31.845 0l-5.516-3.193-5.515 3.194v6.388l5.515 3.194 5.516-3.194V65.52zm-31.844 0l-5.515-3.193-5.515 3.194v6.388l5.515 3.194 5.515-3.194V65.52zm-31.845 0l-5.516-3.193-5.513 3.194v6.388l5.513 3.194 5.516-3.194V65.52zm-31.844 0l-5.515-3.193-5.514 3.194v6.388l5.514 3.194 5.515-3.194V65.52zM28.02 37.856l-5.514-3.193-5.515 3.193v6.393l5.515 3.194 5.514-3.194v-6.393zm-31.845 0l-5.514-3.193-5.515 3.193v6.393l5.515 3.194 5.514-3.194v-6.393zm-31.844 0l-5.514-3.193-5.516 3.193v6.393l5.516 3.194 5.514-3.194v-6.393zm-31.845 0l-5.514-3.193-5.516 3.193v6.393l5.516 3.194 5.514-3.194v-6.393zM43.943 10.194l-5.515-3.195-5.516 3.195v6.39l5.516 3.195 5.515-3.194v-6.391zM-97.149 36.578l-7.723-4.473-7.723 4.473v8.95l7.723 4.473 7.723-4.473v-8.95zM14.306 8.914L6.582 4.442l-7.723 4.472v8.95l7.723 4.473 7.724-4.473v-8.95zm-31.843 0l-7.724-4.472-7.723 4.472v8.95l7.723 4.473 7.724-4.473v-8.95zm-31.845 0l-7.725-4.472-7.723 4.472v8.95l7.723 4.473 7.725-4.473v-8.95zm-31.845 0l-7.723-4.472-7.723 4.472v8.95l7.723 4.473 7.724-4.473v-8.95zM30.23-18.747l-7.723-4.474-7.725 4.474V-9.8l7.725 4.475L30.229-9.8v-8.947zm-31.843 0l-7.725-4.474-7.724 4.474V-9.8l7.724 4.475L-1.614-9.8v-8.947zm-31.845 0l-7.724-4.474-7.725 4.474V-9.8l7.725 4.475 7.724-4.475v-8.947zm-31.845 0l-7.724-4.474-7.723 4.474V-9.8l7.723 4.475 7.724-4.475v-8.947zm-31.845 0l-7.723-4.474-7.723 4.474V-9.8l7.723 4.475 7.723-4.475v-8.947zm143.3-27.66l-7.723-4.476-7.724 4.475v8.947l7.724 4.473 7.723-4.473v-8.947zm-31.845 0l-7.724-4.476-7.723 4.475v8.947l7.723 4.473 7.724-4.473v-8.947zm-31.843 0l-7.724-4.476-7.723 4.475v8.947l7.723 4.473 7.724-4.473v-8.947zm-31.845 0l-7.725-4.476-7.723 4.475v8.947l7.723 4.473 7.725-4.473v-8.947zm-31.845 0l-7.723-4.476-7.723 4.475v8.947l7.723 4.473 7.724-4.473v-8.947zM30.23-74.07l-7.723-4.475-7.725 4.475v8.947l7.725 4.473 7.723-4.473v-8.947zm-31.843 0l-7.725-4.475-7.724 4.475v8.947l7.724 4.473 7.725-4.473v-8.947zm-31.845 0l-7.724-4.475-7.725 4.475v8.947l7.725 4.473 7.724-4.473v-8.947zm-31.845 0l-7.724-4.475-7.723 4.475v8.947l7.723 4.473 7.724-4.473v-8.947zm-31.845 0l-7.723-4.475-7.723 4.475v8.947l7.723 4.473 7.723-4.473v-8.947zm143.3-27.664l-7.723-4.473-7.724 4.473v8.95l7.724 4.473 7.723-4.473v-8.95zm-31.845 0l-7.724-4.473-7.723 4.473v8.95l7.723 4.473 7.724-4.473v-8.95zm-31.843 0l-7.724-4.473-7.723 4.473v8.95l7.723 4.473 7.724-4.473v-8.95zm-31.845 0l-7.725-4.473-7.723 4.473v8.95l7.723 4.473 7.725-4.473v-8.95zm79.611-27.661l-7.723-4.474-7.725 4.474v8.947l7.725 4.473 7.723-4.473v-8.947zm-31.843 0l-7.725-4.474-7.724 4.474v8.947l7.724 4.473 7.725-4.473v-8.947zm47.765-27.663l-7.723-4.474-7.724 4.474v8.947l7.724 4.474 7.723-4.474v-8.947zm-31.845 0l-7.724-4.474-7.723 4.474v8.947l7.723 4.474 7.724-4.474v-8.947zm-93.324 54.045l-9.932-5.752-9.933 5.752v11.507l9.933 5.752 9.932-5.752v-11.507zm47.767-27.66l-9.932-5.756-9.934 5.756v11.503l9.934 5.753 9.932-5.753v-11.503zm-31.845 0l-9.932-5.754-9.931 5.754v11.503l9.931 5.753 9.932-5.753v-11.503zm-31.844 0l-9.932-5.754-9.933 5.754v11.503l9.933 5.753 9.932-5.753v-11.503zm79.612-27.665l-9.933-5.752-9.933 5.752v11.506l9.933 5.752 9.933-5.752v-11.506zm-31.846 0l-9.933-5.752-9.932 5.752v11.506l9.932 5.752 9.933-5.752v-11.506zm-31.844 0l-9.932-5.752-9.933 5.752v11.506l9.933 5.754 9.932-5.754v-11.506zM32.437-186l-9.931-5.751L12.573-186v11.507l9.933 5.75 9.93-5.75V-186zM.594-186l-9.933-5.751L-19.27-186v11.507l9.93 5.75 9.934-5.75V-186zm-31.845 0l-9.932-5.754-9.934 5.754v11.507l9.934 5.75 9.932-5.75V-186zm-31.845 0l-9.932-5.751-9.931 5.751v11.507l9.931 5.75 9.932-5.75V-186zm-31.844 0l-9.932-5.751-9.933 5.751v11.507l9.933 5.75 9.932-5.75V-186zm111.455-27.662l-9.933-5.752-9.931 5.752v11.504l9.931 5.755 9.933-5.755v-11.504zm-31.843 0l-9.933-5.752-9.933 5.752v11.504l9.933 5.754 9.933-5.754v-11.504zm-31.846 0l-9.933-5.752-9.932 5.752v11.504l9.932 5.754 9.933-5.754v-11.504zm-31.844 0l-9.932-5.752-9.933 5.752v11.504l9.933 5.755 9.932-5.755v-11.504zm111.455-27.663l-9.931-5.753-9.933 5.753v11.507l9.933 5.753 9.93-5.753v-11.507zm-31.843 0l-9.933-5.753-9.931 5.753v11.507l9.93 5.753 9.934-5.753v-11.507zm-31.845 0l-9.932-5.753-9.934 5.753v11.507l9.934 5.753 9.932-5.753v-11.507zm-31.845 0l-9.932-5.753-9.931 5.753v11.507l9.931 5.753 9.932-5.753v-11.507zm-31.844 0l-9.932-5.753-9.933 5.753v11.507l9.933 5.753 9.932-5.753v-11.507zm111.455-27.662l-9.933-5.754-9.931 5.754v11.505l9.931 5.753 9.933-5.753v-11.505zm-31.843 0l-9.933-5.752-9.933 5.752v11.505l9.933 5.753 9.933-5.753v-11.505zm-31.846 0l-9.933-5.752-9.932 5.752v11.505l9.932 5.753 9.933-5.753v-11.505zm-31.844 0l-9.932-5.754-9.933 5.754v11.505l9.933 5.753 9.932-5.753v-11.505zM.594-296.649l-9.933-5.753-9.931 5.753v11.503l9.93 5.754 9.934-5.754v-11.503zm-31.845 0l-9.932-5.753-9.934 5.753v11.503l9.934 5.756 9.932-5.756v-11.503zm-31.845 0l-9.932-5.753-9.931 5.753v11.503l9.931 5.754 9.932-5.754v-11.503zm-31.844 0l-9.932-5.753-9.933 5.753v11.503l9.933 5.754 9.932-5.754v-11.503zm111.455-27.662l-9.933-5.755-9.931 5.755v11.505l9.931 5.753 9.933-5.753v-11.505zm-31.843 0l-9.933-5.753-9.933 5.753v11.505l9.933 5.753 9.933-5.753v-11.505zm-31.846 0l-9.933-5.753-9.932 5.753v11.505l9.932 5.753 9.933-5.753v-11.505zm-31.844 0l-9.932-5.755-9.933 5.755v11.505l9.933 5.753 9.932-5.753v-11.505zM.594-351.974l-9.933-5.753-9.931 5.753v11.504l9.93 5.753 9.934-5.753v-11.504zm-31.845 0l-9.932-5.753-9.934 5.753v11.504l9.934 5.754 9.932-5.754v-11.504zm-31.845 0l-9.932-5.753-9.931 5.753v11.504l9.931 5.753 9.932-5.753v-11.504zm47.768-27.665l-9.933-5.75-9.933 5.75v11.509l9.933 5.75 9.933-5.75v-11.509zm-31.846 0l-9.933-5.75-9.932 5.75v11.509l9.932 5.75 9.933-5.75v-11.509zm-31.844 0l-9.932-5.75-9.933 5.75v11.509l9.933 5.75 9.932-5.75v-11.509zm79.612-27.66l-9.933-5.753-9.931 5.753v11.505l9.93 5.752 9.934-5.752v-11.505zm-31.845 0l-9.932-5.753-9.934 5.753v11.505l9.934 5.752 9.932-5.752v-11.505zm-31.845 0l-9.932-5.753-9.931 5.753v11.505l9.931 5.752 9.932-5.752v-11.505zm47.768-27.662l-9.933-5.753-9.933 5.753v11.503l9.933 5.754 9.933-5.754v-11.503zm-31.846 0l-9.933-5.753-9.932 5.753v11.503l9.932 5.754 9.933-5.754v-11.503zm15.923-27.662l-9.932-5.754-9.934 5.754v11.503l9.934 5.755 9.932-5.755v-11.503zm-31.845 0l-9.932-5.753-9.931 5.753v11.503l9.931 5.754 9.932-5.754v-11.503zm47.768-27.663l-9.933-5.752-9.933 5.752v11.504l9.933 5.753 9.933-5.753v-11.504zm-31.846 0l-9.933-5.752-9.932 5.752v11.504l9.932 5.753 9.933-5.753v-11.504zm15.923-27.661l-9.932-5.755-9.934 5.755v11.504l9.934 5.752 9.932-5.752v-11.504zm15.923-27.665l-9.933-5.754-9.933 5.754v11.506l9.933 5.752 9.933-5.752v-11.506zm-31.846 0l-9.933-5.754-9.932 5.754v11.506l9.932 5.752 9.933-5.752v-11.506zm15.923-27.661l-9.932-5.754-9.934 5.754v11.504l9.934 5.753 9.932-5.753v-11.504zm15.923-27.663l-9.933-5.753-9.933 5.753v11.505l9.933 5.754 9.933-5.754v-11.505zm-198.63 281.003l-2.37-1.373-2.37 1.373v2.749l2.37 1.372 2.37-1.372v-2.749zm0-55.327l-2.37-1.371-2.37 1.372v2.748l2.37 1.373 2.37-1.372v-2.75zm0-55.323l-2.37-1.373-2.37 1.373v2.748l2.37 1.373 2.37-1.373v-2.748zm15.922-27.662l-2.369-1.373-2.371 1.373v2.747l2.371 1.374 2.369-1.374v-2.747zm-15.922-27.662l-2.37-1.371-2.37 1.372v2.748l2.37 1.371 2.37-1.371v-2.749zm15.922-27.663l-2.369-1.372-2.371 1.372v2.748l2.371 1.372 2.369-1.372v-2.748zm-15.922-27.662l-2.37-1.373-2.37 1.373v2.748l2.37 1.372 2.37-1.372v-2.748zm15.922-27.663l-2.369-1.373-2.371 1.373v2.748l2.371 1.372 2.369-1.372v-2.748zm-15.922-27.661l-2.37-1.373-2.37 1.373v2.746l2.37 1.374 2.37-1.374v-2.746zm15.922-27.664l-2.369-1.373-2.371 1.373v2.748l2.371 1.373 2.369-1.373v-2.748zm-12.141 468.073l-6.151-3.563-6.151 3.563v7.126l6.151 3.563 6.151-3.563v-7.126zm47.767-27.663l-6.151-3.564-6.151 3.564v7.126l6.151 3.562 6.151-3.562v-7.126zm-31.845 0l-6.15-3.564-6.152 3.564v7.126l6.152 3.562 6.15-3.562v-7.126zm47.767-27.662l-6.152-3.562-6.151 3.562v7.125l6.151 3.564 6.152-3.564v-7.125zm-31.846 0l-6.149-3.561-6.152 3.561v7.125l6.152 3.564 6.149-3.564v-7.125zm-31.843 0l-6.151-3.561-6.151 3.561v7.125l6.151 3.564 6.151-3.564v-7.125zm79.612-27.664l-6.151-3.561-6.153 3.561v7.129l6.153 3.562 6.151-3.562v-7.129zm-31.845 0l-6.151-3.561-6.151 3.561v7.129l6.151 3.562 6.151-3.562v-7.129zm-31.845 0l-6.15-3.561-6.152 3.561v7.129l6.152 3.562 6.15-3.562v-7.129zm79.611-27.661l-6.151-3.563-6.151 3.563v7.126l6.151 3.562 6.151-3.562v-7.126zm-31.844 0l-6.152-3.563-6.151 3.563v7.126l6.151 3.562 6.152-3.562v-7.126zm-31.846 0l-6.149-3.563-6.152 3.563v7.126l6.152 3.562 6.149-3.562v-7.126zm47.769-27.663l-6.151-3.562-6.153 3.562v7.127l6.153 3.562 6.151-3.562v-7.127zm-31.845 0l-6.151-3.562-6.151 3.562v7.127l6.151 3.562 6.151-3.562v-7.127zm47.766-27.662l-6.151-3.563-6.151 3.563v7.127l6.151 3.561 6.151-3.561v-7.127zm-31.844 0l-6.152-3.563-6.151 3.563v7.127l6.151 3.561 6.152-3.561v-7.127zm15.922-27.662l-6.15-3.563-6.153 3.563v7.125l6.153 3.564 6.15-3.564v-7.125zm-31.844 0l-6.151-3.563-6.151 3.563v7.125l6.151 3.564 6.151-3.564v-7.125zm47.766-27.664l-6.151-3.562-6.151 3.562v7.127l6.151 3.562 6.151-3.562v-7.127zm-31.844 0l-6.152-3.562-6.151 3.562v7.127l6.151 3.562 6.152-3.562v-7.127zm15.922-27.661l-6.15-3.564-6.153 3.564v7.124l6.153 3.562 6.15-3.562v-7.124zm-15.922-27.662l-6.152-3.563-6.151 3.563v7.125l6.151 3.563 6.152-3.563v-7.125zm15.922-27.663l-6.15-3.563-6.153 3.563v7.126l6.153 3.563 6.15-3.563v-7.126zm-15.922-27.663l-6.152-3.562-6.151 3.562v7.127l6.151 3.562 6.152-3.562v-7.127zm0-55.325l-6.152-3.563-6.151 3.563v7.127l6.151 3.564 6.152-3.564v-7.127zm-66.21 278.084l-3.63-2.103-3.631 2.103v4.206l3.631 2.103 3.63-2.103v-4.206zm15.923-27.66l-3.63-2.104-3.632 2.104v4.205l3.632 2.103 3.63-2.103v-4.205zm15.922-27.664l-3.63-2.103-3.631 2.103v4.207l3.631 2.103 3.63-2.103v-4.207zm-15.922-27.663l-3.63-2.101-3.632 2.101v4.207l3.632 2.103 3.63-2.103v-4.207zm15.922-27.664l-3.63-2.1-3.631 2.1v4.209l3.631 2.101 3.63-2.101v-4.209zm15.922-27.661l-3.63-2.103-3.631 2.103v4.206l3.631 2.101 3.63-2.103v-4.204zm-31.844 0l-3.63-2.103-3.632 2.103v4.206l3.632 2.101 3.63-2.101v-4.206zm15.922-27.663l-3.63-2.102-3.631 2.102v4.208l3.631 2.103 3.63-2.103v-4.208zm15.922-27.662l-3.63-2.103-3.631 2.103v4.208l3.631 2.103 3.63-2.103v-4.208zm-15.922-27.662l-3.63-2.1-3.631 2.1v4.207l3.631 2.104 3.63-2.104v-4.207zm15.922-27.663l-3.63-2.101-3.631 2.101v4.208l3.631 2.101 3.63-2.103v-4.206zm-15.922-27.662l-3.63-2.103-3.631 2.103v4.208l3.631 2.102 3.63-2.102v-4.208zm15.922-27.662l-3.63-2.103-3.631 2.103v4.206l3.631 2.102 3.63-2.102v-4.206zm-15.922-27.662l-3.63-2.102-3.631 2.102v4.206l3.631 2.103 3.63-2.103v-4.206zM516.401 455.816l-.306-.177-.305.177v.353l.305.177.306-.177v-.353zm-31.847 0l-.304-.177-.305.177v.353l.305.177.304-.177v-.353zm-31.844 0l-.305-.177-.305.177v.353l.305.177.305-.177v-.353zm-31.844 0l-.306-.177-.305.177v.353l.305.177.306-.177v-.353zm-31.843 0l-.306-.177-.305.177v.353l.305.177.306-.177v-.353zm-31.846 0l-.304-.177-.308.177v.353l.308.177.304-.177v-.353zm-31.845 0l-.305-.177-.306.177v.353l.306.177.305-.177v-.353zm-31.844 0l-.305-.177-.305.177v.353l.305.177.305-.177v-.353zm-31.843 0l-.307-.177-.305.177v.353l.305.177.307-.177v-.353zm-31.845 0l-.304-.177-.307.177v.353l.307.177.304-.177v-.353zm-31.845 0l-.306-.177-.305.177v.353l.305.177.306-.177v-.353zm-31.845 0l-.305-.177-.306.177v.353l.306.177.305-.177v-.353zm-31.844 0l-.305-.177-.305.177v.353l.305.177.305-.177v-.353zm-31.845 0l-.304-.177-.305.177v.353l.305.177.304-.177v-.353zm-31.844 0l-.305-.177-.305.177v.353l.305.177.305-.177v-.353zm-31.844 0l-.305-.177-.305.177v.353l.305.177.305-.177v-.353zm111.455-27.661l-.305-.178-.305.178v.353l.305.177.305-.177v-.353zm-31.844 0l-.305-.178-.305.178v.353l.305.177.305-.177v-.353zm-31.845 0l-.303-.178-.308.178v.353l.308.177.303-.177v-.353zM7.837 455.259l-1.255-.72-1.252.72v1.454l1.252.733 1.255-.733v-1.454zm-31.845 0l-1.253-.72-1.254.72v1.454l1.254.733 1.253-.733v-1.454zm-31.844 0l-1.255-.72-1.252.72v1.454l1.252.733 1.255-.733v-1.454zm-31.844 0l-1.254-.72-1.254.72v1.454l1.254.733 1.254-.733v-1.454zm-31.845 0l-1.254-.72-1.253.72v1.454l1.253.733 1.254-.733v-1.454zm-31.844 0l-1.255-.72-1.254.72v1.454l1.254.733 1.255-.733v-1.454zm206.99-27.661l-1.255-.72-1.254.72v1.453l1.254.721 1.255-.721v-1.453zm-31.847 0l-1.252-.72-1.254.72v1.453l1.254.721 1.252-.721v-1.453zm-31.843 0l-1.254-.72-1.252.72v1.453l1.252.721 1.254-.721v-1.453zm-31.844 0l-1.254-.72-1.254.72v1.453l1.254.721 1.254-.721v-1.453zm-31.844 0l-1.255-.72-1.253.72v1.453l1.253.721 1.255-.721v-1.453zm-31.845 0l-1.254-.72-1.254.72v1.453l1.254.721 1.254-.721v-1.453zm206.988-27.661l-1.253-.721-1.254.721v1.454l1.254.72 1.253-.72v-1.454zm-31.844 0l-1.254-.721-1.253.721v1.454l1.253.72 1.254-.72v-1.454zm-31.845 0l-1.253-.721-1.254.721v1.454l1.254.72 1.253-.72v-1.454zm-31.844 0l-1.255-.721-1.252.721v1.454l1.252.72 1.255-.72v-1.454zm-31.845 0l-1.253-.721-1.254.721v1.454l1.254.72 1.253-.72v-1.454zm-31.844 0l-1.255-.721-1.252.721v1.454l1.252.72 1.255-.72v-1.454zm79.61-27.661l-1.252-.721-1.254.721v1.453l1.254.721 1.252-.721v-1.453zm-31.843 0l-1.254-.721-1.252.721v1.453l1.252.721 1.254-.721v-1.453zm-31.844 0l-1.254-.721-1.254.721v1.453l1.254.721 1.254-.721v-1.453zm-143.612 83.173l-.942-.556-.941.556v1.087l.941.544.942-.544v-1.087zm47.766-27.674l-.941-.544-.943.556v1.088l.943.543.941-.543v-1.1zm-31.846.012l-.94-.556-.942.544v1.1l.942.543.94-.543v-1.088zm-31.843-.012l-.941-.544-.943.556v1.088l.943.543.941-.543v-1.1zm111.456-27.661l-.942-.544-.943.544v1.099l.943.544.942-.544v-1.099zm-31.845 0l-.942-.544-.941.544v1.099l.941.544.942-.544v-1.099zm-31.845 0l-.942-.544-.941.544v1.099l.941.544.942-.544v-1.099zm-31.843 0l-.942-.544-.941.544v1.099l.941.544.942-.544v-1.099zm-31.846 0l-.941-.544-.942.544v1.099l.942.544.941-.544v-1.099zm143.3-27.662l-.94-.543-.944.543v1.1l.943.544.942-.544v-1.1zm-31.844 0l-.941-.543-.941.543v1.1l.941.544.941-.544v-1.1zm-31.844 0l-.941-.543-.943.543v1.1l.943.544.941-.544v-1.1zm-31.846 0l-.94-.543-.942.543v1.1l.942.544.94-.544v-1.1zm-31.843 0l-.941-.543-.943.543v1.1l.943.544.941-.544v-1.1zM7.524 344.791l-.942-.544-.94.544v1.1l.94.543.942-.543v-1.1zm-31.843 0l-.942-.544-.941.544v1.1l.94.543.943-.543v-1.1zm-31.845 0l-.943-.544-.94.544v1.1l.94.543.943-.543v-1.1zm-31.844 0l-.942-.544-.943.544v1.1l.943.543.942-.543v-1.1zm-31.845 0l-.942-.544-.941.544v1.1l.941.543.942-.543v-1.1zm-31.845 0l-.942-.544-.941.544v1.1l.941.543.942-.543v-1.1zm-31.843 0l-.942-.544-.941.544v1.1l.941.543.942-.543v-1.1zm-31.846 0l-.941-.544-.942.544v1.1l.942.543.941-.543v-1.1zm175.145-27.661l-.94-.544-.942.544v1.099l.941.544.941-.556v-1.087zm-31.844 0l-.942-.544-.943.544v1.087l.943.556.942-.544v-1.099zm-31.845 0l-.941-.544-.941.544v1.099l.941.544.941-.556v-1.087zm-31.844 0l-.941-.544-.943.544v1.087l.943.556.941-.544v-1.099zm-31.846 0l-.94-.544-.943.544v1.099l.943.544.94-.556v-1.087zm-31.843 0l-.941-.544-.943.544v1.087l.943.556.941-.544v-1.099zm143.3-27.662l-.943-.543-.94.543v1.088l.94.543.943-.543v-1.088zm-31.844 0l-.942-.543-.943.543v1.088l.943.543.942-.543v-1.088zm-31.845 0l-.942-.543-.941.543v1.088l.941.543.942-.543v-1.088zm-31.845 0l-.942-.543-.941.543v1.088l.941.543.942-.543v-1.088zm-31.843 0l-.942-.543-.941.543v1.088l.941.543.942-.543v-1.088zm-31.846 0l-.941-.543-.942.543v1.088l.942.543.941-.543v-1.088zm143.3-27.661l-.94-.544-.944.544v1.087l.943.544.942-.544v-1.087zm-31.844 0l-.941-.544-.941.544v1.087l.941.544.941-.544v-1.087zm-31.844 0l-.941-.544-.943.544v1.087l.943.544.941-.544v-1.087zm-31.846 0l-.94-.544-.943.544v1.087l.943.544.94-.544v-1.087zm-31.843 0l-.941-.544-.943.544v1.087l.943.544.941-.544v-1.087zm111.456-27.661l-.942-.544-.943.544v1.087l.943.543.942-.543v-1.087zm-31.845 0l-.942-.544-.941.544v1.087l.941.543.942-.543v-1.087zm-28.532-1.922l-4.255-2.465-4.254 2.465v4.931l4.254 2.465 4.255-2.465v-4.931zm-31.844 0l-4.254-2.465-4.255 2.465v4.931l4.255 2.465 4.254-2.465v-4.931zm-31.844 0l-4.255-2.465-4.254 2.465v4.931l4.254 2.465 4.255-2.465v-4.931zm111.456-27.661l-4.255-2.463-4.255 2.463v4.93l4.255 2.465 4.255-2.465v-4.93zm-31.846 0l-4.253-2.463-4.255 2.463v4.93l4.255 2.465 4.253-2.465v-4.93zm-31.843 0l-4.255-2.463-4.255 2.463v4.93l4.255 2.465 4.255-2.465v-4.93zm-31.844 0l-4.255-2.463-4.255 2.463v4.93l4.255 2.465 4.255-2.465v-4.93zm111.455-27.664l-4.255-2.463-4.255 2.463v4.929l4.255 2.465 4.255-2.465v-4.929zm-31.845 0l-4.255-2.463-4.254 2.463v4.929l4.254 2.465 4.255-2.465v-4.929zm-31.845 0l-4.255-2.463-4.254 2.463v4.929l4.254 2.465 4.255-2.465v-4.929zm-31.844 0l-4.254-2.463-4.255 2.463v4.929l4.255 2.465 4.254-2.465v-4.929zm-31.844 0l-4.255-2.463-4.254 2.463v4.929l4.254 2.465 4.255-2.465v-4.929zm111.456-27.663l-4.255-2.464-4.255 2.464v4.931l4.255 2.465 4.255-2.465v-4.931zm-31.846 0l-4.253-2.464-4.255 2.464v4.931l4.255 2.465 4.253-2.465v-4.931zm-31.843 0l-4.255-2.464-4.255 2.464v4.931l4.255 2.465 4.255-2.465v-4.931zm-31.844 0l-4.255-2.464-4.255 2.464v4.931l4.255 2.465 4.255-2.465v-4.931zm79.61-27.662l-4.255-2.463-4.254 2.463v4.931l4.254 2.463 4.255-2.463v-4.931zm-29.635-1.277l-6.465-3.744-6.462 3.744v7.487l6.462 3.741 6.465-3.741v-7.487zm-31.845 0l-6.463-3.744-6.464 3.744v7.487l6.464 3.741 6.463-3.741v-7.487zm-31.844 0l-6.464-3.744-6.464 3.744v7.487l6.464 3.741 6.464-3.741v-7.487zm79.611-27.662l-6.463-3.744-6.465 3.744v7.489l6.465 3.74 6.463-3.74v-7.49zm-31.845 0l-6.463-3.744-6.463 3.744v7.489l6.463 3.74 6.463-3.74v-7.49zm-31.844 0l-6.463-3.744-6.464 3.744v7.489l6.464 3.74 6.463-3.74v-7.49zm79.611-27.663l-6.464-3.743-6.464 3.743v7.488l6.464 3.742 6.464-3.742v-7.488zm-31.844 0l-6.465-3.743-6.462 3.743v7.488l6.462 3.742 6.465-3.742v-7.488zm-31.845 0l-6.463-3.743-6.464 3.743v7.488l6.464 3.742 6.463-3.742v-7.488zm-31.844 0l-6.464-3.743-6.464 3.743v7.488l6.464 3.742 6.464-3.742v-7.488zm79.611-27.664l-6.463-3.742-6.465 3.742v7.49l6.465 3.742 6.463-3.742v-7.49zm-31.845 0l-6.463-3.742-6.463 3.742v7.49l6.463 3.742 6.463-3.742v-7.49zm-31.844 0l-6.463-3.742-6.464 3.742v7.49l6.464 3.742 6.463-3.742v-7.49zm79.611-27.664l-6.464-3.742-6.464 3.742v7.49l6.464 3.742 6.464-3.741V9.644zm-31.844 0l-6.465-3.742-6.462 3.742v7.49l6.462 3.742 6.465-3.741V9.644zm-31.845 0l-6.463-3.742-6.464 3.742v7.49l6.464 3.742 6.463-3.741V9.644zm47.767-27.661l-6.463-3.744-6.465 3.744v7.487l6.465 3.744 6.463-3.744v-7.487zm-31.845 0l-6.463-3.744-6.463 3.744v7.487l6.463 3.744 6.463-3.744v-7.487zm47.767-27.661l-6.464-3.744-6.464 3.744v7.486l6.464 3.744 6.464-3.744v-7.486zm-31.844 0l-6.465-3.744-6.462 3.744v7.486l6.462 3.744 6.465-3.744v-7.486zm15.922-27.662l-6.463-3.743-6.465 3.743v7.486l6.465 3.745 6.463-3.745v-7.486zm-77.404 81.704l-8.671-5.02-8.672 5.02v10.05l8.672 5.02 8.671-5.02V8.363zm15.923-27.658l-8.671-5.024-8.673 5.024V-9.25l8.673 5.022 8.671-5.022v-10.044zm15.922-27.663l-8.671-5.024-8.672 5.024v10.044l8.672 5.023 8.671-5.023v-10.044zm-31.845 0l-8.671-5.024-8.672 5.024v10.044l8.672 5.023 8.671-5.023v-10.044zm47.768-27.663l-8.672-5.02-8.672 5.02v10.045l8.672 5.024 8.672-5.024V-74.62zm-31.845 0l-8.671-5.02-8.673 5.02v10.045l8.673 5.024 8.671-5.024V-74.62zm79.611-27.663l-8.672-5.022-8.672 5.022v10.048l8.672 5.021 8.672-5.021v-10.048zm-31.844 0l-8.673-5.022-8.669 5.022v10.048l8.669 5.021 8.673-5.021v-10.048zm-31.845 0l-8.671-5.022-8.672 5.022v10.048l8.672 5.021 8.671-5.021v-10.048zm-31.845 0l-8.671-5.022-8.672 5.022v10.048l8.672 5.021 8.671-5.021v-10.048zm79.612-27.662l-8.671-5.024-8.672 5.024v10.046l8.672 5.022 8.671-5.022v-10.046zm-31.844 0l-8.672-5.024-8.672 5.024v10.046l8.672 5.022 8.672-5.022v-10.046zm-31.845 0l-8.671-5.024-8.673 5.024v10.046l8.673 5.022 8.671-5.022v-10.046zm79.611-27.664l-8.672-5.02-8.672 5.02v10.046l8.672 5.024 8.672-5.024v-10.046zm-31.844 0l-8.673-5.02-8.669 5.02v10.046l8.669 5.024 8.673-5.024v-10.046zm-31.845 0l-8.671-5.02-8.672 5.02v10.046l8.672 5.024 8.671-5.024v-10.046zm47.767-27.661l-8.671-5.022-8.672 5.022v10.047l8.672 5.021 8.671-5.021v-10.047zm15.922-27.662l-8.672-5.021-8.672 5.021v10.045l8.672 5.023 8.672-5.023v-10.045zm-51.548-523.398l-4.89-2.831-4.892 2.831v5.668l4.892 2.833 4.89-2.833v-5.668zm15.923-27.662l-4.892-2.832-4.89 2.832v5.667l4.89 2.834 4.892-2.834v-5.667zm-31.846 0l-4.889-2.832-4.891 2.832v5.667l4.891 2.834 4.889-2.834v-5.667zm-31.843 0l-4.891-2.832-4.891 2.832v5.667l4.891 2.834 4.891-2.834v-5.667zm79.611-27.662l-4.89-2.832-4.892 2.832v5.665l4.892 2.833 4.89-2.833v-5.665zm-31.845 0l-4.89-2.832-4.892 2.832v5.665l4.892 2.833 4.89-2.833v-5.665zm-31.844 0l-4.89-2.832-4.891 2.832v5.665l4.891 2.833 4.89-2.833v-5.665zm47.767-27.662l-4.892-2.833-4.89 2.833v5.668l4.89 2.833 4.892-2.833v-5.668zm-31.846 0l-4.889-2.833-4.891 2.833v5.668l4.891 2.833 4.889-2.833v-5.668zm-31.843 0l-4.891-2.833-4.891 2.833v5.668l4.891 2.833 4.891-2.833v-5.668zm47.766-27.663l-4.89-2.832-4.892 2.832v5.667l4.892 2.833 4.89-2.833v-5.667zm-31.844 0l-4.89-2.832-4.891 2.832v5.667l4.891 2.833 4.89-2.833v-5.667zm47.767-27.662l-4.892-2.832-4.89 2.832v5.667l4.89 2.833 4.892-2.833v-5.667zm-31.846 0l-4.889-2.832-4.891 2.832v5.667l4.891 2.833 4.889-2.833v-5.667zm-31.843 0l-4.891-2.832-4.891 2.832v5.667l4.891 2.833 4.891-2.833v-5.667zm111.457-27.662l-4.892-2.834-4.892 2.834v5.667l4.892 2.832 4.891-2.832v-5.667zm-31.846 0l-4.89-2.834-4.892 2.834v5.667l4.892 2.832 4.89-2.832v-5.667zm-31.845 0l-4.89-2.834-4.892 2.834v5.667l4.892 2.832 4.89-2.832v-5.667zm-31.844 0l-4.89-2.834-4.891 2.834v5.667l4.891 2.832 4.89-2.832v-5.667zm111.456-27.663l-4.89-2.832-4.892 2.832v5.666l4.891 2.832 4.891-2.832v-5.666zm-31.845 0l-4.891-2.832-4.891 2.832v5.666l4.891 2.832 4.891-2.832v-5.666zm-31.844 0l-4.892-2.832-4.89 2.832v5.666l4.89 2.832 4.892-2.832v-5.666zm-31.846 0l-4.889-2.832-4.891 2.832v5.666l4.891 2.832 4.889-2.832v-5.666zm-31.843 0l-4.891-2.832-4.891 2.832v5.666l4.891 2.832 4.891-2.832v-5.666zm111.457-27.662l-4.892-2.833-4.892 2.833v5.666l4.892 2.833 4.891-2.833v-5.666zm-31.846 0l-4.89-2.833-4.892 2.833v5.666l4.892 2.833 4.89-2.833v-5.666zm-31.845 0l-4.89-2.833-4.892 2.833v5.666l4.892 2.833 4.89-2.833v-5.666zm-31.844 0l-4.89-2.833-4.891 2.833v5.666l4.891 2.833 4.89-2.833v-5.666zm175.146-27.662l-4.892-2.834-4.891 2.834v5.667l4.89 2.833 4.893-2.833v-5.667zm-31.847 0l-4.89-2.834-4.89 2.834v5.667l4.89 2.833 4.89-2.833v-5.667zm-31.843 0l-4.89-2.834-4.892 2.834v5.667l4.891 2.833 4.891-2.833v-5.667zm-31.845 0l-4.891-2.834-4.891 2.834v5.667l4.891 2.833 4.891-2.833v-5.667zm-31.844 0l-4.892-2.834-4.89 2.834v5.667l4.89 2.833 4.892-2.833v-5.667zm-31.846 0l-4.889-2.834-4.891 2.834v5.667l4.891 2.833 4.889-2.833v-5.667zm-31.843 0l-4.891-2.834-4.891 2.834v5.667l4.891 2.833 4.891-2.833v-5.667zm461.743-27.66l-4.89-2.84-4.89 2.84v5.66l4.89 2.84 4.89-2.84v-5.66zm-31.843 0l-4.891-2.84-4.891 2.84v5.66l4.891 2.84 4.891-2.84v-5.66zm-159.222 0l-4.891-2.84-4.89 2.84v5.66l4.89 2.84 4.891-2.84v-5.66zm-31.845 0l-4.89-2.84-4.89 2.84v5.66l4.89 2.84 4.89-2.84v-5.66zm-31.844 0l-4.891-2.84-4.89 2.84v5.66l4.89 2.84 4.89-2.84v-5.66zm-31.844 0l-4.89-2.84-4.893 2.84v5.66l4.892 2.84 4.891-2.84v-5.66zm-31.846 0l-4.89-2.84-4.89 2.84v5.66l4.89 2.84 4.89-2.84v-5.66zm-31.843 0l-4.891-2.84-4.892 2.84v5.66l4.892 2.84 4.891-2.84v-5.66zm-31.845 0l-4.89-2.84-4.892 2.84v5.66l4.892 2.84 4.89-2.84v-5.66zm-31.845 0l-4.89-2.84-4.892 2.84v5.66l4.892 2.84 4.89-2.84v-5.66zm-31.844 0l-4.89-2.84-4.891 2.84v5.66l4.891 2.84 4.89-2.84v-5.66zm461.745-27.67l-4.892-2.83-4.891 2.83v5.67l4.891 2.83 4.892-2.83v-5.67zm-31.844 0l-4.89-2.83-4.892 2.83v5.67l4.892 2.83 4.89-2.83v-5.67zm-31.846 0l-4.891-2.83-4.892 2.83v5.67l4.892 2.83 4.891-2.83v-5.67zm-31.845 0l-4.89-2.83-4.891 2.83v5.67l4.891 2.83 4.89-2.83v-5.67zm-31.842 0l-4.892-2.83-4.891 2.83v5.67l4.891 2.83 4.892-2.83v-5.67zm-31.845 0l-4.891-2.83-4.89 2.83v5.67l4.89 2.83 4.891-2.83v-5.67zm-31.846 0l-4.89-2.83-4.891 2.83v5.67l4.891 2.83 4.89-2.83v-5.67zm-31.843 0l-4.891-2.83-4.891 2.83v5.67l4.89 2.83 4.892-2.83v-5.67zm-31.846 0l-4.891-2.83-4.892 2.83v5.67l4.892 2.83 4.891-2.83v-5.67zm-31.842 0l-4.892-2.83-4.891 2.83v5.67l4.89 2.83 4.893-2.83v-5.67zm-31.847 0l-4.89-2.83-4.89 2.83v5.67l4.89 2.83 4.89-2.83v-5.67zm-31.843 0l-4.89-2.83-4.892 2.83v5.67l4.891 2.83 4.891-2.83v-5.67zm-31.845 0l-4.891-2.83-4.891 2.83v5.67l4.891 2.83 4.891-2.83v-5.67zm-31.844 0l-4.892-2.83-4.89 2.83v5.67l4.89 2.83 4.892-2.83v-5.67zm-31.846 0l-4.889-2.83-4.891 2.83v5.67l4.891 2.83 4.889-2.83v-5.67zm-31.843 0l-4.891-2.83-4.891 2.83v5.67l4.891 2.83 4.891-2.83v-5.67zm622.541 26.76l-6.464-3.75-6.465 3.75v7.48l6.465 3.75 6.464-3.75v-7.48zM-32.51-627.868l-8.673-5.024-8.673 5.024v10.046l8.673 5.023 8.673-5.023v-10.046zm15.921-27.662l-8.672-5.025-8.672 5.025v10.045l8.672 5.022 8.672-5.022v-10.045zm-31.845 0l-8.673-5.025-8.671 5.025v10.045l8.671 5.022 8.673-5.022v-10.045zm47.767-27.664l-8.672-5.021-8.671 5.021v10.046l8.67 5.024 8.673-5.024v-10.046zm-31.843 0l-8.673-5.021-8.673 5.021v10.046l8.673 5.024 8.672-5.024v-10.046zm-31.846 0l-8.672-5.021-8.67 5.021v10.046l8.67 5.024 8.672-5.024v-10.046zM47.1-710.855l-8.673-5.024-8.673 5.024v10.045l8.673 5.022 8.673-5.022v-10.045zm-31.847 0l-8.672-5.024-8.671 5.024v10.045l8.671 5.022 8.672-5.022v-10.045zm-31.843 0l-8.672-5.024-8.672 5.024v10.045l8.672 5.022 8.672-5.022v-10.045zm-31.845 0l-8.673-5.024-8.671 5.024v10.045l8.671 5.022 8.673-5.022v-10.045zm-31.844 0l-8.672-5.024-8.672 5.024v10.045l8.672 5.022 8.672-5.022v-10.045zm-31.845 0l-8.672-5.024-8.672 5.024v10.045l8.672 5.022 8.672-5.022v-10.045zm175.146-27.664l-8.673-5.022-8.672 5.022v10.045l8.672 5.025 8.673-5.025v-10.045zm-31.846 0l-8.671-5.022-8.673 5.022v10.045l8.673 5.025 8.671-5.025v-10.045zm-31.844 0l-8.672-5.022-8.671 5.022v10.045l8.67 5.025 8.673-5.025v-10.045zm-31.843 0l-8.673-5.022-8.673 5.022v10.045l8.673 5.025 8.672-5.025v-10.045zm-31.846 0l-8.672-5.022-8.67 5.022v10.045l8.67 5.025 8.672-5.025v-10.045zm-31.845 0l-8.671-5.022-8.673 5.022v10.045l8.673 5.025 8.67-5.025v-10.045zm206.99-27.664l-8.672-5.021-8.673 5.021v10.05l8.673 5.02 8.672-5.02v-10.05zm-31.844 0l-8.673-5.021-8.672 5.021v10.05l8.672 5.02 8.673-5.02v-10.05zm-31.844 0l-8.673-5.021-8.673 5.021v10.05l8.673 5.02 8.673-5.02v-10.05zm-31.847 0l-8.672-5.021-8.671 5.021v10.05l8.671 5.02 8.672-5.02v-10.05zm-31.843 0l-8.672-5.021-8.672 5.021v10.05l8.672 5.02 8.672-5.02v-10.05zm-31.845 0l-8.673-5.021-8.671 5.021v10.05l8.671 5.02 8.673-5.02v-10.05zm-31.844 0l-8.672-5.021-8.672 5.021v10.05l8.672 5.02 8.672-5.02v-10.05zm206.988-27.66l-8.671-5.023-8.673 5.023v10.046l8.673 5.02 8.671-5.02v-10.046zm-31.843 0l-8.67-5.023-8.675 5.023v10.046l8.674 5.02 8.671-5.02v-10.046zm-31.844 0l-8.673-5.023-8.672 5.023v10.046l8.672 5.02 8.673-5.02v-10.046zm-31.846 0l-8.671-5.023-8.673 5.023v10.046l8.673 5.02 8.671-5.02v-10.046zm-31.844 0l-8.672-5.023-8.671 5.023v10.046l8.67 5.02 8.673-5.02v-10.046zm-31.843 0l-8.673-5.023-8.673 5.023v10.046l8.673 5.02 8.672-5.02v-10.046zm-31.846 0l-8.672-5.023-8.67 5.023v10.046l8.67 5.02 8.672-5.02v-10.046zm206.99-27.664l-8.673-5.022-8.672 5.022v10.047l8.672 5.024 8.673-5.024v-10.047zm-31.845 0l-8.672-5.022-8.673 5.022v10.047l8.673 5.024 8.672-5.024v-10.047zm-31.844 0l-8.673-5.022-8.672 5.022v10.047l8.672 5.024 8.673-5.024v-10.047zm-31.844 0l-8.673-5.022-8.673 5.022v10.047l8.673 5.024 8.673-5.024v-10.047zm-31.847 0l-8.672-5.022-8.671 5.022v10.047l8.671 5.024 8.672-5.024v-10.047zm-31.843 0l-8.672-5.022-8.672 5.022v10.047l8.672 5.024 8.672-5.024v-10.047zm-31.845 0l-8.673-5.022-8.671 5.022v10.047l8.671 5.024 8.673-5.024v-10.047zm206.99-27.659l-8.673-5.025-8.672 5.025v10.043l8.672 5.023 8.673-5.023v-10.043zm-31.846 0l-8.671-5.025-8.673 5.025v10.043l8.673 5.023 8.671-5.023v-10.043zm-31.843 0l-8.67-5.025-8.675 5.025v10.043l8.674 5.023 8.671-5.023v-10.043zm-31.844 0l-8.673-5.025-8.672 5.025v10.043l8.672 5.023 8.673-5.023v-10.043zm-31.846 0l-8.671-5.025-8.673 5.025v10.043l8.673 5.023 8.671-5.023v-10.043zm-31.844 0l-8.672-5.025-8.671 5.025v10.043l8.67 5.023 8.673-5.023v-10.043zm-31.843 0l-8.673-5.025-8.673 5.025v10.043l8.673 5.023 8.672-5.023v-10.043zm238.831-27.665l-8.672-5.021-8.673 5.021v10.046l8.673 5.024 8.672-5.024v-10.046zm-31.845 0l-8.671-5.021-8.672 5.021v10.046l8.672 5.024 8.671-5.024v-10.046zm-31.842 0l-8.673-5.021-8.672 5.021v10.046l8.672 5.024 8.673-5.024v-10.046zm-31.845 0l-8.672-5.021-8.673 5.021v10.046l8.673 5.024 8.672-5.024v-10.046zm-31.844 0l-8.673-5.021-8.672 5.021v10.046l8.672 5.024 8.673-5.024v-10.046zm-31.844 0l-8.673-5.021-8.673 5.021v10.046l8.673 5.024 8.673-5.024v-10.046zm-31.847 0l-8.672-5.021-8.671 5.021v10.046l8.671 5.024 8.672-5.024v-10.046zm-31.843 0l-8.672-5.021-8.672 5.021v10.046l8.672 5.024 8.672-5.024v-10.046zm270.677-27.663l-8.672-5.022-8.671 5.022v10.047l8.671 5.022 8.672-5.022v-10.047zm-31.843 0l-8.673-5.022-8.673 5.022v10.047l8.673 5.022 8.673-5.022v-10.047zm-31.846 0l-8.673-5.022-8.671 5.022v10.047l8.671 5.022 8.673-5.022v-10.047zm-31.843 0l-8.673-5.022-8.672 5.022v10.047l8.672 5.022 8.673-5.022v-10.047zm-31.846 0l-8.671-5.022-8.673 5.022v10.047l8.673 5.022 8.671-5.022v-10.047zm-31.843 0l-8.67-5.022-8.675 5.022v10.047l8.674 5.022 8.671-5.022v-10.047zm-31.844 0l-8.673-5.022-8.672 5.022v10.047l8.672 5.022 8.673-5.022v-10.047zm-31.846 0l-8.671-5.022-8.673 5.022v10.047l8.673 5.022 8.671-5.022v-10.047zm-31.844 0l-8.672-5.022-8.671 5.022v10.047l8.67 5.022 8.673-5.022v-10.047zm270.678-27.662l-8.673-5.023-8.671 5.023v10.045l8.671 5.022 8.673-5.022v-10.045zm-31.844 0l-8.671-5.023-8.673 5.023v10.045l8.673 5.022 8.671-5.022v-10.045zm-31.846 0l-8.672-5.023-8.673 5.023v10.045l8.673 5.022 8.672-5.022v-10.045zm-31.845 0l-8.671-5.023-8.672 5.023v10.045l8.672 5.022 8.671-5.022v-10.045zm-31.842 0l-8.673-5.023-8.672 5.023v10.045l8.672 5.022 8.673-5.022v-10.045zm-31.845 0l-8.672-5.023-8.673 5.023v10.045l8.673 5.022 8.672-5.022v-10.045zm175.144-27.661l-8.673-5.024-8.672 5.024v10.044l8.672 5.023 8.673-5.023v-10.044zm-31.845 0l-8.672-5.024-8.671 5.024v10.044l8.671 5.023 8.672-5.023v-10.044zm-31.843 0l-8.673-5.024-8.673 5.024v10.044l8.673 5.023 8.673-5.023v-10.044zm-31.846 0l-8.673-5.024-8.671 5.024v10.044l8.671 5.023 8.673-5.023v-10.044zm-31.843 0l-8.673-5.024-8.672 5.024v10.044l8.672 5.023 8.673-5.023v-10.044zm206.987-27.663l-8.67-5.023-8.672 5.023v10.046l8.672 5.023 8.67-5.023v-10.046zm-31.844 0l-8.672-5.023-8.672 5.023v10.046l8.672 5.023 8.672-5.023v-10.046zm-31.843 0l-8.673-5.023-8.673 5.023v10.046l8.673 5.023 8.673-5.023v-10.046zm-31.845 0l-8.673-5.023-8.671 5.023v10.046l8.671 5.023 8.673-5.023v-10.046zm111.454-27.66l-8.67-5.03-8.672 5.03v10.04l8.672 5.03 8.67-5.03v-10.04zm-31.844 0l-8.673-5.03-8.669 5.03v10.04l8.669 5.03 8.673-5.03v-10.04zm-31.843 0l-8.673-5.03-8.673 5.03v10.04l8.673 5.03 8.673-5.03v-10.04zm79.612-27.67l-8.673-5.02-8.672 5.02v10.05l8.672 5.02 8.673-5.02v-10.05zm-31.847 0l-8.67-5.02-8.672 5.02v10.05l8.672 5.02 8.67-5.02v-10.05zm-31.844 0l-8.672-5.02-8.672 5.02v10.05l8.672 5.02 8.672-5.02v-10.05zm-464.265 361.076l-6.15-3.561-6.153 3.561v7.127l6.153 3.562 6.15-3.562v-7.127zm-15.922-27.662l-6.152-3.562-6.151 3.562v7.126l6.151 3.561 6.152-3.561v-7.126zm15.922-27.663l-6.15-3.561-6.153 3.561v7.126l6.153 3.564 6.15-3.564v-7.126zm15.922-27.662l-6.151-3.563-6.151 3.563v7.126l6.151 3.563 6.151-3.563v-7.126zm15.923-27.661l-6.151-3.563-6.152 3.563v7.123l6.152 3.563 6.151-3.563v-7.123zm15.922-27.663l-6.15-3.563-6.153 3.563v7.126l6.152 3.563 6.151-3.563v-7.126zm-31.845 0l-6.151-3.563-6.151 3.563v7.126l6.151 3.563 6.151-3.563v-7.126zm47.767-27.663l-6.15-3.563-6.152 3.563v7.125l6.151 3.563 6.151-3.563v-7.125zm-31.844 0l-6.151-3.563-6.152 3.563v7.125l6.152 3.563 6.151-3.563v-7.125zm-31.845 0l-6.15-3.563-6.153 3.563v7.125l6.153 3.563 6.15-3.563v-7.125zm79.61-27.662l-6.15-3.562-6.151 3.562v7.126l6.15 3.562 6.152-3.562v-7.126zm-31.843 0l-6.15-3.562-6.153 3.562v7.126l6.152 3.562 6.151-3.562v-7.126zm-31.845 0l-6.151-3.562-6.151 3.562v7.126l6.151 3.562 6.151-3.562v-7.126zm79.612-27.663l-6.15-3.562-6.153 3.562v7.126l6.152 3.561 6.151-3.561v-7.126zm-31.845 0l-6.15-3.562-6.152 3.562v7.126l6.151 3.561 6.151-3.561v-7.126zm143.3-27.662l-6.151-3.564-6.152 3.564v7.124l6.152 3.563 6.15-3.563v-7.124zm-31.844 0l-6.151-3.564-6.152 3.564v7.124l6.152 3.563 6.151-3.563v-7.124zm-31.845 0l-6.152-3.564-6.152 3.564v7.124l6.152 3.563 6.152-3.563v-7.124zm-31.843 0l-6.152-3.564-6.152 3.564v7.124l6.152 3.563 6.151-3.563v-7.124zm-31.846 0l-6.152-3.564-6.15 3.564v7.124l6.15 3.563 6.152-3.563v-7.124zm175.145-27.663l-6.151-3.562-6.152 3.562v7.125l6.152 3.564 6.151-3.564v-7.125zm-31.845 0l-6.149-3.562-6.152 3.562v7.125l6.152 3.564 6.149-3.564v-7.125zm-31.844 0l-6.151-3.562-6.15 3.562v7.125l6.15 3.564 6.151-3.564v-7.125zm-31.845 0l-6.15-3.562-6.153 3.562v7.125l6.153 3.564 6.15-3.564v-7.125zm-31.844 0l-6.151-3.562-6.15 3.562v7.125l6.15 3.564 6.15-3.564v-7.125zm-31.844 0l-6.15-3.562-6.153 3.562v7.125l6.152 3.564 6.151-3.564v-7.125zm-31.845 0l-6.15-3.562-6.152 3.562v7.125l6.151 3.564 6.151-3.564v-7.125zm302.523-27.662l-6.15-3.563-6.152 3.563v7.126l6.152 3.563 6.15-3.563v-7.126zm-31.846 0l-6.151-3.563-6.152 3.563v7.126l6.152 3.563 6.151-3.563v-7.126zm-31.844 0l-6.151-3.563-6.151 3.563v7.126l6.151 3.563 6.151-3.563v-7.126zm-31.844 0l-6.151-3.563-6.152 3.563v7.126l6.152 3.563 6.151-3.563v-7.126zm-31.843 0l-6.152-3.563-6.151 3.563v7.126l6.151 3.563 6.152-3.563v-7.126zm-31.847 0l-6.15-3.563-6.152 3.563v7.126l6.152 3.563 6.15-3.563v-7.126zm-31.843 0l-6.151-3.563-6.152 3.563v7.126l6.152 3.563 6.151-3.563v-7.126zm-31.845 0l-6.152-3.563L.43-986.02v7.126l6.152 3.563 6.152-3.563v-7.126zm270.679-27.66l-6.153-3.56-6.151 3.56v7.12l6.151 3.57 6.153-3.57v-7.12zm-95.535 0l-6.152-3.56-6.149 3.56v7.12l6.149 3.57 6.152-3.57v-7.12zm-31.843 0l-6.152-3.56-6.152 3.56v7.12l6.152 3.57 6.152-3.57v-7.12zm-31.845 0l-6.151-3.56-6.152 3.56v7.12l6.152 3.57 6.151-3.57v-7.12zm-31.845 0l-6.149-3.56-6.152 3.56v7.12l6.152 3.57 6.149-3.57v-7.12zm206.99-27.67l-6.152-3.56-6.152 3.56v7.13l6.152 3.56 6.152-3.56v-7.13zM532.322 428.155l-.305-.178-.305.178v.353l.305.177.305-.177v-.353zm-31.843 0l-.305-.178-.309.178v.353l.309.177.305-.177v-.353zm-31.847 0l-.305-.178-.304.178v.353l.304.177.305-.177v-.353zm47.769-27.662l-.306-.177-.305.177v.354l.305.177.306-.177v-.354zm-31.847 0l-.304-.177-.305.177v.354l.305.177.304-.177v-.354zm-31.844 0l-.305-.177-.305.177v.354l.305.177.305-.177v-.354zm-31.844 0l-.306-.177-.305.177v.354l.305.177.306-.177v-.354zm111.456-27.674l-.305-.177-.305.177v.354l.305.177.305-.177v-.354zm-31.843 0l-.305-.177-.309.177v.354l.309.177.305-.177v-.354zm-31.847 0l-.305-.177-.304.177v.354l.304.177.305-.177v-.354zm-31.844 0l-.306-.177-.304.177v.354l.304.177.306-.177v-.354zm-31.843 0l-.305-.177-.306.177v.354l.306.177.305-.177v-.354zm-31.845 0l-.305-.177-.305.177v.354l.305.177.305-.177v-.354zm-31.844 0l-.308-.177-.305.177v.354l.305.177.308-.177v-.354zm175.145-27.662l-.306-.176-.305.176v.355l.305.177.306-.177v-.355zm-31.847 0l-.304-.176-.305.176v.355l.305.177.304-.177v-.355zm-31.844 0l-.305-.176-.305.176v.355l.305.177.305-.177v-.355zm-31.844 0l-.306-.176-.305.176v.355l.305.177.306-.177v-.355zm-31.843 0l-.306-.176-.305.176v.355l.305.177.306-.177v-.355zm-31.846 0l-.304-.176-.308.176v.355l.308.177.304-.177v-.355zm-31.845 0l-.305-.176-.306.176v.355l.306.177.305-.177v-.355zm-31.844 0l-.305-.176-.305.176v.355l.305.177.305-.177v-.355zm-31.843 0l-.307-.176-.305.176v.355l.305.177.307-.177v-.355zm270.677-27.661l-.305-.177-.305.177v.355l.305.176.305-.176v-.355zm-31.843 0l-.305-.177-.309.177v.355l.309.176.305-.176v-.355zm-31.847 0l-.305-.177-.304.177v.355l.304.176.305-.176v-.355zm-31.844 0l-.306-.177-.304.177v.355l.304.176.306-.176v-.355zm-31.843 0l-.305-.177-.306.177v.355l.306.176.305-.176v-.355zm-31.845 0l-.305-.177-.305.177v.355l.305.176.305-.176v-.355zm-31.844 0l-.308-.177-.305.177v.355l.305.176.308-.176v-.355zm-31.846 0l-.305-.177-.306.177v.355l.306.176.305-.176v-.355zm-31.844 0l-.306-.177-.304.177v.355l.304.176.306-.176v-.355zm238.835-27.661l-.306-.177-.305.177v.353l.305.178.306-.178v-.353zm-31.847 0l-.304-.177-.305.177v.353l.305.178.304-.178v-.353zm-31.844 0l-.305-.177-.305.177v.353l.305.178.305-.178v-.353zm-31.844 0l-.306-.177-.305.177v.353l.305.178.306-.178v-.353zm-31.843 0l-.306-.177-.305.177v.353l.305.178.306-.178v-.353zm143.299-27.661l-.305-.177-.305.177v.354l.305.177.305-.177v-.354zm-31.843 0l-.305-.177-.309.177v.354l.309.177.305-.177v-.354zm-31.847 0l-.305-.177-.304.177v.354l.304.177.305-.177v-.354zm-31.844 0l-.306-.177-.304.177v.354l.304.177.306-.177v-.354zm-31.843 0l-.305-.177-.306.177v.354l.306.177.305-.177v-.354zm111.456-27.662l-.306-.176-.305.176v.355l.303.177.308-.177v-.355zm-31.847 0l-.304-.176-.305.176v.355l.305.177.304-.177v-.355zm-31.844 0l-.305-.176-.305.176v.355l.305.177.305-.177v-.355zm-31.844 0l-.306-.176-.305.176v.355l.305.177.306-.177v-.355zm111.456-27.662l-.305-.177-.305.177v.354l.305.175.305-.175v-.354zm-31.843 0l-.305-.177-.309.177v.354l.309.175.305-.175v-.354zm-31.847 0l-.305-.177-.304.177v.354l.304.175.305-.175v-.354zm47.769-27.662l-.306-.177-.305.177v.353l.305.177.306-.177v-.353zm-31.847 0l-.304-.177-.305.177v.353l.305.177.304-.177v-.353zm47.768-27.662l-.305-.177-.305.177v.353l.305.176.305-.176v-.353zM246.67 316.952l-1.254-.732-1.254.732v1.454l1.254.721 1.254-.721v-1.454zm-31.843 0l-1.255-.732-1.254.732v1.454l1.254.721 1.255-.721v-1.454zm143.299-27.66l-1.253-.734-1.255.734v1.453l1.255.72 1.253-.72v-1.453zm-31.843 0l-1.256-.734-1.254.734v1.453l1.254.72 1.256-.72v-1.453zm-31.848 0l-1.252-.734-1.253.734v1.453l1.253.72 1.252-.72v-1.453zm-31.842 0l-1.255-.734-1.252.734v1.453l1.252.72 1.255-.72v-1.453zm-31.844 0l-1.253-.734-1.256.734v1.453l1.256.72 1.253-.72v-1.453zm-31.845 0l-1.255-.734-1.253.734v1.453l1.253.72 1.255-.72v-1.453zm-31.846 0l-1.253-.734-1.254.734v1.453l1.254.72 1.253-.72v-1.453zm206.99-27.662l-1.253-.733-1.255.733v1.454l1.255.72 1.253-.72v-1.454zm-31.844 0l-1.256-.733-1.252.733v1.454l1.252.72 1.256-.72v-1.454zm-31.846 0l-1.253-.733-1.253.733v1.454l1.253.72 1.253-.72v-1.454zm-31.844 0l-1.254-.733-1.252.733v1.454l1.252.72 1.254-.72v-1.454zm-31.844 0l-1.254-.733-1.254.733v1.454l1.254.72 1.254-.72v-1.454zm-31.843 0l-1.255-.733-1.254.733v1.454l1.254.72 1.255-.72v-1.454zm-31.847 0l-1.254-.733-1.252.733v1.454l1.252.72 1.254-.72v-1.454zm-31.843 0l-1.254-.733-1.254.733v1.454l1.254.72 1.254-.72v-1.454zm238.833-27.662l-1.253-.733-1.252.733v1.442l1.252.733 1.253-.733v-1.442zm-31.844 0l-1.253-.733-1.255.733v1.442l1.255.733 1.253-.72v-1.455zm-31.843 0l-1.256-.733-1.254.733v1.442l1.254.733 1.256-.733v-1.442zm-31.848 0l-1.252-.733-1.253.733v1.442l1.253.733 1.252-.733v-1.442zm-31.842 0l-1.255-.733-1.252.733v1.442l1.252.733 1.255-.733v-1.442zm-31.844 0l-1.253-.733-1.256.733v1.442l1.256.733 1.253-.72v-1.455zm-31.845 0l-1.255-.733-1.253.733v1.442l1.253.733 1.255-.733v-1.442zm-31.846 0l-1.253-.733-1.254.733v1.442l1.254.733 1.253-.72v-1.455zm270.678-27.667l-1.254-.726-1.252.726v1.451l1.252.728 1.254-.728v-1.451zm-31.844 0l-1.252-.726-1.253.726v1.451l1.253.728 1.252-.728v-1.451zm-31.844 0l-1.253-.726-1.255.726v1.451l1.255.728 1.253-.728v-1.451zm-31.844 0l-1.256-.726-1.252.726v1.451l1.252.728 1.256-.728v-1.451zm-31.846 0l-1.253-.726-1.253.726v1.451l1.253.728 1.253-.728v-1.451zm-31.844 0l-1.254-.726-1.252.726v1.451l1.252.728 1.254-.728v-1.451zm-31.844 0l-1.254-.726-1.254.726v1.451l1.254.728 1.254-.728v-1.451zm-31.843 0l-1.255-.726-1.254.726v1.451l1.254.728 1.255-.728v-1.451zm-31.847 0l-1.254-.726-1.252.726v1.451l1.252.728 1.254-.728v-1.451zm270.68-27.663l-1.255-.725-1.253.725v1.452l1.253.726 1.255-.726v-1.452zm-31.846 0l-1.254-.725-1.252.725v1.452l1.252.726 1.254-.726v-1.452zm-31.844 0l-1.253-.725-1.252.725v1.452l1.252.726 1.253-.726v-1.452zm-31.844 0l-1.253-.725-1.255.725v1.452l1.255.726 1.253-.726v-1.452zm-31.843 0l-1.256-.725-1.254.725v1.452l1.254.726 1.256-.726v-1.452zm-31.848 0l-1.252-.725-1.253.725v1.452l1.253.726 1.252-.726v-1.452zm-31.842 0l-1.255-.725-1.252.725v1.452l1.252.726 1.255-.726v-1.452zm-31.844 0l-1.253-.725-1.256.725v1.452l1.256.726 1.253-.726v-1.452zm270.677-27.662l-1.252-.725-1.256.725v1.452l1.256.726 1.252-.726v-1.452zm-31.843 0l-1.256-.725-1.253.725v1.452l1.253.726 1.256-.726v-1.452zm-31.847 0l-1.254-.725-1.252.725v1.452l1.252.726 1.254-.726v-1.452zm-31.844 0l-1.252-.725-1.253.725v1.452l1.253.726 1.252-.726v-1.452zm-31.844 0l-1.253-.725-1.255.725v1.452l1.255.726 1.253-.726v-1.452zm-31.844 0l-1.256-.725-1.252.725v1.452l1.252.726 1.256-.726v-1.452zm-31.846 0l-1.253-.725-1.253.725v1.452l1.253.726 1.253-.726v-1.452zm-31.844 0l-1.254-.725-1.252.725v1.452l1.252.726 1.254-.726v-1.452zm-31.844 0l-1.254-.725-1.254.725v1.452l1.254.726 1.254-.726v-1.452zm270.678-27.663l-1.253-.726-1.255.726v1.453l1.255.727 1.253-.727v-1.453zm-31.843 0l-1.255-.726-1.253.726v1.453l1.253.727 1.255-.727v-1.453zm-31.845 0l-1.255-.726-1.253.726v1.453l1.253.727 1.255-.727v-1.453zm-31.846 0l-1.254-.726-1.252.726v1.453l1.252.727 1.254-.727v-1.453zm-31.844 0l-1.253-.726-1.252.726v1.453l1.252.727 1.253-.727v-1.453zm-31.844 0l-1.253-.726-1.255.726v1.453l1.255.727 1.253-.727v-1.453zM533.27 95.651l-1.253-.726-1.252.727v1.452l1.252.725 1.253-.725V95.65zm-31.844 0l-1.252-.726-1.256.727v1.452l1.256.725 1.252-.725V95.65zm-31.843 0l-1.256-.726-1.253.727v1.452l1.253.725 1.256-.725V95.65zm-31.847 0l-1.254-.726-1.252.727v1.452l1.252.725 1.254-.725V95.65zm-31.844 0l-1.252-.726-1.253.727v1.453l1.253.724 1.252-.725V95.65zM517.348 67.99l-1.253-.727-1.255.727v1.453l1.255.726 1.253-.726V67.99zm-31.843 0l-1.255-.727-1.253.727v1.453l1.253.726 1.255-.726V67.99zm-31.845 0l-1.255-.727-1.253.727v1.453l1.253.726 1.255-.726V67.99zm-31.846 0l-1.254-.727-1.252.727v1.453l1.252.726 1.254-.726V67.99zM533.27 40.327l-1.253-.726-1.252.726v1.451l1.252.726 1.253-.726v-1.451zm-31.844 0l-1.252-.726-1.256.726v1.451l1.256.726 1.252-.726v-1.451zm-31.843 0l-1.256-.726-1.253.726v1.451l1.253.726 1.256-.726v-1.451zm-31.847 0l-1.254-.726-1.252.726v1.451l1.252.726 1.254-.726v-1.451zm79.612-27.663l-1.253-.725-1.255.725v1.452l1.255.726 1.253-.726v-1.452zm-31.843 0l-1.255-.725-1.253.725v1.452l1.253.726 1.255-.726v-1.452zm-31.845 0l-1.255-.725-1.253.725v1.452l1.253.726 1.255-.726v-1.452zM533.27-15l-1.253-.726-1.252.726v1.454l1.252.726 1.253-.726V-15zm-31.844 0l-1.252-.726-1.256.726v1.454l1.256.726 1.252-.726V-15zm-31.843 0l-1.256-.726-1.253.726v1.454l1.253.726 1.256-.726V-15zm47.765-27.661l-1.253-.726-1.255.726v1.453l1.255.725 1.253-.725v-1.453zm-31.843 0l-1.255-.726-1.253.726v1.453l1.253.725 1.255-.725v-1.453zm-31.845 0l-1.255-.726-1.253.726v1.453l1.253.725 1.255-.725v-1.453zm79.61-27.663l-1.253-.725-1.252.725v1.455l1.252.725 1.253-.725v-1.455zm-31.844 0l-1.252-.725-1.256.725v1.455l1.256.725 1.252-.725v-1.455zm-31.843 0l-1.256-.725-1.253.725v1.455l1.253.725 1.256-.725v-1.455zm47.765-27.661l-1.253-.727-1.255.727v1.452l1.255.725 1.253-.725v-1.452zm-31.843 0l-1.255-.727-1.253.727v1.452l1.253.725 1.255-.725v-1.452zm47.765-27.662l-1.253-.727-1.252.727v1.451l1.252.725 1.253-.725v-1.451zm-31.844 0l-1.252-.727-1.256.727v1.451l1.256.725 1.252-.725v-1.451zm15.922-27.665l-1.253-.725-1.255.725v1.453l1.255.726 1.253-.726v-1.453zm15.922-27.661l-1.253-.727-1.252.727v1.452l1.252.727 1.253-.727v-1.452zm-31.844 0l-1.252-.727-1.256.727v1.452l1.256.727 1.252-.727v-1.452zm15.922-27.662l-1.253-.726-1.255.726v1.452l1.255.726 1.253-.726v-1.452zm15.922-27.663l-1.253-.725-1.252.725v1.452l1.252.726 1.253-.726v-1.452zm-31.844 0l-1.252-.725-1.256.725v1.452l1.256.726 1.252-.726v-1.452zm15.922-27.663l-1.253-.725-1.255.725v1.455l1.255.725 1.253-.725v-1.455zm15.922-27.663l-1.253-.725-1.252.725v1.454l1.252.726 1.253-.726v-1.454zm-31.844 0l-1.252-.725-1.256.725v1.454l1.256.726 1.252-.726v-1.454zm15.922-27.662l-1.253-.725-1.255.725v1.453l1.255.725 1.253-.725v-1.453zm15.922-27.662l-1.253-.726-1.252.726v1.452l1.252.726 1.253-.726v-1.452zm-746.136 800.93l-3.462-2.01-3.463 2.01v4.008l3.463 2.01 3.462-2.01v-4.008zm350.289-221.303l-3.462-1.997-3.462 1.997v4.021l3.462 1.997 3.462-1.997v-4.021zm15.923-27.657l-3.463-2.006-3.462 2.006v4.011l3.462 2.003 3.463-2.003v-4.011zm-31.845 0l-3.462-2.006-3.464 2.006v4.011l3.464 2.003 3.462-2.003v-4.011zm79.611-27.663l-3.463-2.007-3.462 2.007v4.01l3.462 2.006 3.463-2.006v-4.01zm-31.845 0l-3.462-2.005-3.462 2.005v4.01l3.462 2.005 3.462-2.005v-4.01zm-31.844 0l-3.462-2.005-3.462 2.005v4.01l3.462 2.005 3.462-2.005v-4.01zm-31.845 0l-3.461-2.007-3.464 2.007v4.01l3.464 2.006 3.461-2.006v-4.01zm111.456-27.662l-3.462-2.005-3.462 2.005v4.011l3.462 2.005 3.462-2.005v-4.011zm-31.843 0l-3.465-2.005-3.46 2.005v4.011l3.46 2.005 3.465-2.005v-4.011zm-31.845 0l-3.463-2.005-3.462 2.005v4.011l3.462 2.005 3.463-2.005v-4.011zm-31.845 0l-3.462-2.005-3.464 2.005v4.011l3.464 2.006 3.462-2.006v-4.011zm-31.846 0l-3.459-2.005-3.463 2.005v4.011l3.463 2.005 3.46-2.005v-4.011zm238.836-27.662l-3.464-2.006-3.462 2.006v4.012l3.462 2.003 3.464-2.003v-4.012zm-31.844 0l-3.464-2.006-3.461 2.006v4.012l3.461 2.003 3.464-2.003v-4.012zm-31.845 0l-3.464-2.006-3.463 2.006v4.012l3.463 2.003 3.464-2.003v-4.012zm-31.845 0l-3.461-2.006-3.464 2.006v4.012l3.464 2.003 3.461-2.003v-4.012zm-31.845 0l-3.463-2.006-3.462 2.006v4.012l3.462 2.003 3.463-2.003v-4.012zm-31.845 0l-3.462-2.006-3.462 2.006v4.012l3.462 2.003 3.462-2.003v-4.012zm-31.844 0l-3.462-2.006-3.462 2.006v4.012l3.462 2.003 3.462-2.003v-4.012zm-31.845 0l-3.461-2.006-3.464 2.006v4.012l3.464 2.003 3.461-2.003v-4.012zm270.678-27.662l-3.461-2.006-3.463 2.005v4.012l3.463 2.005 3.461-2.005v-4.011zm-31.844 0l-3.464-2.006-3.461 2.005v4.012l3.461 2.005 3.464-2.005v-4.011zm-31.843 0l-3.464-2.007-3.461 2.007v4.01l3.461 2.006 3.464-2.005v-4.011zm-31.847 0l-3.462-2.006-3.46 2.005v4.012l3.46 2.005 3.462-2.005v-4.011zm-31.844 0l-3.462-2.006-3.461 2.005v4.012l3.461 2.005 3.462-2.005v-4.011zm-31.844 0l-3.462-2.006-3.462 2.005v4.012l3.462 2.005 3.462-2.005v-4.011zm-31.843 0l-3.465-2.006-3.46 2.005v4.012l3.46 2.005 3.465-2.005v-4.011zm-31.845 0l-3.463-2.006-3.462 2.005v4.012l3.462 2.005 3.463-2.005v-4.011zm-31.845 0l-3.462-2.007-3.464 2.007v4.01l3.464 2.006 3.462-2.005v-4.011zm-31.846 0l-3.459-2.006-3.463 2.005v4.012l3.463 2.005 3.46-2.005v-4.011zM392.18 66.71l-3.462-2.005-3.463 2.005v4.011l3.463 2.005 3.462-2.005V66.71zm-31.845 0l-3.461-2.005-3.463 2.005v4.011l3.463 2.005 3.461-2.005V66.71zm-31.843 0l-3.464-2.005-3.462 2.005v4.011l3.462 2.005 3.464-2.005V66.71zm-31.844 0l-3.464-2.005-3.461 2.005v4.011l3.461 2.005 3.464-2.005V66.71zm-31.845 0l-3.464-2.005-3.463 2.005v4.011l3.463 2.005 3.464-2.005V66.71zm-31.845 0l-3.461-2.005-3.464 2.005v4.011l3.464 2.005 3.461-2.005V66.71zm-31.845 0l-3.463-2.005-3.462 2.005v4.011l3.462 2.005 3.463-2.005V66.71zm-31.845 0l-3.462-2.005-3.462 2.005v4.011l3.462 2.005 3.462-2.005V66.71zm-31.844 0l-3.462-2.005-3.462 2.005v4.011l3.462 2.005 3.462-2.005V66.71zm-31.845 0l-3.461-2.005-3.464 2.005v4.011l3.464 2.005 3.461-2.005V66.71zm302.523-27.663l-3.461-2.005-3.466 2.005v4.01l3.466 2.006 3.461-2.006v-4.01zm-31.845 0l-3.461-2.005-3.463 2.005v4.01l3.463 2.006 3.461-2.006v-4.01zm-31.844 0l-3.464-2.005-3.461 2.005v4.01l3.461 2.006 3.464-2.006v-4.01zm-31.843 0l-3.464-2.006-3.461 2.006v4.01l3.461 2.007 3.464-2.007v-4.01zm-31.847 0l-3.462-2.005-3.46 2.005v4.01l3.46 2.006 3.462-2.006v-4.01zm-31.844 0l-3.462-2.005-3.461 2.005v4.01l3.461 2.006 3.462-2.006v-4.01zm-31.844 0l-3.462-2.005-3.462 2.005v4.01l3.462 2.006 3.462-2.006v-4.01zm-31.843 0l-3.465-2.005-3.46 2.005v4.01l3.46 2.006 3.465-2.006v-4.01zm-31.845 0l-3.463-2.005-3.462 2.005v4.01l3.462 2.006 3.463-2.006v-4.01zm270.676-27.663L420.56 9.38l-3.463 2.004v4.013l3.463 2.004 3.462-2.004v-4.013zm-31.843 0l-3.462-2.006-3.463 2.006v4.013l3.463 2.006 3.462-2.006v-4.013zm-31.845 0l-3.461-2.004-3.463 2.004v4.013l3.463 2.004 3.461-2.004v-4.013zm-31.843 0l-3.464-2.004-3.462 2.004v4.013l3.462 2.004 3.464-2.004v-4.013zm-31.844 0l-3.464-2.004-3.461 2.004v4.013l3.461 2.004 3.464-2.004v-4.013zm-31.845 0l-3.464-2.006-3.463 2.006v4.013l3.463 2.006 3.464-2.006v-4.013zm175.144-27.663l-3.464-2.005-3.46 2.005v4.014l3.46 2.003 3.464-2.003v-4.014zm-31.845 0l-3.461-2.005-3.466 2.005v4.014l3.466 2.003 3.461-2.003v-4.014zm-31.845 0l-3.461-2.005-3.463 2.005v4.014l3.463 2.003 3.461-2.003v-4.014zm-31.844 0l-3.464-2.005-3.461 2.005v4.014l3.461 2.003 3.464-2.003v-4.014zm-31.843 0l-3.464-2.005-3.461 2.005v4.014l3.461 2.003 3.464-2.003v-4.014zm-31.847 0l-3.462-2.005-3.46 2.005v4.014l3.46 2.003 3.462-2.003v-4.014zm143.3-27.662l-3.462-2.005-3.463 2.005v4.012l3.463 2.004 3.462-2.004v-4.012zm-31.843 0l-3.462-2.005-3.463 2.005v4.012l3.463 2.004 3.462-2.004v-4.012zm-31.845 0l-3.461-2.005-3.463 2.005v4.012l3.463 2.004 3.461-2.004v-4.012zm-31.843 0l-3.464-2.005-3.462 2.005v4.012l3.462 2.004 3.464-2.004v-4.012zm-31.844 0l-3.464-2.005-3.461 2.005v4.012l3.461 2.004 3.464-2.004v-4.012zm143.299-27.662l-3.464-2.005-3.46 2.005v4.012l3.46 2.005 3.464-2.005v-4.012zm-31.845 0l-3.461-2.005-3.466 2.005v4.012l3.466 2.005 3.461-2.005v-4.012zm-31.845 0l-3.461-2.005-3.463 2.005v4.012l3.463 2.005 3.461-2.005v-4.012zm-31.844 0l-3.464-2.005-3.461 2.005v4.012l3.461 2.005 3.464-2.005v-4.012zm-31.843 0l-3.464-2.005-3.461 2.005v4.012l3.461 2.005 3.464-2.005v-4.012zm143.3-27.663l-3.464-2.005-3.461 2.005v4.012l3.461 2.006 3.464-2.006v-4.012zm-31.847 0l-3.462-2.004-3.463 2.004v4.012l3.463 2.004 3.462-2.004v-4.012zm-31.843 0l-3.462-2.005-3.463 2.005v4.012l3.463 2.006 3.462-2.006v-4.012zm-31.845 0l-3.461-2.004-3.463 2.004v4.012l3.463 2.004 3.461-2.004v-4.012zm-31.843 0l-3.464-2.004-3.462 2.004v4.012l3.462 2.004 3.464-2.004v-4.012zm143.3-27.661l-3.464-2.005-3.46 2.005v4.01l3.46 2.007 3.464-2.007v-4.01zm-31.845 0l-3.464-2.005-3.46 2.005v4.01l3.46 2.007 3.464-2.007v-4.01zm-31.845 0l-3.461-2.005-3.466 2.005v4.01l3.466 2.007 3.461-2.007v-4.01zm-31.845 0l-3.461-2.005-3.463 2.005v4.01l3.463 2.007 3.461-2.007v-4.01zm-31.844 0l-3.464-2.005-3.461 2.005v4.01l3.461 2.007 3.464-2.007v-4.01zm143.301-27.664l-3.463-2.003-3.462 2.003v4.011l3.462 2.006 3.463-2.006v-4.011zm-31.844 0l-3.464-2.003-3.461 2.003v4.011l3.461 2.006 3.464-2.006v-4.011zm-31.847 0l-3.462-2.003-3.463 2.003v4.011l3.463 2.006 3.462-2.006v-4.011zm-31.843 0l-3.462-2.003-3.463 2.003v4.011l3.463 2.006 3.462-2.006v-4.011zm-31.845 0l-3.461-2.003-3.463 2.003v4.011l3.463 2.006 3.461-2.006v-4.011zm-31.843 0l-3.464-2.003-3.462 2.003v4.011l3.462 2.006 3.464-2.006v-4.011zm143.3-27.662l-3.464-2.004-3.46 2.004v4.012l3.46 2.005 3.464-2.005v-4.012zm-31.845 0l-3.464-2.004-3.46 2.004v4.012l3.46 2.005 3.464-2.005v-4.012zm-31.845 0l-3.461-2.004-3.466 2.004v4.012l3.466 2.005 3.461-2.005v-4.012zm-31.845 0l-3.461-2.004-3.463 2.004v4.012l3.463 2.005 3.461-2.005v-4.012zm-31.844 0l-3.464-2.004-3.461 2.004v4.012l3.461 2.005 3.464-2.005v-4.012zm143.301-27.664l-3.463-2.004-3.462 2.004v4.013l3.462 2.004 3.463-2.004v-4.013zm-31.844 0l-3.464-2.004-3.461 2.004v4.013l3.461 2.006 3.464-2.006v-4.013zm-31.847 0l-3.462-2.004-3.463 2.004v4.013l3.463 2.004 3.462-2.004v-4.013zm-31.843 0l-3.462-2.004-3.463 2.004v4.013l3.463 2.006 3.462-2.006v-4.013zm-31.845 0l-3.461-2.004-3.463 2.004v4.013l3.463 2.004 3.461-2.004v-4.013zm-31.843 0l-3.464-2.004-3.462 2.004v4.013l3.462 2.004 3.464-2.004v-4.013zm143.3-27.66l-3.464-2.005-3.46 2.005v4.01l3.46 2.005 3.464-2.005v-4.01zm-31.845 0l-3.464-2.005-3.46 2.005v4.01l3.46 2.005 3.464-2.005v-4.01zm-31.845 0l-3.461-2.005-3.466 2.005v4.01l3.466 2.005 3.461-2.005v-4.01zm-31.845 0l-3.461-2.005-3.463 2.005v4.01l3.463 2.005 3.461-2.005v-4.01zm-31.844 0l-3.464-2.005-3.461 2.005v4.01l3.461 2.005 3.464-2.005v-4.01zm143.301-27.663l-3.463-2.004-3.462 2.004v4.011l3.462 2.006 3.463-2.006v-4.011zm-31.844 0l-3.464-2.006-3.461 2.006v4.011l3.461 2.006 3.464-2.006v-4.011zm-31.847 0l-3.462-2.004-3.463 2.004v4.011l3.463 2.006 3.462-2.006v-4.011zm-31.843 0l-3.462-2.006-3.463 2.006v4.011l3.463 2.006 3.462-2.006v-4.011zm-31.845 0l-3.461-2.004-3.463 2.004v4.011l3.463 2.006 3.461-2.006v-4.011zm111.457-27.662l-3.464-2.004-3.46 2.004v4.011l3.46 2.005 3.464-2.005v-4.011zm-31.845 0l-3.464-2.004-3.46 2.004v4.011l3.46 2.005 3.464-2.005v-4.011zm-31.845 0l-3.461-2.004-3.466 2.004v4.011l3.466 2.005 3.461-2.005v-4.011zm-31.845 0l-3.461-2.004-3.463 2.004v4.011l3.463 2.005 3.461-2.005v-4.011zm111.457-27.662l-3.463-2.005-3.462 2.005v4.012l3.462 2.003 3.463-2.003v-4.012zm-31.844 0l-3.464-2.005-3.461 2.005v4.012l3.461 2.003 3.464-2.003v-4.012zm-31.847 0l-3.462-2.005-3.463 2.005v4.012l3.463 2.003 3.462-2.003v-4.012zm-31.843 0l-3.462-2.005-3.463 2.005v4.012l3.463 2.003 3.462-2.003v-4.012zm-31.845 0l-3.461-2.005-3.463 2.005v4.012l3.463 2.003 3.461-2.003v-4.012zm143.301-27.664l-3.461-2.005-3.464 2.005v4.012l3.464 2.006 3.461-2.006v-4.012zm-31.844 0l-3.464-2.005-3.46 2.005v4.012l3.46 2.005 3.464-2.005v-4.012zm-31.845 0l-3.464-2.005-3.46 2.005v4.012l3.46 2.005 3.464-2.005v-4.012zm-31.845 0l-3.461-2.005-3.466 2.005v4.012l3.466 2.005 3.461-2.005v-4.012zm-31.845 0l-3.461-2.005-3.463 2.005v4.012l3.463 2.005 3.461-2.005v-4.012zm143.3-27.661l-3.461-2.006-3.463 2.006v4.011l3.463 2.006 3.461-2.006v-4.011zm-31.843 0l-3.463-2.005-3.462 2.005v4.011l3.462 2.004 3.463-2.004v-4.011zm-31.844 0l-3.464-2.006-3.461 2.006v4.011l3.461 2.006 3.464-2.006v-4.011zm-31.847 0l-3.462-2.005-3.463 2.005v4.011l3.463 2.004 3.462-2.004v-4.011zm-31.843 0l-3.462-2.006-3.463 2.006v4.011l3.463 2.006 3.462-2.006v-4.011zm143.299-27.663l-3.461-2.006-3.463 2.006v4.01l3.463 2.006 3.461-2.006v-4.01zm-31.843 0l-3.461-2.006-3.464 2.006v4.01l3.464 2.007 3.461-2.007v-4.01zm-31.844 0l-3.464-2.006-3.46 2.006v4.01l3.46 2.006 3.464-2.006v-4.01zm-31.845 0l-3.464-2.006-3.46 2.006v4.01l3.46 2.006 3.464-2.006v-4.01zm-31.845 0l-3.461-2.006-3.466 2.006v4.01l3.466 2.006 3.461-2.006v-4.01zm111.455-27.663l-3.461-2.004-3.463 2.004v4.012l3.463 2.004 3.461-2.004v-4.012zm-31.843 0l-3.463-2.004-3.462 2.004v4.012l3.462 2.004 3.463-2.004v-4.012zm-31.844 0l-3.464-2.004-3.461 2.004v4.012l3.461 2.004 3.464-2.004v-4.012zm-31.847-.002l-3.462-2.002-3.463 2.004v4.012l3.463 2.004 3.462-2.004v-4.014zm111.456-27.658l-3.461-2.006-3.463 2.006v4.01l3.463 2.005 3.461-2.005v-4.01zm-31.843 0l-3.462-2.007-3.464 2.007v4.01l3.464 2.005 3.462-2.005v-4.01zm-31.844 0l-3.464-2.006-3.46 2.006v4.01l3.46 2.005 3.464-2.005v-4.01zm-31.845-.001l-3.464-2.005-3.46 2.005v4.011l3.46 2.005 3.464-2.005v-4.011zm79.61-27.663l-3.461-2.006-3.463 2.006v4.011l3.463 2.005 3.461-2.005v-4.011zm-31.843 0l-3.463-2.004-3.462 2.004v4.011l3.462 2.004 3.463-2.004v-4.011zm-31.844 0l-3.464-2.006-3.461 2.006v4.01l3.461 2.006 3.464-2.006v-4.01zm79.609-27.662l-3.461-2.004-3.463 2.004v4.012l3.463 2.005 3.461-2.005v-4.012zm-31.843 0l-3.462-2.006-3.464 2.006v4.012l3.464 2.005 3.462-2.005v-4.012zm-31.844 0l-3.464-2.004-3.46 2.004v4.012l3.46 2.004 3.464-2.004v-4.012zm-31.845 0l-3.464-2.004-3.46 2.004v4.012l3.46 2.004 3.464-2.004v-4.012zm79.61-27.663l-3.461-2.005-3.463 2.005v4.011l3.463 2.006 3.461-2.006v-4.011zm-31.843 0l-3.463-2.005-3.462 2.005v4.011l3.462 2.006 3.463-2.006v-4.011zm-31.844 0l-3.464-2.005-3.461 2.005v4.011l3.461 2.006 3.464-2.006v-4.011zm79.609-27.665l-3.461-2.002-3.463 2.004v4.013l3.463 2.003 3.461-2.003v-4.015zm-31.843.002l-3.461-2.004-3.464 2.004v4.013l3.464 2.003 3.461-2.003v-4.013zm-31.844-.002l-3.464-2.002-3.46 2.004v4.013l3.46 2.003 3.464-2.003v-4.015zm47.765-27.661l-3.461-2.004-3.463 2.004v4.012l3.463 2.006 3.461-2.006v-4.012zm-31.843 0l-3.463-2.004-3.462 2.004v4.012l3.462 2.005 3.463-2.005v-4.012zm47.765-27.661l-3.461-2.005-3.463 2.005v4.01l3.463 2.006 3.461-2.006v-4.01zm-31.843 0l-3.461-2.007-3.464 2.007v4.01l3.464 2.006 3.461-2.006v-4.01zm15.921-27.663l-3.461-2.005-3.463 2.005v4.011l3.463 2.006 3.461-2.006v-4.011zm15.922-27.662l-3.461-2.005-3.463 2.005v4.01l3.463 2.005 3.461-2.005v-4.01zM77.048 64.791l-6.776-3.922-6.776 3.922v7.848l6.776 3.924 6.776-3.924v-7.848zm47.766-27.664l-6.775-3.923-6.776 3.923v7.85l6.776 3.925 6.775-3.924v-7.851zm-31.843 0l-6.775-3.923-6.777 3.923v7.85l6.777 3.925 6.775-3.924v-7.851zm-31.845 0l-6.776-3.923-6.776 3.923v7.85l6.776 3.925 6.776-3.924v-7.851zM236.27 9.464l-6.774-3.924-6.777 3.924v7.85l6.777 3.924 6.774-3.924v-7.85zm-31.844 0l-6.777-3.924-6.775 3.924v7.85l6.775 3.924 6.777-3.924v-7.85zm-31.845 0l-6.776-3.924-6.774 3.924v7.85l6.774 3.924 6.776-3.924v-7.85zm-31.844 0l-6.776-3.924-6.776 3.924v7.85l6.776 3.924 6.776-3.924v-7.85zm-31.844 0l-6.776-3.924-6.776 3.924v7.85l6.776 3.924 6.776-3.924v-7.85zm-31.845 0L70.272 5.54l-6.776 3.924v7.85l6.776 3.924 6.776-3.924v-7.85zm175.145-27.661l-6.777-3.925-6.775 3.925v7.849l6.775 3.923 6.777-3.923v-7.85zm-31.845 0l-6.776-3.925-6.776 3.925v7.849l6.776 3.923 6.776-3.923v-7.85zm-31.845 0l-6.777-3.925-6.774 3.925v7.849l6.774 3.923 6.777-3.923v-7.85zm-31.844 0l-6.776-3.925-6.775 3.925v7.849l6.775 3.923 6.776-3.923v-7.85zm-31.845 0l-6.775-3.925-6.776 3.925v7.849l6.776 3.923 6.775-3.923v-7.85zm-31.843 0l-6.775-3.925-6.777 3.925v7.849l6.777 3.923 6.775-3.923v-7.85zm175.142-27.661l-6.775-3.925-6.775 3.925v7.847l6.775 3.924 6.775-3.924v-7.847zm-31.843 0l-6.774-3.925-6.777 3.925v7.847l6.777 3.924 6.774-3.924v-7.847zm-31.844 0l-6.777-3.925-6.775 3.925v7.847l6.775 3.924 6.777-3.924v-7.847zm-31.845 0l-6.776-3.925-6.774 3.925v7.847l6.774 3.924 6.776-3.924v-7.847zm-31.844 0l-6.776-3.925-6.776 3.925v7.847l6.776 3.924 6.776-3.924v-7.847zm143.298-27.663l-6.775-3.925-6.774 3.925v7.848l6.774 3.926 6.775-3.926v-7.848zm-31.842 0l-6.777-3.925-6.775 3.925v7.848l6.775 3.926 6.777-3.926v-7.848zm-31.845 0l-6.776-3.925-6.776 3.925v7.848l6.776 3.926 6.776-3.926v-7.848zm-31.845 0l-6.777-3.925-6.774 3.925v7.848l6.774 3.926 6.777-3.926v-7.848zm-31.844 0l-6.776-3.925-6.775 3.925v7.848l6.775 3.926 6.776-3.926v-7.848zm143.301-27.664l-6.777-3.925-6.774 3.925v7.851l6.774 3.924 6.777-3.924v-7.851zm-31.847 0l-6.775-3.925-6.775 3.925v7.851l6.775 3.924 6.775-3.924v-7.851zm-31.843 0l-6.774-3.925-6.777 3.925v7.851l6.777 3.924 6.774-3.924v-7.851zm-31.844 0l-6.777-3.925-6.775 3.925v7.851l6.775 3.924 6.777-3.924v-7.851zm-31.845 0l-6.776-3.925-6.774 3.925v7.851l6.774 3.924 6.776-3.924v-7.851zm143.302-27.661l-6.778-3.924-6.774 3.924v7.848l6.774 3.925 6.778-3.925v-7.848zm-31.848 0l-6.775-3.924-6.774 3.924v7.848l6.774 3.925 6.775-3.925v-7.848zm-31.842 0l-6.777-3.924-6.775 3.924v7.848l6.775 3.925 6.777-3.925v-7.848zm-31.845 0l-6.776-3.924-6.776 3.924v7.848l6.776 3.925 6.776-3.925v-7.848zm-31.845 0l-6.777-3.924-6.774 3.924v7.848l6.774 3.925 6.777-3.925v-7.848zM299.96-156.51l-6.777-3.922-6.774 3.922v7.848l6.774 3.926 6.777-3.926v-7.848zm-31.847 0l-6.775-3.922-6.775 3.922v7.848l6.775 3.926 6.775-3.926v-7.848zm-31.843 0l-6.774-3.922-6.777 3.922v7.848l6.777 3.926 6.774-3.926v-7.848zm-31.844 0l-6.777-3.922-6.775 3.922v7.848l6.775 3.926 6.777-3.926v-7.848zm111.457-27.66l-6.778-3.924-6.774 3.924v7.847l6.774 3.924 6.778-3.924v-7.847zm-31.848 0l-6.775-3.924-6.774 3.924v7.847l6.774 3.924 6.775-3.924v-7.847zm-31.842 0l-6.777-3.924-6.775 3.924v7.847l6.775 3.924 6.777-3.924v-7.847zm-31.845 0l-6.776-3.924-6.776 3.924v7.847l6.776 3.924 6.776-3.924v-7.847zm79.612-27.664l-6.777-3.924-6.774 3.924v7.849l6.774 3.923 6.777-3.923v-7.849zm-31.847 0l-6.775-3.924-6.775 3.924v7.849l6.775 3.923 6.775-3.923v-7.849zm-31.843 0l-6.774-3.924-6.777 3.924v7.849l6.777 3.923 6.774-3.923v-7.849zm79.613-27.663l-6.778-3.925-6.774 3.925v7.85l6.774 3.925 6.778-3.925v-7.85zm-31.848 0l-6.775-3.925-6.774 3.925v7.85l6.774 3.925 6.775-3.925v-7.85zm-31.842 0l-6.777-3.925-6.775 3.925v7.85l6.775 3.925 6.777-3.925v-7.85zm79.611-27.661l-6.777-3.925-6.773 3.925v7.848l6.773 3.924 6.777-3.924v-7.848zm-31.844 0l-6.777-3.925-6.774 3.925v7.848l6.774 3.924 6.777-3.924v-7.848zm-31.847 0l-6.775-3.925-6.775 3.925v7.848l6.775 3.924 6.775-3.924v-7.848zm79.612-27.663l-6.777-3.926-6.774 3.926v7.848l6.774 3.925 6.777-3.925v-7.848zm-31.842 0l-6.778-3.926-6.774 3.926v7.848l6.774 3.925 6.778-3.925v-7.848zm-31.848 0l-6.775-3.926-6.774 3.926v7.848l6.774 3.925 6.775-3.925v-7.848zm-31.842 0l-6.777-3.926-6.775 3.926v7.848l6.775 3.925 6.777-3.925v-7.848zm79.611-27.662l-6.777-3.923-6.773 3.923v7.849l6.773 3.923 6.777-3.923v-7.849zm-31.844 0l-6.777-3.923-6.774 3.923v7.849l6.774 3.923 6.777-3.923v-7.849zm-31.847 0l-6.775-3.923-6.775 3.923v7.849l6.775 3.923 6.775-3.923v-7.849zm79.612-27.664l-6.777-3.922-6.774 3.922v7.849l6.774 3.925 6.777-3.925v-7.849zm-31.842 0l-6.778-3.922-6.774 3.922v7.849l6.774 3.925 6.778-3.925v-7.849zm-31.848 0l-6.775-3.922-6.774 3.922v7.849l6.774 3.925 6.775-3.925v-7.849zm79.613-27.664l-6.775-3.922-6.777 3.922v7.852l6.777 3.923 6.775-3.923v-7.852zm-31.844 0l-6.777-3.922-6.774 3.922v7.852l6.774 3.923 6.777-3.923v-7.852zm-31.844 0l-6.777-3.922-6.774 3.922v7.852l6.774 3.923 6.777-3.923v-7.852zm-31.847 0l-6.775-3.922-6.775 3.922v7.852l6.775 3.923 6.775-3.923v-7.852zm111.457-27.66l-6.775-3.924-6.777 3.924v7.849l6.777 3.924 6.775-3.924v-7.849zm-31.845 0l-6.777-3.924-6.774 3.924v7.849l6.774 3.924 6.777-3.924v-7.849zm-31.842 0l-6.778-3.924-6.774 3.924v7.849l6.774 3.924 6.778-3.924v-7.849zm-31.848 0l-6.775-3.924-6.774 3.924v7.849l6.774 3.924 6.775-3.924v-7.849zm111.457-27.661l-6.775-3.925-6.776 3.925v7.847l6.776 3.923 6.775-3.923v-7.847zm-31.844 0l-6.775-3.925-6.777 3.925v7.847l6.777 3.923 6.775-3.923v-7.847zm-31.844 0l-6.777-3.925-6.774 3.925v7.847l6.774 3.923 6.777-3.923v-7.847zm-31.844 0l-6.777-3.925-6.774 3.925v7.847l6.774 3.923 6.777-3.923v-7.847zm111.454-27.662l-6.774-3.926-6.775 3.926v7.848l6.775 3.924 6.774-3.924v-7.848zm-31.844 0l-6.775-3.926-6.777 3.926v7.848l6.777 3.924 6.775-3.924v-7.848zm-31.845 0l-6.777-3.926-6.774 3.926v7.848l6.774 3.924 6.777-3.924v-7.848zm-31.842 0l-6.778-3.926-6.774 3.926v7.848l6.774 3.924 6.778-3.924v-7.848zm-31.848 0l-6.775-3.926-6.774 3.926v7.848l6.774 3.924 6.775-3.924v-7.848zm143.301-27.665l-6.776-3.924-6.774 3.924v7.852l6.774 3.922 6.776-3.922v-7.852zm-31.844 0l-6.775-3.924-6.776 3.924v7.852l6.776 3.922 6.775-3.922v-7.852zm-31.844 0l-6.775-3.924-6.777 3.924v7.852l6.777 3.922 6.775-3.922v-7.852zm-31.844 0l-6.777-3.924-6.774 3.924v7.852l6.774 3.922 6.777-3.922v-7.852zm-31.844 0l-6.777-3.924-6.774 3.924v7.852l6.774 3.922 6.777-3.922v-7.852zm111.454-27.661l-6.774-3.923-6.775 3.923v7.849l6.775 3.924 6.774-3.924v-7.849zm-31.844 0l-6.775-3.923-6.777 3.923v7.849l6.777 3.924 6.775-3.924v-7.849zm-31.845 0l-6.777-3.923-6.774 3.923v7.849l6.774 3.924 6.777-3.924v-7.849zm-31.842 0l-6.778-3.923-6.774 3.923v7.849l6.774 3.924 6.778-3.924v-7.849zm111.453-27.664l-6.776-3.923-6.774 3.923v7.849l6.774 3.924 6.776-3.924v-7.849zm-31.844 0l-6.775-3.923-6.776 3.923v7.849l6.776 3.924 6.775-3.924v-7.849zm-31.844 0l-6.775-3.923-6.777 3.923v7.849l6.777 3.924 6.775-3.924v-7.849zm-31.844 0l-6.777-3.923-6.774 3.923v7.849l6.774 3.924 6.777-3.924v-7.849zm-31.844 0l-6.777-3.923-6.774 3.923v7.849l6.774 3.924 6.777-3.924v-7.849zm143.297-27.661l-6.775-3.924-6.774 3.924v7.847l6.774 3.926 6.775-3.926v-7.847zm-31.843 0l-6.774-3.924-6.775 3.924v7.847l6.775 3.926 6.774-3.926v-7.847zm-31.844 0l-6.775-3.924-6.777 3.924v7.847l6.777 3.926 6.775-3.926v-7.847zm-31.845 0l-6.777-3.924-6.774 3.924v7.847l6.774 3.926 6.777-3.926v-7.847zm-31.842 0l-6.778-3.924-6.774 3.924v7.847l6.774 3.926 6.778-3.926v-7.847zm143.297-27.662l-6.775-3.925-6.774 3.925v7.848l6.774 3.924 6.775-3.924v-7.848zm-31.844 0l-6.776-3.925-6.774 3.925v7.848l6.774 3.924 6.776-3.924v-7.848zm-31.844 0l-6.775-3.925-6.776 3.925v7.848l6.776 3.924 6.775-3.924v-7.848zm-31.844 0l-6.775-3.925-6.777 3.925v7.848l6.777 3.924 6.775-3.924v-7.848zm-31.844 0l-6.777-3.925-6.774 3.925v7.848l6.774 3.924 6.777-3.924v-7.848zm143.3-27.663l-6.777-3.926-6.774 3.926v7.849l6.774 3.925 6.777-3.925v-7.849zm-31.847 0l-6.775-3.926-6.774 3.926v7.849l6.774 3.925 6.775-3.925v-7.849zm-31.843 0l-6.774-3.926-6.775 3.926v7.849l6.775 3.925 6.774-3.925v-7.849zm-31.844 0l-6.775-3.926-6.777 3.926v7.849l6.777 3.925 6.775-3.925v-7.849zm-31.845 0l-6.777-3.926-6.774 3.926v7.849l6.774 3.925 6.777-3.925v-7.849zm143.302-27.662l-6.777-3.923-6.775 3.923v7.849l6.775 3.924 6.777-3.924v-7.849zm-31.847 0l-6.775-3.923-6.774 3.923v7.849l6.774 3.924 6.775-3.924v-7.849zm-31.844 0l-6.776-3.923-6.774 3.923v7.849l6.774 3.924 6.776-3.924v-7.849zm-31.844 0l-6.775-3.923-6.776 3.923v7.849l6.776 3.924 6.775-3.924v-7.849zm111.456-27.663l-6.774-3.925-6.777 3.925v7.848l6.777 3.924 6.774-3.924v-7.848zm-31.844 0l-6.777-3.925-6.774 3.925v7.848l6.774 3.924 6.777-3.924v-7.848zm-31.847 0l-6.775-3.925-6.774 3.925v7.848l6.774 3.924 6.775-3.924v-7.848zm-31.843 0l-6.774-3.925-6.775 3.925v7.848l6.775 3.924 6.774-3.924v-7.848zm111.455-27.662l-6.774-3.924-6.777 3.924v7.849l6.777 3.924 6.774-3.924v-7.849zm-31.842 0l-6.777-3.924-6.775 3.924v7.849l6.775 3.924 6.777-3.924v-7.849zm-31.847 0l-6.775-3.924-6.774 3.924v7.849l6.774 3.924 6.775-3.924v-7.849zm-31.844 0l-6.776-3.924-6.774 3.924v7.849l6.774 3.924 6.776-3.924v-7.849zm111.456-27.662l-6.775-3.924-6.777 3.924v7.847l6.777 3.925 6.775-3.925v-7.847zm-31.844 0l-6.774-3.924-6.777 3.924v7.847l6.777 3.925 6.774-3.925v-7.847zm-31.844 0l-6.777-3.924-6.774 3.924v7.847l6.774 3.925 6.777-3.925v-7.847zm-31.847 0l-6.775-3.924-6.774 3.924v7.847l6.774 3.925 6.775-3.925v-7.847zm79.612-27.663l-6.774-3.925-6.777 3.925v7.849l6.777 3.924 6.774-3.924v-7.849zm-31.842 0l-6.777-3.925-6.775 3.925v7.849l6.775 3.924 6.777-3.924v-7.849zm-31.847 0l-6.775-3.925-6.774 3.925v7.849l6.774 3.924 6.775-3.924v-7.849zm79.612-27.664l-6.775-3.924-6.777 3.924v7.85l6.777 3.924 6.775-3.924v-7.85zm-31.844 0l-6.774-3.924-6.777 3.924v7.85l6.777 3.924 6.774-3.924v-7.85zm-31.844 0l-6.777-3.924-6.774 3.924v7.85l6.774 3.924 6.777-3.924v-7.85zm47.765-27.661l-6.774-3.926-6.777 3.926v7.848l6.777 3.924 6.774-3.924v-7.848zm15.923-27.661l-6.775-3.924-6.777 3.924v7.847l6.777 3.926 6.775-3.926v-7.847zm-31.844 0l-6.774-3.924-6.777 3.924v7.847l6.777 3.926 6.774-3.926v-7.847zm15.921-27.664l-6.774-3.924-6.777 3.924v7.848l6.777 3.924 6.774-3.924v-7.848zm15.923-27.664l-6.775-3.923-6.777 3.923v7.851l6.777 3.924 6.775-3.924v-7.851zM63.335-19.476L54.35-24.68l-8.985 5.204V-9.07l8.985 5.202 8.985-5.202v-10.407zM111.1-47.138l-8.983-5.203-8.984 5.203v10.406l8.984 5.204 8.983-5.204v-10.406zm-31.844 0l-8.984-5.203-8.983 5.203v10.406l8.983 5.204 8.984-5.204v-10.406zM127.022-74.8l-8.983-5.204-8.985 5.204v10.405l8.985 5.205 8.983-5.205V-74.8zm-31.844 0l-8.982-5.204L77.21-74.8v10.405l8.986 5.204 8.983-5.204V-74.8zm-31.843 0l-8.985-5.204-8.985 5.204v10.405l8.985 5.205 8.985-5.205V-74.8zm79.609-27.664l-8.983-5.203-8.985 5.203v10.41l8.985 5.202 8.983-5.203v-10.409zm-31.844 0l-8.983-5.203-8.984 5.203v10.41l8.984 5.202 8.983-5.203v-10.409zm-31.844 0l-8.984-5.203-8.983 5.203v10.41l8.983 5.202 8.984-5.203v-10.409zm79.612-27.661l-8.985-5.204-8.983 5.204v10.407l8.983 5.203 8.985-5.203v-10.407zm-31.846 0l-8.983-5.205-8.985 5.205v10.407l8.985 5.203 8.983-5.203v-10.407zm-31.844 0l-8.982-5.204-8.986 5.204v10.407l8.986 5.203 8.983-5.203v-10.407zm-31.843 0l-8.985-5.205-8.985 5.205v10.407l8.985 5.203 8.985-5.203v-10.407zm111.454-27.663l-8.984-5.202-8.985 5.202v10.406l8.985 5.203 8.984-5.203v-10.406zm-31.845 0l-8.983-5.202-8.985 5.202v10.406l8.985 5.203 8.983-5.203v-10.406zm-31.844 0l-8.983-5.202-8.984 5.202v10.406l8.984 5.203 8.983-5.203v-10.406zm-31.844 0l-8.984-5.202-8.983 5.202v10.406l8.983 5.203 8.984-5.203v-10.406zm111.456-27.661l-8.986-5.204-8.984 5.204v10.405l8.984 5.203 8.986-5.203v-10.405zm-31.844 0l-8.985-5.204-8.983 5.204v10.405l8.983 5.203 8.985-5.203v-10.405zm-31.846 0l-8.983-5.204-8.985 5.204v10.405l8.985 5.203 8.983-5.203v-10.405zm-31.844 0l-8.982-5.204-8.986 5.204v10.405l8.986 5.203 8.983-5.203v-10.405zm-31.843 0l-8.985-5.204-8.985 5.204v10.405l8.985 5.203 8.985-5.203v-10.405zm143.298-27.664l-8.984-5.203-8.983 5.203v10.407l8.983 5.202 8.984-5.202v-10.407zm-31.844 0l-8.984-5.203-8.985 5.203v10.407l8.985 5.202 8.984-5.202v-10.407zm-31.845 0l-8.983-5.203-8.985 5.203v10.407l8.985 5.202 8.983-5.202v-10.407zm-31.844 0l-8.983-5.203-8.984 5.203v10.407l8.984 5.202 8.983-5.202v-10.407zm111.456-27.663l-8.984-5.203-8.984 5.203v10.407l8.984 5.206 8.984-5.206v-10.407zm-31.844 0l-8.986-5.203-8.984 5.203v10.407l8.984 5.206 8.986-5.206v-10.407zm-31.844 0l-8.985-5.203-8.983 5.203v10.407l8.983 5.206 8.985-5.206v-10.407zm-31.846 0l-8.983-5.203-8.985 5.203v10.407l8.985 5.206 8.983-5.206v-10.407zm111.456-27.661l-8.982-5.204-8.985 5.204v10.406l8.985 5.203 8.982-5.203v-10.406zm-31.845 0l-8.984-5.204-8.983 5.204v10.406l8.983 5.203 8.984-5.203v-10.406zm-31.844 0l-8.984-5.204-8.985 5.204v10.406l8.985 5.203 8.984-5.203v-10.406zm-31.845 0l-8.983-5.204-8.985 5.204v10.406l8.985 5.203 8.983-5.203v-10.406zm79.612-27.663l-8.984-5.203-8.984 5.203v10.406l8.984 5.204 8.984-5.204V-296.1zm-31.844 0l-8.986-5.203-8.984 5.203v10.406l8.984 5.205 8.986-5.205V-296.1zm-31.844 0l-8.985-5.203-8.983 5.203v10.406l8.983 5.204 8.985-5.204V-296.1zm79.61-27.662l-8.982-5.203-8.985 5.203v10.407l8.985 5.204 8.982-5.204v-10.407zm-31.845 0l-8.984-5.203-8.983 5.203v10.407l8.983 5.204 8.984-5.204v-10.407zm-31.844 0l-8.984-5.203-8.985 5.203v10.407l8.985 5.204 8.984-5.204v-10.407zm79.611-27.662l-8.984-5.203-8.983 5.203v10.405l8.983 5.205 8.984-5.205v-10.405zm-31.844 0l-8.984-5.203-8.984 5.203v10.405l8.984 5.203 8.984-5.203v-10.405zm-31.844 0l-8.986-5.203-8.984 5.203v10.405l8.984 5.205 8.986-5.205v-10.405zm47.766-27.664l-8.982-5.203-8.985 5.203v10.407l8.985 5.203 8.982-5.203v-10.407zm-31.845 0l-8.984-5.203-8.983 5.203v10.407l8.983 5.203 8.984-5.203v-10.407zM254.4-406.75l-8.984-5.204-8.983 5.204v10.406l8.983 5.204 8.984-5.204v-10.406zm-31.844 0l-8.984-5.204-8.984 5.204v10.406l8.984 5.204 8.984-5.204v-10.406zm-31.844 0l-8.986-5.204-8.984 5.204v10.406l8.984 5.204 8.986-5.204v-10.406zm79.612-27.662l-8.986-5.204-8.984 5.204v10.406l8.984 5.205 8.986-5.205v-10.406zm-31.846 0l-8.982-5.203-8.985 5.203v10.406l8.985 5.204 8.982-5.204v-10.406zm-31.845 0l-8.984-5.203-8.983 5.203v10.406l8.983 5.204 8.984-5.204v-10.406zm47.767-27.662l-8.984-5.203-8.983 5.203v10.406l8.983 5.205 8.984-5.205v-10.406zm-31.844 0l-8.984-5.203-8.984 5.203v10.406l8.984 5.204 8.984-5.204v-10.406zm47.768-27.662l-8.986-5.204-8.984 5.204v10.406l8.984 5.204 8.986-5.204v-10.406zm-31.846 0l-8.982-5.204-8.985 5.204v10.406l8.985 5.203 8.982-5.203v-10.406zm-31.845 0l-8.984-5.204-8.983 5.204v10.406l8.983 5.203 8.984-5.203v-10.406zm79.613-27.663l-8.986-5.204-8.984 5.204v10.407l8.984 5.202 8.986-5.202v-10.407zm-31.846 0l-8.984-5.205-8.983 5.205v10.407l8.983 5.202 8.984-5.202v-10.407zm-31.844 0l-8.984-5.204-8.984 5.204v10.407l8.984 5.202 8.984-5.202v-10.407zm47.768-27.663l-8.986-5.204-8.984 5.204v10.406l8.984 5.202 8.986-5.202v-10.406zm-31.846 0l-8.982-5.204-8.985 5.204v10.406l8.985 5.202 8.982-5.202v-10.406zm-31.845 0l-8.984-5.204-8.983 5.204v10.406l8.983 5.202 8.984-5.202v-10.406zm79.613-27.661l-8.986-5.205-8.984 5.205v10.404l8.984 5.204 8.986-5.204v-10.404zm-31.846 0l-8.984-5.205-8.983 5.205v10.404l8.983 5.204 8.984-5.204v-10.404zm-31.844 0l-8.984-5.205-8.984 5.205v10.404l8.984 5.204 8.984-5.204v-10.404zm79.612-27.664l-8.985-5.202-8.983 5.202v10.406l8.983 5.205 8.985-5.205v-10.406zm-31.844 0l-8.986-5.202-8.984 5.202v10.406l8.984 5.205 8.986-5.205v-10.406zm-31.846 0l-8.982-5.202-8.985 5.202v10.406l8.985 5.205 8.982-5.205v-10.406zm-31.845 0l-8.984-5.202-8.983 5.202v10.406l8.983 5.205 8.984-5.205v-10.406zM318.09-628.05l-8.985-5.203-8.983 5.203v10.409l8.983 5.204 8.985-5.204v-10.409zm-31.844 0l-8.986-5.203-8.984 5.203v10.409l8.984 5.204 8.986-5.204v-10.409zm-31.846 0l-8.984-5.203-8.983 5.203v10.409l8.983 5.204 8.984-5.204v-10.409zm-31.844 0l-8.984-5.203-8.984 5.203v10.409l8.984 5.204 8.984-5.204v-10.409zm143.3-27.66l-8.983-5.204-8.985 5.204v10.405l8.985 5.203 8.983-5.203v-10.405zm-31.843 0l-8.986-5.204-8.982 5.204v10.405l8.982 5.203 8.986-5.203v-10.405zm-31.845 0l-8.985-5.204-8.983 5.204v10.405l8.983 5.203 8.985-5.203v-10.405zm-31.844 0l-8.986-5.205-8.984 5.205v10.405l8.984 5.203 8.986-5.203v-10.405zm-31.846 0l-8.982-5.204-8.985 5.204v10.405l8.985 5.203 8.982-5.203v-10.405zm143.3-27.664l-8.983-5.203-8.984 5.203v10.407l8.984 5.202 8.983-5.202v-10.407zm-31.844 0l-8.986-5.203-8.981 5.203v10.407l8.981 5.202 8.986-5.202v-10.407zm-31.844 0l-8.985-5.203-8.983 5.203v10.407l8.983 5.202 8.985-5.202v-10.407zm-31.844 0l-8.986-5.203-8.984 5.203v10.407l8.984 5.202 8.986-5.202v-10.407zm-31.846 0l-8.984-5.203-8.983 5.203v10.407l8.983 5.202 8.984-5.202v-10.407zm143.3-27.662l-8.983-5.204-8.985 5.204v10.407l8.985 5.202 8.983-5.202v-10.407zm-31.844 0l-8.983-5.204-8.985 5.204v10.407l8.985 5.202 8.983-5.202v-10.407zm-31.843 0l-8.986-5.204-8.982 5.204v10.407l8.982 5.202 8.986-5.202v-10.407zm-31.845 0l-8.985-5.204-8.983 5.204v10.407l8.983 5.202 8.985-5.202v-10.407zm111.456-27.663l-8.984-5.203-8.985 5.203v10.406l8.985 5.204 8.984-5.204v-10.406zm-31.846 0l-8.983-5.203-8.984 5.203v10.406l8.984 5.204 8.983-5.204v-10.406zm-31.844 0l-8.986-5.203-8.981 5.203v10.406l8.981 5.204 8.986-5.204v-10.406zm-31.844 0l-8.985-5.203-8.983 5.203v10.406l8.983 5.204 8.985-5.204v-10.406zm111.456-27.663l-8.986-5.203-8.984 5.203v10.408l8.984 5.203 8.986-5.203v-10.408zm-31.846 0l-8.983-5.203-8.985 5.203v10.408l8.985 5.203 8.983-5.203v-10.408zm-31.844 0l-8.983-5.203-8.985 5.203v10.408l8.985 5.203 8.983-5.203v-10.408zm79.612-27.663l-8.986-5.203-8.981 5.203v10.408l8.981 5.204 8.986-5.204v-10.408zm-31.844 0l-8.984-5.203-8.985 5.203v10.408l8.985 5.204 8.984-5.204v-10.408zm-31.846 0l-8.983-5.203-8.984 5.203v10.408l8.984 5.204 8.983-5.204v-10.408zm111.457-27.661l-8.985-5.205-8.983 5.205v10.406l8.983 5.204 8.985-5.204v-10.406zm-31.845 0l-8.985-5.205-8.982 5.205v10.406l8.982 5.204 8.985-5.204v-10.406zm-31.844 0l-8.986-5.205-8.984 5.205v10.406l8.984 5.204 8.986-5.204v-10.406zm-31.846 0l-8.983-5.205-8.985 5.205v10.406l8.985 5.204 8.983-5.204v-10.406zm79.613-27.661l-8.986-5.204-8.983 5.204v10.405l8.983 5.204 8.986-5.204v-10.405zm-31.845 0l-8.986-5.204-8.981 5.204v10.405l8.981 5.204 8.986-5.204v-10.405zm-31.844 0l-8.984-5.204-8.985 5.204v10.405l8.985 5.204 8.984-5.204v-10.405zm79.611-27.664l-8.985-5.203-8.983 5.203v10.406l8.983 5.204 8.985-5.204v-10.406zm-31.845 0l-8.985-5.203-8.982 5.203v10.406l8.982 5.204 8.985-5.204v-10.406zm-31.844 0l-8.986-5.203-8.984 5.203v10.406l8.984 5.204 8.986-5.204v-10.406zm79.61-27.663l-8.982-5.204-8.986 5.204v10.409l8.986 5.202 8.982-5.202v-10.409zm-31.843 0l-8.986-5.204-8.983 5.204v10.409l8.983 5.202 8.986-5.202v-10.409zm-31.845 0l-8.986-5.204-8.981 5.204v10.409l8.981 5.202 8.986-5.202v-10.409zm-31.844 0l-8.984-5.204-8.985 5.204v10.409l8.985 5.202 8.984-5.202v-10.409zm111.454-27.662l-8.983-5.204-8.985 5.204v10.407l8.985 5.202 8.983-5.202v-10.407zm-31.843 0l-8.985-5.204-8.983 5.204v10.407l8.983 5.202 8.985-5.202v-10.407zm-31.845 0l-8.985-5.204-8.982 5.204v10.407l8.982 5.202 8.985-5.202v-10.407zm-31.844 0l-8.986-5.204-8.984 5.204v10.407l8.984 5.202 8.986-5.202v-10.407zM541-959.997l-8.983-5.204-8.985 5.204v10.405l8.985 5.204 8.983-5.204v-10.405zm-31.844 0l-8.982-5.205-8.986 5.205v10.405l8.986 5.204 8.982-5.204v-10.405zm-31.843 0l-8.986-5.204-8.983 5.204v10.405l8.983 5.204 8.986-5.204v-10.405zm-31.845 0l-8.986-5.204-8.981 5.204v10.405l8.981 5.204 8.986-5.204v-10.405zm-31.844 0l-8.984-5.204-8.985 5.204v10.405l8.985 5.204 8.984-5.204v-10.405zm111.454-27.664l-8.983-5.204-8.985 5.204v10.407l8.985 5.204 8.983-5.204v-10.407zm-31.843 0l-8.985-5.204-8.983 5.204v10.407l8.983 5.204 8.985-5.204v-10.407zm-31.845 0l-8.985-5.204-8.982 5.204v10.407l8.982 5.204 8.985-5.204v-10.407zm-31.844 0l-8.986-5.204-8.984 5.204v10.407l8.984 5.204 8.986-5.204v-10.407zM541-1015.32l-8.983-5.21-8.985 5.21v10.4l8.985 5.208 8.983-5.208v-10.4zm-31.844 0l-8.982-5.21-8.986 5.21v10.4l8.986 5.209 8.982-5.209v-10.4zm-31.843 0l-8.986-5.21-8.983 5.21v10.4l8.983 5.208 8.986-5.208v-10.4zm-31.845 0l-8.986-5.21-8.981 5.21v10.4l8.981 5.208 8.986-5.208v-10.4zm79.61-27.67l-8.983-5.2-8.985 5.2v10.41l8.985 5.2 8.983-5.2v-10.41zm-31.843 0l-8.985-5.2-8.983 5.2v10.41l8.983 5.21 8.985-5.21v-10.41zm-31.845 0l-8.985-5.2-8.982 5.2v10.41l8.982 5.21 8.985-5.21v-10.41zm-31.844 0l-8.986-5.2-8.984 5.2v10.41l8.984 5.21 8.986-5.21v-10.41zM81.466-214.391l-11.194-6.483-11.193 6.483v12.963l11.193 6.484 11.194-6.484v-12.963zm-31.845 0l-11.193-6.483-11.193 6.483v12.963l11.193 6.484 11.193-6.484v-12.963zm47.765-27.663l-11.19-6.482-11.193 6.482v12.965l11.193 6.483 11.19-6.483v-12.965zm-31.843 0l-11.193-6.482-11.192 6.482v12.965l11.192 6.483 11.193-6.483v-12.965zm47.767-27.662l-11.193-6.484-11.194 6.484v12.964l11.194 6.482 11.193-6.482v-12.964zm-31.844 0L70.272-276.2l-11.193 6.484v12.964l11.193 6.482 11.194-6.482v-12.964zm-31.845 0L38.428-276.2l-11.193 6.484v12.964l11.193 6.482 11.193-6.482v-12.964zm79.61-27.662l-11.192-6.483-11.194 6.483v12.964l11.194 6.482 11.192-6.482v-12.964zm-31.845 0l-11.19-6.483-11.193 6.483v12.964l11.193 6.482 11.19-6.482v-12.964zm-31.843 0l-11.193-6.483-11.192 6.483v12.964l11.192 6.482 11.193-6.482v-12.964zm-31.845 0l-11.192-6.483-11.194 6.483v12.964l11.194 6.482 11.192-6.482v-12.964zm111.457-27.663l-11.194-6.484-11.193 6.484v12.966l11.193 6.482 11.194-6.482v-12.966zm-31.845 0l-11.193-6.484-11.194 6.484v12.966l11.194 6.482 11.193-6.482v-12.966zm-31.844 0l-11.194-6.484-11.193 6.484v12.966l11.193 6.482 11.194-6.482v-12.966zm-31.845 0l-11.193-6.484-11.193 6.484v12.966l11.193 6.482 11.193-6.482v-12.966zm111.454-27.664l-11.192-6.481-11.193 6.481v12.965l11.193 6.485 11.192-6.485v-12.965zm-31.844 0l-11.192-6.481-11.194 6.481v12.965l11.194 6.485 11.192-6.485v-12.965zm-31.845 0l-11.19-6.481-11.193 6.481v12.965l11.193 6.485 11.19-6.485v-12.965zm-31.843 0l-11.193-6.481-11.192 6.481v12.965l11.192 6.485 11.193-6.485v-12.965zm-31.845 0l-11.192-6.481-11.194 6.481v12.965l11.194 6.485 11.192-6.485v-12.965zm143.3-27.663l-11.193-6.481-11.193 6.481v12.967l11.193 6.482 11.193-6.482v-12.967zm-31.843 0l-11.194-6.481-11.193 6.481v12.967l11.193 6.482 11.194-6.482v-12.967zm-31.845 0l-11.193-6.481-11.194 6.481v12.967l11.194 6.482 11.193-6.482v-12.967zm-31.844 0l-11.194-6.481-11.193 6.481v12.967l11.193 6.482 11.194-6.482v-12.967zm-31.845 0l-11.193-6.481-11.193 6.481v12.967l11.193 6.482 11.193-6.482v-12.967zm-31.845 0l-11.194-6.481-11.192 6.481v12.967l11.192 6.482 11.194-6.482v-12.967zm143.299-27.661l-11.192-6.483-11.193 6.483v12.964l11.193 6.481 11.192-6.481v-12.964zm-31.844 0l-11.192-6.483-11.194 6.483v12.964l11.194 6.481 11.192-6.481v-12.964zm-31.845 0l-11.19-6.483-11.193 6.483v12.964l11.193 6.481 11.19-6.481v-12.964zm-31.843 0l-11.193-6.483-11.192 6.483v12.964l11.192 6.481 11.193-6.481v-12.964zm-31.845 0l-11.192-6.483-11.194 6.483v12.964l11.194 6.481 11.192-6.481v-12.964zm143.3-27.662l-11.193-6.483-11.193 6.483v12.964l11.193 6.484 11.193-6.484v-12.964zm-31.843 0l-11.194-6.483-11.193 6.483v12.964l11.193 6.484 11.194-6.484v-12.964zm-31.845 0l-11.193-6.483-11.194 6.483v12.964l11.194 6.484 11.193-6.484v-12.964zm-31.844 0l-11.194-6.483-11.193 6.483v12.964l11.193 6.484 11.194-6.484v-12.964zm-31.845 0l-11.193-6.483-11.193 6.483v12.964l11.193 6.484 11.193-6.484v-12.964zm-31.845 0l-11.194-6.483-11.192 6.483v12.964l11.192 6.484 11.194-6.484v-12.964zm175.144-27.662l-11.194-6.483-11.192 6.483v12.963l11.192 6.484 11.194-6.484v-12.963zm-31.845 0l-11.192-6.483-11.193 6.483v12.963l11.193 6.484 11.192-6.484v-12.963zm-31.844 0l-11.192-6.483-11.194 6.483v12.963l11.194 6.484 11.192-6.484v-12.963zm-31.845 0l-11.19-6.483-11.193 6.483v12.963l11.193 6.484 11.19-6.484v-12.963zm-31.843 0l-11.193-6.483-11.192 6.483v12.963l11.192 6.484 11.193-6.484v-12.963zm-31.845 0l-11.192-6.483-11.194 6.483v12.963l11.194 6.484 11.192-6.484v-12.963zm-31.844 0l-11.193-6.483-11.192 6.483v12.963l11.192 6.484 11.193-6.484v-12.963zm175.144-27.664l-11.193-6.48-11.193 6.48v12.965l11.193 6.483 11.193-6.483v-12.965zm-31.843 0l-11.194-6.48-11.193 6.48v12.965l11.193 6.483 11.194-6.483v-12.965zm-31.845 0l-11.193-6.48-11.194 6.48v12.965l11.194 6.483 11.193-6.483v-12.965zm-31.844 0l-11.194-6.48-11.193 6.48v12.965l11.193 6.483 11.194-6.483v-12.965zm-31.845 0l-11.193-6.48-11.193 6.48v12.965l11.193 6.483 11.193-6.483v-12.965zm-31.845 0l-11.194-6.48-11.192 6.48v12.965l11.192 6.483 11.194-6.483v-12.965zm175.144-27.66l-11.194-6.484-11.192 6.484v12.965l11.192 6.48 11.194-6.48v-12.965zm-31.845 0l-11.192-6.484-11.193 6.484v12.965l11.193 6.48 11.192-6.48v-12.965zm-31.844 0l-11.192-6.484-11.194 6.484v12.965l11.194 6.48 11.192-6.48v-12.965zm-31.845 0l-11.19-6.484-11.193 6.484v12.965l11.193 6.48 11.19-6.48v-12.965zm-31.843 0l-11.193-6.484-11.192 6.484v12.965l11.192 6.48 11.193-6.48v-12.965zm-31.845 0l-11.192-6.484-11.194 6.484v12.965l11.194 6.48 11.192-6.48v-12.965zm-31.844 0l-11.193-6.484-11.192 6.484v12.965l11.192 6.48 11.193-6.48v-12.965zm175.144-27.664l-11.193-6.482-11.193 6.482v12.965l11.193 6.484 11.193-6.484v-12.965zm-31.843 0l-11.194-6.482-11.193 6.482v12.965l11.193 6.484 11.194-6.484v-12.965zm-31.845 0l-11.193-6.482-11.194 6.482v12.965l11.194 6.484 11.193-6.484v-12.965zm-31.844 0l-11.194-6.482-11.193 6.482v12.965l11.193 6.484 11.194-6.484v-12.965zm-31.845 0l-11.193-6.482-11.193 6.482v12.965l11.193 6.484 11.193-6.484v-12.965zm-31.845 0l-11.194-6.482-11.192 6.482v12.965l11.192 6.484 11.194-6.484v-12.965zm175.144-27.661l-11.194-6.485-11.192 6.485v12.963l11.192 6.482 11.194-6.482v-12.963zm-31.845 0l-11.192-6.485-11.193 6.485v12.963l11.193 6.482 11.192-6.482v-12.963zm-31.844 0l-11.192-6.485-11.194 6.485v12.963l11.194 6.482 11.192-6.482v-12.963zm-31.845 0l-11.19-6.485-11.193 6.485v12.963l11.193 6.482 11.19-6.482v-12.963zm-31.843 0l-11.193-6.485-11.192 6.485v12.963l11.192 6.482 11.193-6.482v-12.963zm-31.845 0l-11.192-6.485-11.194 6.485v12.963l11.194 6.482 11.192-6.482v-12.963zm-31.844 0l-11.193-6.485-11.192 6.485v12.963l11.192 6.482 11.193-6.482v-12.963zm175.144-27.663l-11.193-6.483-11.193 6.483v12.964l11.193 6.483 11.193-6.483v-12.964zm-31.843 0l-11.194-6.483-11.193 6.483v12.964l11.193 6.483 11.194-6.483v-12.964zm-31.845 0l-11.193-6.483-11.194 6.483v12.964l11.194 6.483 11.193-6.483v-12.964zm-31.844 0l-11.194-6.483-11.193 6.483v12.964l11.193 6.483 11.194-6.483v-12.964zm-31.845 0l-11.193-6.483-11.193 6.483v12.964l11.193 6.483 11.193-6.483v-12.964zm-31.845 0l-11.194-6.483-11.192 6.483v12.964l11.192 6.483 11.194-6.483v-12.964zm175.144-27.664l-11.194-6.483-11.192 6.483v12.966l11.192 6.483 11.194-6.483v-12.966zm-31.845 0l-11.192-6.483-11.193 6.483v12.966l11.193 6.483 11.192-6.483v-12.966zm-31.844 0l-11.192-6.483-11.194 6.483v12.966l11.194 6.483 11.192-6.483v-12.966zm-31.845 0l-11.19-6.483-11.193 6.483v12.966l11.193 6.483 11.19-6.483v-12.966zm-31.843 0l-11.193-6.483-11.192 6.483v12.966l11.192 6.483 11.193-6.483v-12.966zm-31.845 0l-11.192-6.483-11.194 6.483v12.966l11.194 6.483 11.192-6.483v-12.966zm-31.844 0l-11.193-6.483-11.192 6.483v12.966l11.192 6.483 11.193-6.483v-12.966zm206.988-27.661l-11.193-6.485-11.194 6.485v12.963l11.194 6.483 11.193-6.483v-12.963zm-31.844 0l-11.193-6.485-11.193 6.485v12.963l11.193 6.483 11.193-6.483v-12.963zm-31.843 0l-11.194-6.485-11.193 6.485v12.963l11.193 6.483 11.194-6.483v-12.963zm-31.845 0l-11.193-6.485-11.194 6.485v12.963l11.194 6.483 11.193-6.483v-12.963zm-31.844 0l-11.194-6.485-11.193 6.485v12.963l11.193 6.483 11.194-6.483v-12.963zm-31.845 0l-11.193-6.485-11.193 6.485v12.963l11.193 6.483 11.193-6.483v-12.963zm-31.845 0l-11.194-6.485-11.192 6.485v12.963l11.192 6.483 11.194-6.483v-12.963zm206.99-27.663l-11.194-6.481-11.193 6.481v12.963l11.193 6.485 11.194-6.485v-12.963zm-31.846 0l-11.194-6.481-11.192 6.481v12.963l11.192 6.485 11.194-6.485v-12.963zm-31.845 0l-11.192-6.481-11.193 6.481v12.963l11.193 6.485 11.192-6.485v-12.963zm-31.844 0l-11.192-6.481-11.194 6.481v12.963l11.194 6.485 11.192-6.485v-12.963zm-31.845 0l-11.19-6.481-11.193 6.481v12.963l11.193 6.485 11.19-6.485v-12.963zm-31.843 0l-11.193-6.481-11.192 6.481v12.963l11.192 6.485 11.193-6.485v-12.963zm-31.845 0l-11.192-6.481-11.194 6.481v12.963l11.194 6.485 11.192-6.485v-12.963zm238.834-27.661l-11.194-6.485-11.192 6.485v12.965l11.192 6.479 11.194-6.479v-12.965zm-31.846 0l-11.19-6.485-11.194 6.485v12.965l11.194 6.479 11.19-6.479v-12.965zm-31.844 0l-11.193-6.485-11.194 6.485v12.965l11.194 6.479 11.193-6.479v-12.965zm-31.844 0l-11.193-6.485-11.193 6.485v12.965l11.193 6.479 11.193-6.479v-12.965zm-31.843 0l-11.194-6.485-11.193 6.485v12.965l11.193 6.479 11.194-6.479v-12.965zm-31.845 0l-11.193-6.485-11.194 6.485v12.965l11.194 6.479 11.193-6.479v-12.965zm-31.844 0l-11.194-6.485-11.193 6.485v12.965l11.193 6.479 11.194-6.479v-12.965zm206.988-27.664l-11.194-6.481-11.193 6.481v12.965l11.193 6.484 11.194-6.484v-12.965zm-31.846 0l-11.192-6.481-11.191 6.481v12.965l11.191 6.484 11.192-6.484v-12.965zm-31.842 0l-11.194-6.481-11.193 6.481v12.965l11.193 6.484 11.194-6.484v-12.965zm-31.846 0l-11.194-6.481-11.192 6.481v12.965l11.192 6.484 11.194-6.484v-12.965zm-31.845 0l-11.192-6.481-11.193 6.481v12.965l11.193 6.484 11.192-6.484v-12.965zm-31.844 0l-11.192-6.481-11.194 6.481v12.965l11.194 6.484 11.192-6.484v-12.965zm-31.845 0l-11.19-6.481-11.193 6.481v12.965l11.193 6.484 11.19-6.484v-12.965zm238.833-27.663l-11.192-6.483-11.193 6.483v12.966l11.193 6.482 11.192-6.482v-12.966zm-31.842 0l-11.194-6.483-11.194 6.483v12.966l11.194 6.482 11.194-6.482v-12.966zm-31.845 0l-11.194-6.483-11.192 6.483v12.966l11.192 6.482 11.194-6.482v-12.966zm-31.846 0l-11.19-6.483-11.194 6.483v12.966l11.194 6.482 11.19-6.482v-12.966zm-31.844 0l-11.193-6.483-11.194 6.483v12.966l11.194 6.482 11.193-6.482v-12.966zm-31.844 0l-11.193-6.483-11.193 6.483v12.966l11.193 6.482 11.193-6.482v-12.966zm-31.843 0l-11.194-6.483-11.193 6.483v12.966l11.193 6.482 11.194-6.482v-12.966zm206.987-27.661l-11.194-6.484-11.189 6.484v12.963l11.189 6.482 11.194-6.482v-12.963zm-31.843 0l-11.194-6.484-11.193 6.484v12.963l11.193 6.482 11.194-6.482v-12.963zm-31.845 0l-11.194-6.484-11.193 6.484v12.963l11.193 6.482 11.194-6.482v-12.963zm-31.846 0l-11.192-6.484-11.191 6.484v12.963l11.191 6.482 11.192-6.482v-12.963zm-31.842 0l-11.194-6.484-11.193 6.484v12.963l11.193 6.482 11.194-6.482v-12.963zm-31.846 0l-11.194-6.484-11.192 6.484v12.963l11.192 6.482 11.194-6.482v-12.963zm-31.845 0l-11.192-6.484-11.193 6.484v12.963l11.193 6.482 11.192-6.482v-12.963zm206.989-27.664l-11.191-6.483-11.193 6.483v12.965l11.193 6.484 11.191-6.484v-12.965zm-31.845 0l-11.192-6.483-11.193 6.483v12.965l11.193 6.484 11.192-6.484v-12.965zm-31.842 0l-11.194-6.483-11.194 6.483v12.965l11.194 6.484 11.194-6.484v-12.965zm-31.845 0l-11.194-6.483-11.192 6.483v12.965l11.192 6.484 11.194-6.484v-12.965zm-31.846 0l-11.19-6.483-11.194 6.483v12.965l11.194 6.484 11.19-6.484v-12.965zm-31.844 0l-11.193-6.483-11.194 6.483v12.965l11.194 6.484 11.193-6.484v-12.965zm-31.844 0l-11.193-6.483-11.193 6.483v12.965l11.193 6.484 11.193-6.484v-12.965zm206.987-27.661l-11.19-6.484-11.193 6.484v12.963l11.193 6.483 11.19-6.483v-12.963zm-31.843 0l-11.194-6.484-11.189 6.484v12.963l11.189 6.483 11.194-6.483v-12.963zm-31.843 0l-11.194-6.484-11.193 6.484v12.963l11.193 6.483 11.194-6.483v-12.963zm-31.845 0l-11.194-6.484-11.193 6.484v12.963l11.193 6.483 11.194-6.483v-12.963zm-31.846 0l-11.192-6.484-11.191 6.484v12.963l11.191 6.483 11.192-6.483v-12.963zm-31.842 0l-11.194-6.484-11.193 6.484v12.963l11.193 6.483 11.194-6.483v-12.963zm-31.846 0l-11.194-6.484-11.192 6.484v12.963l11.192 6.483 11.194-6.483v-12.963zm206.991-27.663l-11.194-6.481-11.193 6.481v12.964l11.193 6.484 11.194-6.484v-12.964zm-31.847 0l-11.191-6.481-11.193 6.481v12.964l11.193 6.484 11.191-6.484v-12.964zm-31.845 0l-11.192-6.481-11.193 6.481v12.964l11.193 6.484 11.192-6.484v-12.964zm-31.842 0l-11.194-6.481-11.194 6.481v12.964l11.194 6.484 11.194-6.484v-12.964zm-31.845 0l-11.194-6.481-11.192 6.481v12.964l11.192 6.484 11.194-6.484v-12.964zm-31.846 0l-11.19-6.481-11.194 6.481v12.964l11.194 6.484 11.19-6.484v-12.964zm143.299-27.664l-11.19-6.481-11.193 6.481v12.968l11.193 6.481 11.19-6.481v-12.968zm-31.843 0l-11.194-6.481-11.189 6.481v12.968l11.189 6.481 11.194-6.481v-12.968zm-31.843 0l-11.194-6.481-11.193 6.481v12.968l11.193 6.481 11.194-6.481v-12.968zm-31.845 0l-11.194-6.481-11.193 6.481v12.968l11.193 6.481 11.194-6.481v-12.968zm111.457-27.661l-11.194-6.483-11.193 6.484v12.963l11.193 6.483 11.194-6.483v-12.964zm-31.847.001l-11.191-6.484-11.193 6.484v12.963l11.193 6.483 11.191-6.483v-12.963zm-31.845 0l-11.192-6.484-11.193 6.484v12.963l11.193 6.483 11.192-6.483v-12.963zm-31.842 0l-11.194-6.484-11.194 6.484v12.963l11.194 6.483 11.194-6.483v-12.963zm79.608-27.662l-11.19-6.484-11.193 6.484v12.963l11.193 6.483 11.19-6.483v-12.963zm-31.843 0l-11.194-6.484-11.189 6.484v12.963l11.189 6.483 11.194-6.483v-12.963zm-31.843 0l-11.194-6.484-11.193 6.484v12.963l11.193 6.483 11.194-6.483v-12.963z" fill="url(#paint0_linear)"/></g><defs><linearGradient id="paint0_linear" x1="549.51" y1="-230.916" x2="-233.631" y2="-356.522" gradientUnits="userSpaceOnUse"><stop stop-color="#E63E24"/><stop offset="1" stop-color="#FFED00"/></linearGradient><clipPath id="clip0"><path fill="#fff" transform="rotate(-180 270.5 230)" d="M0 0h541v580H0z"/></clipPath></defs></svg>