<svg width="541" height="460" fill="none" xmlns="http://www.w3.org/2000/svg"><g clip-path="url(#clip0)"><path d="M141.089 1328.94l11.194 6.48 11.193-6.48v-12.97l-11.193-6.48-11.194 6.48v12.97zm612.609-336.328l3.63 2.102 3.631-2.102v-4.206l-3.631-2.103-3.63 2.103v4.206zm-15.923 27.658l3.63 2.11 3.632-2.11v-4.2l-3.632-2.11-3.63 2.11v4.2zm15.923 27.67l3.63 2.1 3.631-2.1v-4.21l-3.631-2.1-3.63 2.1v4.21zm-15.923 27.66l3.63 2.1 3.632-2.1v-4.21l-3.632-2.1-3.63 2.1v4.21zM638.46 690.516l7.412 4.291 7.413-4.291v-8.587l-7.413-4.295-7.412 4.295v8.587zm0 55.324l7.412 4.293 7.413-4.293v-8.588l-7.413-4.29-7.412 4.29v8.588zm-15.921 27.661l7.411 4.295 7.412-4.295v-8.585l-7.412-4.294-7.411 4.294v8.585zm31.844 0l7.412 4.293 7.412-4.293v-8.585l-7.412-4.292-7.412 4.292v8.585zm-15.923 27.663l7.412 4.295 7.413-4.295v-8.585l-7.413-4.296-7.412 4.296v8.585zm-15.921 27.664l7.411 4.29 7.412-4.29v-8.587l-7.412-4.295-7.411 4.295v8.587zm31.844 0l7.412 4.29 7.412-4.29v-8.587l-7.412-4.294-7.412 4.294v8.587zm-47.766 27.661l7.411 4.293 7.412-4.293v-8.587l-7.412-4.292-7.411 4.292v8.587zm31.843 0l7.412 4.293 7.413-4.293v-8.587l-7.413-4.292-7.412 4.292v8.587zm31.845 0l7.411 4.293 7.412-4.293v-8.587l-7.412-4.292-7.411 4.292v8.587zm-47.766 27.663l7.411 4.293 7.412-4.293v-8.586l-7.412-4.295-7.411 4.295v8.586zm31.844 0l7.412 4.293 7.412-4.293v-8.586l-7.412-4.294-7.412 4.294v8.586zm-47.766 27.662l7.411 4.293 7.412-4.293v-8.585l-7.412-4.293-7.411 4.293v8.585zm31.843 0l7.412 4.293 7.413-4.293v-8.585l-7.413-4.293-7.412 4.293v8.585zm31.845 0l7.411 4.293 7.412-4.293v-8.585l-7.412-4.293-7.411 4.293v8.585zm-79.611 27.662l7.413 4.292 7.41-4.292v-8.586l-7.41-4.292-7.413 4.292v8.586zm31.845 0l7.411 4.292 7.412-4.292v-8.586l-7.412-4.293-7.411 4.293v8.586zm31.844 0l7.412 4.292 7.412-4.292v-8.586l-7.412-4.292-7.412 4.292v8.586zm31.845 0l7.412 4.292 7.41-4.292v-8.586l-7.41-4.293-7.412 4.293v8.586zm-79.611 27.663l7.411 4.294 7.412-4.294v-8.588l-7.412-4.291-7.411 4.291v8.588zm31.843 0l7.412 4.294 7.413-4.294v-8.588l-7.413-4.291-7.412 4.291v8.588zm31.845 0l7.411 4.294 7.412-4.294v-8.588l-7.412-4.291-7.411 4.291v8.588zm-47.766 27.662l7.411 4.293 7.412-4.293v-8.586l-7.412-4.292-7.411 4.292v8.586zm31.844 0l7.412 4.293 7.412-4.293v-8.586l-7.412-4.292-7.412 4.292v8.586zm-15.923 27.659l7.412 4.3 7.413-4.3v-8.58l-7.413-4.3-7.412 4.3v8.58zm66.211-56.781l4.89 2.833 4.892-2.833v-5.668l-4.892-2.833-4.89 2.833v5.668zm-15.923 27.663l4.892 2.832 4.89-2.832v-5.667l-4.89-2.833-4.892 2.833v5.667zm31.846 0l4.889 2.832 4.891-2.832v-5.667l-4.891-2.833-4.889 2.833v5.667zM704.671 1021l4.89 2.84 4.892-2.84v-5.66l-4.892-2.84-4.89 2.84v5.66zm15.923 27.67l4.889 2.83 4.891-2.83V1043l-4.891-2.83-4.889 2.83v5.67zM104.212-88.155l.306.178.304-.178v-.353l-.304-.177-.306.177v.353zm31.843 0l.305.178.306-.178v-.353l-.306-.177-.305.177v.353zm31.845 0l.305.178.305-.178v-.353l-.305-.177-.305.177v.353zm31.844 0l.308.178.305-.178v-.353l-.305-.177-.308.177v.353zm31.846 0l.305.178.306-.178v-.353l-.306-.177-.305.177v.353zm31.844 0l.306.178.304-.178v-.353l-.304-.177-.306.177v.353zm31.845 0l.305.178.305-.178v-.353l-.305-.177-.305.177v.353zm31.842 0l.307.178.306-.178v-.353l-.306-.177-.307.177v.353zm31.848 0l.305.178.305-.178v-.353l-.305-.177-.305.177v.353zM151.977-60.493l.306.177.305-.177v-.354l-.305-.177-.306.177v.354zm31.846 0l.304.177.308-.177v-.354l-.308-.177-.304.177v.354zm31.845 0l.305.177.306-.177v-.354l-.306-.177-.305.177v.354zm31.844 0l.305.177.305-.177v-.354l-.305-.177-.305.177v.354zm31.843 0l.307.177.305-.177v-.354l-.305-.177-.307.177v.354zm31.845 0l.304.177.307-.177v-.354l-.307-.177-.304.177v.354zm31.845 0l.306.177.305-.177v-.354l-.305-.177-.306.177v.354zm31.845 0l.305.177.306-.177v-.354l-.306-.177-.305.177v.354zm31.844 0l.305.177.305-.177v-.354l-.305-.177-.305.177v.354zM231.59-32.819l.305.177.306-.177v-.354l-.306-.177-.305.177v.354zm31.844 0l.306.177.304-.177v-.354l-.304-.177-.306.177v.354zm31.845 0l.305.177.305-.177v-.354l-.305-.177-.305.177v.354zm31.842 0l.307.177.306-.177v-.354l-.306-.177-.307.177v.354zm31.848 0l.305.177.305-.177v-.354l-.305-.177-.305.177v.354zM311.2-5.157l.304.176.307-.176v-.355l-.307-.177-.304.177v.355zm78.663-27.119l1.254.721 1.254-.72v-1.454l-1.254-.72-1.254.72v1.453zm31.846 0l1.252.721 1.254-.72v-1.454l-1.254-.72-1.252.72v1.453zm31.844 0l1.251.721 1.255-.72v-1.454l-1.255-.72-1.251.72v1.453zm31.842 0l1.255.721 1.254-.72v-1.454l-1.254-.72-1.255.72v1.453zM342.096-4.614l1.255.733 1.253-.733v-1.453l-1.253-.721-1.255.72v1.454zm31.846 0l1.253.733 1.254-.733v-1.453l-1.254-.721-1.253.72v1.454zm31.844 0l1.253.733 1.253-.733v-1.453l-1.253-.721-1.253.72v1.454zm31.844 0l1.253.733 1.254-.733v-1.453l-1.254-.721-1.253.72v1.454zm31.844 0l1.254.733 1.253-.733v-1.453l-1.253-.721-1.254.72v1.454zm31.845 0l1.253.733 1.254-.733v-1.453l-1.254-.721-1.253.72v1.454zM358.02 23.048l1.254.732 1.252-.732v-1.454l-1.252-.721-1.254.72v1.455zm31.843 0l1.254.732 1.254-.732v-1.454l-1.254-.721-1.254.72v1.455zm31.846 0l1.252.732 1.254-.732v-1.454l-1.254-.721-1.252.72v1.455zm31.844 0l1.251.732 1.255-.732v-1.454l-1.255-.721-1.251.72v1.455zm-47.767 27.66l1.253.734 1.253-.734v-1.453l-1.253-.72-1.253.72v1.453zm78.662-27.104l2.202 1.277 2.202-1.277V21.05l-2.202-1.277-2.202 1.277v2.554zm31.846 0l2.2 1.277 2.203-1.277V21.05l-2.203-1.277-2.2 1.277v2.554zm31.843 0l2.202 1.277 2.203-1.277V21.05l-2.203-1.277-2.202 1.277v2.554zm-111.456 27.66l2.202 1.278 2.204-1.277V48.71l-2.204-1.276-2.202 1.276v2.554zm31.844 0l2.203 1.278 2.202-1.277V48.71l-2.202-1.276-2.203 1.276v2.554zm31.845 0l2.202 1.278 2.202-1.277V48.71l-2.202-1.276-2.202 1.276v2.554zm31.845 0l2.203 1.278 2.201-1.277V48.71l-2.201-1.276-2.203 1.276v2.554zm31.844 0l2.202 1.278 2.202-1.277V48.71l-2.202-1.276-2.202 1.276v2.554zm-143.3 27.662l2.202 1.277 2.203-1.277v-2.554l-2.203-1.276-2.202 1.276v2.554zm31.846 0l2.199 1.277 2.204-1.277v-2.554l-2.204-1.276-2.199 1.276v2.554zm31.843 0l2.202 1.277 2.202-1.277v-2.554l-2.202-1.276-2.202 1.276v2.554zm31.846 0l2.2 1.277 2.203-1.277v-2.554l-2.203-1.276-2.2 1.276v2.554zm31.843 0l2.202 1.277 2.203-1.277v-2.554l-2.203-1.276-2.202 1.276v2.554zm31.844 0l2.202 1.277 2.202-1.277v-2.554l-2.202-1.276-2.202 1.276v2.554zm-143.3 27.662l2.202 1.277 2.204-1.277v-2.554l-2.204-1.277-2.202 1.277v2.554zm31.844 0l2.203 1.277 2.202-1.277v-2.554l-2.202-1.277-2.203 1.277v2.554zm31.845 0l2.202 1.277 2.202-1.277v-2.554l-2.202-1.277-2.202 1.277v2.554zm31.845 0l2.203 1.277 2.201-1.277v-2.554l-2.201-1.277-2.203 1.277v2.554zm31.844 0l2.202 1.277 2.202-1.277v-2.554l-2.202-1.277-2.202 1.277v2.554zm31.845 0l2.203 1.277 2.2-1.277v-2.554l-2.2-1.277-2.203 1.277v2.554zm-143.299 27.661l2.199 1.274 2.204-1.274v-2.553l-2.204-1.275-2.199 1.275v2.553zm31.843 0l2.202 1.274 2.202-1.274v-2.553l-2.202-1.275-2.202 1.275v2.553zm31.846 0l2.2 1.274 2.203-1.274v-2.553l-2.203-1.275-2.2 1.275v2.553zm31.843 0l2.202 1.274 2.203-1.274v-2.553l-2.203-1.275-2.202 1.275v2.553zm31.844 0l2.202 1.274 2.202-1.274v-2.553l-2.202-1.275-2.202 1.275v2.553zm31.845 0l2.202 1.274 2.203-1.274v-2.553l-2.203-1.275-2.202 1.275v2.553zm-143.301 27.662l2.203 1.275 2.202-1.275v-2.551l-2.202-1.275-2.203 1.275v2.551zm31.845 0l2.202 1.275 2.202-1.275v-2.551l-2.202-1.275-2.202 1.275v2.551zm31.845 0l2.203 1.275 2.201-1.275v-2.551l-2.201-1.275-2.203 1.275v2.551zm31.844 0l2.202 1.275 2.202-1.275v-2.551l-2.202-1.275-2.202 1.275v2.551zm31.845 0l2.203 1.275 2.2-1.275v-2.551l-2.2-1.275-2.203 1.275v2.551zm-111.456 27.662l2.202 1.276 2.202-1.276v-2.551l-2.202-1.276-2.202 1.276v2.551zm31.846 0l2.2 1.276 2.203-1.276v-2.551l-2.203-1.276-2.2 1.276v2.551zm31.843 0l2.202 1.276 2.203-1.276v-2.551l-2.203-1.276-2.202 1.276v2.551zm-79.612 27.662l2.203 1.276 2.202-1.276v-2.551l-2.202-1.275-2.203 1.275v2.551zm31.845 0l2.202 1.276 2.202-1.276v-2.551l-2.202-1.275-2.202 1.275v2.551zm76.299-25.742l5.514 3.195 5.515-3.195v-6.391l-5.515-3.193-5.514 3.193v6.391zm31.845 0l5.514 3.195 5.516-3.195v-6.391l-5.516-3.194-5.514 3.194v6.391zm-79.612 27.662l5.516 3.194 5.515-3.194v-6.39l-5.515-3.193-5.516 3.193v6.39zm31.844 0l5.515 3.194 5.515-3.194v-6.39l-5.515-3.193-5.515 3.193v6.39zm31.845 0l5.516 3.194 5.513-3.194v-6.39l-5.513-3.193-5.516 3.193v6.39zm31.844 0l5.515 3.194 5.514-3.194v-6.39l-5.514-3.193-5.515 3.193v6.39zm-143.3 27.662l5.515 3.195 5.515-3.195v-6.391l-5.515-3.192-5.515 3.192v6.391zm31.845 0l5.514 3.195 5.515-3.195v-6.391l-5.515-3.192-5.514 3.192v6.391zm31.845 0l5.514 3.195 5.515-3.195v-6.391l-5.515-3.192-5.514 3.192v6.391zm31.844 0l5.514 3.195 5.515-3.195v-6.391l-5.515-3.192-5.514 3.192v6.391zm31.845 0l5.514 3.195 5.516-3.195v-6.391l-5.516-3.192-5.514 3.192v6.391zm31.843 0l5.515 3.195 5.515-3.195v-6.391l-5.515-3.192-5.515 3.192v6.391zm-143.3 27.662l5.515 3.194 5.516-3.194v-6.388l-5.516-3.194-5.515 3.194v6.388zm31.845 0l5.516 3.194 5.515-3.194v-6.388l-5.515-3.194-5.516 3.194v6.388zm31.844 0l5.515 3.194 5.515-3.194v-6.388l-5.515-3.194-5.515 3.194v6.388zm31.845 0l5.516 3.194 5.513-3.194v-6.388l-5.513-3.194-5.516 3.194v6.388zm31.844 0l5.515 3.194 5.514-3.194v-6.388l-5.514-3.194-5.515 3.194v6.388zM512.98 302.144l5.514 3.192 5.515-3.192v-6.393l-5.515-3.194-5.514 3.194v6.393zm31.845 0l5.514 3.192 5.515-3.192v-6.393l-5.515-3.194-5.514 3.194v6.393zm31.844 0l5.514 3.192 5.515-3.192v-6.393l-5.515-3.194-5.514 3.194v6.393zm31.845 0l5.514 3.192 5.516-3.192v-6.393l-5.516-3.194-5.514 3.194v6.393zm-111.457 27.662l5.515 3.195 5.516-3.195v-6.391l-5.516-3.194-5.515 3.194v6.391zm141.092-26.384l7.723 4.473 7.723-4.473v-8.95l-7.723-4.473-7.723 4.473v8.95zm-111.455 27.664l7.724 4.472 7.723-4.472v-8.95l-7.723-4.473-7.724 4.473v8.95zm31.843 0l7.724 4.472 7.723-4.472v-8.95l-7.723-4.473-7.724 4.473v8.95zm31.845 0l7.725 4.472 7.723-4.472v-8.95l-7.723-4.473-7.725 4.473v8.95zm31.845 0l7.723 4.472 7.723-4.472v-8.95l-7.723-4.473-7.723 4.473v8.95zm-111.456 27.661l7.723 4.474 7.725-4.474V349.8l-7.725-4.475-7.723 4.475v8.947zm31.843 0l7.725 4.474 7.724-4.474V349.8l-7.724-4.475-7.725 4.475v8.947zm31.846 0l7.723 4.474 7.725-4.474V349.8l-7.725-4.475-7.723 4.475v8.947zm31.844 0l7.724 4.474 7.723-4.474V349.8l-7.723-4.475-7.724 4.475v8.947zm31.845 0l7.723 4.474 7.723-4.474V349.8l-7.723-4.475-7.723 4.475v8.947zm-143.3 27.661l7.723 4.475 7.724-4.475v-8.947l-7.724-4.473-7.723 4.473v8.947zm31.845 0l7.724 4.475 7.723-4.475v-8.947l-7.723-4.473-7.724 4.473v8.947zm31.843 0l7.724 4.475 7.723-4.475v-8.947l-7.723-4.473-7.724 4.473v8.947zm31.845 0l7.725 4.475 7.723-4.475v-8.947l-7.723-4.473-7.725 4.473v8.947zm31.845 0l7.723 4.475 7.723-4.475v-8.947l-7.723-4.473-7.723 4.473v8.947zM510.771 414.07l7.723 4.475 7.725-4.475v-8.947l-7.725-4.473-7.723 4.473v8.947zm31.843 0l7.725 4.475 7.724-4.475v-8.947l-7.724-4.473-7.725 4.473v8.947zm31.846 0l7.723 4.475 7.725-4.475v-8.947l-7.725-4.473-7.723 4.473v8.947zm31.844 0l7.724 4.475 7.723-4.475v-8.947l-7.723-4.473-7.724 4.473v8.947zm31.845 0l7.723 4.475 7.723-4.475v-8.947l-7.723-4.473-7.723 4.473v8.947zm-143.3 27.664l7.723 4.473 7.724-4.473v-8.95l-7.724-4.473-7.723 4.473v8.95zm31.845 0l7.724 4.473 7.723-4.473v-8.95l-7.723-4.473-7.724 4.473v8.95zm31.843 0l7.724 4.473 7.723-4.473v-8.95l-7.723-4.473-7.724 4.473v8.95zm31.845 0l7.725 4.473 7.723-4.473v-8.95l-7.723-4.473-7.725 4.473v8.95zm-79.611 27.661l7.723 4.474 7.725-4.474v-8.947l-7.725-4.473-7.723 4.473v8.947zm31.843 0l7.725 4.474 7.724-4.474v-8.947l-7.724-4.473-7.725 4.473v8.947zm-47.765 27.663l7.723 4.474 7.724-4.474v-8.947l-7.724-4.474-7.723 4.474v8.947zm31.845 0l7.724 4.474 7.723-4.474v-8.947l-7.723-4.474-7.724 4.474v8.947zm93.324-54.045l9.932 5.752 9.933-5.752v-11.507l-9.933-5.753-9.932 5.753v11.507zm-47.767 27.66l9.932 5.756 9.934-5.756V459.17l-9.934-5.753-9.932 5.753v11.503zm31.845 0l9.932 5.754 9.932-5.754V459.17l-9.932-5.753-9.932 5.753v11.503zm31.844 0l9.932 5.754 9.933-5.754V459.17l-9.933-5.753-9.932 5.753v11.503zm-79.612 27.665l9.933 5.752 9.933-5.752v-11.506l-9.933-5.752-9.933 5.752v11.506zm31.846 0l9.933 5.752 9.932-5.752v-11.506l-9.932-5.752-9.933 5.752v11.506zm31.844 0l9.932 5.752 9.933-5.752v-11.506l-9.933-5.754-9.932 5.754v11.506zM508.563 526l9.931 5.751 9.933-5.751v-11.507l-9.933-5.75-9.931 5.75V526zm31.843 0l9.933 5.751L560.27 526v-11.507l-9.931-5.75-9.933 5.75V526zm31.845 0l9.932 5.754 9.934-5.754v-11.507l-9.934-5.75-9.932 5.75V526zm31.845 0l9.932 5.751L623.96 526v-11.507l-9.932-5.75-9.932 5.75V526zm31.844 0l9.932 5.751 9.933-5.751v-11.507l-9.933-5.75-9.932 5.75V526zm-111.455 27.662l9.933 5.752 9.931-5.752v-11.504l-9.931-5.755-9.933 5.755v11.504zm31.843 0l9.933 5.752 9.933-5.752v-11.504l-9.933-5.754-9.933 5.754v11.504zm31.846 0l9.933 5.752 9.932-5.752v-11.504l-9.932-5.754-9.933 5.754v11.504zm31.844 0l9.932 5.752 9.933-5.752v-11.504l-9.933-5.755-9.932 5.755v11.504zm-111.455 27.663l9.931 5.753 9.933-5.753v-11.507l-9.933-5.753-9.931 5.753v11.507zm31.843 0l9.933 5.753 9.931-5.753v-11.507l-9.931-5.753-9.933 5.753v11.507zm31.845 0l9.932 5.753 9.934-5.753v-11.507l-9.934-5.753-9.932 5.753v11.507zm31.845 0l9.932 5.753 9.932-5.753v-11.507l-9.932-5.753-9.932 5.753v11.507zm31.844 0l9.932 5.753 9.933-5.753v-11.507l-9.933-5.753-9.932 5.753v11.507zm-111.455 27.662l9.933 5.754 9.931-5.754v-11.505l-9.931-5.753-9.933 5.753v11.505zm31.843 0l9.933 5.752 9.933-5.752v-11.505l-9.933-5.753-9.933 5.753v11.505zm31.846 0l9.933 5.752 9.932-5.752v-11.505l-9.932-5.753-9.933 5.753v11.505zm31.844 0l9.932 5.754 9.933-5.754v-11.505l-9.933-5.753-9.932 5.753v11.505zm-79.612 27.662l9.933 5.753 9.931-5.753v-11.503l-9.931-5.754-9.933 5.754v11.503zm31.845 0l9.932 5.753 9.934-5.753v-11.503l-9.934-5.756-9.932 5.756v11.503zm31.845 0l9.932 5.753 9.932-5.753v-11.503l-9.932-5.754-9.932 5.754v11.503zm31.844 0l9.932 5.753 9.933-5.753v-11.503l-9.933-5.754-9.932 5.754v11.503zm-111.455 27.662l9.933 5.755 9.931-5.755v-11.505l-9.931-5.753-9.933 5.753v11.505zm31.843 0l9.933 5.753 9.933-5.753v-11.505l-9.933-5.753-9.933 5.753v11.505zm31.846 0l9.933 5.753 9.932-5.753v-11.505l-9.932-5.753-9.933 5.753v11.505zm31.844 0l9.932 5.755 9.933-5.755v-11.505l-9.933-5.753-9.932 5.753v11.505zm-79.612 27.663l9.933 5.753 9.931-5.753V680.47l-9.931-5.753-9.933 5.753v11.504zm31.845 0l9.932 5.753 9.934-5.753V680.47l-9.934-5.754-9.932 5.754v11.504zm31.845 0l9.932 5.753 9.932-5.753V680.47l-9.932-5.753-9.932 5.753v11.504zm-47.768 27.665l9.933 5.75 9.933-5.75V708.13l-9.933-5.75-9.933 5.75v11.509zm31.846 0l9.933 5.75 9.932-5.75V708.13l-9.932-5.75-9.933 5.75v11.509zm31.844 0l9.932 5.75 9.933-5.75V708.13l-9.933-5.75-9.932 5.75v11.509zm-79.612 27.66l9.933 5.753 9.931-5.753v-11.505l-9.931-5.752-9.933 5.752v11.505zm31.845 0l9.932 5.753 9.934-5.753v-11.505l-9.934-5.752-9.932 5.752v11.505zm31.845 0l9.932 5.753 9.932-5.753v-11.505l-9.932-5.752-9.932 5.752v11.505zm-47.768 27.662l9.933 5.753 9.933-5.753v-11.503l-9.933-5.754-9.933 5.754v11.503zm31.846 0l9.933 5.753 9.932-5.753v-11.503l-9.932-5.754-9.933 5.754v11.503zm-15.923 27.662l9.932 5.754 9.934-5.754V791.12l-9.934-5.755-9.932 5.755v11.503zm31.845 0l9.932 5.753 9.932-5.753V791.12l-9.932-5.754-9.932 5.754v11.503zm-47.768 27.663l9.933 5.752 9.933-5.752v-11.504l-9.933-5.753-9.933 5.753v11.504zm31.846 0l9.933 5.752 9.932-5.752v-11.504l-9.932-5.753-9.933 5.753v11.504zm-15.923 27.661l9.932 5.755 9.934-5.755v-11.504l-9.934-5.752-9.932 5.752v11.504zm-15.923 27.665l9.933 5.754 9.933-5.754v-11.506l-9.933-5.752-9.933 5.752v11.506zm31.846 0l9.933 5.754 9.932-5.754v-11.506l-9.932-5.752-9.933 5.752v11.506zm-15.923 27.661l9.932 5.754 9.934-5.754v-11.504l-9.934-5.753-9.932 5.753v11.504zm-15.923 27.663l9.933 5.753 9.933-5.753v-11.505l-9.933-5.754-9.933 5.754v11.505zm198.63-281.003l2.37 1.373 2.37-1.373v-2.749l-2.37-1.372-2.37 1.372v2.749zm0 55.327l2.37 1.371 2.37-1.372v-2.748l-2.37-1.373-2.37 1.372v2.75zm0 55.323l2.37 1.373 2.37-1.373v-2.748l-2.37-1.373-2.37 1.373v2.748zm-15.922 27.662l2.369 1.373 2.371-1.373v-2.747l-2.371-1.374-2.369 1.374v2.747zm15.922 27.662l2.37 1.371 2.37-1.372v-2.748l-2.37-1.371-2.37 1.371v2.749zm-15.922 27.663l2.369 1.372 2.371-1.372v-2.748l-2.371-1.372-2.369 1.372v2.748zm15.922 27.662l2.37 1.373 2.37-1.373v-2.748l-2.37-1.372-2.37 1.372v2.748zm-15.922 27.663l2.369 1.373 2.371-1.373v-2.748l-2.371-1.372-2.369 1.372v2.748zm15.922 27.661l2.37 1.373 2.37-1.373v-2.746l-2.37-1.374-2.37 1.374v2.746zm-15.922 27.664l2.369 1.373 2.371-1.373v-2.748l-2.371-1.373-2.369 1.373v2.748zm12.141-468.073l6.151 3.563 6.151-3.563v-7.126l-6.151-3.563-6.151 3.563v7.126zM703.41 523.81l6.151 3.564 6.151-3.564v-7.126l-6.151-3.562-6.151 3.562v7.126zm31.845 0l6.15 3.564 6.152-3.564v-7.126l-6.152-3.562-6.15 3.562v7.126zm-47.767 27.662l6.152 3.562 6.151-3.562v-7.125l-6.151-3.564-6.152 3.564v7.125zm31.846 0l6.149 3.561 6.152-3.561v-7.125l-6.152-3.564-6.149 3.564v7.125zm31.843 0l6.151 3.561 6.151-3.561v-7.125l-6.151-3.564-6.151 3.564v7.125zm-79.612 27.664l6.151 3.561 6.153-3.561v-7.129l-6.153-3.562-6.151 3.562v7.129zm31.845 0l6.151 3.561 6.151-3.561v-7.129l-6.151-3.562-6.151 3.562v7.129zm31.845 0l6.15 3.561 6.152-3.561v-7.129l-6.152-3.562-6.15 3.562v7.129zm-79.611 27.661l6.151 3.563 6.151-3.563v-7.126l-6.151-3.562-6.151 3.562v7.126zm31.844 0l6.152 3.563 6.151-3.563v-7.126l-6.151-3.562-6.152 3.562v7.126zm31.846 0l6.149 3.563 6.152-3.563v-7.126l-6.152-3.562-6.149 3.562v7.126zm-47.769 27.663l6.151 3.562 6.153-3.562v-7.127l-6.153-3.562-6.151 3.562v7.127zm31.845 0l6.151 3.562 6.151-3.562v-7.127l-6.151-3.562-6.151 3.562v7.127zm-47.766 27.662l6.151 3.563 6.151-3.563v-7.127l-6.151-3.561-6.151 3.561v7.127zm31.844 0l6.152 3.563 6.151-3.563v-7.127l-6.151-3.561-6.152 3.561v7.127zm-15.922 27.662l6.15 3.563 6.153-3.563v-7.125l-6.153-3.564-6.15 3.564v7.125zm31.844 0l6.151 3.563 6.151-3.563v-7.125l-6.151-3.564-6.151 3.564v7.125zm-47.766 27.664l6.151 3.562 6.151-3.562v-7.127l-6.151-3.562-6.151 3.562v7.127zm31.844 0l6.152 3.562 6.151-3.562v-7.127l-6.151-3.562-6.152 3.562v7.127zm-15.922 27.661l6.15 3.564 6.153-3.564v-7.124l-6.153-3.562-6.15 3.562v7.124zm15.922 27.662l6.152 3.563 6.151-3.563v-7.125l-6.151-3.563-6.152 3.563v7.125zm-15.922 27.663l6.15 3.563 6.153-3.563v-7.126l-6.153-3.563-6.15 3.563v7.126zm15.922 27.663l6.152 3.562 6.151-3.562v-7.127l-6.151-3.562-6.152 3.562v7.127zm0 55.325l6.152 3.563 6.151-3.563v-7.127l-6.151-3.564-6.152 3.564v7.127zm66.21-278.084l3.63 2.103 3.631-2.103v-4.206l-3.631-2.103-3.63 2.103v4.206zm-15.923 27.66l3.63 2.104 3.632-2.104v-4.205l-3.632-2.103-3.63 2.103v4.205zm-15.922 27.664l3.63 2.103 3.631-2.103v-4.207l-3.631-2.103-3.63 2.103v4.207zm15.922 27.663l3.63 2.101 3.632-2.101v-4.207l-3.632-2.103-3.63 2.103v4.207zm-15.922 27.664l3.63 2.1 3.631-2.1v-4.209l-3.631-2.101-3.63 2.101v4.209zm-15.922 27.661l3.63 2.103 3.631-2.103v-4.206l-3.631-2.101-3.63 2.103v4.204zm31.844 0l3.63 2.103 3.632-2.103v-4.206l-3.632-2.101-3.63 2.101v4.206zm-15.922 27.663l3.63 2.102 3.631-2.102v-4.208l-3.631-2.103-3.63 2.103v4.208zm-15.922 27.662l3.63 2.103 3.631-2.103v-4.208l-3.631-2.103-3.63 2.103v4.208zm15.922 27.662l3.63 2.1 3.631-2.1v-4.207l-3.631-2.104-3.63 2.104v4.207zM705.931 854.3l3.63 2.101 3.631-2.101v-4.208l-3.631-2.101-3.63 2.103v4.206zm15.922 27.662l3.63 2.103 3.631-2.103v-4.208l-3.631-2.102-3.63 2.102v4.208zm-15.922 27.662l3.63 2.103 3.631-2.103v-4.206l-3.631-2.102-3.63 2.102v4.206zm15.922 27.662l3.63 2.102 3.631-2.102v-4.206l-3.631-2.103-3.63 2.103v4.206zM24.599-115.816l.306.177.304-.177v-.353l-.304-.177-.306.177v.353zm31.847 0l.304.177.305-.177v-.353l-.305-.177-.304.177v.353zm31.844 0l.305.177.305-.177v-.353l-.305-.177-.305.177v.353zm31.844 0l.306.177.305-.177v-.353l-.305-.177-.306.177v.353zm31.843 0l.306.177.305-.177v-.353l-.305-.177-.306.177v.353zm31.846 0l.304.177.308-.177v-.353l-.308-.177-.304.177v.353zm31.845 0l.305.177.306-.177v-.353l-.306-.177-.305.177v.353zm31.844 0l.305.177.305-.177v-.353l-.305-.177-.305.177v.353zm31.843 0l.307.177.305-.177v-.353l-.305-.177-.307.177v.353zm31.845 0l.304.177.307-.177v-.353l-.307-.177-.304.177v.353zm31.845 0l.306.177.305-.177v-.353l-.305-.177-.306.177v.353zm31.845 0l.305.177.306-.177v-.353l-.306-.177-.305.177v.353zm31.844 0l.305.177.305-.177v-.353l-.305-.177-.305.177v.353zm31.845 0l.304.177.305-.177v-.353l-.305-.177-.304.177v.353zm31.844 0l.305.177.305-.177v-.353l-.305-.177-.305.177v.353zm31.844 0l.305.177.305-.177v-.353l-.305-.177-.305.177v.353zM390.812-88.155l.305.178.305-.178v-.353l-.305-.177-.305.177v.353zm31.844 0l.305.178.305-.178v-.353l-.305-.177-.305.177v.353zm31.845 0l.303.178.308-.178v-.353l-.308-.177-.303.177v.353zm78.662-27.104l1.255.72 1.252-.72v-1.454l-1.252-.733-1.255.733v1.454zm31.845 0l1.253.72 1.254-.72v-1.454l-1.254-.733-1.253.733v1.454zm31.844 0l1.255.72 1.252-.72v-1.454l-1.252-.733-1.255.733v1.454zm31.844 0l1.254.72 1.254-.72v-1.454l-1.254-.733-1.254.733v1.454zm31.845 0l1.254.72 1.253-.72v-1.454l-1.253-.733-1.254.733v1.454zm31.844 0l1.255.72 1.254-.72v-1.454l-1.254-.733-1.255.733v1.454zm-206.99 27.661l1.255.72 1.254-.72v-1.454l-1.254-.72-1.255.72v1.454zm31.847 0l1.252.72 1.254-.72v-1.454l-1.254-.72-1.252.72v1.454zm31.843 0l1.254.72 1.252-.72v-1.454l-1.252-.72-1.254.72v1.454zm31.844 0l1.254.72 1.254-.72v-1.454l-1.254-.72-1.254.72v1.454zm31.844 0l1.255.72 1.253-.72v-1.454l-1.253-.72-1.255.72v1.454zm31.845 0l1.254.72 1.254-.72v-1.454l-1.254-.72-1.254.72v1.454zM437.63-59.937l1.253.721 1.254-.72v-1.455l-1.254-.72-1.253.72v1.454zm31.844 0l1.254.721 1.253-.72v-1.455l-1.253-.72-1.254.72v1.454zm31.845 0l1.253.721 1.254-.72v-1.455l-1.254-.72-1.253.72v1.454zm31.844 0l1.255.721 1.252-.72v-1.455l-1.252-.72-1.255.72v1.454zm31.845 0l1.253.721 1.254-.72v-1.455l-1.254-.72-1.253.72v1.454zm31.844 0l1.255.721 1.252-.72v-1.455l-1.252-.72-1.255.72v1.454zm-79.61 27.661l1.252.721 1.254-.72v-1.454l-1.254-.72-1.252.72v1.453zm31.843 0l1.254.721 1.252-.72v-1.454l-1.252-.72-1.254.72v1.453zm31.844 0l1.254.721 1.254-.72v-1.454l-1.254-.72-1.254.72v1.453zm143.612-83.173l.942.556.941-.556v-1.087l-.941-.544-.942.544v1.087zm-47.766 27.674l.941.544.943-.556v-1.088l-.943-.543-.941.543v1.1zm31.846-.012l.94.556.942-.544v-1.1l-.942-.543-.94.543v1.088zm31.843.013l.941.543.943-.556v-1.088l-.943-.543-.941.543v1.1zm-111.456 27.66l.942.544.943-.544v-1.1l-.943-.543-.942.544v1.1zm31.845 0l.942.544.941-.544v-1.1l-.941-.543-.942.544v1.1zm31.845 0l.942.544.941-.544v-1.1l-.941-.543-.942.544v1.1zm31.843 0l.942.544.941-.544v-1.1l-.941-.543-.942.544v1.1zm31.846 0l.941.544.942-.544v-1.1l-.942-.543-.941.544v1.1zM613.086-32.452l.942.543.943-.543v-1.1l-.943-.544-.942.544v1.1zm31.845 0l.941.543.941-.543v-1.1l-.941-.544-.941.544v1.1zm31.844 0l.941.543.943-.543v-1.1l-.943-.544-.941.544v1.1zm31.846 0l.94.543.942-.543v-1.1l-.942-.544-.94.544v1.1zm31.843 0l.941.543.943-.543v-1.1l-.943-.544-.941.544v1.1zM533.476-4.791l.942.544.94-.544v-1.1l-.94-.543-.942.543v1.1zm31.843 0l.942.544.941-.544v-1.1l-.941-.543-.942.543v1.1zm31.845 0l.943.544.94-.544v-1.1l-.94-.543-.943.543v1.1zm31.844 0l.942.544.943-.544v-1.1l-.943-.543-.942.543v1.1zm31.845 0l.942.544.941-.544v-1.1l-.941-.543-.942.543v1.1zm31.845 0l.942.544.941-.544v-1.1l-.941-.543-.942.543v1.1zm31.843 0l.942.544.941-.544v-1.1l-.941-.543-.942.543v1.1zm31.846 0l.941.544.942-.544v-1.1l-.942-.543-.941.543v1.1zM581.242 22.87l.941.544.941-.544v-1.1l-.941-.543-.941.556v1.087zm31.844 0l.942.544.943-.544v-1.087l-.943-.556-.942.544v1.1zm31.845 0l.941.544.941-.544v-1.1l-.941-.543-.941.556v1.087zm31.844 0l.941.544.943-.544v-1.087l-.943-.556-.941.544v1.1zm31.846 0l.94.544.943-.544v-1.1l-.943-.543-.94.556v1.087zm31.843 0l.941.544.943-.544v-1.087l-.943-.556-.941.544v1.1zm-143.3 27.662l.943.543.94-.543v-1.088l-.94-.543-.943.543v1.088zm31.844 0l.942.543.943-.543v-1.088l-.943-.543-.942.543v1.088zm31.845 0l.942.543.941-.543v-1.088l-.941-.543-.942.543v1.088zm31.845 0l.942.543.941-.543v-1.088l-.941-.543-.942.543v1.088zm31.843 0l.942.543.941-.543v-1.088l-.941-.543-.942.543v1.088zm31.846 0l.941.543.942-.543v-1.088l-.942-.543-.941.543v1.088zM613.086 78.193l.942.544.943-.544v-1.087l-.943-.544-.942.544v1.087zm31.845 0l.941.544.941-.544v-1.087l-.941-.544-.941.544v1.087zm31.844 0l.941.544.943-.544v-1.087l-.943-.544-.941.544v1.087zm31.846 0l.94.544.943-.544v-1.087l-.943-.544-.94.544v1.087zm31.843 0l.941.544.943-.544v-1.087l-.943-.544-.941.544v1.087zm-111.456 27.661l.942.544.943-.544v-1.087l-.943-.543-.942.543v1.087zm31.845 0l.942.544.941-.544v-1.087l-.941-.543-.942.543v1.087zm28.532 1.922l4.255 2.465 4.254-2.465v-4.931l-4.254-2.465-4.255 2.465v4.931zm31.844 0l4.254 2.465 4.255-2.465v-4.931l-4.255-2.465-4.254 2.465v4.931zm31.844 0l4.255 2.465 4.254-2.465v-4.931l-4.254-2.465-4.255 2.465v4.931zm-111.456 27.661l4.255 2.463 4.255-2.463v-4.93l-4.255-2.465-4.255 2.465v4.93zm31.846 0l4.253 2.463 4.255-2.463v-4.93l-4.255-2.465-4.253 2.465v4.93zm31.843 0l4.255 2.463 4.255-2.463v-4.93l-4.255-2.465-4.255 2.465v4.93zm31.844 0l4.255 2.463 4.255-2.463v-4.93l-4.255-2.465-4.255 2.465v4.93zm-111.455 27.664l4.255 2.463 4.255-2.463v-4.929l-4.255-2.465-4.255 2.465v4.929zm31.845 0l4.255 2.463 4.254-2.463v-4.929l-4.254-2.465-4.255 2.465v4.929zm31.845 0l4.255 2.463 4.254-2.463v-4.929l-4.254-2.465-4.255 2.465v4.929zm31.844 0l4.254 2.463 4.255-2.463v-4.929l-4.255-2.465-4.254 2.465v4.929zm31.844 0l4.255 2.463 4.254-2.463v-4.929l-4.254-2.465-4.255 2.465v4.929zm-111.456 27.663l4.255 2.464 4.255-2.464v-4.931l-4.255-2.465-4.255 2.465v4.931zm31.846 0l4.253 2.464 4.255-2.464v-4.931l-4.255-2.465-4.253 2.465v4.931zm31.843 0l4.255 2.464 4.255-2.464v-4.931l-4.255-2.465-4.255 2.465v4.931zm31.844 0l4.255 2.464 4.255-2.464v-4.931l-4.255-2.465-4.255 2.465v4.931zm-79.61 27.662l4.255 2.463 4.254-2.463v-4.931l-4.254-2.463-4.255 2.463v4.931zm29.635 1.277l6.465 3.744 6.462-3.744v-7.487l-6.462-3.741-6.465 3.741v7.487zm31.845 0l6.463 3.744 6.464-3.744v-7.487l-6.464-3.741-6.463 3.741v7.487zm31.844 0l6.464 3.744 6.464-3.744v-7.487l-6.464-3.741-6.464 3.741v7.487zm-79.611 27.662l6.463 3.744 6.465-3.744v-7.489l-6.465-3.74-6.463 3.74v7.489zm31.845 0l6.463 3.744 6.463-3.744v-7.489l-6.463-3.74-6.463 3.74v7.489zm31.844 0l6.463 3.744 6.464-3.744v-7.489l-6.464-3.74-6.463 3.74v7.489zm-79.611 27.663l6.464 3.743 6.464-3.743v-7.488l-6.464-3.742-6.464 3.742v7.488zm31.844 0l6.465 3.743 6.462-3.743v-7.488l-6.462-3.742-6.465 3.742v7.488zm31.845 0l6.463 3.743 6.464-3.743v-7.488l-6.464-3.742-6.463 3.742v7.488zm31.844 0l6.464 3.743 6.464-3.743v-7.488l-6.464-3.742-6.464 3.742v7.488zm-79.611 27.664l6.463 3.742 6.465-3.742v-7.49l-6.465-3.742-6.463 3.742v7.49zm31.845 0l6.463 3.742 6.463-3.742v-7.49l-6.463-3.742-6.463 3.742v7.49zm31.844 0l6.463 3.742 6.464-3.742v-7.49l-6.464-3.742-6.463 3.742v7.49zm-79.611 27.664l6.464 3.743 6.464-3.743v-7.491l-6.464-3.742-6.464 3.742v7.491zm31.844 0l6.465 3.743 6.462-3.743v-7.491l-6.462-3.742-6.465 3.742v7.491zm31.845 0l6.463 3.743 6.464-3.743v-7.491l-6.464-3.742-6.463 3.742v7.491zm-47.767 27.661l6.463 3.744 6.465-3.744v-7.487l-6.465-3.744-6.463 3.744v7.487zm31.845 0l6.463 3.744 6.463-3.744v-7.487l-6.463-3.744-6.463 3.744v7.487zm-47.767 27.661l6.464 3.744 6.464-3.744v-7.486l-6.464-3.744-6.464 3.744v7.486zm31.844 0l6.465 3.744 6.462-3.744v-7.486l-6.462-3.744-6.465 3.744v7.486zm-15.922 27.662l6.463 3.743 6.465-3.743v-7.485l-6.465-3.746-6.463 3.746v7.485zm77.404-81.704l8.671 5.02 8.672-5.02v-10.05l-8.672-5.02-8.671 5.02v10.05zm-15.923 27.658l8.671 5.024 8.673-5.024V349.25l-8.673-5.022-8.671 5.022v10.044zm-15.922 27.663l8.671 5.024 8.672-5.024v-10.044l-8.672-5.023-8.671 5.023v10.044zm31.845 0l8.671 5.024 8.672-5.024v-10.044l-8.672-5.023-8.671 5.023v10.044zm-47.768 27.663l8.672 5.02 8.672-5.02v-10.045l-8.672-5.024-8.672 5.024v10.045zm31.845 0l8.671 5.02 8.673-5.02v-10.045l-8.673-5.024-8.671 5.024v10.045zm-79.611 27.663l8.672 5.022 8.672-5.022v-10.048l-8.672-5.021-8.672 5.021v10.048zm31.844 0l8.673 5.022 8.669-5.022v-10.048l-8.669-5.021-8.673 5.021v10.048zm31.845 0l8.671 5.022 8.672-5.022v-10.048l-8.672-5.021-8.671 5.021v10.048zm31.845 0l8.671 5.022 8.672-5.022v-10.048l-8.672-5.021-8.671 5.021v10.048zm-79.612 27.662l8.671 5.024 8.672-5.024v-10.046l-8.672-5.022-8.671 5.022v10.046zm31.844 0l8.672 5.024 8.672-5.024v-10.046l-8.672-5.022-8.672 5.022v10.046zm31.845 0l8.671 5.024 8.673-5.024v-10.046l-8.673-5.022-8.671 5.022v10.046zm-79.611 27.664l8.672 5.02 8.672-5.02v-10.046l-8.672-5.024-8.672 5.024v10.046zm31.844 0l8.673 5.02 8.669-5.02v-10.046l-8.669-5.024-8.673 5.024v10.046zm31.845 0l8.671 5.02 8.672-5.02v-10.046l-8.672-5.024-8.671 5.024v10.046zm-47.767 27.661l8.671 5.022 8.672-5.022v-10.047l-8.672-5.021-8.671 5.021v10.047zm-15.922 27.662l8.672 5.021 8.672-5.021v-10.045l-8.672-5.023-8.672 5.023v10.045zm51.548 523.398l4.89 2.83 4.892-2.83v-5.67l-4.892-2.83-4.89 2.83v5.67zm-15.923 27.66l4.892 2.83 4.89-2.83v-5.67l-4.89-2.83-4.892 2.83v5.67zm31.846 0l4.889 2.83 4.891-2.83v-5.67l-4.891-2.83-4.889 2.83v5.67zm31.843 0l4.891 2.83 4.891-2.83v-5.67l-4.891-2.83-4.891 2.83v5.67zm-79.611 27.66l4.89 2.84 4.892-2.84v-5.66l-4.892-2.83-4.89 2.83v5.66zm31.845 0l4.89 2.84 4.892-2.84v-5.66l-4.892-2.83-4.89 2.83v5.66zm31.844 0l4.89 2.84 4.891-2.84v-5.66l-4.891-2.83-4.89 2.83v5.66zm-47.767 27.67l4.892 2.83 4.89-2.83v-5.67l-4.89-2.83-4.892 2.83v5.67zm31.846 0l4.889 2.83 4.891-2.83v-5.67l-4.891-2.83-4.889 2.83v5.67zm31.843 0l4.891 2.83 4.891-2.83v-5.67l-4.891-2.83-4.891 2.83v5.67zm-47.766 27.66l4.89 2.83 4.892-2.83v-5.67l-4.892-2.83-4.89 2.83v5.67zm31.844 0l4.89 2.83 4.891-2.83v-5.67l-4.891-2.83-4.89 2.83v5.67zm-47.767 27.66l4.892 2.83 4.89-2.83v-5.67l-4.89-2.83-4.892 2.83v5.67zm31.846 0l4.889 2.83 4.891-2.83v-5.67l-4.891-2.83-4.889 2.83v5.67zm31.843 0l4.891 2.83 4.891-2.83v-5.67l-4.891-2.83-4.891 2.83v5.67zm-111.456 27.66l4.891 2.84 4.892-2.84v-5.66l-4.892-2.84-4.891 2.84v5.66zm31.845 0l4.89 2.84 4.892-2.84v-5.66l-4.892-2.84-4.89 2.84v5.66zm31.845 0l4.89 2.84 4.892-2.84v-5.66l-4.892-2.84-4.89 2.84v5.66zm31.844 0l4.89 2.84 4.891-2.84v-5.66l-4.891-2.84-4.89 2.84v5.66zm-111.456 27.67l4.891 2.83 4.891-2.83v-5.67l-4.891-2.83-4.891 2.83v5.67zm31.845 0l4.891 2.83 4.891-2.83v-5.67l-4.891-2.83-4.891 2.83v5.67zm31.844 0l4.892 2.83 4.89-2.83v-5.67l-4.89-2.83-4.892 2.83v5.67zm31.846 0l4.889 2.83 4.891-2.83v-5.67l-4.891-2.83-4.889 2.83v5.67zm31.843 0l4.891 2.83 4.891-2.83v-5.67l-4.891-2.83-4.891 2.83v5.67zm-111.456 27.66l4.891 2.83 4.892-2.83v-5.67l-4.892-2.83-4.891 2.83v5.67zm31.845 0l4.89 2.83 4.892-2.83v-5.67l-4.892-2.83-4.89 2.83v5.67zm31.845 0l4.89 2.83 4.892-2.83v-5.67l-4.892-2.83-4.89 2.83v5.67zm31.844 0l4.89 2.83 4.891-2.83v-5.67l-4.891-2.83-4.89 2.83v5.67zm-175.146 27.66l4.892 2.83 4.891-2.83v-5.67l-4.891-2.83-4.892 2.83v5.67zm31.847 0l4.891 2.83 4.89-2.83v-5.67l-4.89-2.83-4.891 2.83v5.67zm31.843 0l4.891 2.83 4.891-2.83v-5.67l-4.891-2.83-4.891 2.83v5.67zm31.845 0l4.891 2.83 4.891-2.83v-5.67l-4.891-2.83-4.891 2.83v5.67zm31.844 0l4.892 2.83 4.89-2.83v-5.67l-4.89-2.83-4.892 2.83v5.67zm31.846 0l4.889 2.83 4.891-2.83v-5.67l-4.891-2.83-4.889 2.83v5.67zm31.843 0l4.891 2.83 4.891-2.83v-5.67l-4.891-2.83-4.891 2.83v5.67zm-461.743 27.66l4.89 2.84 4.89-2.84v-5.66l-4.89-2.84-4.89 2.84v5.66zm31.843 0l4.891 2.84 4.891-2.84v-5.66l-4.891-2.84-4.891 2.84v5.66zm159.222 0l4.891 2.84 4.89-2.84v-5.66l-4.89-2.84-4.891 2.84v5.66zm31.845 0l4.89 2.84 4.89-2.84v-5.66l-4.89-2.84-4.89 2.84v5.66zm31.844 0l4.891 2.84 4.89-2.84v-5.66l-4.89-2.84-4.891 2.84v5.66zm31.844 0l4.891 2.84 4.892-2.84v-5.66l-4.892-2.84-4.891 2.84v5.66zm31.846 0l4.89 2.84 4.891-2.84v-5.66l-4.891-2.84-4.89 2.84v5.66zm31.843 0l4.891 2.84 4.892-2.84v-5.66l-4.892-2.84-4.891 2.84v5.66zm31.845 0l4.89 2.84 4.892-2.84v-5.66l-4.892-2.84-4.89 2.84v5.66zm31.845 0l4.89 2.84 4.892-2.84v-5.66l-4.892-2.84-4.89 2.84v5.66zm31.844 0l4.89 2.84 4.891-2.84v-5.66l-4.891-2.84-4.89 2.84v5.66zm-461.745 27.67l4.892 2.83 4.891-2.83v-5.67l-4.891-2.83-4.892 2.83v5.67zm31.844 0l4.89 2.83 4.892-2.83v-5.67l-4.892-2.83-4.89 2.83v5.67zm31.846 0l4.891 2.83 4.892-2.83v-5.67l-4.892-2.83-4.891 2.83v5.67zm31.845 0l4.89 2.83 4.891-2.83v-5.67l-4.891-2.83-4.89 2.83v5.67zm31.842 0l4.892 2.83 4.891-2.83v-5.67l-4.891-2.83-4.892 2.83v5.67zm31.845 0l4.891 2.83 4.891-2.83v-5.67l-4.891-2.83-4.891 2.83v5.67zm31.846 0l4.89 2.83 4.891-2.83v-5.67l-4.891-2.83-4.89 2.83v5.67zm31.843 0l4.891 2.83 4.891-2.83v-5.67l-4.891-2.83-4.891 2.83v5.67zm31.846 0l4.891 2.83 4.892-2.83v-5.67l-4.892-2.83-4.891 2.83v5.67zm31.842 0l4.892 2.83 4.891-2.83v-5.67l-4.891-2.83-4.892 2.83v5.67zm31.847 0l4.891 2.83 4.89-2.83v-5.67l-4.89-2.83-4.891 2.83v5.67zm31.843 0l4.891 2.83 4.891-2.83v-5.67l-4.891-2.83-4.891 2.83v5.67zm31.845 0l4.891 2.83 4.891-2.83v-5.67l-4.891-2.83-4.891 2.83v5.67zm31.844 0l4.892 2.83 4.89-2.83v-5.67l-4.89-2.83-4.892 2.83v5.67zm31.846 0l4.889 2.83 4.891-2.83v-5.67l-4.891-2.83-4.889 2.83v5.67zm31.843 0l4.891 2.83 4.891-2.83v-5.67l-4.891-2.83-4.891 2.83v5.67zm-622.541-26.76l6.464 3.75 6.465-3.75v-7.48l-6.465-3.75-6.464 3.75v7.48zM573.51 967.868l8.673 5.024 8.673-5.024v-10.046l-8.673-5.023-8.673 5.023v10.046zm-15.921 27.662l8.672 5.02 8.672-5.02v-10.045l-8.672-5.022-8.672 5.022v10.045zm31.845 0l8.673 5.02 8.671-5.02v-10.045l-8.671-5.022-8.673 5.022v10.045zm-47.767 27.66l8.672 5.03 8.671-5.03v-10.04l-8.671-5.03-8.672 5.03v10.04zm31.843 0l8.673 5.03 8.673-5.03v-10.04l-8.673-5.03-8.673 5.03v10.04zm31.846 0l8.672 5.03 8.671-5.03v-10.04l-8.671-5.03-8.672 5.03v10.04zm-111.457 27.66l8.673 5.03 8.673-5.03v-10.04l-8.673-5.02-8.673 5.02v10.04zm31.847 0l8.672 5.03 8.671-5.03v-10.04l-8.671-5.02-8.672 5.02v10.04zm31.843 0l8.672 5.03 8.672-5.03v-10.04l-8.672-5.02-8.672 5.02v10.04zm31.845 0l8.673 5.03 8.671-5.03v-10.04l-8.671-5.02-8.673 5.02v10.04zm31.844 0l8.672 5.03 8.672-5.03v-10.04l-8.672-5.02-8.672 5.02v10.04zm31.845 0l8.672 5.03 8.672-5.03v-10.04l-8.672-5.02-8.672 5.02v10.04zm-175.146 27.67l8.673 5.02 8.672-5.02v-10.05l-8.672-5.02-8.673 5.02v10.05zm31.846 0l8.671 5.02 8.673-5.02v-10.05l-8.673-5.02-8.671 5.02v10.05zm31.844 0l8.672 5.02 8.671-5.02v-10.05l-8.671-5.02-8.672 5.02v10.05zm31.843 0l8.673 5.02 8.673-5.02v-10.05l-8.673-5.02-8.673 5.02v10.05zm31.846 0l8.672 5.02 8.671-5.02v-10.05l-8.671-5.02-8.672 5.02v10.05zm31.845 0l8.671 5.02 8.673-5.02v-10.05l-8.673-5.02-8.671 5.02v10.05zm-206.99 27.66l8.672 5.02 8.673-5.02v-10.05l-8.673-5.02-8.672 5.02v10.05zm31.844 0l8.673 5.02 8.672-5.02v-10.05l-8.672-5.02-8.673 5.02v10.05zm31.844 0l8.673 5.02 8.673-5.02v-10.05l-8.673-5.02-8.673 5.02v10.05zm31.847 0l8.672 5.02 8.671-5.02v-10.05l-8.671-5.02-8.672 5.02v10.05zm31.843 0l8.672 5.02 8.672-5.02v-10.05l-8.672-5.02-8.672 5.02v10.05zm31.845 0l8.673 5.02 8.671-5.02v-10.05l-8.671-5.02-8.673 5.02v10.05zm31.844 0l8.672 5.02 8.672-5.02v-10.05l-8.672-5.02-8.672 5.02v10.05zm-206.988 27.66l8.671 5.03 8.673-5.03v-10.04l-8.673-5.02-8.671 5.02v10.04zm31.843 0l8.671 5.03 8.674-5.03v-10.04l-8.674-5.02-8.671 5.02v10.04zm31.844 0l8.673 5.03 8.672-5.03v-10.04l-8.672-5.02-8.673 5.02v10.04zm31.846 0l8.671 5.03 8.673-5.03v-10.04l-8.673-5.02-8.671 5.02v10.04zm31.844 0l8.672 5.03 8.671-5.03v-10.04l-8.671-5.02-8.672 5.02v10.04zm31.843 0l8.673 5.03 8.673-5.03v-10.04l-8.673-5.02-8.673 5.02v10.04zm31.846 0l8.672 5.03 8.671-5.03v-10.04l-8.671-5.02-8.672 5.02v10.04zm-206.99 27.67l8.673 5.02 8.672-5.02v-10.05l-8.672-5.02-8.673 5.02v10.05zm31.845 0l8.672 5.02 8.673-5.02v-10.05l-8.673-5.02-8.672 5.02v10.05zm31.844 0l8.673 5.02 8.672-5.02v-10.05l-8.672-5.02-8.673 5.02v10.05zm31.844 0l8.673 5.02 8.673-5.02v-10.05l-8.673-5.02-8.673 5.02v10.05zm31.847 0l8.672 5.02 8.671-5.02v-10.05l-8.671-5.02-8.672 5.02v10.05zm31.843 0l8.672 5.02 8.672-5.02v-10.05l-8.672-5.02-8.672 5.02v10.05zm31.845 0l8.673 5.02 8.671-5.02v-10.05l-8.671-5.02-8.673 5.02v10.05zm-206.99 27.66l8.673 5.02 8.672-5.02v-10.05l-8.672-5.02-8.673 5.02v10.05zm31.846 0l8.671 5.02 8.673-5.02v-10.05l-8.673-5.02-8.671 5.02v10.05zm31.843 0l8.671 5.02 8.674-5.02v-10.05l-8.674-5.02-8.671 5.02v10.05zm31.844 0l8.673 5.02 8.672-5.02v-10.05l-8.672-5.02-8.673 5.02v10.05zm31.846 0l8.671 5.02 8.673-5.02v-10.05l-8.673-5.02-8.671 5.02v10.05zm31.844 0l8.672 5.02 8.671-5.02v-10.05l-8.671-5.02-8.672 5.02v10.05zm31.843 0l8.673 5.02 8.673-5.02v-10.05l-8.673-5.02-8.673 5.02v10.05zm-238.831 27.66l8.672 5.02 8.673-5.02v-10.04l-8.673-5.03-8.672 5.03v10.04zm31.845 0l8.671 5.02 8.672-5.02v-10.04l-8.672-5.03-8.671 5.03v10.04zm31.842 0l8.673 5.02 8.672-5.02v-10.04l-8.672-5.03-8.673 5.03v10.04zm31.845 0l8.672 5.02 8.673-5.02v-10.04l-8.673-5.03-8.672 5.03v10.04zm31.844 0l8.673 5.02 8.672-5.02v-10.04l-8.672-5.03-8.673 5.03v10.04zm31.844 0l8.673 5.02 8.673-5.02v-10.04l-8.673-5.03-8.673 5.03v10.04zm31.847 0l8.672 5.02 8.671-5.02v-10.04l-8.671-5.03-8.672 5.03v10.04zm31.843 0l8.672 5.02 8.672-5.02v-10.04l-8.672-5.03-8.672 5.03v10.04zm-270.677 27.66l8.672 5.03 8.671-5.03v-10.04l-8.671-5.03-8.672 5.03v10.04zm31.843 0l8.673 5.03 8.673-5.03v-10.04l-8.673-5.03-8.673 5.03v10.04zm31.846 0l8.673 5.03 8.671-5.03v-10.04l-8.671-5.03-8.673 5.03v10.04zm31.843 0l8.673 5.03 8.672-5.03v-10.04l-8.672-5.03-8.673 5.03v10.04zm31.846 0l8.671 5.03 8.673-5.03v-10.04l-8.673-5.03-8.671 5.03v10.04zm31.843 0l8.671 5.03 8.674-5.03v-10.04l-8.674-5.03-8.671 5.03v10.04zm31.844 0l8.673 5.03 8.672-5.03v-10.04l-8.672-5.03-8.673 5.03v10.04zm31.846 0l8.671 5.03 8.673-5.03v-10.04l-8.673-5.03-8.671 5.03v10.04zm31.844 0l8.672 5.03 8.671-5.03v-10.04l-8.671-5.03-8.672 5.03v10.04zm-270.678 27.67l8.673 5.02 8.671-5.02v-10.05l-8.671-5.02-8.673 5.02v10.05zm31.844 0l8.671 5.02 8.673-5.02v-10.05l-8.673-5.02-8.671 5.02v10.05zm31.846 0l8.672 5.02 8.673-5.02v-10.05l-8.673-5.02-8.672 5.02v10.05zm31.845 0l8.671 5.02 8.672-5.02v-10.05l-8.672-5.02-8.671 5.02v10.05zm31.842 0l8.673 5.02 8.672-5.02v-10.05l-8.672-5.02-8.673 5.02v10.05zm31.845 0l8.672 5.02 8.673-5.02v-10.05l-8.673-5.02-8.672 5.02v10.05zm-175.144 27.66l8.673 5.02 8.672-5.02v-10.05l-8.672-5.02-8.673 5.02v10.05zm31.845 0l8.672 5.02 8.671-5.02v-10.05l-8.671-5.02-8.672 5.02v10.05zm31.843 0l8.673 5.02 8.673-5.02v-10.05l-8.673-5.02-8.673 5.02v10.05zm31.846 0l8.673 5.02 8.671-5.02v-10.05l-8.671-5.02-8.673 5.02v10.05zm31.843 0l8.673 5.02 8.672-5.02v-10.05l-8.672-5.02-8.673 5.02v10.05zm-206.987 27.66l8.67 5.02 8.672-5.02v-10.05l-8.672-5.02-8.67 5.02v10.05zm31.844 0l8.672 5.02 8.672-5.02v-10.05l-8.672-5.02-8.672 5.02v10.05zm31.843 0l8.673 5.02 8.673-5.02v-10.05l-8.673-5.02-8.673 5.02v10.05zm31.845 0l8.673 5.02 8.671-5.02v-10.05l-8.671-5.02-8.673 5.02v10.05zm-111.454 27.66l8.67 5.03 8.672-5.03v-10.04l-8.672-5.03-8.67 5.03v10.04zm31.844 0l8.673 5.03 8.669-5.03v-10.04l-8.669-5.03-8.673 5.03v10.04zm31.843 0l8.673 5.03 8.673-5.03v-10.04l-8.673-5.03-8.673 5.03v10.04zm-79.612 27.67l8.673 5.02 8.672-5.02v-10.05l-8.672-5.02-8.673 5.02v10.05zm31.847 0l8.67 5.02 8.672-5.02v-10.05l-8.672-5.02-8.67 5.02v10.05zm31.844 0l8.672 5.02 8.672-5.02v-10.05l-8.672-5.02-8.672 5.02v10.05zm464.265-361.08l6.15 3.57 6.153-3.57v-7.12l-6.153-3.57-6.15 3.57v7.12zm15.922 27.67l6.152 3.56 6.151-3.56v-7.13l-6.151-3.56-6.152 3.56v7.13zm-15.922 27.66l6.15 3.56 6.153-3.56v-7.13l-6.153-3.56-6.15 3.56v7.13zm-15.922 27.66l6.151 3.56 6.151-3.56v-7.13l-6.151-3.56-6.151 3.56v7.13zm-15.923 27.66l6.151 3.57 6.152-3.57v-7.12l-6.152-3.56-6.151 3.56v7.12zm-15.922 27.67l6.151 3.56 6.152-3.56v-7.13l-6.152-3.56-6.151 3.56v7.13zm31.845 0l6.151 3.56 6.151-3.56v-7.13l-6.151-3.56-6.151 3.56v7.13zm-47.767 27.66l6.151 3.56 6.151-3.56v-7.13l-6.151-3.56-6.151 3.56v7.13zm31.844 0l6.151 3.56 6.152-3.56v-7.13l-6.152-3.56-6.151 3.56v7.13zm31.845 0l6.15 3.56 6.153-3.56v-7.13l-6.153-3.56-6.15 3.56v7.13zm-79.611 27.66l6.152 3.56 6.15-3.56v-7.13l-6.15-3.56-6.152 3.56v7.13zm31.844 0l6.151 3.56 6.152-3.56v-7.13l-6.152-3.56-6.151 3.56v7.13zm31.845 0l6.151 3.56 6.151-3.56v-7.13l-6.151-3.56-6.151 3.56v7.13zm-79.612 27.66l6.151 3.57 6.152-3.57v-7.12l-6.152-3.56-6.151 3.56v7.12zm31.845 0l6.151 3.57 6.151-3.57v-7.12l-6.151-3.56-6.151 3.56v7.12zm-143.299 27.67l6.15 3.56 6.152-3.56v-7.13l-6.152-3.56-6.15 3.56v7.13zm31.843 0l6.151 3.56 6.152-3.56v-7.13l-6.152-3.56-6.151 3.56v7.13zm31.845 0l6.152 3.56 6.152-3.56v-7.13l-6.152-3.56-6.152 3.56v7.13zm31.843 0l6.152 3.56 6.152-3.56v-7.13l-6.152-3.56-6.152 3.56v7.13zm31.846 0l6.152 3.56 6.15-3.56v-7.13l-6.15-3.56-6.152 3.56v7.13zm-175.145 27.66l6.151 3.56 6.152-3.56v-7.13l-6.152-3.56-6.151 3.56v7.13zm31.845 0l6.149 3.56 6.152-3.56v-7.13l-6.152-3.56-6.149 3.56v7.13zm31.844 0l6.151 3.56 6.15-3.56v-7.13l-6.15-3.56-6.151 3.56v7.13zm31.845 0l6.15 3.56 6.153-3.56v-7.13l-6.153-3.56-6.15 3.56v7.13zm31.844 0l6.151 3.56 6.151-3.56v-7.13l-6.151-3.56-6.151 3.56v7.13zm31.844 0l6.151 3.56 6.152-3.56v-7.13l-6.152-3.56-6.151 3.56v7.13zm31.845 0l6.151 3.56 6.151-3.56v-7.13l-6.151-3.56-6.151 3.56v7.13zm-302.523 27.66l6.15 3.56 6.152-3.56v-7.13l-6.152-3.56-6.15 3.56v7.13zm31.846 0l6.151 3.56 6.152-3.56v-7.13l-6.152-3.56-6.151 3.56v7.13zm31.844 0l6.151 3.56 6.151-3.56v-7.13l-6.151-3.56-6.151 3.56v7.13zm31.844 0l6.151 3.56 6.152-3.56v-7.13l-6.152-3.56-6.151 3.56v7.13zm31.843 0l6.152 3.56 6.151-3.56v-7.13l-6.151-3.56-6.152 3.56v7.13zm31.847 0l6.15 3.56 6.152-3.56v-7.13l-6.152-3.56-6.15 3.56v7.13zm31.843 0l6.151 3.56 6.152-3.56v-7.13l-6.152-3.56-6.151 3.56v7.13zm31.845 0l6.152 3.56 6.152-3.56v-7.13l-6.152-3.56-6.152 3.56v7.13zm-270.679 27.66l6.153 3.56 6.151-3.56v-7.12l-6.151-3.57-6.153 3.57v7.12zm95.535 0l6.152 3.56 6.149-3.56v-7.12l-6.149-3.57-6.152 3.57v7.12zm31.843 0l6.152 3.56 6.152-3.56v-7.12l-6.152-3.57-6.152 3.57v7.12zm31.845 0l6.151 3.56 6.152-3.56v-7.12l-6.152-3.57-6.151 3.57v7.12zm31.845 0l6.149 3.56 6.152-3.56v-7.12l-6.152-3.57-6.149 3.57v7.12zm-206.99 27.67l6.152 3.56 6.152-3.56v-7.13l-6.152-3.56-6.152 3.56v7.13zM8.678-88.155l.305.178.305-.178v-.353l-.305-.177-.305.177v.353zm31.843 0l.305.178.31-.178v-.353l-.31-.177-.305.177v.353zm31.847 0l.305.178.305-.178v-.353l-.305-.177-.305.177v.353zm-47.77 27.662l.307.177.304-.177v-.354l-.304-.177-.306.177v.354zm31.848 0l.304.177.305-.177v-.354l-.305-.177-.304.177v.354zm31.844 0l.305.177.305-.177v-.354l-.305-.177-.305.177v.354zm31.844 0l.306.177.305-.177v-.354l-.305-.177-.306.177v.354zM8.678-32.819l.305.177.305-.177v-.354l-.305-.177-.305.177v.354zm31.843 0l.305.177.31-.177v-.354l-.31-.177-.305.177v.354zm31.847 0l.305.177.305-.177v-.354l-.305-.177-.305.177v.354zm31.844 0l.306.177.304-.177v-.354l-.304-.177-.306.177v.354zm31.843 0l.305.177.306-.177v-.354l-.306-.177-.305.177v.354zm31.845 0l.305.177.305-.177v-.354l-.305-.177-.305.177v.354zm31.844 0l.308.177.305-.177v-.354l-.305-.177-.308.177v.354zM24.599-5.157l.306.176.304-.176v-.355l-.304-.177-.306.177v.355zm31.847 0l.304.176.305-.176v-.355l-.305-.177-.304.177v.355zm31.844 0l.305.176.305-.176v-.355l-.305-.177-.305.177v.355zm31.844 0l.306.176.305-.176v-.355l-.305-.177-.306.177v.355zm31.843 0l.306.176.305-.176v-.355l-.305-.177-.306.177v.355zm31.846 0l.304.176.308-.176v-.355l-.308-.177-.304.177v.355zm31.845 0l.305.176.306-.176v-.355l-.306-.177-.305.177v.355zm31.844 0l.305.176.305-.176v-.355l-.305-.177-.305.177v.355zm31.843 0l.307.176.305-.176v-.355l-.305-.177-.307.177v.355zM8.678 22.503l.305.178.305-.177v-.355l-.305-.176-.305.176v.355zm31.843 0l.305.178.31-.177v-.355l-.31-.176-.305.176v.355zm31.847 0l.305.178.305-.177v-.355l-.305-.176-.305.176v.355zm31.844 0l.306.178.304-.177v-.355l-.304-.176-.306.176v.355zm31.843 0l.305.178.306-.177v-.355l-.306-.176-.305.176v.355zm31.845 0l.305.178.305-.177v-.355l-.305-.176-.305.176v.355zm31.844 0l.308.178.305-.177v-.355l-.305-.176-.308.176v.355zm31.846 0l.305.178.306-.177v-.355l-.306-.176-.305.176v.355zm31.844 0l.306.178.304-.177v-.355l-.304-.176-.306.176v.355zM24.599 50.166l.306.177.304-.177v-.353l-.304-.178-.306.178v.353zm31.847 0l.304.177.305-.177v-.353l-.305-.178-.304.178v.353zm31.844 0l.305.177.305-.177v-.353l-.305-.178-.305.178v.353zm31.844 0l.306.177.305-.177v-.353l-.305-.178-.306.178v.353zm31.843 0l.306.177.305-.177v-.353l-.305-.178-.306.178v.353zM8.678 77.826l.305.177.305-.177v-.354l-.305-.177-.305.177v.354zm31.843 0l.305.177.31-.177v-.354l-.31-.177-.305.177v.354zm31.847 0l.305.177.305-.177v-.354l-.305-.177-.305.177v.354zm31.844 0l.306.177.304-.177v-.354l-.304-.177-.306.177v.354zm31.843 0l.305.177.306-.177v-.354l-.306-.177-.305.177v.354zM24.599 105.488l.306.176.304-.176v-.355l-.302-.177-.308.177v.355zm31.847 0l.304.176.305-.176v-.355l-.305-.177-.304.177v.355zm31.844 0l.305.176.305-.176v-.355l-.305-.177-.305.177v.355zm31.844 0l.306.176.305-.176v-.355l-.305-.177-.306.177v.355zM8.678 133.15l.305.177.305-.177v-.354l-.305-.175-.305.175v.354zm31.843 0l.305.177.31-.177v-.354l-.31-.175-.305.175v.354zm31.847 0l.305.177.305-.177v-.354l-.305-.175-.305.175v.354zm-47.77 27.662l.307.177.304-.177v-.353l-.304-.177-.306.177v.353zm31.848 0l.304.177.305-.177v-.353l-.305-.177-.304.177v.353zM8.678 188.474l.305.177.305-.177v-.353l-.305-.176-.305.176v.353zM294.33 23.048l1.254.732 1.254-.732v-1.454l-1.254-.721-1.254.72v1.455zm31.843 0l1.255.732 1.254-.732v-1.454l-1.254-.721-1.255.72v1.455zm-143.299 27.66l1.253.734 1.255-.734v-1.453l-1.255-.72-1.253.72v1.453zm31.843 0l1.256.734 1.254-.734v-1.453l-1.254-.72-1.256.72v1.453zm31.848 0l1.252.734 1.253-.734v-1.453l-1.253-.72-1.252.72v1.453zm31.842 0l1.255.734 1.252-.734v-1.453l-1.252-.72-1.255.72v1.453zm31.844 0l1.253.734 1.256-.734v-1.453l-1.256-.72-1.253.72v1.453zm31.845 0l1.255.734 1.253-.734v-1.453l-1.253-.72-1.255.72v1.453zm31.846 0l1.253.734 1.254-.734v-1.453l-1.254-.72-1.253.72v1.453zM166.952 78.37l1.253.733 1.255-.733v-1.454l-1.255-.72-1.253.72v1.454zm31.844 0l1.256.733 1.252-.733v-1.454l-1.252-.72-1.256.72v1.454zm31.846 0l1.253.733 1.253-.733v-1.454l-1.253-.72-1.253.72v1.454zm31.844 0l1.254.733 1.252-.733v-1.454l-1.252-.72-1.254.72v1.454zm31.844 0l1.254.733 1.254-.733v-1.454l-1.254-.72-1.254.72v1.454zm31.843 0l1.255.733 1.254-.733v-1.454l-1.254-.72-1.255.72v1.454zm31.847 0l1.254.733 1.252-.733v-1.454l-1.252-.72-1.254.72v1.454zm31.843 0l1.254.733 1.254-.733v-1.454l-1.254-.72-1.254.72v1.454zM151.03 106.032l1.253.733 1.252-.733v-1.442l-1.252-.733-1.253.733v1.442zm31.844 0l1.253.733 1.255-.733v-1.442l-1.255-.733-1.253.72v1.455zm31.843 0l1.256.733 1.254-.733v-1.442l-1.254-.733-1.256.733v1.442zm31.848 0l1.252.733 1.253-.733v-1.442l-1.253-.733-1.252.733v1.442zm31.842 0l1.255.733 1.252-.733v-1.442l-1.252-.733-1.255.733v1.442zm31.844 0l1.253.733 1.256-.733v-1.442l-1.256-.733-1.253.72v1.455zm31.845 0l1.255.733 1.253-.733v-1.442l-1.253-.733-1.255.733v1.442zm31.846 0l1.253.733 1.254-.733v-1.442l-1.254-.733-1.253.72v1.455zm-270.678 27.667l1.254.726 1.252-.726v-1.451l-1.252-.728-1.254.728v1.451zm31.844 0l1.252.726 1.253-.726v-1.451l-1.253-.728-1.252.728v1.451zm31.844 0l1.253.726 1.255-.726v-1.451l-1.255-.728-1.253.728v1.451zm31.844 0l1.256.726 1.252-.726v-1.451l-1.252-.728-1.256.728v1.451zm31.846 0l1.253.726 1.253-.726v-1.451l-1.253-.728-1.253.728v1.451zm31.844 0l1.254.726 1.252-.726v-1.451l-1.252-.728-1.254.728v1.451zm31.844 0l1.254.726 1.254-.726v-1.451l-1.254-.728-1.254.728v1.451zm31.843 0l1.255.726 1.254-.726v-1.451l-1.254-.728-1.255.728v1.451zm31.847 0l1.254.726 1.252-.726v-1.451l-1.252-.728-1.254.728v1.451zM87.34 161.362l1.255.725 1.253-.725v-1.452l-1.253-.726-1.255.726v1.452zm31.846 0l1.254.725 1.252-.725v-1.452l-1.252-.726-1.254.726v1.452zm31.844 0l1.253.725 1.252-.725v-1.452l-1.252-.726-1.253.726v1.452zm31.844 0l1.253.725 1.255-.725v-1.452l-1.255-.726-1.253.726v1.452zm31.843 0l1.256.725 1.254-.725v-1.452l-1.254-.726-1.256.726v1.452zm31.848 0l1.252.725 1.253-.725v-1.452l-1.253-.726-1.252.726v1.452zm31.842 0l1.255.725 1.252-.725v-1.452l-1.252-.726-1.255.726v1.452zm31.844 0l1.253.725 1.256-.725v-1.452l-1.256-.726-1.253.726v1.452zM39.574 189.024l1.252.725 1.256-.725v-1.452l-1.256-.726-1.252.726v1.452zm31.843 0l1.256.725 1.252-.725v-1.452l-1.252-.726-1.256.726v1.452zm31.847 0l1.254.725 1.252-.725v-1.452l-1.252-.726-1.254.726v1.452zm31.844 0l1.252.725 1.253-.725v-1.452l-1.253-.726-1.252.726v1.452zm31.844 0l1.253.725 1.255-.725v-1.452l-1.255-.726-1.253.726v1.452zm31.844 0l1.256.725 1.252-.725v-1.452l-1.252-.726-1.256.726v1.452zm31.846 0l1.253.725 1.253-.725v-1.452l-1.253-.726-1.253.726v1.452zm31.844 0l1.254.725 1.252-.725v-1.452l-1.252-.726-1.254.726v1.452zm31.844 0l1.254.725 1.254-.725v-1.452l-1.254-.726-1.254.726v1.452zM23.652 216.687l1.253.726 1.255-.726v-1.453l-1.255-.727-1.253.727v1.453zm31.843 0l1.255.726 1.253-.726v-1.453l-1.253-.727-1.255.727v1.453zm31.845 0l1.255.726 1.253-.726v-1.453l-1.253-.727-1.255.727v1.453zm31.846 0l1.254.726 1.252-.726v-1.453l-1.252-.727-1.254.727v1.453zm31.844 0l1.253.726 1.252-.726v-1.453l-1.252-.727-1.253.727v1.453zm31.844 0l1.253.726 1.255-.726v-1.453l-1.255-.727-1.253.727v1.453zM7.73 244.349l1.253.726 1.252-.726v-1.453l-1.252-.725-1.253.725v1.453zm31.844 0l1.252.726 1.256-.726v-1.453l-1.256-.725-1.252.725v1.453zm31.843 0l1.256.726 1.252-.726v-1.453l-1.252-.725-1.256.725v1.453zm31.847 0l1.254.726 1.252-.726v-1.453l-1.252-.725-1.254.725v1.453zm31.844 0l1.252.726 1.253-.726v-1.454l-1.253-.724-1.252.725v1.453zM23.652 272.011l1.253.726 1.255-.726v-1.453l-1.255-.726-1.253.726v1.453zm31.843 0l1.255.726 1.253-.726v-1.453l-1.253-.726-1.255.726v1.453zm31.845 0l1.255.726 1.253-.726v-1.453l-1.253-.726-1.255.726v1.453zm31.846 0l1.254.726 1.252-.726v-1.453l-1.252-.726-1.254.726v1.453zM7.73 299.673l1.253.726 1.252-.726v-1.451l-1.252-.726-1.253.726v1.451zm31.844 0l1.252.726 1.256-.726v-1.451l-1.256-.726-1.252.726v1.451zm31.843 0l1.256.726 1.252-.726v-1.451l-1.252-.726-1.256.726v1.451zm31.847 0l1.254.726 1.252-.726v-1.451l-1.252-.726-1.254.726v1.451zm-79.612 27.663l1.253.725 1.255-.725v-1.452l-1.255-.726-1.253.726v1.452zm31.843 0l1.255.725 1.253-.725v-1.452l-1.253-.726-1.255.726v1.452zm31.845 0l1.255.725 1.253-.725v-1.452l-1.253-.726-1.255.726v1.452zM7.73 355l1.253.726 1.252-.726v-1.454l-1.252-.726-1.253.726V355zm31.844 0l1.252.726 1.256-.726v-1.454l-1.256-.726-1.252.726V355zm31.843 0l1.256.726 1.252-.726v-1.454l-1.252-.726-1.256.726V355zm-47.765 27.661l1.253.726 1.255-.726v-1.453l-1.255-.726-1.253.726v1.453zm31.843 0l1.255.726 1.253-.726v-1.453l-1.253-.726-1.255.726v1.453zm31.845 0l1.255.726 1.253-.726v-1.453l-1.253-.726-1.255.726v1.453zM7.73 410.324l1.253.725 1.252-.725v-1.455l-1.252-.725-1.253.725v1.455zm31.844 0l1.252.725 1.256-.725v-1.455l-1.256-.725-1.252.725v1.455zm31.843 0l1.256.725 1.252-.725v-1.455l-1.252-.725-1.256.725v1.455zm-47.765 27.661l1.253.727 1.255-.727v-1.452l-1.255-.725-1.253.725v1.452zm31.843 0l1.255.727 1.253-.727v-1.452l-1.253-.725-1.255.725v1.452zM7.73 465.647l1.253.727 1.252-.727v-1.451l-1.252-.725-1.253.725v1.451zm31.844 0l1.252.727 1.256-.727v-1.451l-1.256-.725-1.252.725v1.451zm-15.922 27.665l1.253.725 1.255-.725v-1.453l-1.255-.726-1.253.726v1.453zM7.73 520.973l1.253.727 1.252-.727v-1.452l-1.252-.727-1.253.727v1.452zm31.844 0l1.252.727 1.256-.727v-1.452l-1.256-.727-1.252.727v1.452zm-15.922 27.662l1.253.726 1.255-.726v-1.452l-1.255-.726-1.253.726v1.452zM7.73 576.298l1.253.725 1.252-.725v-1.452l-1.252-.726-1.253.726v1.452zm31.844 0l1.252.725 1.256-.725v-1.452l-1.256-.726-1.252.726v1.452zm-15.922 27.663l1.253.725 1.255-.725v-1.455l-1.255-.725-1.253.725v1.455zM7.73 631.624l1.253.725 1.252-.725v-1.454l-1.252-.726-1.253.726v1.454zm31.844 0l1.252.725 1.256-.725v-1.454l-1.256-.726-1.252.726v1.454zm-15.922 27.662l1.253.725 1.255-.725v-1.453l-1.255-.725-1.253.725v1.453zM7.73 686.948l1.253.726 1.252-.726v-1.452l-1.252-.726-1.253.726v1.452zm746.136-800.93l3.462 2.01 3.463-2.01v-4.008l-3.463-2.01-3.462 2.01v4.008zM403.577 107.321l3.462 1.997 3.462-1.997V103.3l-3.462-1.997-3.462 1.997v4.021zm-15.923 27.657l3.463 2.006 3.462-2.006v-4.011l-3.462-2.003-3.463 2.003v4.011zm31.845 0l3.462 2.006 3.464-2.006v-4.011l-3.464-2.003-3.462 2.003v4.011zm-79.611 27.663l3.463 2.007 3.462-2.007v-4.01l-3.462-2.006-3.463 2.006v4.01zm31.845 0l3.462 2.005 3.462-2.005v-4.01l-3.462-2.005-3.462 2.005v4.01zm31.844 0l3.462 2.005 3.462-2.005v-4.01l-3.462-2.005-3.462 2.005v4.01zm31.845 0l3.461 2.007 3.464-2.007v-4.01l-3.464-2.006-3.461 2.006v4.01zm-111.456 27.662l3.462 2.005 3.462-2.005v-4.011l-3.462-2.005-3.462 2.005v4.011zm31.843 0l3.465 2.005 3.46-2.005v-4.011l-3.46-2.005-3.465 2.005v4.011zm31.845 0l3.463 2.005 3.462-2.005v-4.011l-3.462-2.005-3.463 2.005v4.011zm31.845 0l3.462 2.005 3.464-2.005v-4.011l-3.464-2.006-3.462 2.006v4.011zm31.846 0l3.459 2.005 3.463-2.005v-4.011l-3.463-2.005-3.459 2.005v4.011zm-238.836 27.662l3.464 2.006 3.462-2.006v-4.012l-3.462-2.003-3.464 2.003v4.012zm31.844 0l3.464 2.006 3.461-2.006v-4.012l-3.461-2.003-3.464 2.003v4.012zm31.845 0l3.464 2.006 3.463-2.006v-4.012l-3.463-2.003-3.464 2.003v4.012zm31.845 0l3.461 2.006 3.464-2.006v-4.012l-3.464-2.003-3.461 2.003v4.012zm31.845 0l3.463 2.006 3.462-2.006v-4.012l-3.462-2.003-3.463 2.003v4.012zm31.845 0l3.462 2.006 3.462-2.006v-4.012l-3.462-2.003-3.462 2.003v4.012zm31.844 0l3.462 2.006 3.462-2.006v-4.012l-3.462-2.003-3.462 2.003v4.012zm31.845 0l3.461 2.006 3.464-2.006v-4.012l-3.464-2.003-3.461 2.003v4.012zm-270.678 27.663l3.461 2.005 3.463-2.005v-4.012l-3.463-2.005-3.461 2.005v4.012zm31.844 0l3.464 2.005 3.461-2.005v-4.012l-3.461-2.005-3.464 2.005v4.012zm31.843 0l3.464 2.006 3.461-2.006v-4.012l-3.461-2.005-3.464 2.005v4.012zm31.847 0l3.462 2.005 3.46-2.005v-4.012l-3.46-2.005-3.462 2.005v4.012zm31.844 0l3.462 2.005 3.461-2.005v-4.012l-3.461-2.005-3.462 2.005v4.012zm31.844 0l3.462 2.005 3.462-2.005v-4.012l-3.462-2.005-3.462 2.005v4.012zm31.843 0l3.465 2.005 3.46-2.005v-4.012l-3.46-2.005-3.465 2.005v4.012zm31.845 0l3.463 2.005 3.462-2.005v-4.012l-3.462-2.005-3.463 2.005v4.012zm31.845 0l3.462 2.006 3.464-2.006v-4.012l-3.464-2.005-3.462 2.005v4.012zm31.846 0l3.459 2.005 3.463-2.005v-4.012l-3.463-2.005-3.459 2.005v4.012zM148.821 273.29l3.462 2.005 3.463-2.005v-4.011l-3.463-2.006-3.462 2.006v4.011zm31.845 0l3.461 2.005 3.463-2.005v-4.011l-3.463-2.006-3.461 2.006v4.011zm31.843 0l3.464 2.005 3.462-2.005v-4.011l-3.462-2.006-3.464 2.006v4.011zm31.844 0l3.464 2.005 3.461-2.005v-4.011l-3.461-2.006-3.464 2.006v4.011zm31.845 0l3.464 2.005 3.463-2.005v-4.011l-3.463-2.006-3.464 2.006v4.011zm31.845 0l3.461 2.005 3.464-2.005v-4.011l-3.464-2.006-3.461 2.006v4.011zm31.845 0l3.463 2.005 3.462-2.005v-4.011l-3.462-2.006-3.463 2.006v4.011zm31.845 0l3.462 2.005 3.462-2.005v-4.011l-3.462-2.006-3.462 2.006v4.011zm31.844 0l3.462 2.005 3.462-2.005v-4.011l-3.462-2.006-3.462 2.006v4.011zm31.845 0l3.461 2.005 3.464-2.005v-4.011l-3.464-2.006-3.461 2.006v4.011zm-302.523 27.663l3.461 2.005 3.466-2.005v-4.01l-3.466-2.006-3.461 2.006v4.01zm31.845 0l3.461 2.005 3.463-2.005v-4.01l-3.463-2.006-3.461 2.006v4.01zm31.844 0l3.464 2.005 3.461-2.005v-4.01l-3.461-2.006-3.464 2.006v4.01zm31.843 0l3.464 2.006 3.461-2.006v-4.01l-3.461-2.007-3.464 2.007v4.01zm31.847 0l3.462 2.005 3.46-2.005v-4.01l-3.46-2.006-3.462 2.006v4.01zm31.844 0l3.462 2.005 3.461-2.005v-4.01l-3.461-2.006-3.462 2.006v4.01zm31.844 0l3.462 2.005 3.462-2.005v-4.01l-3.462-2.006-3.462 2.006v4.01zm31.843 0l3.465 2.005 3.46-2.005v-4.01l-3.46-2.006-3.465 2.006v4.01zm31.845 0l3.463 2.005 3.462-2.005v-4.01l-3.462-2.006-3.463 2.006v4.01zm-270.676 27.663l3.462 2.004 3.463-2.004v-4.013l-3.463-2.004-3.462 2.004v4.013zm31.843 0l3.462 2.006 3.463-2.006v-4.013l-3.463-2.006-3.462 2.006v4.013zm31.845 0l3.461 2.004 3.463-2.004v-4.013l-3.463-2.004-3.461 2.004v4.013zm31.843 0l3.464 2.004 3.462-2.004v-4.013l-3.462-2.004-3.464 2.004v4.013zm31.844 0l3.464 2.004 3.461-2.004v-4.013l-3.461-2.004-3.464 2.004v4.013zm31.845 0l3.464 2.006 3.463-2.006v-4.013l-3.463-2.006-3.464 2.006v4.013zM101.054 356.28l3.464 2.004 3.46-2.004v-4.015l-3.46-2.003-3.464 2.003v4.015zm31.845 0l3.461 2.004 3.466-2.004v-4.015l-3.466-2.003-3.461 2.003v4.015zm31.845 0l3.461 2.004 3.463-2.004v-4.015l-3.463-2.003-3.461 2.003v4.015zm31.844 0l3.464 2.004 3.461-2.004v-4.015l-3.461-2.003-3.464 2.003v4.015zm31.843 0l3.464 2.004 3.461-2.004v-4.015l-3.461-2.003-3.464 2.003v4.015zm31.847 0l3.462 2.004 3.46-2.004v-4.015l-3.46-2.003-3.462 2.003v4.015zm-143.3 27.661l3.462 2.004 3.463-2.004v-4.012l-3.463-2.003-3.462 2.003v4.012zm31.843 0l3.462 2.004 3.463-2.004v-4.012l-3.463-2.003-3.462 2.003v4.012zm31.845 0l3.461 2.004 3.463-2.004v-4.012l-3.463-2.003-3.461 2.003v4.012zm31.843 0l3.464 2.004 3.462-2.004v-4.012l-3.462-2.003-3.464 2.003v4.012zm31.844 0l3.464 2.004 3.461-2.004v-4.012l-3.461-2.003-3.464 2.003v4.012zm-143.299 27.662l3.464 2.005 3.46-2.005v-4.012l-3.46-2.005-3.464 2.005v4.012zm31.845 0l3.461 2.005 3.466-2.005v-4.012l-3.466-2.005-3.461 2.005v4.012zm31.845 0l3.461 2.005 3.463-2.005v-4.012l-3.463-2.005-3.461 2.005v4.012zm31.844 0l3.464 2.005 3.461-2.005v-4.012l-3.461-2.005-3.464 2.005v4.012zm31.843 0l3.464 2.005 3.461-2.005v-4.012l-3.461-2.005-3.464 2.005v4.012zm-143.3 27.663l3.464 2.005 3.461-2.005v-4.012l-3.461-2.006-3.464 2.006v4.012zm31.847 0l3.462 2.004 3.463-2.004v-4.012l-3.463-2.004-3.462 2.004v4.012zm31.843 0l3.462 2.005 3.463-2.005v-4.012l-3.463-2.006-3.462 2.006v4.012zm31.845 0l3.461 2.004 3.463-2.004v-4.012l-3.463-2.004-3.461 2.004v4.012zm31.843 0l3.464 2.004 3.462-2.004v-4.012l-3.462-2.004-3.464 2.004v4.012zm-143.3 27.661l3.464 2.005 3.46-2.005v-4.01l-3.46-2.007-3.464 2.007v4.01zm31.845 0l3.464 2.005 3.46-2.005v-4.01l-3.46-2.007-3.464 2.007v4.01zm31.845 0l3.461 2.005 3.466-2.005v-4.01l-3.466-2.007-3.461 2.007v4.01zm31.845 0l3.461 2.005 3.463-2.005v-4.01l-3.463-2.007-3.461 2.007v4.01zm31.844 0l3.464 2.005 3.461-2.005v-4.01l-3.461-2.007-3.464 2.007v4.01zm-143.3 27.664l3.462 2.003 3.462-2.003v-4.011l-3.462-2.006-3.463 2.006v4.011zm31.843 0l3.464 2.003 3.461-2.003v-4.011l-3.461-2.006-3.464 2.006v4.011zm31.847 0l3.462 2.003 3.463-2.003v-4.011l-3.463-2.006-3.462 2.006v4.011zm31.843 0l3.462 2.003 3.463-2.003v-4.011l-3.463-2.006-3.462 2.006v4.011zm31.845 0l3.461 2.003 3.463-2.003v-4.011l-3.463-2.006-3.461 2.006v4.011zm31.843 0l3.464 2.003 3.462-2.003v-4.011l-3.462-2.006-3.464 2.006v4.011zm-143.3 27.662l3.464 2.004 3.46-2.004v-4.012l-3.46-2.005-3.464 2.005v4.012zm31.845 0l3.464 2.004 3.46-2.004v-4.012l-3.46-2.005-3.464 2.005v4.012zm31.845 0l3.461 2.004 3.466-2.004v-4.012l-3.466-2.005-3.461 2.005v4.012zm31.845 0l3.461 2.004 3.463-2.004v-4.012l-3.463-2.005-3.461 2.005v4.012zm31.844 0l3.464 2.004 3.461-2.004v-4.012l-3.461-2.005-3.464 2.005v4.012zm-143.3 27.664l3.462 2.004 3.462-2.004v-4.013L56.75 543.9l-3.463 2.004v4.013zm31.843 0l3.464 2.004 3.461-2.004v-4.013l-3.461-2.006-3.464 2.006v4.013zm31.847 0l3.462 2.004 3.463-2.004v-4.013l-3.463-2.004-3.462 2.004v4.013zm31.843 0l3.462 2.004 3.463-2.004v-4.013l-3.463-2.006-3.462 2.006v4.013zm31.845 0l3.461 2.004 3.463-2.004v-4.013l-3.463-2.004-3.461 2.004v4.013zm31.843 0l3.464 2.004 3.462-2.004v-4.013l-3.462-2.004-3.464 2.004v4.013zm-143.3 27.66l3.464 2.005 3.46-2.005v-4.01l-3.46-2.005-3.464 2.005v4.01zm31.845 0l3.464 2.005 3.46-2.005v-4.01l-3.46-2.005-3.464 2.005v4.01zm31.845 0l3.461 2.005 3.466-2.005v-4.01l-3.466-2.005-3.461 2.005v4.01zm31.845 0l3.461 2.005 3.463-2.005v-4.01l-3.463-2.005-3.461 2.005v4.01zm31.844 0l3.464 2.005 3.461-2.005v-4.01l-3.461-2.005-3.464 2.005v4.01zm-143.3 27.663l3.462 2.004 3.462-2.004v-4.011l-3.462-2.006-3.463 2.006v4.011zm31.843 0l3.464 2.006 3.461-2.006v-4.011l-3.461-2.006-3.464 2.006v4.011zm31.847 0l3.462 2.004 3.463-2.004v-4.011l-3.463-2.006-3.462 2.006v4.011zm31.843 0l3.462 2.006 3.463-2.006v-4.011l-3.463-2.006-3.462 2.006v4.011zm31.845 0l3.461 2.004 3.463-2.004v-4.011l-3.463-2.006-3.461 2.006v4.011zM69.209 632.902l3.464 2.004 3.46-2.004v-4.011l-3.46-2.005-3.464 2.005v4.011zm31.845 0l3.464 2.004 3.46-2.004v-4.011l-3.46-2.005-3.464 2.005v4.011zm31.845 0l3.461 2.004 3.466-2.004v-4.011l-3.466-2.005-3.461 2.005v4.011zm31.845 0l3.461 2.004 3.463-2.004v-4.011l-3.463-2.005-3.461 2.005v4.011zM53.287 660.564l3.463 2.005 3.462-2.005v-4.012l-3.462-2.003-3.463 2.003v4.012zm31.844 0l3.464 2.005 3.461-2.005v-4.012l-3.461-2.003-3.464 2.003v4.012zm31.847 0l3.462 2.005 3.463-2.005v-4.012l-3.463-2.003-3.462 2.003v4.012zm31.843 0l3.462 2.005 3.463-2.005v-4.012l-3.463-2.003-3.462 2.003v4.012zm31.845 0l3.461 2.005 3.463-2.005v-4.012l-3.463-2.003-3.461 2.003v4.012zm-143.3 27.664l3.46 2.005 3.464-2.005v-4.012l-3.464-2.006-3.46 2.006v4.012zm31.843 0l3.464 2.005 3.46-2.005v-4.012l-3.46-2.005-3.464 2.005v4.012zm31.845 0l3.464 2.005 3.46-2.005v-4.012l-3.46-2.005-3.464 2.005v4.012zm31.845 0l3.461 2.005 3.466-2.005v-4.012l-3.466-2.005-3.461 2.005v4.012zm31.845 0l3.461 2.005 3.463-2.005v-4.012l-3.463-2.005-3.461 2.005v4.012zm-143.3 27.661l3.461 2.006 3.463-2.006v-4.011l-3.463-2.006-3.46 2.006v4.011zm31.843 0l3.463 2.005 3.462-2.005v-4.011l-3.462-2.004-3.463 2.004v4.011zm31.844 0l3.464 2.006 3.461-2.006v-4.011l-3.461-2.006-3.464 2.006v4.011zm31.847 0l3.462 2.005 3.463-2.005v-4.011l-3.463-2.004-3.462 2.004v4.011zm31.843 0l3.462 2.006 3.463-2.006v-4.011l-3.463-2.006-3.462 2.006v4.011zM5.522 743.552l3.46 2.006 3.464-2.006v-4.01l-3.463-2.006-3.46 2.006v4.01zm31.843 0l3.461 2.006 3.464-2.006v-4.01l-3.464-2.007-3.46 2.007v4.01zm31.844 0l3.464 2.006 3.46-2.006v-4.01l-3.46-2.006-3.464 2.006v4.01zm31.845 0l3.464 2.006 3.46-2.006v-4.01l-3.46-2.006-3.464 2.006v4.01zm31.845 0l3.461 2.006 3.466-2.006v-4.01l-3.466-2.006-3.461 2.006v4.01zM21.444 771.215l3.461 2.004 3.463-2.004v-4.012l-3.463-2.004-3.46 2.004v4.012zm31.843 0l3.463 2.004 3.462-2.004v-4.012l-3.462-2.004-3.463 2.004v4.012zm31.844 0l3.464 2.004 3.461-2.004v-4.012l-3.461-2.004-3.464 2.004v4.012zm31.847.002l3.462 2.002 3.463-2.004v-4.012l-3.463-2.004-3.462 2.004v4.014zM5.522 798.875l3.46 2.006 3.464-2.006v-4.01l-3.463-2.005-3.46 2.005v4.01zm31.843 0l3.462 2.007 3.464-2.007v-4.01l-3.464-2.005-3.462 2.005v4.01zm31.844 0l3.464 2.006 3.46-2.006v-4.01l-3.46-2.005-3.464 2.005v4.01zm31.845.001l3.464 2.005 3.46-2.005v-4.011l-3.46-2.005-3.464 2.005v4.011zm-79.61 27.663l3.461 2.006 3.463-2.006v-4.011l-3.463-2.005-3.46 2.005v4.011zm31.843 0l3.463 2.004 3.462-2.004v-4.011l-3.462-2.004-3.463 2.004v4.011zm31.844 0l3.464 2.006 3.461-2.006v-4.01l-3.461-2.006-3.464 2.006v4.01zM5.522 854.201l3.46 2.004 3.464-2.004v-4.012l-3.463-2.005-3.46 2.005v4.012zm31.843 0l3.462 2.006 3.464-2.006v-4.012l-3.464-2.005-3.462 2.005v4.012zm31.844 0l3.464 2.004 3.46-2.004v-4.012l-3.46-2.004-3.464 2.004v4.012zm31.845 0l3.464 2.004 3.46-2.004v-4.012l-3.46-2.004-3.464 2.004v4.012zm-79.61 27.663l3.461 2.005 3.463-2.005v-4.011l-3.463-2.006-3.46 2.006v4.011zm31.843 0l3.463 2.005 3.462-2.005v-4.011l-3.462-2.006-3.463 2.006v4.011zm31.844 0l3.464 2.005 3.461-2.005v-4.011l-3.461-2.006-3.464 2.006v4.011zM5.522 909.529l3.46 2.002 3.464-2.004v-4.013l-3.463-2.003-3.46 2.003v4.015zm31.843-.002l3.461 2.004 3.464-2.004v-4.013l-3.464-2.003-3.46 2.003v4.013zm31.844.002l3.464 2.002 3.46-2.004v-4.013l-3.46-2.003-3.464 2.003v4.015zM21.444 937.19l3.461 2.004 3.463-2.004v-4.012l-3.463-2.006-3.46 2.006v4.012zm31.843 0l3.463 2.004 3.462-2.004v-4.012l-3.462-2.005-3.463 2.005v4.012zM5.522 964.851l3.46 2.005 3.464-2.005v-4.01l-3.463-2.006-3.46 2.006v4.01zm31.843 0l3.461 2.007 3.464-2.007v-4.01l-3.464-2.006-3.46 2.006v4.01zm-15.92 27.663l3.46 2.005 3.463-2.005v-4.011l-3.463-2.006-3.46 2.006v4.011zM5.521 1020.18l3.46 2 3.464-2v-4.01l-3.463-2.01-3.46 2.01v4.01zm458.43-744.971l6.776 3.922 6.776-3.922v-7.848l-6.776-3.924-6.776 3.924v7.848zm-47.766 27.664l6.775 3.923 6.776-3.923v-7.851l-6.776-3.924-6.775 3.924v7.851zm31.843 0l6.775 3.923 6.777-3.923v-7.851l-6.777-3.924-6.775 3.924v7.851zm31.845 0l6.776 3.923 6.776-3.923v-7.851l-6.776-3.924-6.776 3.924v7.851zM304.73 330.536l6.774 3.924 6.777-3.924v-7.85l-6.777-3.924-6.774 3.924v7.85zm31.844 0l6.777 3.924 6.775-3.924v-7.85l-6.775-3.924-6.777 3.924v7.85zm31.845 0l6.776 3.924 6.774-3.924v-7.85l-6.774-3.924-6.776 3.924v7.85zm31.844 0l6.776 3.924 6.776-3.924v-7.85l-6.776-3.924-6.776 3.924v7.85zm31.844 0l6.776 3.924 6.776-3.924v-7.85l-6.776-3.924-6.776 3.924v7.85zm31.845 0l6.776 3.924 6.776-3.924v-7.85l-6.776-3.924-6.776 3.924v7.85zm-175.145 27.661l6.777 3.925 6.775-3.925v-7.849l-6.775-3.923-6.777 3.923v7.849zm31.845 0l6.776 3.925 6.776-3.925v-7.849l-6.776-3.923-6.776 3.923v7.849zm31.845 0l6.777 3.925 6.774-3.925v-7.849l-6.774-3.923-6.777 3.923v7.849zm31.844 0l6.776 3.925 6.775-3.925v-7.849l-6.775-3.923-6.776 3.923v7.849zm31.845 0l6.775 3.925 6.776-3.925v-7.849l-6.776-3.923-6.775 3.923v7.849zm31.843 0l6.775 3.925 6.777-3.925v-7.849l-6.777-3.923-6.775 3.923v7.849zm-175.142 27.661l6.775 3.925 6.775-3.925v-7.847l-6.775-3.924-6.775 3.924v7.847zm31.843 0l6.774 3.925 6.777-3.925v-7.847l-6.777-3.924-6.774 3.924v7.847zm31.844 0l6.777 3.925 6.775-3.925v-7.847l-6.775-3.924-6.777 3.924v7.847zm31.845 0l6.776 3.925 6.774-3.925v-7.847l-6.774-3.924-6.776 3.924v7.847zm31.844 0l6.776 3.925 6.776-3.925v-7.847l-6.776-3.924-6.776 3.924v7.847zm-143.298 27.663l6.775 3.925 6.774-3.925v-7.848l-6.774-3.926-6.775 3.926v7.848zm31.842 0l6.777 3.925 6.775-3.925v-7.848l-6.775-3.926-6.777 3.926v7.848zm31.845 0l6.776 3.925 6.776-3.925v-7.848l-6.776-3.926-6.776 3.926v7.848zm31.845 0l6.777 3.925 6.774-3.925v-7.848l-6.774-3.926-6.777 3.926v7.848zm31.844 0l6.776 3.925 6.775-3.925v-7.848l-6.775-3.926-6.776 3.926v7.848zM241.04 441.185l6.777 3.925 6.774-3.925v-7.851l-6.774-3.924-6.777 3.924v7.851zm31.847 0l6.775 3.925 6.775-3.925v-7.851l-6.775-3.924-6.775 3.924v7.851zm31.843 0l6.774 3.925 6.777-3.925v-7.851l-6.777-3.924-6.774 3.924v7.851zm31.844 0l6.777 3.925 6.775-3.925v-7.851l-6.775-3.924-6.777 3.924v7.851zm31.845 0l6.776 3.925 6.774-3.925v-7.851l-6.774-3.924-6.776 3.924v7.851zm-143.302 27.661l6.778 3.924 6.774-3.924v-7.848l-6.774-3.925-6.778 3.925v7.848zm31.848 0l6.775 3.924 6.774-3.924v-7.848l-6.774-3.925-6.775 3.925v7.848zm31.842 0l6.777 3.924 6.775-3.924v-7.848l-6.775-3.925-6.777 3.925v7.848zm31.845 0l6.776 3.924 6.776-3.924v-7.848l-6.776-3.925-6.776 3.925v7.848zm31.845 0l6.777 3.924 6.774-3.924v-7.848l-6.774-3.925-6.777 3.925v7.848zM241.04 496.51l6.777 3.922 6.774-3.922v-7.848l-6.774-3.926-6.777 3.926v7.848zm31.847 0l6.775 3.922 6.775-3.922v-7.848l-6.775-3.926-6.775 3.926v7.848zm31.843 0l6.774 3.922 6.777-3.922v-7.848l-6.777-3.926-6.774 3.926v7.848zm31.844 0l6.777 3.922 6.775-3.922v-7.848l-6.775-3.926-6.777 3.926v7.848zm-111.457 27.66l6.778 3.924 6.774-3.924v-7.847l-6.774-3.924-6.778 3.924v7.847zm31.848 0l6.775 3.924 6.774-3.924v-7.847l-6.774-3.924-6.775 3.924v7.847zm31.842 0l6.777 3.924 6.775-3.924v-7.847l-6.775-3.924-6.777 3.924v7.847zm31.845 0l6.776 3.924 6.776-3.924v-7.847l-6.776-3.924-6.776 3.924v7.847zm-79.612 27.664l6.777 3.924 6.774-3.924v-7.849l-6.774-3.923-6.777 3.923v7.849zm31.847 0l6.775 3.924 6.775-3.924v-7.849l-6.775-3.923-6.775 3.923v7.849zm31.843 0l6.774 3.924 6.777-3.924v-7.849l-6.777-3.923-6.774 3.923v7.849zm-79.613 27.663l6.778 3.925 6.774-3.925v-7.85l-6.774-3.925-6.778 3.925v7.85zm31.848 0l6.775 3.925 6.774-3.925v-7.85l-6.774-3.925-6.775 3.925v7.85zm31.842 0l6.777 3.925 6.775-3.925v-7.85l-6.775-3.925-6.777 3.925v7.85zm-79.611 27.661l6.777 3.925 6.773-3.925v-7.848l-6.773-3.924-6.777 3.924v7.848zm31.844 0l6.777 3.925 6.774-3.925v-7.848l-6.774-3.924-6.777 3.924v7.848zm31.847 0l6.775 3.925 6.775-3.925v-7.848l-6.775-3.924-6.775 3.924v7.848zm-79.612 27.663l6.777 3.926 6.774-3.926v-7.848l-6.774-3.925-6.777 3.925v7.848zm31.842 0l6.778 3.926 6.774-3.926v-7.848l-6.774-3.925-6.778 3.925v7.848zm31.848 0l6.775 3.926 6.774-3.926v-7.848l-6.774-3.925-6.775 3.925v7.848zm31.842 0l6.777 3.926 6.775-3.926v-7.848l-6.775-3.925-6.777 3.925v7.848zm-79.611 27.662l6.777 3.923 6.773-3.923v-7.849l-6.773-3.923-6.777 3.923v7.849zm31.844 0l6.777 3.923 6.774-3.923v-7.849l-6.774-3.923-6.777 3.923v7.849zm31.847 0l6.775 3.923 6.775-3.923v-7.849l-6.775-3.923-6.775 3.923v7.849zm-79.612 27.664l6.777 3.922 6.774-3.922v-7.849l-6.774-3.925-6.777 3.925v7.849zm31.842 0l6.778 3.922 6.774-3.922v-7.849l-6.774-3.925-6.778 3.925v7.849zm31.848 0l6.775 3.922 6.774-3.922v-7.849l-6.774-3.925-6.775 3.925v7.849zm-79.613 27.664l6.775 3.922 6.777-3.922v-7.852l-6.777-3.923-6.775 3.923v7.852zm31.844 0l6.777 3.922 6.774-3.922v-7.852l-6.774-3.923-6.777 3.923v7.852zm31.844 0l6.777 3.922 6.774-3.922v-7.852l-6.774-3.923-6.777 3.923v7.852zm31.847 0l6.775 3.922 6.775-3.922v-7.852l-6.775-3.923-6.775 3.923v7.852zm-111.457 27.66l6.775 3.924 6.777-3.924v-7.849l-6.777-3.924-6.775 3.924v7.849zm31.845 0l6.777 3.924 6.774-3.924v-7.849l-6.774-3.924-6.777 3.924v7.849zm31.842 0l6.778 3.924 6.774-3.924v-7.849l-6.774-3.924-6.778 3.924v7.849zm31.848 0l6.775 3.924 6.774-3.924v-7.849l-6.774-3.924-6.775 3.924v7.849zm-111.457 27.661l6.775 3.925 6.776-3.925v-7.847l-6.776-3.923-6.775 3.923v7.847zm31.844 0l6.775 3.925 6.777-3.925v-7.847l-6.777-3.923-6.775 3.923v7.847zm31.844 0l6.777 3.925 6.774-3.925v-7.847l-6.774-3.923-6.777 3.923v7.847zm31.844 0l6.777 3.925 6.774-3.925v-7.847l-6.774-3.923-6.777 3.923v7.847zm-111.454 27.662l6.774 3.926 6.775-3.926v-7.848l-6.775-3.924-6.774 3.924v7.848zm31.844 0l6.775 3.926 6.777-3.926v-7.848l-6.777-3.924-6.775 3.924v7.848zm31.845 0l6.777 3.926 6.774-3.926v-7.848l-6.774-3.924-6.777 3.924v7.848zm31.842 0l6.778 3.926 6.774-3.926v-7.848l-6.774-3.924-6.778 3.924v7.848zm31.848 0l6.775 3.926 6.774-3.926v-7.848l-6.774-3.924-6.775 3.924v7.848zm-143.301 27.665l6.776 3.924 6.774-3.924v-7.852l-6.774-3.922-6.776 3.922v7.852zm31.844 0l6.775 3.924 6.776-3.924v-7.852l-6.776-3.922-6.775 3.922v7.852zm31.844 0l6.775 3.924 6.777-3.924v-7.852l-6.777-3.922-6.775 3.922v7.852zm31.844 0l6.777 3.924 6.774-3.924v-7.852l-6.774-3.922-6.777 3.922v7.852zm31.844 0l6.777 3.924 6.774-3.924v-7.852l-6.774-3.922-6.777 3.922v7.852zM129.586 856.12l6.774 3.923 6.775-3.923v-7.849l-6.775-3.924-6.774 3.924v7.849zm31.844 0l6.775 3.923 6.777-3.923v-7.849l-6.777-3.924-6.775 3.924v7.849zm31.845 0l6.777 3.923 6.774-3.923v-7.849l-6.774-3.924-6.777 3.924v7.849zm31.842 0l6.778 3.923 6.774-3.923v-7.849l-6.774-3.924-6.778 3.924v7.849zm-111.453 27.664l6.776 3.923 6.774-3.923v-7.849l-6.774-3.924-6.776 3.924v7.849zm31.844 0l6.775 3.923 6.776-3.923v-7.849l-6.776-3.924-6.775 3.924v7.849zm31.844 0l6.775 3.923 6.777-3.923v-7.849l-6.777-3.924-6.775 3.924v7.849zm31.844 0l6.777 3.923 6.774-3.923v-7.849l-6.774-3.924-6.777 3.924v7.849zm31.844 0l6.777 3.923 6.774-3.923v-7.849l-6.774-3.924-6.777 3.924v7.849zM97.743 911.445l6.775 3.924 6.774-3.924v-7.847l-6.774-3.926-6.775 3.926v7.847zm31.843 0l6.774 3.924 6.775-3.924v-7.847l-6.775-3.926-6.774 3.926v7.847zm31.844 0l6.775 3.924 6.777-3.924v-7.847l-6.777-3.926-6.775 3.926v7.847zm31.845 0l6.777 3.924 6.774-3.924v-7.847l-6.774-3.926-6.777 3.926v7.847zm31.842 0l6.778 3.924 6.774-3.924v-7.847l-6.774-3.926-6.778 3.926v7.847zM81.82 939.107l6.775 3.925 6.774-3.925v-7.848l-6.774-3.924-6.775 3.924v7.848zm31.844 0l6.776 3.925 6.774-3.925v-7.848l-6.774-3.924-6.776 3.924v7.848zm31.844 0l6.775 3.925 6.776-3.925v-7.848l-6.776-3.924-6.775 3.924v7.848zm31.844 0l6.775 3.925 6.777-3.925v-7.848l-6.777-3.924-6.775 3.924v7.848zm31.844 0l6.777 3.925 6.774-3.925v-7.848l-6.774-3.924-6.777 3.924v7.848zm-143.3 27.663l6.777 3.926 6.774-3.926v-7.849l-6.774-3.925-6.777 3.925v7.849zm31.847 0l6.775 3.926 6.774-3.926v-7.849l-6.774-3.925-6.775 3.925v7.849zm31.843 0l6.774 3.926 6.775-3.926v-7.849l-6.775-3.925-6.774 3.925v7.849zm31.844 0l6.775 3.926 6.777-3.926v-7.849l-6.777-3.925-6.775 3.925v7.849zm31.845 0l6.777 3.926 6.774-3.926v-7.849l-6.774-3.925-6.777 3.925v7.849zM49.973 994.432l6.777 3.923 6.775-3.923v-7.849l-6.775-3.924-6.777 3.924v7.849zm31.847 0l6.775 3.923 6.774-3.923v-7.849l-6.774-3.924-6.775 3.924v7.849zm31.844 0l6.776 3.923 6.774-3.923v-7.849l-6.774-3.924-6.776 3.924v7.849zm31.844 0l6.775 3.923 6.776-3.923v-7.849l-6.776-3.924-6.775 3.924v7.849zM34.052 1022.1l6.774 3.92 6.777-3.92v-7.85l-6.777-3.93-6.774 3.93v7.85zm31.844 0l6.777 3.92 6.774-3.92v-7.85l-6.774-3.93-6.777 3.93v7.85zm31.847 0l6.775 3.92 6.774-3.92v-7.85l-6.774-3.93-6.775 3.93v7.85zm31.843 0l6.774 3.92 6.775-3.92v-7.85l-6.775-3.93-6.774 3.93v7.85zM18.13 1049.76l6.775 3.92 6.777-3.92v-7.85l-6.777-3.93-6.774 3.93v7.85zm31.843 0l6.777 3.92 6.775-3.92v-7.85l-6.775-3.93-6.777 3.93v7.85zm31.847 0l6.775 3.92 6.774-3.92v-7.85l-6.774-3.93-6.775 3.93v7.85zm31.844 0l6.776 3.92 6.774-3.92v-7.85l-6.774-3.93-6.776 3.93v7.85zM2.208 1077.42l6.775 3.92 6.777-3.92v-7.85l-6.777-3.92-6.775 3.92v7.85zm31.844 0l6.774 3.92 6.777-3.92v-7.85l-6.777-3.92-6.774 3.92v7.85zm31.844 0l6.777 3.92 6.774-3.92v-7.85l-6.774-3.92-6.777 3.92v7.85zm31.847 0l6.775 3.92 6.774-3.92v-7.85l-6.774-3.92-6.775 3.92v7.85zm-79.612 27.66l6.774 3.93 6.777-3.93v-7.85l-6.777-3.92-6.774 3.92v7.85zm31.842 0l6.777 3.93 6.775-3.93v-7.85l-6.775-3.92-6.777 3.92v7.85zm31.847 0l6.775 3.93 6.774-3.93v-7.85l-6.774-3.92-6.775 3.92v7.85zm-79.612 27.67l6.775 3.92 6.777-3.92v-7.85l-6.777-3.93-6.775 3.93v7.85zm31.844 0l6.774 3.92 6.777-3.92v-7.85l-6.777-3.93-6.774 3.93v7.85zm31.844 0l6.777 3.92 6.774-3.92v-7.85l-6.774-3.93-6.777 3.93v7.85zm-47.766 27.66l6.775 3.92 6.777-3.92v-7.85l-6.777-3.92-6.774 3.92v7.85zm-15.922 27.66l6.775 3.92 6.777-3.92v-7.85l-6.777-3.92-6.775 3.92v7.85zm31.844 0l6.774 3.92 6.777-3.92v-7.85l-6.777-3.92-6.774 3.92v7.85zm-15.921 27.66l6.774 3.93 6.777-3.93v-7.85l-6.777-3.92-6.774 3.92v7.85zM2.208 1243.4l6.775 3.92 6.777-3.92v-7.86l-6.777-3.92-6.775 3.92v7.86zm475.457-883.924l8.985 5.204 8.985-5.204v-10.407l-8.985-5.202-8.985 5.202v10.407zM429.9 387.138l8.983 5.203 8.984-5.203v-10.406l-8.984-5.204-8.983 5.204v10.406zm31.844 0l8.984 5.203 8.983-5.203v-10.406l-8.983-5.204-8.984 5.204v10.406zM413.978 414.8l8.983 5.204 8.985-5.204v-10.405l-8.985-5.205-8.983 5.205V414.8zm31.844 0l8.982 5.204 8.986-5.204v-10.405l-8.986-5.204-8.982 5.204V414.8zm31.843 0l8.985 5.204 8.985-5.204v-10.405l-8.985-5.205-8.985 5.205V414.8zm-79.609 27.664l8.983 5.203 8.985-5.203v-10.41l-8.985-5.202-8.983 5.202v10.41zm31.844 0l8.983 5.203 8.984-5.203v-10.41l-8.984-5.202-8.983 5.202v10.41zm31.844 0l8.984 5.203 8.983-5.203v-10.41l-8.983-5.202-8.984 5.202v10.41zm-79.612 27.661l8.985 5.204 8.983-5.204v-10.407l-8.983-5.203-8.985 5.203v10.407zm31.846 0l8.983 5.205 8.985-5.205v-10.407l-8.985-5.203-8.983 5.203v10.407zm31.844 0l8.982 5.204 8.986-5.204v-10.407l-8.986-5.203-8.982 5.203v10.407zm31.843 0l8.985 5.205 8.985-5.205v-10.407l-8.985-5.203-8.985 5.203v10.407zm-111.454 27.663l8.984 5.202 8.985-5.202v-10.406l-8.985-5.203-8.984 5.203v10.406zm31.845 0l8.983 5.202 8.985-5.202v-10.406l-8.985-5.203-8.983 5.203v10.406zm31.844 0l8.983 5.202 8.984-5.202v-10.406l-8.984-5.203-8.983 5.203v10.406zm31.844 0l8.984 5.202 8.983-5.202v-10.406l-8.983-5.203-8.984 5.203v10.406zm-111.456 27.661l8.986 5.204 8.984-5.204v-10.405l-8.984-5.203-8.986 5.203v10.405zm31.844 0l8.985 5.204 8.983-5.204v-10.405l-8.983-5.203-8.985 5.203v10.405zm31.846 0l8.983 5.204 8.985-5.204v-10.405l-8.985-5.203-8.983 5.203v10.405zm31.844 0l8.982 5.204 8.986-5.204v-10.405l-8.986-5.203-8.982 5.203v10.405zm31.843 0l8.985 5.204 8.985-5.204v-10.405l-8.985-5.203-8.985 5.203v10.405zm-143.298 27.664l8.984 5.203 8.983-5.203v-10.407l-8.983-5.202-8.984 5.202v10.407zm31.844 0l8.984 5.203 8.985-5.203v-10.407l-8.985-5.202-8.984 5.202v10.407zm31.845 0l8.983 5.203 8.985-5.203v-10.407l-8.985-5.202-8.983 5.202v10.407zm31.844 0l8.983 5.203 8.984-5.203v-10.407l-8.984-5.202-8.983 5.202v10.407zm-111.456 27.663l8.984 5.203 8.984-5.203v-10.407l-8.984-5.206-8.984 5.206v10.407zm31.844 0l8.986 5.203 8.984-5.203v-10.407l-8.984-5.206-8.986 5.206v10.407zm31.844 0l8.985 5.203 8.983-5.203v-10.407l-8.983-5.206-8.985 5.206v10.407zm31.846 0l8.983 5.203 8.985-5.203v-10.407l-8.985-5.206-8.983 5.206v10.407zm-111.456 27.661l8.982 5.204 8.985-5.204v-10.406l-8.985-5.203-8.982 5.203v10.406zm31.845 0l8.984 5.204 8.983-5.204v-10.406l-8.983-5.203-8.984 5.203v10.406zm31.844 0l8.984 5.204 8.985-5.204v-10.406l-8.985-5.203-8.984 5.203v10.406zm31.845 0l8.983 5.204 8.985-5.204v-10.406l-8.985-5.203-8.983 5.203v10.406zM318.444 636.1l8.984 5.203 8.984-5.203v-10.406l-8.984-5.204-8.984 5.204V636.1zm31.844 0l8.986 5.203 8.984-5.203v-10.406l-8.984-5.205-8.986 5.205V636.1zm31.844 0l8.985 5.203 8.983-5.203v-10.406l-8.983-5.204-8.985 5.204V636.1zm-79.61 27.662l8.982 5.203 8.985-5.203v-10.407l-8.985-5.204-8.982 5.204v10.407zm31.845 0l8.984 5.203 8.983-5.203v-10.407l-8.983-5.204-8.984 5.204v10.407zm31.844 0l8.984 5.203 8.985-5.203v-10.407l-8.985-5.204-8.984 5.204v10.407zM286.6 691.424l8.984 5.203 8.983-5.203v-10.405l-8.983-5.205-8.984 5.205v10.405zm31.844 0l8.984 5.203 8.984-5.203v-10.405l-8.984-5.203-8.984 5.203v10.405zm31.844 0l8.986 5.203 8.984-5.203v-10.405l-8.984-5.205-8.986 5.205v10.405zm-47.766 27.664l8.982 5.203 8.985-5.203v-10.407l-8.985-5.203-8.982 5.203v10.407zm31.845 0l8.984 5.203 8.983-5.203v-10.407l-8.983-5.203-8.984 5.203v10.407zM286.6 746.75l8.984 5.204 8.983-5.204v-10.406l-8.983-5.204-8.984 5.204v10.406zm31.844 0l8.984 5.204 8.984-5.204v-10.406l-8.984-5.204-8.984 5.204v10.406zm31.844 0l8.986 5.204 8.984-5.204v-10.406l-8.984-5.204-8.986 5.204v10.406zm-79.612 27.662l8.986 5.204 8.984-5.204v-10.406l-8.984-5.205-8.986 5.205v10.406zm31.846 0l8.982 5.203 8.985-5.203v-10.406l-8.985-5.204-8.982 5.204v10.406zm31.845 0l8.984 5.203 8.983-5.203v-10.406l-8.983-5.204-8.984 5.204v10.406zM286.6 802.074l8.984 5.203 8.983-5.203v-10.406l-8.983-5.205-8.984 5.205v10.406zm31.844 0l8.984 5.203 8.984-5.203v-10.406l-8.984-5.204-8.984 5.204v10.406zm-47.768 27.662l8.986 5.204 8.984-5.204V819.33l-8.984-5.204-8.986 5.204v10.406zm31.846 0l8.982 5.204 8.985-5.204V819.33l-8.985-5.203-8.982 5.203v10.406zm31.845 0l8.984 5.204 8.983-5.204V819.33l-8.983-5.203-8.984 5.203v10.406zm-79.613 27.663l8.986 5.204 8.984-5.204v-10.407l-8.984-5.202-8.986 5.202v10.407zm31.846 0l8.984 5.205 8.983-5.205v-10.407l-8.983-5.202-8.984 5.202v10.407zm31.844 0l8.984 5.204 8.984-5.204v-10.407l-8.984-5.202-8.984 5.202v10.407zm-47.768 27.663l8.986 5.204 8.984-5.204v-10.406l-8.984-5.202-8.986 5.202v10.406zm31.846 0l8.982 5.204 8.985-5.204v-10.406l-8.985-5.202-8.982 5.202v10.406zm31.845 0l8.984 5.204 8.983-5.204v-10.406l-8.983-5.202-8.984 5.202v10.406zm-79.613 27.661l8.986 5.205 8.984-5.205v-10.404l-8.984-5.204-8.986 5.204v10.404zm31.846 0l8.984 5.205 8.983-5.205v-10.404l-8.983-5.204-8.984 5.204v10.404zm31.844 0l8.984 5.205 8.984-5.205v-10.404l-8.984-5.204-8.984 5.204v10.404zm-79.612 27.664l8.985 5.202 8.983-5.202v-10.406l-8.983-5.205-8.985 5.205v10.406zm31.844 0l8.986 5.202 8.984-5.202v-10.406l-8.984-5.205-8.986 5.205v10.406zm31.846 0l8.982 5.202 8.985-5.202v-10.406l-8.985-5.205-8.982 5.205v10.406zm31.845 0l8.984 5.202 8.983-5.202v-10.406l-8.983-5.205-8.984 5.205v10.406zM222.91 968.05l8.985 5.203 8.983-5.203v-10.409l-8.983-5.204-8.985 5.204v10.409zm31.844 0l8.986 5.203 8.984-5.203v-10.409l-8.984-5.204-8.986 5.204v10.409zm31.846 0l8.984 5.203 8.983-5.203v-10.409l-8.983-5.204-8.984 5.204v10.409zm31.844 0l8.984 5.203 8.984-5.203v-10.409l-8.984-5.204-8.984 5.204v10.409zm-143.3 27.66l8.983 5.2 8.985-5.2v-10.405l-8.985-5.203-8.983 5.203v10.405zm31.843 0l8.986 5.2 8.982-5.2v-10.405l-8.982-5.203-8.986 5.203v10.405zm31.845 0l8.985 5.2 8.983-5.2v-10.405l-8.983-5.203-8.985 5.203v10.405zm31.844 0l8.986 5.21 8.984-5.21v-10.405l-8.984-5.203-8.986 5.203v10.405zm31.846 0l8.982 5.2 8.985-5.2v-10.405l-8.985-5.203-8.982 5.203v10.405zm-143.3 27.66l8.983 5.21 8.984-5.21v-10.4l-8.984-5.2-8.983 5.2v10.4zm31.844 0l8.986 5.21 8.981-5.21v-10.4l-8.981-5.2-8.986 5.2v10.4zm31.844 0l8.985 5.21 8.983-5.21v-10.4l-8.983-5.2-8.985 5.2v10.4zm31.844 0l8.986 5.21 8.984-5.21v-10.4l-8.984-5.2-8.986 5.2v10.4zm31.846 0l8.984 5.21 8.983-5.21v-10.4l-8.983-5.2-8.984 5.2v10.4zm-143.3 27.67l8.983 5.2 8.985-5.2v-10.41l-8.985-5.2-8.983 5.2v10.41zm31.844 0l8.983 5.2 8.985-5.2v-10.41l-8.985-5.2-8.983 5.2v10.41zm31.843 0l8.986 5.2 8.982-5.2v-10.41l-8.982-5.2-8.986 5.2v10.41zm31.845 0l8.985 5.2 8.983-5.2v-10.41l-8.983-5.2-8.985 5.2v10.41zm-111.456 27.66l8.984 5.2 8.985-5.2v-10.41l-8.985-5.2-8.984 5.2v10.41zm31.846 0l8.983 5.2 8.984-5.2v-10.41l-8.984-5.2-8.983 5.2v10.41zm31.844 0l8.986 5.2 8.981-5.2v-10.41l-8.981-5.2-8.986 5.2v10.41zm31.844 0l8.985 5.2 8.983-5.2v-10.41l-8.983-5.2-8.985 5.2v10.41zm-111.456 27.66l8.986 5.2 8.984-5.2v-10.41l-8.984-5.2-8.986 5.2v10.41zm31.846 0l8.983 5.2 8.985-5.2v-10.41l-8.985-5.2-8.983 5.2v10.41zm31.844 0l8.983 5.2 8.985-5.2v-10.41l-8.985-5.2-8.983 5.2v10.41zm-79.612 27.67l8.986 5.2 8.981-5.2v-10.41l-8.981-5.21-8.986 5.21v10.41zm31.844 0l8.984 5.2 8.985-5.2v-10.41l-8.985-5.21-8.984 5.21v10.41zm31.846 0l8.983 5.2 8.984-5.2v-10.41l-8.984-5.21-8.983 5.21v10.41zm-111.457 27.66l8.985 5.2 8.983-5.2v-10.41l-8.983-5.2-8.985 5.2v10.41zm31.845 0l8.985 5.2 8.982-5.2v-10.41l-8.982-5.2-8.985 5.2v10.41zm31.844 0l8.986 5.2 8.984-5.2v-10.41l-8.984-5.2-8.986 5.2v10.41zm31.846 0l8.983 5.2 8.985-5.2v-10.41l-8.985-5.2-8.983 5.2v10.41zm-79.613 27.66l8.986 5.2 8.983-5.2v-10.41l-8.983-5.2-8.986 5.2v10.41zm31.845 0l8.986 5.2 8.981-5.2v-10.41l-8.981-5.2-8.986 5.2v10.41zm31.844 0l8.984 5.2 8.985-5.2v-10.41l-8.985-5.2-8.984 5.2v10.41zm-79.61 27.66l8.984 5.2 8.983-5.2v-10.41l-8.983-5.2-8.985 5.2v10.41zm31.844 0l8.985 5.2 8.982-5.2v-10.41l-8.982-5.2-8.985 5.2v10.41zm31.844 0l8.986 5.2 8.984-5.2v-10.41l-8.984-5.2-8.986 5.2v10.41zm-79.61 27.66l8.982 5.21 8.986-5.21v-10.4l-8.986-5.21-8.982 5.21v10.4zm31.843 0l8.986 5.21 8.983-5.21v-10.4l-8.983-5.21-8.986 5.21v10.4zm31.845 0l8.986 5.21 8.981-5.21v-10.4l-8.981-5.21-8.986 5.21v10.4zm31.844 0l8.984 5.21 8.985-5.21v-10.4l-8.985-5.21-8.984 5.21v10.4zm-111.454 27.67l8.983 5.2 8.985-5.2v-10.41l-8.985-5.2-8.983 5.2v10.41zm31.843 0l8.985 5.2 8.983-5.2v-10.41l-8.983-5.2-8.985 5.2v10.41zm31.845 0l8.985 5.2 8.982-5.2v-10.41l-8.982-5.2-8.985 5.2v10.41zm31.844 0l8.986 5.2 8.984-5.2v-10.41l-8.984-5.2-8.986 5.2v10.41zM0 1300l8.983 5.2 8.985-5.2v-10.41l-8.985-5.2-8.983 5.2V1300zm31.844 0l8.982 5.2 8.986-5.2v-10.41l-8.986-5.2-8.982 5.2V1300zm31.843 0l8.986 5.2 8.983-5.2v-10.41l-8.983-5.2-8.986 5.2V1300zm31.845 0l8.986 5.2 8.981-5.2v-10.41l-8.981-5.2-8.986 5.2V1300zm31.844 0l8.984 5.2 8.985-5.2v-10.41l-8.985-5.2-8.984 5.2V1300zm-111.454 27.66l8.983 5.2 8.985-5.2v-10.41l-8.985-5.2-8.983 5.2v10.41zm31.843 0l8.985 5.2 8.983-5.2v-10.41l-8.983-5.2-8.985 5.2v10.41zm31.845 0l8.985 5.2 8.982-5.2v-10.41l-8.982-5.2-8.985 5.2v10.41zm31.844 0l8.986 5.2 8.984-5.2v-10.41l-8.984-5.2-8.986 5.2v10.41zM0 1355.32l8.983 5.21 8.985-5.21v-10.4l-8.985-5.21L0 1344.92v10.4zm31.844 0l8.982 5.21 8.986-5.21v-10.4l-8.986-5.21-8.982 5.21v10.4zm31.843 0l8.986 5.21 8.983-5.21v-10.4l-8.983-5.21-8.986 5.21v10.4zm31.845 0l8.986 5.21 8.981-5.21v-10.4l-8.981-5.21-8.986 5.21v10.4zm-79.61 27.67l8.983 5.2 8.985-5.2v-10.41l-8.985-5.2-8.983 5.2v10.41zm31.843 0l8.985 5.2 8.983-5.2v-10.41l-8.983-5.21-8.985 5.21v10.41zm31.845 0l8.985 5.2 8.982-5.2v-10.41l-8.982-5.21-8.985 5.21v10.41zm31.844 0l8.986 5.2 8.984-5.2v-10.41l-8.984-5.21-8.986 5.21v10.41zm348.08-828.599l11.194 6.483 11.193-6.483v-12.963l-11.193-6.484-11.194 6.484v12.963zm31.845 0l11.193 6.483 11.193-6.483v-12.963l-11.193-6.484-11.193 6.484v12.963zm-47.765 27.663l11.19 6.482 11.193-6.482v-12.965l-11.193-6.483-11.19 6.483v12.965zm31.843 0l11.193 6.482 11.192-6.482v-12.965l-11.192-6.483-11.193 6.483v12.965zm-47.767 27.662l11.193 6.484 11.194-6.484v-12.964l-11.194-6.482-11.193 6.482v12.964zm31.844 0l11.194 6.484 11.193-6.484v-12.964l-11.193-6.482-11.194 6.482v12.964zm31.845 0l11.193 6.484 11.193-6.484v-12.964l-11.193-6.482-11.193 6.482v12.964zm-79.61 27.662l11.192 6.483 11.194-6.483v-12.964l-11.194-6.482-11.192 6.482v12.964zm31.845 0l11.19 6.483 11.193-6.483v-12.964l-11.193-6.482-11.19 6.482v12.964zm31.843 0l11.193 6.483 11.192-6.483v-12.964l-11.192-6.482-11.193 6.482v12.964zm31.845 0l11.192 6.483 11.194-6.483v-12.964l-11.194-6.482-11.192 6.482v12.964zm-111.457 27.663l11.194 6.484 11.193-6.484v-12.966l-11.193-6.482-11.194 6.482v12.966zm31.845 0l11.193 6.484 11.194-6.484v-12.966l-11.194-6.482-11.193 6.482v12.966zm31.844 0l11.194 6.484 11.193-6.484v-12.966l-11.193-6.482-11.194 6.482v12.966zm31.845 0l11.193 6.484 11.193-6.484v-12.966l-11.193-6.482-11.193 6.482v12.966zm-111.454 27.664l11.192 6.481 11.193-6.481V679.74l-11.193-6.485-11.192 6.485v12.965zm31.844 0l11.192 6.481 11.194-6.481V679.74l-11.194-6.485-11.192 6.485v12.965zm31.845 0l11.19 6.481 11.193-6.481V679.74l-11.193-6.485-11.19 6.485v12.965zm31.843 0l11.193 6.481 11.192-6.481V679.74l-11.192-6.485-11.193 6.485v12.965zm31.845 0l11.192 6.481 11.194-6.481V679.74l-11.194-6.485-11.192 6.485v12.965zm-143.3 27.663l11.193 6.481 11.193-6.481v-12.967l-11.193-6.482-11.193 6.482v12.967zm31.843 0l11.194 6.481 11.193-6.481v-12.967l-11.193-6.482-11.194 6.482v12.967zm31.845 0l11.193 6.481 11.194-6.481v-12.967l-11.194-6.482-11.193 6.482v12.967zm31.844 0l11.194 6.481 11.193-6.481v-12.967l-11.193-6.482-11.194 6.482v12.967zm31.845 0l11.193 6.481 11.193-6.481v-12.967l-11.193-6.482-11.193 6.482v12.967zm31.845 0l11.194 6.481 11.192-6.481v-12.967l-11.192-6.482-11.194 6.482v12.967zm-143.299 27.661l11.192 6.483 11.193-6.483v-12.964l-11.193-6.481-11.192 6.481v12.964zm31.844 0l11.192 6.483 11.194-6.483v-12.964l-11.194-6.481-11.192 6.481v12.964zm31.845 0l11.19 6.483 11.193-6.483v-12.964l-11.193-6.481-11.19 6.481v12.964zm31.843 0l11.193 6.483 11.192-6.483v-12.964l-11.192-6.481-11.193 6.481v12.964zm31.845 0l11.192 6.483 11.194-6.483v-12.964l-11.194-6.481-11.192 6.481v12.964zm-143.3 27.662l11.193 6.483 11.193-6.483v-12.964l-11.193-6.484-11.193 6.484v12.964zm31.843 0l11.194 6.483 11.193-6.483v-12.964l-11.193-6.484-11.194 6.484v12.964zm31.845 0l11.193 6.483 11.194-6.483v-12.964l-11.194-6.484-11.193 6.484v12.964zm31.844 0l11.194 6.483 11.193-6.483v-12.964l-11.193-6.484-11.194 6.484v12.964zm31.845 0l11.193 6.483 11.193-6.483v-12.964l-11.193-6.484-11.193 6.484v12.964zm31.845 0l11.194 6.483 11.192-6.483v-12.964l-11.192-6.484-11.194 6.484v12.964zM348.08 803.353l11.194 6.483 11.192-6.483V790.39l-11.192-6.484-11.194 6.484v12.963zm31.845 0l11.192 6.483 11.193-6.483V790.39l-11.193-6.484-11.192 6.484v12.963zm31.844 0l11.192 6.483 11.194-6.483V790.39l-11.194-6.484-11.192 6.484v12.963zm31.845 0l11.19 6.483 11.193-6.483V790.39l-11.193-6.484-11.19 6.484v12.963zm31.843 0l11.193 6.483 11.192-6.483V790.39l-11.192-6.484-11.193 6.484v12.963zm31.845 0l11.192 6.483 11.194-6.483V790.39l-11.194-6.484-11.192 6.484v12.963zm31.844 0l11.193 6.483 11.192-6.483V790.39l-11.192-6.484-11.193 6.484v12.963zm-175.144 27.664l11.193 6.48 11.193-6.48v-12.965l-11.193-6.483-11.193 6.483v12.965zm31.843 0l11.194 6.48 11.193-6.48v-12.965l-11.193-6.483-11.194 6.483v12.965zm31.845 0l11.193 6.48 11.194-6.48v-12.965l-11.194-6.483-11.193 6.483v12.965zm31.844 0l11.194 6.48 11.193-6.48v-12.965l-11.193-6.483-11.194 6.483v12.965zm31.845 0l11.193 6.48 11.193-6.48v-12.965l-11.193-6.483-11.193 6.483v12.965zm31.845 0l11.194 6.48 11.192-6.48v-12.965l-11.192-6.483-11.194 6.483v12.965zm-175.144 27.66l11.194 6.484 11.192-6.484v-12.965l-11.192-6.48-11.194 6.48v12.965zm31.845 0l11.192 6.484 11.193-6.484v-12.965l-11.193-6.48-11.192 6.48v12.965zm31.844 0l11.192 6.484 11.194-6.484v-12.965l-11.194-6.48-11.192 6.48v12.965zm31.845 0l11.19 6.484 11.193-6.484v-12.965l-11.193-6.48-11.19 6.48v12.965zm31.843 0l11.193 6.484 11.192-6.484v-12.965l-11.192-6.48-11.193 6.48v12.965zm31.845 0l11.192 6.484 11.194-6.484v-12.965l-11.194-6.48-11.192 6.48v12.965zm31.844 0l11.193 6.484 11.192-6.484v-12.965l-11.192-6.48-11.193 6.48v12.965zm-175.144 27.664l11.193 6.482 11.193-6.482v-12.965l-11.193-6.484-11.193 6.484v12.965zm31.843 0l11.194 6.482 11.193-6.482v-12.965l-11.193-6.484-11.194 6.484v12.965zm31.845 0l11.193 6.482 11.194-6.482v-12.965l-11.194-6.484-11.193 6.484v12.965zm31.844 0l11.194 6.482 11.193-6.482v-12.965l-11.193-6.484-11.194 6.484v12.965zm31.845 0l11.193 6.482 11.193-6.482v-12.965l-11.193-6.484-11.193 6.484v12.965zm31.845 0l11.194 6.482 11.192-6.482v-12.965l-11.192-6.484-11.194 6.484v12.965zM348.08 914.002l11.194 6.485 11.192-6.485v-12.963l-11.192-6.482-11.194 6.482v12.963zm31.845 0l11.192 6.485 11.193-6.485v-12.963l-11.193-6.482-11.192 6.482v12.963zm31.844 0l11.192 6.485 11.194-6.485v-12.963l-11.194-6.482-11.192 6.482v12.963zm31.845 0l11.19 6.485 11.193-6.485v-12.963l-11.193-6.482-11.19 6.482v12.963zm31.843 0l11.193 6.485 11.192-6.485v-12.963l-11.192-6.482-11.193 6.482v12.963zm31.845 0l11.192 6.485 11.194-6.485v-12.963l-11.194-6.482-11.192 6.482v12.963zm31.844 0l11.193 6.485 11.192-6.485v-12.963l-11.192-6.482-11.193 6.482v12.963zm-175.144 27.663l11.193 6.483 11.193-6.483v-12.964l-11.193-6.483-11.193 6.483v12.964zm31.843 0l11.194 6.483 11.193-6.483v-12.964l-11.193-6.483-11.194 6.483v12.964zm31.845 0l11.193 6.483 11.194-6.483v-12.964l-11.194-6.483-11.193 6.483v12.964zm31.844 0l11.194 6.483 11.193-6.483v-12.964l-11.193-6.483-11.194 6.483v12.964zm31.845 0l11.193 6.483 11.193-6.483v-12.964l-11.193-6.483-11.193 6.483v12.964zm31.845 0l11.194 6.483 11.192-6.483v-12.964l-11.192-6.483-11.194 6.483v12.964zM348.08 969.329l11.194 6.483 11.192-6.483v-12.966l-11.192-6.483-11.194 6.483v12.966zm31.845 0l11.192 6.483 11.193-6.483v-12.966l-11.193-6.483-11.192 6.483v12.966zm31.844 0l11.192 6.483 11.194-6.483v-12.966l-11.194-6.483-11.192 6.483v12.966zm31.845 0l11.19 6.483 11.193-6.483v-12.966l-11.193-6.483-11.19 6.483v12.966zm31.843 0l11.193 6.483 11.192-6.483v-12.966l-11.192-6.483-11.193 6.483v12.966zm31.845 0l11.192 6.483 11.194-6.483v-12.966l-11.194-6.483-11.192 6.483v12.966zm31.844 0l11.193 6.483 11.192-6.483v-12.966l-11.192-6.483-11.193 6.483v12.966zM332.158 996.99l11.193 6.48 11.194-6.48v-12.963l-11.194-6.483-11.193 6.483v12.963zm31.844 0l11.193 6.48 11.193-6.48v-12.963l-11.193-6.483-11.193 6.483v12.963zm31.843 0l11.194 6.48 11.193-6.48v-12.963l-11.193-6.483-11.194 6.483v12.963zm31.845 0l11.193 6.48 11.194-6.48v-12.963l-11.194-6.483-11.193 6.483v12.963zm31.844 0l11.194 6.48 11.193-6.48v-12.963l-11.193-6.483-11.194 6.483v12.963zm31.845 0l11.193 6.48 11.193-6.48v-12.963l-11.193-6.483-11.193 6.483v12.963zm31.845 0l11.194 6.48 11.192-6.48v-12.963l-11.192-6.483-11.194 6.483v12.963zm-206.99 27.66l11.194 6.48 11.193-6.48v-12.96l-11.193-6.48-11.194 6.48v12.96zm31.846 0l11.194 6.48 11.192-6.48v-12.96l-11.192-6.48-11.194 6.48v12.96zm31.845 0l11.192 6.48 11.193-6.48v-12.96l-11.193-6.48-11.192 6.48v12.96zm31.844 0l11.192 6.48 11.194-6.48v-12.96l-11.194-6.48-11.192 6.48v12.96zm31.845 0l11.19 6.48 11.193-6.48v-12.96l-11.193-6.48-11.19 6.48v12.96zm31.843 0l11.193 6.48 11.192-6.48v-12.96l-11.192-6.48-11.193 6.48v12.96zm31.845 0l11.192 6.48 11.194-6.48v-12.96l-11.194-6.48-11.192 6.48v12.96zm-238.834 27.66l11.194 6.49 11.192-6.49v-12.96l-11.192-6.48-11.194 6.48v12.96zm31.846 0l11.19 6.49 11.194-6.49v-12.96l-11.194-6.48-11.19 6.48v12.96zm31.844 0l11.193 6.49 11.194-6.49v-12.96l-11.194-6.48-11.193 6.48v12.96zm31.844 0l11.193 6.49 11.193-6.49v-12.96l-11.193-6.48-11.193 6.48v12.96zm31.843 0l11.194 6.49 11.193-6.49v-12.96l-11.193-6.48-11.194 6.48v12.96zm31.845 0l11.193 6.49 11.194-6.49v-12.96l-11.194-6.48-11.193 6.48v12.96zm31.844 0l11.194 6.49 11.193-6.49v-12.96l-11.193-6.48-11.194 6.48v12.96zm-206.988 27.67l11.194 6.48 11.193-6.48v-12.97l-11.193-6.48-11.194 6.48v12.97zm31.846 0l11.192 6.48 11.191-6.48v-12.97l-11.191-6.48-11.192 6.48v12.97zm31.842 0l11.194 6.48 11.193-6.48v-12.97l-11.193-6.48-11.194 6.48v12.97zm31.846 0l11.194 6.48 11.192-6.48v-12.97l-11.192-6.48-11.194 6.48v12.97zm31.845 0l11.192 6.48 11.193-6.48v-12.97l-11.193-6.48-11.192 6.48v12.97zm31.844 0l11.192 6.48 11.194-6.48v-12.97l-11.194-6.48-11.192 6.48v12.97zm31.845 0l11.19 6.48 11.193-6.48v-12.97l-11.193-6.48-11.19 6.48v12.97zm-238.833 27.66l11.192 6.48 11.193-6.48v-12.97l-11.193-6.48-11.192 6.48v12.97zm31.842 0l11.194 6.48 11.194-6.48v-12.97l-11.194-6.48-11.194 6.48v12.97zm31.845 0l11.194 6.48 11.192-6.48v-12.97l-11.192-6.48-11.194 6.48v12.97zm31.846 0l11.19 6.48 11.194-6.48v-12.97l-11.194-6.48-11.19 6.48v12.97zm31.844 0l11.193 6.48 11.194-6.48v-12.97l-11.194-6.48-11.193 6.48v12.97zm31.844 0l11.193 6.48 11.193-6.48v-12.97l-11.193-6.48-11.193 6.48v12.97zm31.843 0l11.194 6.48 11.193-6.48v-12.97l-11.193-6.48-11.194 6.48v12.97zm-206.987 27.66l11.194 6.49 11.189-6.49v-12.96l-11.189-6.48-11.194 6.48v12.96zm31.843 0l11.194 6.49 11.193-6.49v-12.96l-11.193-6.48-11.194 6.48v12.96zm31.845 0l11.194 6.49 11.193-6.49v-12.96l-11.193-6.48-11.194 6.48v12.96zm31.846 0l11.192 6.49 11.191-6.49v-12.96l-11.191-6.48-11.192 6.48v12.96zm31.842 0l11.194 6.49 11.193-6.49v-12.96l-11.193-6.48-11.194 6.48v12.96zm31.846 0l11.194 6.49 11.192-6.49v-12.96l-11.192-6.48-11.194 6.48v12.96zm31.845 0l11.192 6.49 11.193-6.49v-12.96l-11.193-6.48-11.192 6.48v12.96zm-206.989 27.67l11.191 6.48 11.193-6.48V1150l-11.193-6.48-11.191 6.48v12.97zm31.845 0l11.192 6.48 11.193-6.48V1150l-11.193-6.48-11.192 6.48v12.97zm31.842 0l11.194 6.48 11.194-6.48V1150l-11.194-6.48-11.194 6.48v12.97zm31.845 0l11.194 6.48 11.192-6.48V1150l-11.192-6.48-11.194 6.48v12.97zm31.846 0l11.19 6.48 11.194-6.48V1150l-11.194-6.48-11.19 6.48v12.97zm31.844 0l11.193 6.48 11.194-6.48V1150l-11.194-6.48-11.193 6.48v12.97zm31.844 0l11.193 6.48 11.193-6.48V1150l-11.193-6.48-11.193 6.48v12.97zm-206.987 27.66l11.19 6.48 11.193-6.48v-12.97l-11.193-6.48-11.19 6.48v12.97zm31.843 0l11.194 6.48 11.189-6.48v-12.97l-11.189-6.48-11.194 6.48v12.97zm31.843 0l11.194 6.48 11.193-6.48v-12.97l-11.193-6.48-11.194 6.48v12.97zm31.845 0l11.194 6.48 11.193-6.48v-12.97l-11.193-6.48-11.194 6.48v12.97zm31.846 0l11.192 6.48 11.191-6.48v-12.97l-11.191-6.48-11.192 6.48v12.97zm31.842 0l11.194 6.48 11.193-6.48v-12.97l-11.193-6.48-11.194 6.48v12.97zm31.846 0l11.194 6.48 11.192-6.48v-12.97l-11.192-6.48-11.194 6.48v12.97zm-206.991 27.66l11.194 6.48 11.193-6.48v-12.96l-11.193-6.49-11.194 6.49v12.96zm31.847 0l11.191 6.48 11.193-6.48v-12.96l-11.193-6.49-11.191 6.49v12.96zm31.845 0l11.192 6.48 11.193-6.48v-12.96l-11.193-6.49-11.192 6.49v12.96zm31.842 0l11.194 6.48 11.194-6.48v-12.96l-11.194-6.49-11.194 6.49v12.96zm31.845 0l11.194 6.48 11.192-6.48v-12.96l-11.192-6.49-11.194 6.49v12.96zm31.846 0l11.19 6.48 11.194-6.48v-12.96l-11.194-6.49-11.19 6.49v12.96zm-143.299 27.66l11.19 6.48 11.193-6.48v-12.96l-11.193-6.49-11.19 6.49v12.96zm31.843 0l11.194 6.48 11.189-6.48v-12.96l-11.189-6.49-11.194 6.49v12.96zm31.843 0l11.194 6.48 11.193-6.48v-12.96l-11.193-6.49-11.194 6.49v12.96zm31.845 0l11.194 6.48 11.193-6.48v-12.96l-11.193-6.49-11.194 6.49v12.96zm-111.457 27.66l11.194 6.49 11.193-6.49v-12.96l-11.193-6.48-11.194 6.48v12.96zm31.847 0l11.191 6.49 11.193-6.49v-12.96l-11.193-6.48-11.191 6.48v12.96zm31.845 0l11.192 6.49 11.193-6.49v-12.96l-11.193-6.48-11.192 6.48v12.96zm31.842 0l11.194 6.49 11.194-6.49v-12.96l-11.194-6.48-11.194 6.48v12.96zm-79.608 27.67l11.19 6.48 11.193-6.48v-12.97l-11.193-6.48-11.19 6.48v12.97zm31.843 0l11.194 6.48 11.189-6.48v-12.97l-11.189-6.48-11.194 6.48v12.97zm31.843 0l11.194 6.48 11.193-6.48v-12.97l-11.193-6.48-11.194 6.48v12.97z" fill="url(#paint0_linear)"/></g><defs><linearGradient id="paint0_linear" x1="-8.51" y1="570.916" x2="774.631" y2="696.522" gradientUnits="userSpaceOnUse"><stop stop-color="#E63E24"/><stop offset="1" stop-color="#FFED00"/></linearGradient><clipPath id="clip0"><path fill="#fff" transform="translate(0 -120)" d="M0 0h541v580H0z"/></clipPath></defs></svg>