<svg width="50" height="50" fill="none" xmlns="http://www.w3.org/2000/svg"><g clip-path="url(#clip0)"><path d="M3.125 3.402C-.804 7.484 0 11.82 0 24.99c0 10.937-1.908 21.902 8.08 24.483 3.118.802 30.752.802 33.866-.004 4.158-1.073 7.542-4.446 8.004-10.327.065-.82.065-27.469-.002-28.306C49.456 4.57 45.6.96 40.52.23 39.354.06 39.121.01 33.146 0 11.952.01 7.306-.933 3.126 3.402z" fill="url(#paint0_linear)"/><path d="M24.995 6.54c-7.564 0-14.748-.673-17.491 6.369-1.134 2.908-.97 6.685-.97 12.093 0 4.746-.151 9.207.97 12.092 2.737 7.046 9.979 6.37 17.487 6.37 7.244 0 14.713.755 17.49-6.37 1.135-2.938.968-6.658.968-12.092 0-7.212.398-11.868-3.1-15.364-3.541-3.542-8.33-3.098-15.362-3.098h.008zm-1.654 3.327c15.78-.025 17.788-1.78 16.68 22.59-.394 8.618-6.957 7.672-15.024 7.672-14.708 0-15.13-.42-15.13-15.135 0-14.886 1.166-15.119 13.474-15.131v.004zM34.85 12.93a2.215 2.215 0 1 0 0 4.43 2.215 2.215 0 0 0 0-4.43zm-9.854 2.59c-5.235 0-9.479 4.246-9.479 9.481a9.479 9.479 0 1 0 18.956 0c0-5.235-4.241-9.481-9.477-9.481zm0 3.327c8.136 0 8.146 12.309 0 12.309-8.133 0-8.146-12.309 0-12.309z" fill="#fff"/></g><defs><linearGradient id="paint0_linear" x1="3.221" y1="46.807" x2="49.691" y2="6.588" gradientUnits="userSpaceOnUse"><stop stop-color="#FD5"/><stop offset=".5" stop-color="#FF543E"/><stop offset="1" stop-color="#C837AB"/></linearGradient><clipPath id="clip0"><path fill="#fff" d="M0 0h50v50H0z"/></clipPath></defs></svg>