<svg fill="none" xmlns="http://www.w3.org/2000/svg" viewBox="0 0 155 115"><path class="logo-bg" fill-rule="evenodd" clip-rule="evenodd" d="M154.059 92.924H.849L26 0l128.06 92.924z" fill="url(#paint0_linear)"/><path class="logo-t-shadow" fill-rule="evenodd" clip-rule="evenodd" d="M120.543 68.558H89.657l1.677 4.304h10.963l18.339 20.05h18.801l-25.945-20.05h12.948l-5.897-4.304z" fill="#EC801A"/><path class="logo-t" fill-rule="evenodd" clip-rule="evenodd" d="M120.601 78.686h-13.839l-10.818-13.19h-9.98l-2.27-4.305h26.693l5.925 4.305h-10.383l14.672 13.19z" fill="#FEFEFE"/><path class="logo-n-shadow" fill-rule="evenodd" clip-rule="evenodd" d="M.848 92.924h15.925L27.157 78.05l1.373 14.862h15.836l6.297-24.268h-9.615l-3.78 9.406-3.229-9.406h-8.76L.85 92.924z" fill="#EC801A"/><path class="logo-n" fill-rule="evenodd" clip-rule="evenodd" d="M29.015 61.301h8.759l3.229 6.738 5.53-6.738h8.759l-9.187 17.385h-13.84l-1.99-10.647-11.85 10.647H4.73l24.285-17.385z" fill="#FEFEFE"/><path class="logo-l-shadow" fill-rule="evenodd" clip-rule="evenodd" d="M57.15 92.924l7.614-24.217 10.233-.006-1.122 16.207h24.622l5.104 8.016h-46.45z" fill="#EC801A"/><path class="logo-l-vert" fill-rule="evenodd" clip-rule="evenodd" d="M50.576 78.686l7.608-17.385h8.76l-2.529 17.385h-13.84z" fill="#FEFEFE"/><path class="logo-l-hor" fill-rule="evenodd" clip-rule="evenodd" d="M53.522 72.037l-2.946 6.65h41.518l-2.884-6.65H53.522z" fill="#FEFEFE"/><path class="logo-bottom-line" d="M7.318 111.447H1.015V99.171h1.227v11.165h5.076v1.111zm3.256-10.185H9.346v-2.09h1.228v2.09zm0 10.185H9.346v-9.074h1.228v9.074zm12.014-1.294c0 1.637-.459 2.881-1.377 3.733-.796.741-1.852 1.111-3.168 1.111-1.128 0-2.098-.301-2.911-.904-.813-.603-1.374-1.413-1.684-2.43h1.228a3.495 3.495 0 0 0 1.41 1.675 3.599 3.599 0 0 0 1.94.548c1.372 0 2.323-.492 2.854-1.476.32-.598.48-1.35.48-2.257v-.497a3.568 3.568 0 0 1-1.368 1.476c-.592.354-1.291.531-2.098.531-1.35 0-2.475-.462-3.376-1.385-.901-.924-1.352-2.038-1.352-3.343 0-1.338.445-2.469 1.335-3.392.89-.924 2-1.386 3.326-1.386.83 0 1.546.169 2.148.506a3.568 3.568 0 0 1 1.419 1.468l.033-1.758h1.161v7.78zm-1.161-3.235c0-1.05-.346-1.921-1.037-2.612-.69-.692-1.54-1.037-2.546-1.037-.984 0-1.806.345-2.463 1.037-.658.691-.987 1.545-.987 2.563 0 1.017.331 1.885.995 2.604.663.719 1.504 1.078 2.521 1.078 1.007 0 1.844-.351 2.514-1.053.669-.702 1.003-1.562 1.003-2.58zm12.23 4.529h-1.228v-4.778c0-1.083-.243-1.921-.73-2.513-.486-.591-1.205-.887-2.156-.887-.763 0-1.383.21-1.858.63-.62.553-.929 1.41-.929 2.572v4.976h-1.227V99.171h1.227v4.513a3.52 3.52 0 0 1 1.145-1.079c.52-.298 1.116-.448 1.791-.448 1.14 0 2.057.343 2.754 1.029.807.796 1.21 1.957 1.21 3.483v4.778zm7.22-7.962H38.77v7.962h-1.227v-7.962h-1.891v-1.112h1.89v-3.202h1.228v3.202h2.107v1.112zm3.322-2.223h-1.228v-2.09H44.2v2.09zm0 10.185h-1.228v-9.074H44.2v9.074zm11.069 0H54.04v-4.778c0-1.083-.243-1.921-.73-2.513-.486-.591-1.205-.887-2.156-.887-.763 0-1.383.21-1.858.63-.62.553-.929 1.41-.929 2.572v4.976H47.14v-9.074h1.16v1.311c.354-.498.791-.877 1.311-1.137s1.084-.39 1.692-.39c1.14 0 2.057.343 2.754 1.029.807.796 1.21 1.957 1.21 3.483v4.778zm11.915-1.294c0 1.637-.46 2.881-1.378 3.733-.796.741-1.852 1.111-3.168 1.111-1.128 0-2.098-.301-2.911-.904-.813-.603-1.374-1.413-1.684-2.43h1.228a3.495 3.495 0 0 0 1.41 1.675 3.6 3.6 0 0 0 1.94.548c1.372 0 2.323-.492 2.854-1.476.32-.598.48-1.35.48-2.257v-.497a3.57 3.57 0 0 1-1.367 1.476c-.592.354-1.292.531-2.099.531-1.35 0-2.474-.462-3.376-1.385-.901-.924-1.352-2.038-1.352-3.343 0-1.338.445-2.469 1.336-3.392.89-.924 1.999-1.386 3.326-1.386.829 0 1.545.169 2.148.506a3.569 3.569 0 0 1 1.418 1.468l.033-1.758h1.162v7.78zm-1.162-3.235c0-1.05-.345-1.921-1.037-2.612-.69-.692-1.54-1.037-2.546-1.037-.984 0-1.805.345-2.463 1.037-.658.691-.987 1.545-.987 2.563 0 1.017.332 1.885.995 2.604.664.719 1.504 1.078 2.522 1.078 1.006 0 1.843-.351 2.513-1.053.669-.702 1.003-1.562 1.003-2.58zm15.046-3.433H78.81v7.962h-1.228v-7.962h-1.41v-1.112h1.41v-.182c0-.907.288-1.637.863-2.19.575-.553 1.366-.83 2.372-.83h.249v1.112h-.25a2.74 2.74 0 0 0-.779.099c-.818.244-1.227.846-1.227 1.809v.182h2.256v1.112zm11.135 3.433c0 1.35-.454 2.478-1.36 3.385-.907.907-2.035 1.36-3.384 1.36-1.327 0-2.45-.453-3.368-1.36-.918-.907-1.377-2.035-1.377-3.385 0-1.349.45-2.48 1.352-3.392.901-.912 2.032-1.369 3.393-1.369 1.349 0 2.477.454 3.384 1.361s1.36 2.04 1.36 3.4zm-1.228 0c0-1.028-.334-1.893-1.003-2.596-.67-.702-1.507-1.053-2.513-1.053-1.018 0-1.858.348-2.522 1.045-.663.697-.995 1.565-.995 2.604 0 1.029.332 1.892.995 2.588.664.697 1.504 1.045 2.522 1.045 1.006 0 1.843-.345 2.513-1.036.669-.692 1.003-1.557 1.003-2.597zm7.602-3.516c-.675 0-1.25.21-1.725.63-.564.498-.846 1.178-.846 2.041v5.374h-1.228v-9.074h1.161v1.311c.266-.487.628-.86 1.087-1.12.459-.26.976-.39 1.551-.39v1.228zm17.417-.216c0 1.028-.334 1.899-1.003 2.613-.669.713-1.54 1.07-2.613 1.07l3.451 4.578h-1.526l-4.164-5.557h.979c1.172 0 2.062-.227 2.671-.68.652-.487.978-1.2.978-2.14 0-.785-.243-1.416-.73-1.891-.608-.597-1.581-.896-2.919-.896h-2.207v11.164h-1.227V99.171h3.434c1.548 0 2.737.332 3.566.996.874.707 1.31 1.714 1.31 3.019zm11.467 4.164h-8.111c0 .896.337 1.653 1.012 2.273.674.619 1.487.928 2.438.928.697 0 1.327-.185 1.891-.555.564-.371.99-.871 1.277-1.502h1.278c-.365.985-.94 1.759-1.725 2.323-.786.564-1.692.846-2.721.846-1.349 0-2.475-.451-3.376-1.352-.901-.901-1.352-2.032-1.352-3.393 0-1.227.398-2.3 1.195-3.218.895-1.028 2.073-1.543 3.533-1.543 1.581 0 2.787.57 3.616 1.709.697.951 1.045 2.112 1.045 3.484zm-1.327-1.112c-.166-.907-.558-1.628-1.178-2.165a3.194 3.194 0 0 0-2.156-.804c-.874 0-1.628.274-2.264.821-.636.548-1.032 1.264-1.186 2.148h6.784zm8.299-2.753h-2.107v7.962h-1.228v-7.962h-1.891v-1.112h1.891v-3.202h1.228v3.202h2.107v1.112zm11.333 7.962h-1.161v-1.692c-.486.697-1.056 1.2-1.708 1.51-.553.265-1.172.398-1.858.398-1.371 0-2.524-.451-3.459-1.352-.934-.901-1.402-2.054-1.402-3.459 0-1.205.399-2.256 1.195-3.152.907-1.028 2.118-1.543 3.633-1.543.851 0 1.562.152 2.131.457.57.304 1.048.749 1.435 1.335l.033-1.576h1.161v9.074zm-1.161-4.479c0-1.028-.342-1.902-1.028-2.621-.686-.719-1.543-1.078-2.571-1.078-.996 0-1.844.351-2.547 1.053-.702.703-1.053 1.579-1.053 2.63 0 1.017.357 1.871 1.07 2.563a3.553 3.553 0 0 0 2.563 1.036c.984 0 1.825-.348 2.521-1.045.697-.696 1.045-1.542 1.045-2.538zm5.329-5.706h-1.227v-2.09h1.227v2.09zm0 10.185h-1.227v-9.074h1.227v9.074zm4.169 0h-1.228V99.171h1.228v12.276z" fill="#fff"/><defs><linearGradient id="paint0_linear" x1="76.649" y1="92.929" x2="78.259" y2=".003" gradientUnits="userSpaceOnUse"><stop stop-color="#F59E0D"/><stop offset=".18" stop-color="#F8CA29"/><stop offset=".529" stop-color="#FBD80A"/><stop offset="1" stop-color="#FCF645"/></linearGradient></defs></svg>