<svg width="50" height="50" viewBox="0 0 50 50" fill="none" xmlns="http://www.w3.org/2000/svg">
<g clip-path="url(#clip0)">
<path d="M3.12525 3.40244C-0.803914 7.48369 0.000252366 11.8191 0.000252366 24.9899C0.000252366 35.9274 -1.90808 46.892 8.07942 49.4733C11.1982 50.2754 38.8315 50.2754 41.9461 49.4691C46.1044 48.3962 49.4878 45.0233 49.9503 39.142C50.0148 38.3212 50.0148 11.6733 49.9482 10.8358C49.4565 4.57119 45.6003 0.960778 40.519 0.229528C39.3544 0.0607778 39.1211 0.0107778 33.1461 0.000361137C11.9523 0.0107778 7.3065 -0.932972 3.12525 3.40244Z" fill="url(#paint0_linear)"/>
<path d="M24.9953 6.53979C17.4307 6.53979 10.2474 5.86687 7.50364 12.9085C6.3703 15.8169 6.53489 19.594 6.53489 25.0023C6.53489 29.7481 6.3828 34.2085 7.50364 37.094C10.2411 44.1398 17.4828 43.4648 24.9911 43.4648C32.2349 43.4648 39.7036 44.219 42.4807 37.094C43.6161 34.1565 43.4495 30.4356 43.4495 25.0023C43.4495 17.7898 43.8474 13.1335 40.3495 9.63771C36.8078 6.09604 32.0182 6.53979 24.987 6.53979H24.9953ZM23.3411 9.86687C39.1203 9.84187 41.1286 8.08771 40.0203 32.4565C39.6266 41.0752 33.0641 40.1294 24.9974 40.1294C10.2891 40.1294 9.86614 39.7085 9.86614 24.994C9.86614 10.1085 11.0328 9.87521 23.3411 9.86271V9.86687ZM34.8495 12.9315C33.6266 12.9315 32.6349 13.9231 32.6349 15.146C32.6349 16.369 33.6266 17.3606 34.8495 17.3606C36.0724 17.3606 37.0641 16.369 37.0641 15.146C37.0641 13.9231 36.0724 12.9315 34.8495 12.9315ZM24.9953 15.521C19.7599 15.521 15.5161 19.7669 15.5161 25.0023C15.5161 30.2377 19.7599 34.4815 24.9953 34.4815C30.2307 34.4815 34.4724 30.2377 34.4724 25.0023C34.4724 19.7669 30.2307 15.521 24.9953 15.521ZM24.9953 18.8481C33.1307 18.8481 33.1411 31.1565 24.9953 31.1565C16.862 31.1565 16.8495 18.8481 24.9953 18.8481Z" fill="white"/>
</g>
<defs>
<linearGradient id="paint0_linear" x1="3.22113" y1="46.8068" x2="49.6908" y2="6.58781" gradientUnits="userSpaceOnUse">
<stop stop-color="#FFDD55"/>
<stop offset="0.5" stop-color="#FF543E"/>
<stop offset="1" stop-color="#C837AB"/>
</linearGradient>
<clipPath id="clip0">
<rect width="50" height="50" fill="white"/>
</clipPath>
</defs>
</svg>
