<svg fill="none" xmlns="http://www.w3.org/2000/svg" viewBox="0 0 30 24">
  <path d="M29.3139 2.96629c-1.0713.47506-2.2237.79637-3.4323.93987 1.234-.73933 2.181-1.90915 2.628-3.305364-1.1547.684964-2.4342 1.181854-3.7947 1.449694C23.6248.889576 22.0718.164062 20.352.164062c-3.2995 0-5.9756 2.676108-5.9756 5.975678 0 .46838.053.92427.1555 1.3619-4.96625-.24912-9.36967-2.62798-12.31716-6.24441-.51428.88239-.80929 1.9096-.80929 3.00456 0 2.0727 1.05573 3.90253 2.65827 4.97386-.97908-.03075-1.90112-.29947-2.7064-.74824-.00045.0254-.00045.0508-.00045.07576 0 2.89533 2.06066 5.31033 4.7938 5.85893-.5009.1373-1.02988.2099-1.57402.2099-.38592 0-.75982-.037-1.12436-.1065.76027 2.3735 2.96666 4.1013 5.58215 4.1498-2.04551 1.603-4.62178 2.5581-7.42221 2.5581-.4813 0-.95814-.0281-1.42473-.0838 2.64312 1.6961 5.78491 2.685 9.15933 2.685 10.99137 0 17.00227-9.1055 17.00227-17.00277 0-.25892-.0058-.51695-.0174-.77275 1.1685-.84227 2.1814-1.89444 2.9822-3.09279z" fill="#F1F2F2"/>
</svg>
