<svg fill="none" xmlns="http://www.w3.org/2000/svg" viewBox="0 0 34 20">
  <path fill-rule="evenodd" clip-rule="evenodd" d="M17.0562 18.9634h1.9622s.5927-.065.8953-.3913c.2785-.2994.2696-.8618.2696-.8618s-.0383-2.6329 1.1836-3.0207c1.2046-.3819 2.7515 2.5447 4.391 3.67 1.2398.8516 2.1819.6649 2.1819.6649l4.3839-.0611s2.2933-.1412 1.2059-1.9443c-.0891-.1476-.6333-1.3339-3.2595-3.7716-2.7487-2.5513-2.3806-2.1387.9305-6.55196 2.0166-2.68773 2.8228-4.32862 2.571-5.03141-.2402-.669368-1.7233-.49244-1.7233-.49244l-4.9361.03075s-.3658-.04992-.6372.1123c-.2652.1591-.4359.52988-.4359.52988s-.7812 2.07985-1.8231 3.84865c-2.198 3.73233-3.0768 3.92931-3.436 3.69757-.8356-.54013-.627-2.16988-.627-3.32768 0-3.61691.5486-5.124995-1.0682-5.515385-.5366-.129685-.9314-.21525-2.3036-.229065-1.7612-.018272-3.2519.005347-4.0959.418911-.5616.274969-.9947.887739-.7309.922949.3262.04367 1.0651.1992 1.4568.73265.5058.68808.488 2.2336.488 2.2336s.2906 4.25776-.6787 4.78675c-.6654.36276-1.5781-.37792-3.53758-3.76398-1.00404-1.73447-1.76209-3.65167-1.76209-3.65167s-.14617-.3583-.40688-.54993c-.31641-.23219-.75849-.30616-.75849-.30616L2.065 1.17258s-.70412.01961-.9626.32577c-.229951.27229-.01827.8356-.01827.8356S4.75628 10.9252 8.91418 15.2547c3.81252 3.9694 8.14202 3.7087 8.14202 3.7087z" fill="#fff"/>
</svg>
